<svg width="1366" height="122" viewBox="0 0 1366 122" fill="none" xmlns="http://www.w3.org/2000/svg">
<g clip-path="url(#clip0)">
<path d="M1409 85.4L1361 71.1794C1313 56.8063 1217 28.5938 1121 18.3C1025 8.00626 929 16.3938 833 28.4794C737 40.7938 641 56.8063 545 65.0794C449 73.2 353 73.2 257 71.1794C161 69.0063 65 65.1938 17 63.0206L-31 61V122H17C65 122 161 122 257 122C353 122 449 122 545 122C641 122 737 122 833 122C929 122 1025 122 1121 122C1217 122 1313 122 1361 122H1409V85.4Z" fill="#F3F4FF"/>
</g>
<defs>
<clipPath id="clip0">
<rect width="1440" height="122" fill="white" transform="matrix(-1 0 0 1 1409 0)"/>
</clipPath>
</defs>
</svg>
