<?xml version="1.0" standalone="no"?><svg xmlns="http://www.w3.org/2000/svg" viewBox="0 0 1440 320"><path fill="#0099ff" fill-opacity="0.2" d="M0,224L40,197.3C80,171,160,117,240,85.3C320,53,400,43,480,74.7C560,107,640,181,720,208C800,235,880,213,960,181.3C1040,149,1120,107,1200,122.7C1280,139,1360,213,1400,250.7L1440,288L1440,320L1400,320C1360,320,1280,320,1200,320C1120,320,1040,320,960,320C880,320,800,320,720,320C640,320,560,320,480,320C400,320,320,320,240,320C160,320,80,320,40,320L0,320Z"></path></svg>