<svg width="1366" height="645" viewBox="0 0 1366 645" fill="none" xmlns="http://www.w3.org/2000/svg">
<g clip-path="url(#clip0)">
<path d="M1100.12 -127.644C880.753 -314.171 558.958 -401.934 359.552 -362.871C157.5 -302.657 -30.9871 -140.352 -78.3231 62.977C-100.923 259.654 104.963 652.75 536.185 644.05C762.885 626.994 949.16 385.2 1099.08 196.028C1203.57 57.178 1194.02 -37.067 1100.12 -127.644Z" fill="#667CEC"/>
<path d="M145 604C152.18 604 158 598.18 158 591C158 583.82 152.18 578 145 578C137.82 578 132 583.82 132 591C132 598.18 137.82 604 145 604Z" fill="#667CEC"/>
<path d="M15 612C22.1797 612 28 606.18 28 599C28 591.82 22.1797 586 15 586C7.8203 586 2 591.82 2 599C2 606.18 7.8203 612 15 612Z" fill="#667CEC"/>
<path d="M229.5 629C234.194 629 238 625.194 238 620.5C238 615.806 234.194 612 229.5 612C224.806 612 221 615.806 221 620.5C221 625.194 224.806 629 229.5 629Z" fill="#667CEC"/>
</g>
<defs>
<clipPath id="clip0">
<rect width="1944.44" height="1016.19" fill="white" transform="translate(-80 -372)"/>
</clipPath>
</defs>
</svg>
