<svg width="482" height="343" viewBox="0 0 482 343" fill="none" xmlns="http://www.w3.org/2000/svg">
<path d="M240.627 100.551L258.968 103.78L265.082 73.1043L250.307 66.6462L240.627 100.551Z" fill="#2F2E41"/>
<path d="M262.681 105.457L281.023 108.686L287.136 78.0106L272.362 71.5525L262.681 105.457Z" fill="#2F2E41"/>
<path d="M284.532 302.869V315.624H293.844L292.864 303.359L284.532 302.869Z" fill="#A0616A"/>
<path d="M236.012 302.869V315.624H226.7L227.68 303.359L236.012 302.869Z" fill="#A0616A"/>
<path d="M239.443 184.635L231.997 230.063C230.102 241.629 228.957 253.307 228.57 265.022L227.19 306.793L236.992 305.812L244.344 258.224C244.344 258.224 263.458 187.578 270.319 201.806C277.181 216.033 280.612 261.168 280.612 261.168L283.552 305.321H294.335L295.315 247.431C295.315 247.431 301.196 166.483 286.493 159.614L239.443 184.635Z" fill="#2F2E41"/>
<path d="M294.825 313.662C294.825 313.662 284.042 306.303 283.062 312.19L279.141 326.417C279.141 326.417 273.26 337.701 286.003 337.701C298.745 337.701 294.825 329.361 294.825 329.361V313.662Z" fill="#2F2E41"/>
<path d="M225.72 313.662C225.72 313.662 236.502 306.303 237.483 312.19L241.403 326.417C241.403 326.417 247.285 337.701 234.542 337.701C221.799 337.701 225.72 329.361 225.72 329.361V313.662Z" fill="#2F2E41"/>
<path d="M266.644 94.1196C274.493 94.1196 280.857 87.7499 280.857 79.8923C280.857 72.0348 274.493 65.665 266.644 65.665C258.794 65.665 252.431 72.0348 252.431 79.8923C252.431 87.7499 258.794 94.1196 266.644 94.1196Z" fill="#A0616A"/>
<path d="M257.577 86.0248C257.577 86.0248 259.047 99.7615 251.695 102.705L263.948 117.423L280.122 106.139C280.122 106.139 268.359 103.686 270.319 96.8179C272.28 89.9495 272.28 88.9684 272.28 88.9684L257.577 86.0248Z" fill="#A0616A"/>
<path d="M254.391 100.988C254.391 100.988 264.683 108.838 266.644 108.347C268.604 107.856 272.525 102.46 272.525 102.46C272.525 102.46 286.983 102.705 292.864 106.63C298.745 110.555 287.228 134.839 287.228 134.839C287.228 134.839 290.414 145.878 286.493 148.821C282.572 151.765 287.473 159.124 287.473 159.124C287.473 159.124 277.671 177.276 251.696 184.144C251.696 184.144 235.522 190.522 236.012 187.088C236.502 183.654 241.403 144.406 241.403 144.406V103.686L254.391 100.988Z" fill="#575A89"/>
<path d="M254.383 62.9803C254.383 62.9803 246.96 65.4569 246.583 75.2376C246.545 76.8019 246.718 78.3642 247.099 79.882C247.517 81.655 247.785 85.47 244.546 90.4555C242.377 93.7469 240.396 97.1585 238.612 100.674L238.589 100.72L246.74 101.74L248.474 88.2145C249.314 81.6569 251.114 75.2588 253.817 69.2262L253.873 69.1003C253.873 69.1003 257.44 75.7303 264.572 75.7303L262.025 73.1803C262.025 73.1803 273.234 77.7703 277.31 77.7703C277.31 77.7703 280.367 79.8103 277.31 82.8703C274.253 85.9302 268.139 93.0702 271.705 98.6802C275.272 104.29 272.215 105.82 272.215 105.82L277.819 102.76L280.367 101.23V103.27L293.613 101.74C293.613 101.74 297.18 101.23 289.537 92.5603C289.537 92.5603 287.519 89.1934 288.402 86.2896C289.128 84.0827 289.318 81.7347 288.958 79.4395C287.246 69.8787 280.529 50.8706 254.383 62.9803Z" fill="#2F2E41"/>
<path d="M198.637 185.861H332.026V259.869H315.083V280.222L296.83 259.869H198.637V185.861Z" fill="#667CEC"/>
<path d="M220.509 211.61H310.154V207.601H220.509V211.61Z" fill="white"/>
<path d="M220.509 224.87H310.154V220.861H220.509V224.87Z" fill="white"/>
<path d="M220.509 238.13H310.154V234.121H220.509V238.13Z" fill="white"/>
<path d="M231.111 142.934L232.582 153.727L243.364 183.653C243.364 183.653 245.814 206.712 251.696 203.768C257.577 200.824 250.715 180.219 250.715 180.219L241.894 152.255L242.384 142.443L231.111 142.934Z" fill="#A0616A"/>
<path d="M247.285 104.668L242.864 103.225L240.913 104.177C240.913 104.177 234.052 104.668 233.072 109.573C232.091 114.479 228.661 144.896 228.661 144.896L246.794 145.878L247.285 104.668Z" fill="#575A89"/>
<path d="M296.54 142.934L295.07 153.727L284.287 183.653C284.287 183.653 281.837 206.712 275.956 203.768C270.074 200.824 276.936 180.219 276.936 180.219L285.758 152.255L285.268 142.443L296.54 142.934Z" fill="#A0616A"/>
<path d="M280.367 104.667L282.724 103.898C284.047 103.466 285.487 103.566 286.738 104.177C286.738 104.177 293.599 104.667 294.58 109.573C295.56 114.479 298.991 144.896 298.991 144.896L280.857 145.878L280.367 104.667Z" fill="#575A89"/>
<path d="M180.892 9.42798H0V109.793H22.977V137.393L47.7297 109.793H180.892V9.42798Z" fill="#667CEC"/>
<path d="M151.231 38.9103H29.6613V44.3467H151.231V38.9103Z" fill="white"/>
<path d="M151.231 56.8923H29.6613V62.3287H151.231V56.8923Z" fill="white"/>
<path d="M151.231 74.8743H29.6613V80.3107H151.231V74.8743Z" fill="white"/>
<path d="M19.5806 150.355C22.2815 150.355 24.471 148.164 24.471 145.46C24.471 142.756 22.2815 140.565 19.5806 140.565C16.8797 140.565 14.6901 142.756 14.6901 145.46C14.6901 148.164 16.8797 150.355 19.5806 150.355Z" fill="#E6E6E6"/>
</svg>
