<svg width="461" height="341" viewBox="0 0 461 341" fill="none" xmlns="http://www.w3.org/2000/svg">
<path d="M383.041 297.275C383.041 297.275 387.076 311.189 389.766 314.78C392.456 318.371 394.697 324.206 393.352 325.104C392.007 326.002 389.317 336.774 392.904 337.223C396.491 337.672 404.56 325.553 405.009 321.513C405.457 317.473 407.25 303.11 407.25 303.11C407.25 303.11 410.388 290.542 405.457 289.644C400.525 288.746 392.904 288.297 392.904 288.297L383.041 297.275Z" fill="#2F2E41"/>
<path d="M364.212 312.087C364.212 312.087 358.384 327.348 357.039 328.246C355.694 329.144 350.762 337.223 360.625 337.223C370.488 337.223 375.868 334.53 375.868 334.53L379.006 330.939C379.006 330.939 379.006 321.513 378.11 320.166C377.213 318.82 378.11 312.087 378.11 312.087L364.212 312.087Z" fill="#2F2E41"/>
<path d="M324.312 172.492C324.312 172.492 317.138 220.969 323.415 236.679C329.691 252.389 335.968 256.877 335.968 256.877L383.489 301.314C383.489 301.314 398.284 293.684 396.939 288.746C396.939 288.746 393.801 286.951 393.352 285.604C392.904 284.258 387.076 283.809 387.076 283.809C387.076 283.809 384.386 280.667 384.386 278.871C384.386 277.076 361.074 245.207 353.452 242.963C353.452 242.963 349.417 238.025 349.866 237.127C350.314 236.23 348.521 233.088 348.521 233.088L353.004 215.582L381.248 211.094C381.248 211.094 392.904 169.799 383.041 166.657C373.178 163.515 324.312 172.492 324.312 172.492Z" fill="#2F2E41"/>
<path d="M380.351 203.912L381.248 211.094C381.248 211.094 381.248 229.946 380.351 231.741C379.454 233.537 379.006 236.23 380.351 238.025C381.696 239.821 383.938 244.309 383.041 246.105C382.144 247.9 384.834 298.621 381.248 302.212C377.661 305.803 379.006 310.291 379.455 310.74C379.903 311.189 379.006 312.985 379.006 312.985C379.006 312.985 360.625 316.127 361.97 312.985C363.315 309.843 363.315 308.047 364.212 307.149C365.108 306.252 364.212 304.905 364.212 304.905C364.212 304.905 365.557 290.542 364.212 289.644C362.867 288.746 358.832 245.656 358.832 245.207C358.832 244.758 357.487 243.86 357.487 242.065C357.487 240.269 357.487 234.434 355.245 233.537C353.004 232.639 353.452 210.645 353.452 210.645L380.351 203.912Z" fill="#2F2E41"/>
<path d="M348.521 43.6692C348.521 43.6692 350.314 57.135 355.694 59.8281C361.074 62.5213 364.66 63.8679 364.66 63.8679L360.177 79.5779L358.384 93.0437L337.761 93.0437L326.553 84.0665L330.14 69.2542L331.933 66.561C331.933 66.561 334.175 56.6861 332.381 53.5441C330.588 50.4021 348.521 43.6692 348.521 43.6692Z" fill="#FFB9B9"/>
<path d="M339.554 76.4358L342.693 82.2709C342.693 82.2709 344.934 74.1915 348.072 72.8449C351.211 71.4983 358.832 69.254 358.832 67.4586C358.832 65.6632 358.384 61.1746 360.177 61.1746C361.97 61.1746 379.454 66.5609 382.144 68.3563C384.834 70.1517 385.283 71.9472 385.283 71.9472L380.351 123.566C380.351 123.566 387.524 147.804 385.283 157.23C383.041 166.656 381.248 168.003 375.868 169.35C370.488 170.696 373.626 166.208 357.935 170.696C342.244 175.185 332.381 173.838 328.795 173.838C325.208 173.838 322.967 175.634 322.07 176.083C321.173 176.531 321.622 173.838 324.76 169.798C327.898 165.759 326.553 159.026 326.553 159.026C326.553 159.026 322.967 147.356 325.208 142.867C327.45 138.378 330.588 132.543 327.898 130.748C325.208 128.952 321.622 115.487 321.622 115.487L311.759 80.4755L331.933 66.5609C331.933 66.5609 331.036 72.8449 334.174 74.1915C337.313 75.5381 339.554 76.4358 339.554 76.4358Z" fill="#575A89"/>
<path d="M314.449 80.0266L311.759 80.0266C311.759 80.0266 307.276 87.6572 307.276 93.0435C307.276 98.4298 309.517 128.952 309.517 128.952L322.518 142.418L325.657 132.094L326.553 109.202L314.449 80.0266Z" fill="#575A89"/>
<path d="M321.622 127.606C321.622 127.606 306.827 123.566 307.276 129.85C307.724 136.134 309.965 143.765 317.138 145.56C324.312 147.355 326.553 137.481 326.553 137.481C326.553 137.481 327.45 128.503 321.622 127.606Z" fill="#575A89"/>
<path d="M377.213 148.253C377.213 148.253 376.316 168.901 370.936 171.145L383.938 174.287C383.938 174.287 390.214 152.742 389.317 151.844C388.421 150.946 377.213 148.253 377.213 148.253Z" fill="#FFB9B9"/>
<path d="M300.317 106.225L308.017 102.858C308.304 102.732 308.63 102.726 308.922 102.84C309.214 102.955 309.449 103.181 309.574 103.469L318.134 123.086C318.287 123.438 318.295 123.836 318.155 124.193C318.015 124.551 317.739 124.838 317.388 124.991L310.169 128.149C309.818 128.302 309.42 128.31 309.063 128.17C308.706 128.03 308.42 127.754 308.266 127.402L299.707 107.785C299.645 107.642 299.611 107.489 299.608 107.333C299.605 107.178 299.633 107.023 299.689 106.878C299.746 106.733 299.831 106.601 299.938 106.489C300.046 106.377 300.175 106.287 300.317 106.225Z" fill="#2F2E41"/>
<path opacity="0.1" d="M300.317 106.225L308.017 102.858C308.304 102.732 308.63 102.726 308.922 102.84C309.214 102.955 309.449 103.181 309.574 103.469L318.134 123.086C318.287 123.438 318.295 123.836 318.155 124.193C318.015 124.551 317.739 124.838 317.388 124.991L310.169 128.149C309.818 128.302 309.42 128.31 309.063 128.17C308.706 128.03 308.42 127.754 308.266 127.402L299.707 107.785C299.645 107.642 299.611 107.489 299.608 107.333C299.605 107.178 299.633 107.023 299.689 106.878C299.746 106.733 299.831 106.601 299.938 106.489C300.046 106.377 300.175 106.287 300.317 106.225Z" fill="black"/>
<path d="M300.754 107.226L307.467 104.29C307.754 104.165 308.08 104.158 308.372 104.273C308.664 104.388 308.899 104.614 309.025 104.902L317.147 123.518C317.3 123.869 317.308 124.268 317.168 124.625C317.028 124.982 316.752 125.269 316.401 125.423L310.169 128.149C309.818 128.302 309.42 128.31 309.063 128.17C308.706 128.03 308.42 127.754 308.266 127.402L300.144 108.786C300.018 108.498 300.012 108.172 300.126 107.879C300.241 107.587 300.467 107.352 300.754 107.226Z" fill="#2F2E41"/>
<path d="M306.927 115.167C308.017 114.69 308.51 113.407 308.027 112.301C307.544 111.195 306.27 110.685 305.18 111.162C304.09 111.639 303.597 112.922 304.08 114.028C304.563 115.134 305.837 115.644 306.927 115.167Z" fill="#F2F2F2"/>
<path opacity="0.1" d="M380.575 78.0068L383.489 73.7427C383.489 73.7427 394.249 90.3505 393.352 101.572C392.456 112.793 391.559 113.242 391.559 115.038C391.559 116.833 389.318 116.833 391.559 119.077C393.801 121.322 396.939 124.464 395.146 126.259C393.352 128.055 392.007 128.055 392.456 130.299C392.742 131.929 392.892 133.581 392.904 135.236C392.904 135.236 389.093 142.643 387.748 142.643C386.403 142.643 373.626 154.537 373.626 153.191C373.626 151.844 374.971 142.418 374.971 141.072C374.971 139.725 375.42 135.236 376.316 133.89C377.213 132.543 377.213 132.992 376.316 131.646C375.42 130.299 375.42 131.646 375.42 130.299C375.42 128.952 375.868 127.157 374.523 126.708C373.178 126.259 371.833 126.708 372.73 124.464C373.626 122.219 372.73 120.424 372.281 120.424C371.833 120.424 369.592 119.975 370.937 118.629C372.281 117.282 368.247 91.2482 368.247 91.2482C368.247 91.2482 368.919 84.7397 380.575 78.0068Z" fill="black"/>
<path d="M378.11 68.3562L385.731 71.9471C385.731 71.9471 396.49 88.5549 395.594 99.7763C394.697 110.998 393.801 111.447 393.801 113.242C393.801 115.038 391.559 115.038 393.801 117.282C396.042 119.526 399.18 122.668 397.387 124.464C395.594 126.259 394.249 126.259 394.697 128.503C394.984 130.134 395.134 131.785 395.146 133.441C395.146 133.441 391.111 154.986 389.766 154.986C388.421 154.986 375.868 152.742 375.868 151.395C375.868 150.049 377.213 140.623 377.213 139.276C377.213 137.929 377.661 133.441 378.558 132.094C379.455 130.748 379.455 131.196 378.558 129.85C377.661 128.503 377.661 129.85 377.661 128.503C377.661 127.157 378.11 125.361 376.765 124.912C375.42 124.464 374.075 124.912 374.971 122.668C375.868 120.424 374.971 118.628 374.523 118.628C374.075 118.628 371.833 118.18 373.178 116.833C374.523 115.486 370.488 89.4526 370.488 89.4526C370.488 89.4526 366.453 75.0891 378.11 68.3562Z" fill="#575A89"/>
<path d="M310.082 130.812C309.665 130.922 309.222 130.886 308.828 130.708C308.434 130.53 308.114 130.222 307.921 129.835C305.861 125.711 300.279 113.614 305.482 113.242C310.283 112.899 314.559 122.271 316.304 126.698C316.415 126.979 316.466 127.281 316.452 127.583C316.438 127.885 316.36 128.18 316.224 128.45C316.087 128.72 315.895 128.958 315.66 129.148C315.425 129.338 315.153 129.476 314.861 129.553L310.082 130.812Z" fill="#FFB9B9"/>
<path d="M335.968 56.2371C345.129 56.2371 352.555 48.8015 352.555 39.6293C352.555 30.457 345.129 23.0215 335.968 23.0215C326.807 23.0215 319.38 30.457 319.38 39.6293C319.38 48.8015 326.807 56.2371 335.968 56.2371Z" fill="#FFB9B9"/>
<path d="M329.873 30.0645C327.803 30.7795 325.666 31.2844 323.496 31.5716C321.862 31.8268 319.95 31.9575 318.802 30.7663C317.675 29.5973 317.858 27.6472 318.626 26.2164C319.395 24.7856 320.626 23.6639 321.55 22.3281C323.002 20.2273 323.859 17.4422 326.182 16.3839C327.145 16.015 328.166 15.8239 329.197 15.8201C335.225 15.4353 341.499 15.0887 347.081 17.398C349.178 18.198 351.036 19.5218 352.479 21.2433C353.423 22.511 354.152 23.9263 354.636 25.4321C356.128 29.8628 356.46 34.6025 355.6 39.1982C354.74 43.7938 352.717 48.0919 349.724 51.6814C347.69 49.8463 348.574 45.606 346 44.6709C345.156 44.3642 344.201 44.5776 343.336 44.3348C340.618 43.5716 340.754 39.3652 338.491 37.6751C337.997 37.4088 337.559 37.0487 337.202 36.6148C337.003 36.1987 336.917 35.7376 336.952 35.2776C336.935 33.7018 337.674 29.699 336.173 28.6189C334.645 27.5195 331.341 29.5335 329.873 30.0645Z" fill="#2F2E41"/>
<path d="M35.5363 88.4397L236.569 88.4397L236.569 154.515L228.954 154.515L228.954 171.796L211.694 154.515L35.5363 154.515L35.5363 88.4397Z" fill="#667CEC"/>
<path d="M230.985 94.8743L41.1204 94.8743L41.1204 147.735L230.985 147.735L230.985 94.8743Z" fill="white"/>
<path d="M147.803 110.307L56.3884 110.307L56.3884 113.085L147.803 113.085L147.803 110.307Z" fill="#667CEC"/>
<path d="M215.717 119.916L56.3884 119.916L56.3884 122.693L215.717 122.693L215.717 119.916Z" fill="#E6E6E6"/>
<path d="M215.561 129.524L56.3884 129.524L56.3884 132.302L215.561 132.302L215.561 129.524Z" fill="#E6E6E6"/>
<path d="M201.033 176.879L-6.10352e-05 176.879L-6.03634e-05 242.955L7.61487 242.955L7.61487 260.236L24.8751 242.955L201.033 242.955L201.033 176.879Z" fill="#667CEC"/>
<path d="M195.449 183.314L5.58417 183.314L5.58417 236.174L195.449 236.174L195.449 183.314Z" fill="white"/>
<path d="M113.79 199.255L22.3752 199.255L22.3752 202.033L113.79 202.033L113.79 199.255Z" fill="#667CEC"/>
<path d="M181.704 208.864L22.3752 208.864L22.3752 211.641L181.704 211.641L181.704 208.864Z" fill="#E6E6E6"/>
<path d="M181.548 218.472L22.3752 218.472L22.3752 221.25L181.548 221.25L181.548 218.472Z" fill="#E6E6E6"/>
<path d="M201.033 -2.0438e-06L-6.10352e-05 0L-6.03634e-05 66.0755L7.61487 66.0755L7.61487 83.3571L24.8751 66.0755L201.033 66.0755L201.033 -2.0438e-06Z" fill="#667CEC"/>
<path d="M195.449 6.43457L5.58417 6.43457L5.58417 59.2951L195.449 59.2951L195.449 6.43457Z" fill="white"/>
<path d="M113.79 22.3757L22.3752 22.3757L22.3752 25.1533L113.79 25.1533L113.79 22.3757Z" fill="#667CEC"/>
<path d="M181.704 31.9844L22.3752 31.9844L22.3752 34.7619L181.704 34.7619L181.704 31.9844Z" fill="#E6E6E6"/>
<path d="M181.548 41.5928L22.3752 41.5928L22.3752 44.3703L181.548 44.3703L181.548 41.5928Z" fill="#E6E6E6"/>
</svg>
