<svg width="649" height="650" viewBox="0 0 649 650" fill="none" xmlns="http://www.w3.org/2000/svg">
<path d="M386.425 216.125C420.55 237.9 474.175 222.95 493.35 234.975C512.525 247 497.25 286 481.975 316.225C467.025 346.775 452.4 368.55 448.5 407.225C444.925 445.575 451.75 501.475 433.225 528.125C414.375 554.775 369.525 552.825 321.1 559.65C272.35 566.8 219.7 582.725 179.075 568.425C138.775 554.125 110.5 509.6 93.925 464.1C77.35 418.6 72.475 371.8 79.95 329.225C87.425 286.65 106.925 248.625 136.175 224.9C165.425 201.5 204.425 192.725 237.575 170.625C270.725 148.2 297.7 112.775 318.5 124.475C338.975 135.85 352.625 194.35 386.425 216.125Z" fill="#F3F4FF"/>
</svg>
