<!--?xml version="1.0" standalone="no"?-->
              <svg id="sw-js-blob-svg" viewBox="0 0 100 100" xmlns="http://www.w3.org/2000/svg" version="1.1">
                    <defs> 
                        <linearGradient id="sw-gradient" x1="0" x2="1" y1="1" y2="0">
                            <stop id="stop1" stop-color="rgba(250, 201, 33, 1)" offset="0%"></stop>
                            <stop id="stop2" stop-color="rgba(255, 255, 255, 1)" offset="100%"></stop>
                        </linearGradient>
                    </defs>
                <path fill="url(#sw-gradient)" d="M19.5,-22.6C26.8,-17.1,35.3,-12.4,37.5,-5.7C39.7,0.9,35.7,9.6,30,15.3C24.3,21,16.9,23.7,9.7,26.1C2.4,28.5,-4.7,30.7,-11,28.9C-17.2,27.2,-22.5,21.6,-28.2,14.8C-33.9,8,-40,-0.1,-39.1,-7.2C-38.2,-14.2,-30.1,-20.3,-22.4,-25.7C-14.7,-31.1,-7.4,-35.9,-0.6,-35.1C6.1,-34.4,12.2,-28.1,19.5,-22.6Z" width="100%" height="100%" transform="translate(50 50)" stroke-width="0" style="transition: all 0.3s ease 0s;"></path>
              </svg>