<svg width="758" height="803" viewBox="0 0 758 803" fill="none" xmlns="http://www.w3.org/2000/svg">
<path d="M481.366 173.046C510.274 201.954 520.713 251.339 536.372 293.095C552.432 334.449 573.711 367.774 589.37 410.333C604.627 452.49 613.46 503.882 585.756 525.162C558.454 546.441 494.616 538.01 450.049 533.593C405.884 528.775 380.991 527.571 353.689 532.389C325.986 537.608 295.873 548.449 272.988 540.82C250.504 532.79 235.648 506.291 214.77 480.194C193.892 453.695 166.992 427.597 149.727 391.462C132.463 355.327 124.433 309.155 147.72 286.671C170.605 264.187 224.808 265.793 264.556 242.907C304.706 220.423 330.402 173.849 367.34 154.577C404.278 135.707 452.057 144.138 481.366 173.046Z" fill="#F3F4FF"/>
</svg>
