<svg width="713" height="712" viewBox="0 0 713 712" fill="none" xmlns="http://www.w3.org/2000/svg">
<g clip-path="url(#clip0)">
<path d="M509.197 193.065C530.544 227.859 541.688 264.81 558.963 303.662C575.883 342.723 598.934 383.686 581.432 408.039C564.285 432.184 506.584 439.72 468.922 451.281C430.977 462.768 412.715 478.488 386.052 506.777C359.106 534.992 323.758 575.777 289.125 581.5C254.211 587.15 219.937 558.021 192.348 525.213C164.758 492.406 144.135 455.993 126.173 415.154C108.211 374.315 93.0583 328.484 112.806 298.993C132.553 269.501 187.066 255.71 230.331 256.156C273.388 256.246 304.99 270.218 335.578 245.363C366.165 220.508 395.666 157.109 425.946 141.513C456.3 125.635 487.85 158.271 509.197 193.065Z" fill="#F3F4FF"/>
</g>
<defs>
<clipPath id="clip0">
<rect width="583" height="583" fill="white" transform="translate(148.057) rotate(14.6268)"/>
</clipPath>
</defs>
</svg>
