<svg width="52" height="41" viewBox="0 0 52 41" fill="none" xmlns="http://www.w3.org/2000/svg">
<path d="M14.3355 7.75902C14.9618 8.85553 14.1582 10.5122 12.5391 11.4538C10.92 12.3954 9.08818 12.2762 8.46181 11.1797C7.83545 10.0832 8.63909 8.42646 10.2582 7.48489C11.8773 6.54332 13.7091 6.66251 14.3355 7.75902Z" fill="#003340"/>
<path d="M9.67907 9.4157C9.43089 9.11774 8.81634 8.02123 6.90179 4.58867L8.20179 3.59943C9.7027 5.10117 11.6172 7.07966 11.9363 7.3657C11.9836 7.4253 9.67907 9.4157 9.67907 9.4157Z" fill="#003340"/>
<path d="M9.4427 3.58836C9.4427 4.91133 8.37906 5.99592 7.05543 5.99592C5.74361 5.99592 4.66815 4.92324 4.66815 3.58836C4.66815 2.26539 5.73179 1.1808 7.05543 1.1808C8.37906 1.1808 9.4427 2.25348 9.4427 3.58836Z" fill="#F0F9FF"/>
<path opacity="0.46" d="M7.06723 1.17995C6.87814 1.17995 6.68905 1.20378 6.51178 1.23954C7.5636 1.48983 8.3436 2.44332 8.3436 3.57559C8.3436 4.70785 7.5636 5.66134 6.51178 5.91163C6.68905 5.95931 6.87814 5.97123 7.06723 5.97123C8.37905 5.97123 9.45451 4.89855 9.45451 3.56367C9.44269 2.25262 8.37905 1.17995 7.06723 1.17995Z" fill="#A3B6BF"/>
<path d="M6.51178 5.92356C8.98178 6.41222 10.3763 3.27763 8.49724 1.75204C7.9536 1.29914 7.20905 1.10844 6.51178 1.25146C7.94178 0.834311 9.5136 1.93082 9.52542 3.58751C9.5136 5.23228 7.9536 6.34071 6.51178 5.92356Z" fill="#003340"/>
<path opacity="0.46" d="M7.06723 3.39681C7.06723 3.94506 6.62995 4.38605 6.08632 4.38605C5.54268 4.38605 5.10541 3.94506 5.10541 3.39681C5.10541 2.84855 5.54268 2.40756 6.08632 2.40756C6.61814 2.39564 7.06723 2.84855 7.06723 3.39681Z" fill="#C7D8EA"/>
<path d="M38.0427 8.06892C37.4163 9.16543 38.22 10.8221 39.839 11.7637C41.4581 12.7053 43.29 12.5861 43.9163 11.4896C44.5427 10.393 43.739 8.73636 42.12 7.79479C40.489 6.8413 38.669 6.97241 38.0427 8.06892Z" fill="#003340"/>
<path d="M42.6991 9.71368C42.9472 9.41571 43.5618 8.3192 45.4763 4.88664L44.1763 3.8974C42.5927 5.49449 40.6072 7.52066 40.5127 7.58025C40.4891 7.58025 42.6991 9.71368 42.6991 9.71368Z" fill="#003340"/>
<path d="M42.9236 3.88548C42.9236 5.20844 43.9872 6.29304 45.3109 6.29304C46.6227 6.29304 47.6981 5.22036 47.6981 3.88548C47.6981 2.56251 46.6345 1.47792 45.3109 1.47792C43.999 1.48984 42.9236 2.56251 42.9236 3.88548Z" fill="#F0F9FF"/>
<path opacity="0.46" d="M45.3109 1.48985C45.4999 1.48985 45.689 1.51369 45.8663 1.54945C44.8145 1.79974 44.0345 2.75322 44.0345 3.88549C44.0345 5.01776 44.8145 5.97125 45.8663 6.22154C45.689 6.26921 45.4999 6.28113 45.3109 6.28113C43.999 6.28113 42.9236 5.20846 42.9236 3.87357C42.9236 2.56253 43.999 1.48985 45.3109 1.48985Z" fill="#A3B6BF"/>
<path d="M45.8664 6.22153C43.3964 6.71019 42.0018 3.5756 43.8809 2.05002C44.4245 1.59711 45.1691 1.40641 45.8664 1.54944C44.4364 1.13228 42.8645 2.2288 42.8527 3.88548C42.8645 5.53025 44.4127 6.6506 45.8664 6.22153Z" fill="#003340"/>
<path opacity="0.46" d="M45.3109 3.69478C45.3109 4.24304 45.7481 4.68402 46.2918 4.68402C46.8354 4.68402 47.2727 4.24304 47.2727 3.69478C47.2727 3.14652 46.8354 2.70554 46.2918 2.70554C45.7481 2.70554 45.3109 3.14652 45.3109 3.69478Z" fill="#C7D8EA"/>
<path d="M26 35.0288C39.8503 35.0288 51.0782 29.9435 51.0782 23.6704C51.0782 17.3973 39.8503 12.3119 26 12.3119C12.1497 12.3119 0.921814 17.3973 0.921814 23.6704C0.921814 29.9435 12.1497 35.0288 26 35.0288Z" fill="#003340"/>
<path d="M48.1591 28.998C47.71 29.3794 47.2254 29.7369 46.6936 30.0945C47.9936 26.3282 48.5609 22.1448 48.4191 18.5573C48.8327 18.9268 49.1991 19.3082 49.5181 19.6895C49.4945 22.6573 49.0572 25.9111 48.1591 28.998Z" fill="#F0F9FF"/>
<path d="M2.49361 19.6895C2.8127 19.2962 3.17906 18.9148 3.5927 18.5454C3.37997 22.1567 4.10088 26.4116 5.53088 30.2375C4.97542 29.88 4.46724 29.5105 3.99452 29.1291C3.00179 25.9826 2.48179 22.6692 2.49361 19.6895Z" fill="#F0F9FF"/>
<path d="M19.1809 39.7605C23.8254 39.105 28.5409 39.0096 33.2209 39.4744C43.999 40.5352 47.8281 24.2544 46.2918 16.0663C45.5118 11.8948 40.8909 8.90321 37.0027 7.97356C29.9354 6.29304 22.3954 6.18577 15.2927 7.68751C11.4872 8.5099 7.71722 11.1082 6.22813 14.8506C3.14359 22.6692 8.66268 41.2384 19.1809 39.7605Z" fill="#F0F9FF"/>
<path opacity="0.46" d="M6.24 14.8506C6.97273 12.9913 8.26091 11.418 9.84455 10.2023C9.31273 10.9174 8.87546 11.6922 8.54455 12.5265C5.44819 20.3451 10.9673 38.9143 21.4855 37.4363C26.13 36.7808 30.8455 36.6855 35.5255 37.1503C38.0782 37.4006 40.2409 36.6736 42.0373 35.3148C39.8982 38.0919 36.9791 39.8439 33.2209 39.4744C28.5409 39.0096 23.8255 39.1169 19.1809 39.7605C8.66273 41.2384 3.14364 22.6692 6.24 14.8506Z" fill="#A3B6BF"/>
<path d="M35.5727 14.1593C29.2027 13.6587 22.8091 13.6587 16.4509 14.1593C6.24 14.9579 2.73 31.9776 21.19 34.5282C27.0518 35.3387 34.0836 34.9096 39.2127 31.7035C47.2491 26.6738 44.3773 14.8506 35.5727 14.1593Z" fill="#A2BFDC"/>
<path d="M26.2955 34.5997C24.6291 34.5997 22.9155 34.4805 21.2255 34.2422C11.5346 32.9073 8.21368 27.6154 8.34368 23.1221C8.47368 18.5215 11.9719 14.791 16.4628 14.4334C19.6182 14.1831 22.8328 14.0639 26 14.0639C29.1673 14.0639 32.3819 14.1951 35.5373 14.4334C39.39 14.7314 42.4628 17.3892 43.3846 21.1913C44.3419 25.184 42.6519 29.2125 39.0473 31.4651C34.911 34.0515 29.8291 34.5997 26.2955 34.5997Z" fill="#3136A8"/>
<g opacity="0.34">
<path opacity="0.34" d="M27.7845 10.0355C27.8909 11.0128 30.8218 11.4776 34.2609 11.9305C37.7118 12.3477 40.6545 12.6218 40.9972 11.7041C41.34 10.8102 38.5982 8.92705 34.6863 8.45031C30.7863 7.93781 27.6663 9.08199 27.7845 10.0355Z" fill="#A2BFDC"/>
</g>
<path d="M26.0946 31.9419C22.4073 31.9419 19.2873 29.0218 18.8382 25.1602C18.8028 24.8622 19.0155 24.6 19.2991 24.5642C19.5946 24.5285 32.5828 24.5285 32.8782 24.5642C33.1737 24.6 33.3746 24.8622 33.3391 25.1602C32.9019 29.0218 29.7819 31.9419 26.0946 31.9419Z" fill="white"/>
<path d="M17.8572 19.3916C17.8572 20.0352 17.3372 20.5477 16.7109 20.5477C16.0727 20.5477 15.5645 20.0233 15.5645 19.3916C15.5645 18.748 16.0845 18.2355 16.7109 18.2355C17.3372 18.2355 17.8572 18.748 17.8572 19.3916Z" fill="white"/>
<path d="M36.6364 19.3916C36.6364 20.0352 36.1164 20.5477 35.49 20.5477C34.8518 20.5477 34.3436 20.0233 34.3436 19.3916C34.3436 18.748 34.8636 18.2355 35.49 18.2355C36.1282 18.2355 36.6364 18.748 36.6364 19.3916Z" fill="white"/>
</svg>
