<svg width="706" height="712" viewBox="0 0 706 712" fill="none" xmlns="http://www.w3.org/2000/svg">
<g clip-path="url(#clip0)">
<path d="M509.197 193.065C530.544 227.859 541.688 264.81 558.963 303.662C575.883 342.723 598.934 383.686 581.432 408.039C564.285 432.184 506.584 439.72 468.922 451.281C430.977 462.768 412.715 478.488 386.052 506.777C359.106 534.992 323.758 575.777 289.126 581.5C254.211 587.15 219.937 558.021 192.348 525.213C164.758 492.406 144.135 455.993 126.173 415.154C108.211 374.315 93.0583 328.484 112.806 298.993C132.553 269.501 187.066 255.71 230.331 256.156C273.388 256.246 304.99 270.218 335.578 245.363C366.165 220.508 395.666 157.109 425.946 141.513C456.3 125.635 487.85 158.271 509.197 193.065Z" fill="#F3F4FF"/>
</g>
<g clip-path="url(#clip1)">
<path d="M274.111 446.295C272.058 448.308 270.884 451.05 270.842 453.925C270.8 456.799 271.895 459.574 273.888 461.646L342.851 533.028C343.853 534.066 345.053 534.894 346.379 535.464C347.704 536.034 349.13 536.335 350.573 536.349C352.017 536.363 353.448 536.09 354.785 535.545C356.121 535.001 357.336 534.196 358.359 533.177L568.795 323.638C569.944 322.493 570.823 321.106 571.368 319.577C571.912 318.049 572.108 316.418 571.941 314.805C571.775 313.191 571.249 311.635 570.404 310.25C569.558 308.866 568.414 307.687 567.055 306.802L484.307 252.902C482.238 251.54 479.764 250.929 477.298 251.172C474.833 251.415 472.525 252.496 470.761 254.235L274.111 446.295Z" fill="#3F3D56"/>
<path d="M570.238 309.985C569.82 310.626 569.336 311.222 568.795 311.762L358.854 525.26C357.831 526.279 356.616 527.084 355.279 527.628C353.943 528.173 352.511 528.446 351.068 528.432C349.625 528.418 348.199 528.117 346.873 527.547C345.547 526.977 344.348 526.149 343.345 525.111L272.898 450.761C272.418 450.262 271.987 449.718 271.611 449.137C268.91 453.294 270.307 457.94 273.888 461.647L342.851 533.028C343.853 534.066 345.053 534.894 346.378 535.464C347.704 536.034 349.13 536.335 350.573 536.349C352.017 536.363 353.448 536.09 354.785 535.545C356.121 535.001 357.336 534.196 358.359 533.178L568.795 323.638C570.566 321.873 571.676 319.553 571.939 317.067C572.201 314.581 571.601 312.081 570.238 309.985Z" fill="#667CEC"/>
<path d="M550.753 312.567L542.19 307.107C543.092 308.715 543.423 310.58 543.13 312.4C542.836 314.22 541.935 315.886 540.574 317.129C539.212 318.371 537.47 319.116 535.631 319.241C533.792 319.367 531.965 318.866 530.447 317.821L475.031 279.72C473.772 278.855 472.78 277.654 472.17 276.253C471.56 274.852 471.356 273.308 471.58 271.797C471.805 270.286 472.45 268.868 473.441 267.705C474.433 266.543 475.731 265.682 477.187 265.221L472.775 262.408C472.203 262.043 471.523 261.885 470.848 261.961C470.173 262.037 469.545 262.342 469.068 262.825L282.646 446.04C282.368 446.321 282.149 446.656 282.002 447.023C281.855 447.39 281.783 447.783 281.79 448.179C281.797 448.575 281.883 448.965 282.043 449.327C282.203 449.689 282.434 450.015 282.721 450.287L350.425 516.261C350.986 516.79 351.732 517.08 352.503 517.07C353.274 517.059 354.011 516.748 354.557 516.204L551.253 317.174C551.568 316.86 551.809 316.479 551.957 316.06C552.105 315.64 552.157 315.193 552.109 314.751C552.061 314.308 551.914 313.883 551.68 313.505C551.445 313.127 551.129 312.807 550.753 312.567Z" fill="white"/>
<path d="M335.594 405.584L392.783 459.508L528.809 325.106L459.774 280.169L335.594 405.584Z" fill="#E6E6E6"/>
<path d="M523.522 358.275C523.899 358.635 524.4 358.836 524.921 358.836C525.443 358.836 525.944 358.635 526.321 358.275L538.216 346.379C538.587 346.008 538.795 345.504 538.795 344.98C538.795 344.455 538.587 343.952 538.216 343.58C537.839 343.22 537.338 343.02 536.817 343.02C536.296 343.02 535.794 343.22 535.417 343.58L523.522 355.476C523.151 355.848 522.944 356.351 522.944 356.876C522.944 357.401 523.151 357.904 523.522 358.275Z" fill="#3F3D56"/>
<path d="M503.483 378.316C503.855 378.686 504.358 378.894 504.883 378.894C505.407 378.894 505.911 378.686 506.282 378.316L518.178 366.419C518.548 366.048 518.756 365.545 518.756 365.02C518.755 364.496 518.547 363.993 518.176 363.622C517.805 363.251 517.302 363.043 516.778 363.042C516.253 363.042 515.75 363.25 515.379 363.62L503.483 375.516C503.113 375.888 502.905 376.391 502.905 376.916C502.905 377.441 503.113 377.944 503.483 378.316Z" fill="#3F3D56"/>
<path d="M336.915 465.231C344.293 465.231 350.274 459.249 350.274 451.87C350.274 444.492 344.293 438.51 336.915 438.51C329.537 438.51 323.556 444.492 323.556 451.87C323.556 459.249 329.537 465.231 336.915 465.231Z" fill="#667CEC"/>
<path d="M434.387 336.424H293.172V364.307H434.387V336.424Z" fill="#E6E6E6"/>
<path d="M434.387 292.366H293.172V320.249H434.387V292.366Z" fill="#E6E6E6"/>
<path d="M434.387 248.163H293.172V276.046H434.387V248.163Z" fill="#E6E6E6"/>
<path d="M296.182 273.035H431.377V251.174H296.182V273.035Z" fill="white"/>
<path d="M296.182 317.336H431.377V295.474H296.182V317.336Z" fill="white"/>
<path d="M296.182 361.297H431.377V339.435H296.182V361.297Z" fill="white"/>
<path d="M308.018 270.252C312.617 270.252 316.346 266.523 316.346 261.923C316.346 257.324 312.617 253.595 308.018 253.595C303.418 253.595 299.69 257.324 299.69 261.923C299.69 266.523 303.418 270.252 308.018 270.252Z" fill="#667CEC"/>
<path d="M410.127 258.664H327.933V260.475H410.127V258.664Z" fill="#667CEC"/>
<path d="M410.127 263.372H327.933V265.182H410.127V263.372Z" fill="#667CEC"/>
<path d="M308.018 314.817C312.617 314.817 316.346 311.089 316.346 306.489C316.346 301.889 312.617 298.16 308.018 298.16C303.418 298.16 299.69 301.889 299.69 306.489C299.69 311.089 303.418 314.817 308.018 314.817Z" fill="#CCCCCC"/>
<path d="M410.127 303.23H327.933V305.04H410.127V303.23Z" fill="#CCCCCC"/>
<path d="M410.127 307.937H327.933V309.748H410.127V307.937Z" fill="#CCCCCC"/>
<path d="M308.018 358.876C312.617 358.876 316.346 355.147 316.346 350.547C316.346 345.947 312.617 342.218 308.018 342.218C303.418 342.218 299.69 345.947 299.69 350.547C299.69 355.147 303.418 358.876 308.018 358.876Z" fill="#CCCCCC"/>
<path d="M410.127 347.288H327.933V349.098H410.127V347.288Z" fill="#CCCCCC"/>
<path d="M410.127 351.995H327.933V353.806H410.127V351.995Z" fill="#CCCCCC"/>
<path d="M154.334 540.463L157.977 540.891C160.855 542.626 164.232 543.279 167.973 543.146C168.495 543.131 169.004 542.979 169.449 542.706C169.895 542.433 170.261 542.048 170.512 541.59C170.73 541.188 170.852 540.741 170.869 540.285C170.886 539.828 170.797 539.373 170.609 538.956C170.422 538.539 170.141 538.171 169.788 537.881C169.435 537.59 169.019 537.385 168.574 537.281L165.806 536.637L159.127 530.103L155.097 522.81L149.244 523.481L148.025 532.745C147.871 534.599 148.442 536.44 149.619 537.88C150.797 539.32 152.487 540.246 154.334 540.463Z" fill="#2F2E41"/>
<path d="M211.073 535.776L214.643 536.616C217.305 538.668 220.586 539.702 224.317 539.996C224.838 540.04 225.361 539.947 225.834 539.727C226.308 539.506 226.715 539.166 227.017 538.739C227.279 538.365 227.451 537.935 227.52 537.483C227.589 537.031 227.553 536.569 227.414 536.134C227.275 535.698 227.037 535.3 226.72 534.971C226.402 534.643 226.013 534.392 225.582 534.238L222.906 533.282L217.014 526.03L213.842 518.325H207.95L205.684 527.39C205.319 529.214 205.677 531.108 206.683 532.673C207.688 534.237 209.262 535.35 211.073 535.776Z" fill="#2F2E41"/>
<path d="M214 518.838L207.337 519.863L196.831 466.814L178.637 435.805L156.599 526.013L148.399 527.551C149.318 476.751 144.83 412.797 155.061 405.052L199.65 410.178L219.125 462.457L214 518.838Z" fill="#2F2E41"/>
<path d="M181.712 326.12C190.203 326.12 197.087 319.236 197.087 310.744C197.087 302.252 190.203 295.367 181.712 295.367C173.22 295.367 166.337 302.252 166.337 310.744C166.337 319.236 173.22 326.12 181.712 326.12Z" fill="#FFB8B8"/>
<path d="M160.186 334.321L178.637 337.396L183.25 320.995L169.924 316.895L160.186 334.321Z" fill="#FFB8B8"/>
<path d="M152.499 407.102L201.7 411.715C197.755 397.999 194.141 384.331 197.087 370.712C200.828 358.553 197.217 351.323 187.35 345.597L180.687 330.733L162.749 328.683C157.999 336.321 156.056 345.375 157.253 354.29C159.809 373.676 159.119 391.665 152.499 407.102Z" fill="#667CEC"/>
<path d="M175.666 293.293C180.917 292.931 186.988 292.831 187.748 294.214C193.186 293.959 197.922 295.856 200.106 300.271C200.293 300.653 200.393 301.071 200.4 301.497C200.408 301.922 200.322 302.344 200.148 302.732C199.975 303.12 199.719 303.466 199.398 303.745C199.076 304.023 198.698 304.228 198.289 304.345C195.53 305.14 191.326 306.124 188.258 305.81C181.887 313.301 184.568 326.964 190.752 334.945L185.163 336.091L174.559 321.322L177.905 337.579L165.001 339.69L160.5 319.031C159.553 314.127 159.79 309.068 161.191 304.274C161.34 303.79 161.521 303.316 161.731 302.855C162.974 300.151 164.926 297.835 167.379 296.151C169.833 294.468 172.696 293.48 175.666 293.293Z" fill="#2F2E41"/>
<path d="M184.274 422.479L183.935 434.378C183.888 436.019 184.464 437.616 185.547 438.848C186.631 440.08 188.141 440.856 189.774 441.019C190.819 441.124 191.875 440.973 192.849 440.579C193.824 440.185 194.688 439.561 195.368 438.759C196.047 437.958 196.522 437.003 196.751 435.977C196.98 434.951 196.956 433.885 196.682 432.871L194.012 422.991L186.324 380.963L186.837 356.36L170.437 355.848L173.512 383.525L184.274 422.479Z" fill="#FFB8B8"/>
<path d="M169.412 358.411C175.354 356.147 181.92 356.147 187.862 358.411L186.837 337.909C186.837 335.734 185.973 333.648 184.435 332.11C182.897 330.572 180.812 329.708 178.637 329.708C176.462 329.708 174.376 330.572 172.839 332.11C171.301 333.648 170.437 335.734 170.437 337.909L169.412 358.411Z" fill="#667CEC"/>
</g>
<defs>
<clipPath id="clip0">
<rect width="583" height="583" fill="white" transform="translate(148.057) rotate(14.6268)"/>
</clipPath>
<clipPath id="clip1">
<rect width="424" height="295" fill="white" transform="translate(148 248.163)"/>
</clipPath>
</defs>
</svg>
