<svg width="428" height="400" viewBox="0 0 428 400" fill="none" xmlns="http://www.w3.org/2000/svg">
<g clip-path="url(#clip0)">
<path d="M60.9109 93.2812H63.057V34.1966C63.057 29.7058 63.9371 25.259 65.6471 21.1101C67.3571 16.9612 69.8635 13.1914 73.0232 10.0159C76.1828 6.84046 79.9339 4.32156 84.0622 2.60303C88.1905 0.884496 92.6152 -1.55824e-05 97.0836 2.05892e-10H221.64C226.108 -1.06243e-05 230.533 0.884502 234.661 2.60304C238.789 4.32157 242.541 6.84047 245.7 10.0159C248.86 13.1914 251.366 16.9612 253.076 21.1101C254.786 25.259 255.666 29.7058 255.666 34.1966V358.339C255.666 362.83 254.786 367.277 253.076 371.426C251.366 375.575 248.86 379.344 245.7 382.52C242.541 385.695 238.789 388.214 234.661 389.933C230.533 391.651 226.108 392.536 221.64 392.536H97.0836C92.6152 392.536 88.1905 391.651 84.0622 389.933C79.9339 388.214 76.1828 385.695 73.0232 382.52C69.8635 379.344 67.3571 375.575 65.6471 371.426C63.9371 367.277 63.057 362.83 63.057 358.339V135.339H60.9109V93.2812Z" fill="#3F3D56"/>
<path d="M95.7106 8.89675H111.969C111.222 10.739 110.936 12.7378 111.138 14.717C111.34 16.6963 112.024 18.5952 113.128 20.2466C114.232 21.8979 115.723 23.251 117.471 24.1866C119.218 25.1223 121.167 25.6117 123.147 25.6119H194.504C196.483 25.6117 198.433 25.1223 200.18 24.1866C201.927 23.251 203.418 21.8979 204.523 20.2466C205.627 18.5952 206.31 16.6963 206.512 14.717C206.714 12.7378 206.429 10.739 205.681 8.89673H220.867C224.204 8.89672 227.508 9.55727 230.591 10.8406C233.674 12.124 236.475 14.0051 238.835 16.3765C241.194 18.7479 243.066 21.5631 244.343 24.6615C245.62 27.7598 246.277 31.0807 246.277 34.4343V358.101C246.277 361.455 245.62 364.776 244.343 367.874C243.066 370.973 241.194 373.788 238.835 376.159C236.475 378.531 233.674 380.412 230.591 381.695C227.508 382.978 224.204 383.639 220.867 383.639H95.7106C92.3737 383.639 89.0694 382.978 85.9864 381.695C82.9035 380.412 80.1022 378.531 77.7426 376.159C75.383 373.788 73.5113 370.973 72.2343 367.874C70.9573 364.776 70.3 361.455 70.3 358.101V34.4343C70.3 31.0807 70.9573 27.7599 72.2343 24.6615C73.5113 21.5631 75.383 18.7479 77.7426 16.3765C80.1022 14.0051 82.9035 12.1241 85.9864 10.8407C89.0694 9.55729 92.3737 8.89674 95.7106 8.89675Z" fill="white"/>
<path d="M151.72 360.714C162.78 360.719 173.505 356.904 182.099 349.907C190.693 342.911 196.632 333.158 198.923 322.284C201.213 311.41 199.715 300.076 194.679 290.18C189.643 280.284 181.376 272.428 171.263 267.929C161.15 263.43 149.805 262.561 139.13 265.468C128.456 268.375 119.099 274.881 112.63 283.896C106.16 292.91 102.97 303.886 103.594 314.983C104.219 326.081 108.619 336.625 116.059 344.849L105.988 356.195L111.014 358.338C118.788 361.652 126.396 358.427 130.666 355.853C137.229 359.051 144.427 360.712 151.72 360.714ZM151.72 271.747C157.87 271.749 163.939 273.164 169.462 275.884C174.985 278.604 179.816 282.556 183.587 287.44C187.357 292.323 189.967 298.009 191.216 304.061C192.466 310.113 192.322 316.372 190.796 322.36C189.27 328.348 186.402 333.906 182.412 338.61C178.421 343.313 173.414 347.038 167.772 349.498C162.13 351.959 156.003 353.091 149.859 352.808C143.715 352.525 137.716 350.834 132.322 347.864L130.171 346.676L128.171 348.107C125.885 349.777 123.289 350.971 120.537 351.617L126.874 344.477L124.096 341.854C120.061 338.076 116.847 333.5 114.657 328.414C112.467 323.328 111.348 317.841 111.37 312.299C111.382 301.548 115.637 291.24 123.202 283.638C130.766 276.036 141.022 271.76 151.72 271.747Z" fill="#E6E6E6"/>
<path d="M107.458 312.299C107.462 302.554 110.651 293.079 116.536 285.334C122.42 277.588 130.673 271.999 140.026 269.427C149.379 266.855 159.314 267.443 168.303 271.099C177.291 274.755 184.836 281.278 189.776 289.664C194.716 298.05 196.777 307.835 195.644 317.513C194.511 327.192 190.245 336.228 183.503 343.232C176.761 350.237 167.916 354.821 158.329 356.281C148.741 357.74 138.942 355.994 130.439 351.31C127.379 353.498 119.915 357.862 112.541 354.718L121.417 344.719C117.005 340.564 113.489 335.543 111.088 329.966C108.687 324.389 107.451 318.376 107.458 312.299Z" fill="white"/>
<path d="M142.889 303.204H174.517V306.156H142.889V303.204Z" fill="#667CEC"/>
<path d="M119.392 313.415H174.517V316.367H119.392V313.415Z" fill="#E6E6E6"/>
<path d="M119.446 323.626H174.517V326.578H119.446V323.626Z" fill="#E6E6E6"/>
<path d="M151.72 145.508C162.78 145.514 173.505 141.698 182.099 134.702C190.693 127.705 196.632 117.953 198.923 107.079C201.213 96.2049 199.715 84.8702 194.679 74.9742C189.643 65.0783 181.376 57.2226 171.263 52.7236C161.15 48.2246 149.805 47.3557 139.13 50.2626C128.456 53.1695 119.099 59.6755 112.63 68.6903C106.16 77.7051 102.97 88.6808 103.594 99.778C104.219 110.875 108.619 121.42 116.059 129.644L105.988 140.99L111.014 143.132C118.788 146.447 126.396 143.222 130.666 140.648C137.229 143.845 144.427 145.507 151.72 145.508ZM151.72 56.542C157.87 56.5439 163.939 57.9588 169.462 60.6786C174.985 63.3984 179.816 67.351 183.587 72.2345C187.357 77.1181 189.967 82.8032 191.216 88.8554C192.466 94.9077 192.322 101.167 190.796 107.155C189.27 113.143 186.402 118.701 182.412 123.404C178.421 128.108 173.414 131.832 167.772 134.293C162.13 136.754 156.003 137.886 149.859 137.603C143.715 137.319 137.716 135.628 132.322 132.659L130.171 131.471L128.171 132.901C125.885 134.572 123.289 135.766 120.537 136.411L126.874 129.272L124.096 126.648C120.061 122.871 116.847 118.295 114.657 113.209C112.467 108.122 111.348 102.636 111.37 97.0936C111.382 86.3424 115.637 76.035 123.202 68.4327C130.766 60.8305 141.022 56.5542 151.72 56.542Z" fill="#E6E6E6"/>
<path d="M107.458 97.0936C107.462 87.3482 110.651 77.874 116.536 70.1281C122.42 62.3822 130.673 56.7935 140.026 54.2217C149.379 51.6499 159.314 52.2373 168.303 55.8936C177.291 59.5499 184.836 66.0727 189.776 74.4586C194.716 82.8445 196.777 92.6292 195.644 102.308C194.511 111.986 190.245 121.023 183.503 128.027C176.761 135.031 167.916 139.616 158.329 141.075C148.741 142.535 138.942 140.788 130.439 136.105C127.379 138.293 119.915 142.656 112.541 139.513L121.417 129.514C117.005 125.359 113.489 120.337 111.088 114.76C108.687 109.183 107.451 103.17 107.458 97.0936Z" fill="white"/>
<path d="M142.889 87.9984H174.517V90.9501H142.889V87.9984Z" fill="#667CEC"/>
<path d="M119.392 98.2095H174.517V101.161H119.392V98.2095Z" fill="#E6E6E6"/>
<path d="M119.446 108.421H174.517V111.372H119.446V108.421Z" fill="#E6E6E6"/>
<path d="M90.4115 149.644C86.5582 149.644 83.4346 146.505 83.4346 142.632C83.4346 138.76 86.5582 135.621 90.4115 135.621C94.2647 135.621 97.3883 138.76 97.3883 142.632C97.3883 146.505 94.2647 149.644 90.4115 149.644Z" fill="#E6E6E6"/>
<path d="M90.4115 364.849C86.5582 364.849 83.4346 361.71 83.4346 357.838C83.4346 353.965 86.5582 350.826 90.4115 350.826C94.2647 350.826 97.3883 353.965 97.3883 357.838C97.3883 361.71 94.2647 364.849 90.4115 364.849Z" fill="#E6E6E6"/>
<path d="M337.424 128.255L340.769 145.064L325.159 156.829L317.912 134.979L337.424 128.255Z" fill="#9F616A"/>
<path d="M324.881 143.663C316.567 143.663 309.828 136.89 309.828 128.535C309.828 120.18 316.567 113.407 324.881 113.407C333.194 113.407 339.933 120.18 339.933 128.535C339.933 136.89 333.194 143.663 324.881 143.663Z" fill="#9F616A"/>
<path d="M357.494 244.234C357.494 244.234 345.787 300.822 344.114 306.425C342.442 312.028 344.114 312.588 344.114 312.588C344.114 312.588 346.344 314.269 344.672 314.829C342.999 315.39 348.017 318.191 348.017 318.191C348.017 318.191 350.247 328.836 351.362 331.077C352.477 333.319 357.494 347.326 358.052 347.326C358.609 347.326 361.397 355.73 361.397 355.73C361.397 355.73 354.707 366.375 347.459 361.893L344.672 356.85L322.372 323.794C322.372 323.794 312.894 313.148 315.124 300.262L314.009 313.709L311.779 357.411C311.779 357.411 317.912 361.333 313.452 367.496C313.452 367.496 301.745 371.418 296.727 365.255C296.727 365.255 295.612 361.893 297.285 360.212C298.957 358.531 298.957 358.531 297.842 357.411C296.727 356.29 295.055 354.049 295.055 352.928V348.446L292.267 297.46C292.267 297.46 300.072 245.914 306.204 243.113C312.337 240.312 357.494 244.234 357.494 244.234Z" fill="#2F2E41"/>
<path d="M312.894 365.255C312.894 365.255 320.142 379.262 314.009 380.943C310.187 381.967 306.257 382.532 302.302 382.623C302.302 382.623 286.692 394.95 280.56 388.787C274.427 382.623 283.347 377.581 283.347 377.581C283.347 377.581 294.497 369.737 295.055 367.496C295.612 365.255 312.894 365.255 312.894 365.255Z" fill="#2F2E41"/>
<path d="M361.118 354.889C361.118 354.889 373.642 369.204 368.258 372.599C364.895 374.693 361.296 376.378 357.537 377.618C357.537 377.618 346.152 393.961 338.505 389.848C330.859 385.736 337.942 378.312 337.942 378.312C337.942 378.312 346.351 367.557 346.239 365.25C346.126 362.942 361.118 354.889 361.118 354.889Z" fill="#2F2E41"/>
<path d="M303.417 244.794C303.417 244.794 305.647 249.276 314.567 247.595C323.487 245.914 358.609 247.595 358.609 247.595C358.609 247.595 356.658 207.535 361.118 183.443C365.578 159.351 348.017 145.624 348.017 145.624L342.442 140.021C336.867 139.461 325.093 156.851 325.093 156.851C320.995 157.54 314.361 176.058 311.161 192.452C309.639 200.274 308.278 208.628 307.135 216.309C304.816 231.935 303.417 244.794 303.417 244.794Z" fill="#667CEC"/>
<path d="M342.49 119.116C342.49 119.116 345.304 112.893 337.987 110.065C337.987 110.065 331.796 99.8829 319.413 106.671C319.413 106.671 310.97 110.065 310.97 119.116C310.97 128.166 308.156 129.863 308.156 129.863C308.156 129.863 312.347 125.542 313.472 122.148C314.598 118.754 323.353 117.984 326.73 121.378C330.107 124.772 338.55 124.207 338.55 124.207L337.987 136.651C337.987 136.651 340.801 129.298 341.927 129.298C343.053 129.298 344.179 119.116 342.49 119.116Z" fill="#2F2E41"/>
<path d="M234.247 247.192C238.682 249.865 246.585 253.215 254.662 249.772L259.882 247.547L249.42 235.761C257.769 226.51 262.387 214.465 262.375 201.976C262.362 189.487 257.719 177.451 249.352 168.218C240.985 158.984 229.494 153.216 217.123 152.038C204.751 150.86 192.387 154.358 182.444 161.848C172.501 169.339 165.691 180.285 163.346 192.549C161 204.813 163.286 217.516 169.757 228.177C176.229 238.839 186.421 246.694 198.346 250.21C210.27 253.726 223.069 252.65 234.247 247.192V247.192ZM254.291 201.948C254.314 207.705 253.152 213.404 250.877 218.688C248.602 223.972 245.263 228.725 241.072 232.649L238.186 235.374L244.769 242.791C241.91 242.12 239.213 240.88 236.839 239.144L234.761 237.658L232.526 238.893C224.47 243.332 215.185 244.989 206.1 243.607C197.015 242.226 188.634 237.883 182.245 231.246C175.856 224.61 171.814 216.048 170.739 206.877C169.665 197.706 171.619 188.435 176.3 180.489C180.981 172.543 188.13 166.363 196.648 162.899C205.165 159.436 214.579 158.88 223.441 161.319C232.303 163.757 240.122 169.054 245.696 176.395C251.27 183.736 254.29 192.714 254.291 201.948V201.948Z" fill="#667CEC"/>
<path d="M258.355 201.948C258.351 191.824 255.038 181.983 248.925 173.936C242.813 165.89 234.239 160.085 224.523 157.413C214.807 154.741 204.487 155.352 195.15 159.15C185.813 162.948 177.976 169.724 172.844 178.435C167.713 187.146 165.571 197.31 166.748 207.364C167.925 217.418 172.357 226.805 179.36 234.081C186.364 241.357 195.552 246.119 205.511 247.636C215.47 249.152 225.65 247.337 234.483 242.472C237.661 244.745 245.415 249.278 253.075 246.013L243.854 235.625C248.438 231.309 252.09 226.093 254.584 220.3C257.079 214.507 258.362 208.26 258.355 201.948Z" fill="white"/>
<path opacity="0.1" d="M174.525 201.714C174.525 190.166 178.828 179.037 186.586 170.518C194.344 162 204.994 156.709 216.44 155.687C215.101 155.57 213.746 155.506 212.376 155.506C200.184 155.51 188.493 160.38 179.874 169.046C171.255 177.711 166.413 189.462 166.413 201.714C166.413 213.967 171.255 225.718 179.874 234.383C188.493 243.049 200.184 247.919 212.376 247.923C213.744 247.923 215.096 247.858 216.433 247.741C204.989 246.718 194.34 241.427 186.584 232.908C178.828 224.39 174.525 213.261 174.525 201.714Z" fill="black"/>
<path d="M205.923 192.5H238.777V195.566H205.923V192.5Z" fill="#667CEC"/>
<path d="M181.515 203.107H238.777V206.173H181.515V203.107Z" fill="#667CEC"/>
<path d="M181.571 213.714H238.777V216.78H181.571V213.714Z" fill="#667CEC"/>
<path opacity="0.2" d="M307.135 216.309C320.097 209.759 343.83 192.424 351.189 183.297C360.349 171.946 350.358 163.312 350.358 163.312C339.03 156.129 325.483 180.776 325.483 180.776L311.161 192.452C309.639 200.274 308.278 208.628 307.135 216.309Z" fill="black"/>
<path d="M269.698 206.742C269.698 206.742 249.927 214.808 246.673 205.74C243.419 196.672 262.283 196.828 262.283 196.828L269.688 197.883L269.698 206.742Z" fill="#9F616A"/>
<path d="M352.892 159.624C352.892 159.624 362.88 168.259 353.726 179.608C344.571 190.958 310.08 215.023 302.499 215.209C294.919 215.394 275.094 207.763 275.094 207.763L267.339 209.189L265.877 194.556L277.302 195.677L309.525 192.168L328.019 177.086C328.019 177.086 341.566 152.443 352.892 159.624Z" fill="#667CEC"/>
<path opacity="0.2" d="M316.506 263.645L314.758 304.68L319.189 263.645H316.506Z" fill="black"/>
</g>
<defs>
<clipPath id="clip0">
<rect width="428" height="400" fill="white" transform="matrix(-1 0 0 1 428 0)"/>
</clipPath>
</defs>
</svg>
