<svg xmlns="http://www.w3.org/2000/svg" width="92.9" height="104.3" viewBox="0 0 92.9 104.3">
  <g id="Best_Support" data-name="Best Support" transform="translate(-0.4 -8.7)">
    <path id="Path_15478" data-name="Path 15478" d="M8.1,89.9,47.6,110l38-20.1V11.3H8.1Z" fill="#fff"/>
    <path id="Path_15479" data-name="Path 15479" d="M86.4,11.6,7.3,91.3l41,20.3L86.4,92.1Z" fill="#f2f3f2"/>
    <path id="Path_15480" data-name="Path 15480" d="M5.5,37.5V91.6l1.4.7,39.5,20.1,1.2.6,1.2-.6L86.9,92.3l1.4-.7V8.7H5.5ZM8.1,90.1V11.3H85.7V90.1L47.6,110.2Z" fill="#dcdedc"/>
    <path id="logo" d="M46.9,12.6a4.869,4.869,0,0,1,1.2.1L46.9,15a3.306,3.306,0,0,0-.4,6.6h.4a3.5,3.5,0,0,0,2.2-.8L50.4,23a6.062,6.062,0,0,1-3.5,1.1,5.755,5.755,0,1,1-.5-11.5h.5ZM51,17.5,52.5,20,51,22.4,49.6,20H46.7l1.5-2.5Zm-2.4-.9a2.016,2.016,0,0,1,.3-1.1,3.45,3.45,0,0,1,.9-.8l.2-.1c.4-.2.5-.3.5-.5s-.3-.4-.5-.4a.961.961,0,0,0-.9.6l-.5-.5a2.651,2.651,0,0,1,.5-.6A1.486,1.486,0,0,1,50,13a1.4,1.4,0,0,1,.9.3,1.234,1.234,0,0,1,.4.8,1.147,1.147,0,0,1-.9,1.1l-.3.2c-.3.2-.5.3-.6.6h1.8v.7l-2.7-.1ZM46.9,29.1l9.5-5.4V8.7H37.3V23.6l9.6,5.5Z" fill="#ff492c"/>
    <path id="banner" d="M90.2,64.5H3.6l-3.2,7,3.2,7H90.2l3.1-7Z" fill="#23cca2"/>
    <path id="Path_15481" data-name="Path 15481" d="M4.51.12A5.293,5.293,0,0,1,2.42-.26a3.1,3.1,0,0,1-1.39-1.1A2.833,2.833,0,0,1,.54-3.01h0v-.33a.176.176,0,0,1,.05-.13.2.2,0,0,1,.13-.05H2.43a.2.2,0,0,1,.13.05.176.176,0,0,1,.05.13h0v.22a1.217,1.217,0,0,0,.56,1.01,2.415,2.415,0,0,0,1.5.42h0a1.756,1.756,0,0,0,1.18-.34,1.061,1.061,0,0,0,.39-.83h0A.826.826,0,0,0,6-3.47a2.133,2.133,0,0,0-.65-.44q-.42-.18-1.31-.51h0a13.318,13.318,0,0,1-1.71-.71,3.527,3.527,0,0,1-1.17-.98A2.476,2.476,0,0,1,.69-7.65h0a2.664,2.664,0,0,1,.47-1.57,2.919,2.919,0,0,1,1.28-1.04,4.761,4.761,0,0,1,1.91-.36h0a4.8,4.8,0,0,1,2.03.41,3.327,3.327,0,0,1,1.4,1.13,2.889,2.889,0,0,1,.5,1.69h0v.22a.176.176,0,0,1-.05.13.2.2,0,0,1-.13.05H6.38a.176.176,0,0,1-.13-.05.161.161,0,0,1-.06-.13h0v-.12a1.363,1.363,0,0,0-.51-1.07A2.129,2.129,0,0,0,4.26-8.8h0a1.77,1.77,0,0,0-1.1.3.953.953,0,0,0-.4.82h0a.9.9,0,0,0,.23.63,2.072,2.072,0,0,0,.69.46q.46.2,1.42.55h0a16.68,16.68,0,0,1,1.67.69,3.361,3.361,0,0,1,1.1.89,2.331,2.331,0,0,1,.49,1.54h0A2.66,2.66,0,0,1,7.32-.7,4.392,4.392,0,0,1,4.51.12ZM14.2-7.53a.182.182,0,0,1,.06-.13.164.164,0,0,1,.12-.05h1.76a.2.2,0,0,1,.13.05.2.2,0,0,1,.05.13h0V-.18a.176.176,0,0,1-.05.13.2.2,0,0,1-.13.05H14.38a.164.164,0,0,1-.12-.05.161.161,0,0,1-.06-.13h0V-.69a.046.046,0,0,0-.03-.05q-.03-.01-.06.04h0a2.174,2.174,0,0,1-1.86.8h0a2.635,2.635,0,0,1-1.87-.68,2.522,2.522,0,0,1-.74-1.94h0V-7.53a.182.182,0,0,1,.06-.13.164.164,0,0,1,.12-.05h1.74a.176.176,0,0,1,.13.05.2.2,0,0,1,.05.13h0v4.49a1.4,1.4,0,0,0,.33.97,1.1,1.1,0,0,0,.89.38h0A1.178,1.178,0,0,0,13.8-2a1.316,1.316,0,0,0,.4-.8h0ZM24.76-5.64a5.385,5.385,0,0,1,.27,1.8h0a5.924,5.924,0,0,1-.28,1.88h0A3.247,3.247,0,0,1,23.66-.44a2.961,2.961,0,0,1-1.84.56h0a2.03,2.03,0,0,1-1.68-.75h0q-.03-.04-.06-.03t-.03.06h0V2.61a.171.171,0,0,1-.18.18H18.12a.171.171,0,0,1-.18-.18h0V-7.53a.2.2,0,0,1,.05-.13.176.176,0,0,1,.13-.05h1.75a.176.176,0,0,1,.13.05.2.2,0,0,1,.05.13h0v.49q0,.05.03.06A.057.057,0,0,0,20.14-7h0a2.063,2.063,0,0,1,1.74-.83h0a2.881,2.881,0,0,1,1.8.58,3.206,3.206,0,0,1,1.08,1.61ZM22.47-2.28a2.938,2.938,0,0,0,.37-1.59h0a3.1,3.1,0,0,0-.31-1.5h0a1.176,1.176,0,0,0-1.11-.64h0a1.121,1.121,0,0,0-1.04.64h0a3.079,3.079,0,0,0-.31,1.52h0a3.085,3.085,0,0,0,.33,1.56h0a1.1,1.1,0,0,0,1.02.6h0a1.187,1.187,0,0,0,1.05-.59ZM33.28-5.64a5.385,5.385,0,0,1,.27,1.8h0a5.924,5.924,0,0,1-.28,1.88h0A3.247,3.247,0,0,1,32.18-.44a2.961,2.961,0,0,1-1.84.56h0a2.03,2.03,0,0,1-1.68-.75h0q-.03-.04-.06-.03t-.03.06h0V2.61a.171.171,0,0,1-.18.18H26.64a.171.171,0,0,1-.18-.18h0V-7.53a.2.2,0,0,1,.05-.13.176.176,0,0,1,.13-.05h1.75a.176.176,0,0,1,.13.05.2.2,0,0,1,.05.13h0v.49q0,.05.03.06A.057.057,0,0,0,28.66-7h0a2.063,2.063,0,0,1,1.74-.83h0a2.881,2.881,0,0,1,1.8.58,3.206,3.206,0,0,1,1.08,1.61ZM30.99-2.28a2.938,2.938,0,0,0,.37-1.59h0a3.1,3.1,0,0,0-.31-1.5h0a1.176,1.176,0,0,0-1.11-.64h0a1.121,1.121,0,0,0-1.04.64h0a3.079,3.079,0,0,0-.31,1.52h0a3.085,3.085,0,0,0,.33,1.56h0a1.1,1.1,0,0,0,1.02.6h0a1.187,1.187,0,0,0,1.05-.59ZM38.28.12a3.552,3.552,0,0,1-2.16-.66,3.3,3.3,0,0,1-1.23-1.8h0a5.306,5.306,0,0,1-.21-1.53h0a5.6,5.6,0,0,1,.21-1.59h0A3.2,3.2,0,0,1,36.13-7.2a3.688,3.688,0,0,1,2.17-.63h0a3.507,3.507,0,0,1,2.09.62,3.338,3.338,0,0,1,1.24,1.74h0a5.325,5.325,0,0,1,.23,1.57h0a5.584,5.584,0,0,1-.2,1.52h0A3.371,3.371,0,0,1,40.43-.55a3.472,3.472,0,0,1-2.15.67Zm0-1.81a1.248,1.248,0,0,0,.84-.3,1.686,1.686,0,0,0,.49-.83h0a4.325,4.325,0,0,0,.12-1.05h0a4,4,0,0,0-.12-1.06h0a1.648,1.648,0,0,0-.51-.8,1.263,1.263,0,0,0-.83-.28h0a1.268,1.268,0,0,0-.85.28,1.62,1.62,0,0,0-.49.8h0a3.491,3.491,0,0,0-.12,1.06h0a4.244,4.244,0,0,0,.1,1.05h0a1.62,1.62,0,0,0,.51.83,1.276,1.276,0,0,0,.86.3Zm8.79-6.12a1.549,1.549,0,0,1,.86.21h0a.181.181,0,0,1,.09.22h0L47.7-5.67q-.01.18-.21.11h0a1.522,1.522,0,0,0-.52-.08h0a2.307,2.307,0,0,0-.33.03h0a1.527,1.527,0,0,0-.92.4,1.233,1.233,0,0,0-.37.94h0V-.18a.161.161,0,0,1-.06.13.164.164,0,0,1-.12.05H43.41a.2.2,0,0,1-.13-.05.176.176,0,0,1-.05-.13h0V-7.53a.2.2,0,0,1,.05-.13.2.2,0,0,1,.13-.05h1.76a.164.164,0,0,1,.12.05.182.182,0,0,1,.06.13h0v.57a.067.067,0,0,0,.03.06q.03.02.04-.02h0a1.919,1.919,0,0,1,1.65-.89Zm6.42,1.62a.164.164,0,0,1-.05.12.161.161,0,0,1-.13.06H51.87a.062.062,0,0,0-.07.07h0v3.18a1.166,1.166,0,0,0,.2.74.8.8,0,0,0,.65.24h.5a.164.164,0,0,1,.12.05.161.161,0,0,1,.06.13h0V-.18a.176.176,0,0,1-.18.19h0q-.63.03-.9.03h0a3.374,3.374,0,0,1-1.86-.41,1.745,1.745,0,0,1-.63-1.55h0V-5.94q0-.07-.08-.07h-.85a.161.161,0,0,1-.13-.06.164.164,0,0,1-.05-.12h0V-7.53a.2.2,0,0,1,.05-.13.176.176,0,0,1,.13-.05h.85a.071.071,0,0,0,.08-.08h0V-9.57a.2.2,0,0,1,.05-.13.176.176,0,0,1,.13-.05h1.68a.164.164,0,0,1,.12.05.182.182,0,0,1,.06.13h0v1.78q0,.08.07.08h1.44a.176.176,0,0,1,.13.05.2.2,0,0,1,.05.13h0Z" transform="translate(19.71 60)" fill="#252530"/>
    <path id="Path_15482" data-name="Path 15482" d="M7.14-5.47q-.09.04,0,.09h0A2.531,2.531,0,0,1,8.56-2.94h0a2.573,2.573,0,0,1-.99,2.2A4.217,4.217,0,0,1,4.98,0H1.09A.164.164,0,0,1,.97-.05.161.161,0,0,1,.91-.18h0V-10.32a.182.182,0,0,1,.06-.13.164.164,0,0,1,.12-.05H4.86q3.55,0,3.55,2.88h0A2.234,2.234,0,0,1,7.14-5.47ZM3.1-8.69q-.07,0-.07.08h0v2.34q0,.08.07.08H4.86a1.679,1.679,0,0,0,1.1-.33,1.13,1.13,0,0,0,.38-.9h0a1.185,1.185,0,0,0-.38-.93,1.645,1.645,0,0,0-1.1-.34H3.1ZM4.98-1.83a1.559,1.559,0,0,0,1.08-.35,1.237,1.237,0,0,0,.39-.97h0a1.256,1.256,0,0,0-.39-.97,1.591,1.591,0,0,0-1.1-.35H3.1q-.07,0-.07.08h0v2.48q0,.08.07.08H4.98ZM16.9-4.65a6.415,6.415,0,0,1,.06,1.27h0a.174.174,0,0,1-.19.19H12.13q-.09,0-.06.07h0a2.9,2.9,0,0,0,.17.6h0a1.573,1.573,0,0,0,1.59.84h0a1.781,1.781,0,0,0,1.51-.78h0a.17.17,0,0,1,.14-.09h0a.164.164,0,0,1,.1.06h0l1.08,1.06a.219.219,0,0,1,.08.14h0a.309.309,0,0,1-.06.12h0a3.227,3.227,0,0,1-1.28.95,4.188,4.188,0,0,1-1.71.34h0a3.908,3.908,0,0,1-2.18-.58A3.28,3.28,0,0,1,10.23-2.1h0a5.055,5.055,0,0,1-.32-1.96h0a4.248,4.248,0,0,1,.23-1.46h0a3.256,3.256,0,0,1,1.21-1.69,3.358,3.358,0,0,1,2.04-.63h0a3.342,3.342,0,0,1,2.41.87,3.773,3.773,0,0,1,1.1,2.32ZM13.41-6.01a1.2,1.2,0,0,0-1.25.88h0a3.334,3.334,0,0,0-.1.48h0a.062.062,0,0,0,.07.07h2.6q.09,0,.06-.07h0q-.08-.43-.08-.42h0a1.278,1.278,0,0,0-.47-.7,1.4,1.4,0,0,0-.83-.24ZM21.24.1a5.026,5.026,0,0,1-1.76-.28,2.622,2.622,0,0,1-1.16-.79,1.8,1.8,0,0,1-.41-1.16h0v-.15a.2.2,0,0,1,.05-.13.176.176,0,0,1,.13-.05h1.66a.176.176,0,0,1,.13.05.2.2,0,0,1,.05.13h0v.01a.666.666,0,0,0,.37.57,1.712,1.712,0,0,0,.92.23h0a1.546,1.546,0,0,0,.83-.2.6.6,0,0,0,.31-.5h0a.442.442,0,0,0-.27-.41,4.923,4.923,0,0,0-.88-.28h0a7.971,7.971,0,0,1-1.11-.35h0a4.766,4.766,0,0,1-1.53-.81A1.7,1.7,0,0,1,18-5.4h0a2.09,2.09,0,0,1,.86-1.76,3.7,3.7,0,0,1,2.29-.65h0a4.344,4.344,0,0,1,1.68.3,2.6,2.6,0,0,1,1.12.87,2.124,2.124,0,0,1,.39,1.26h0a.164.164,0,0,1-.05.12.176.176,0,0,1-.13.05h-1.6a.176.176,0,0,1-.13-.05.164.164,0,0,1-.05-.12h0a.667.667,0,0,0-.34-.56,1.56,1.56,0,0,0-.89-.23h0a1.534,1.534,0,0,0-.81.19.546.546,0,0,0-.32.49h0a.48.48,0,0,0,.31.45,5.493,5.493,0,0,0,1.03.32h0l.37.09q.21.05.45.13h0a4.932,4.932,0,0,1,1.68.81,1.742,1.742,0,0,1,.62,1.44h0A2,2,0,0,1,23.6-.52,4.024,4.024,0,0,1,21.24.1ZM30.1-6.19a.164.164,0,0,1-.05.12.161.161,0,0,1-.13.06H28.48a.062.062,0,0,0-.07.07h0v3.18a1.166,1.166,0,0,0,.2.74.814.814,0,0,0,.66.24h.49a.2.2,0,0,1,.13.05.176.176,0,0,1,.05.13h0V-.18a.176.176,0,0,1-.18.19h0q-.63.03-.9.03h0A3.374,3.374,0,0,1,27-.37a1.745,1.745,0,0,1-.63-1.55h0V-5.94q0-.07-.08-.07h-.85a.161.161,0,0,1-.13-.06.164.164,0,0,1-.05-.12h0V-7.53a.2.2,0,0,1,.05-.13.176.176,0,0,1,.13-.05h.85a.071.071,0,0,0,.08-.08h0V-9.57a.2.2,0,0,1,.05-.13.176.176,0,0,1,.13-.05h1.68a.2.2,0,0,1,.13.05.2.2,0,0,1,.05.13h0v1.78q0,.08.07.08h1.44a.176.176,0,0,1,.13.05.2.2,0,0,1,.05.13h0Z" transform="translate(31.03 45)" fill="#252530"/>
    <path id="Path_15483" data-name="Path 15483" d="M5.24-6.92A.157.157,0,0,1,5.38-7H6.3a.1.1,0,0,1,.08.04.1.1,0,0,1,.04.08h0V-.12a.1.1,0,0,1-.04.08A.1.1,0,0,1,6.3,0H5.38a.124.124,0,0,1-.09-.04.108.108,0,0,1-.03-.08h0V-4.89a.04.04,0,0,0-.02-.04.028.028,0,0,0-.04.02h0L3.95-2.99a.157.157,0,0,1-.14.08H3.35a.157.157,0,0,1-.14-.08h0L1.95-4.9q-.01-.03-.03-.02a.039.039,0,0,0-.03.04h0V-.12a.1.1,0,0,1-.04.08A.1.1,0,0,1,1.77,0H.85A.1.1,0,0,1,.77-.04.1.1,0,0,1,.73-.12h0V-6.88a.1.1,0,0,1,.04-.08A.1.1,0,0,1,.85-7h.92a.157.157,0,0,1,.14.08h0L3.54-4.45a.058.058,0,0,0,.04.02.032.032,0,0,0,.03-.02h0ZM8.43-5.81a.691.691,0,0,1-.51-.2.691.691,0,0,1-.2-.51h0a.691.691,0,0,1,.2-.51.691.691,0,0,1,.51-.2h0a.691.691,0,0,1,.51.2.691.691,0,0,1,.2.51h0a.691.691,0,0,1-.2.51.691.691,0,0,1-.51.2ZM7.95,0a.1.1,0,0,1-.08-.04.1.1,0,0,1-.04-.08h0V-5a.1.1,0,0,1,.04-.08.1.1,0,0,1,.08-.04h.92a.124.124,0,0,1,.09.04A.108.108,0,0,1,8.99-5h0V-.12a.108.108,0,0,1-.03.08A.124.124,0,0,1,8.87,0H7.95Zm5.54-6.88a.1.1,0,0,1,.04-.08A.1.1,0,0,1,13.61-7h.92a.124.124,0,0,1,.09.04.108.108,0,0,1,.03.08h0V-.12a.108.108,0,0,1-.03.08.124.124,0,0,1-.09.04h-.92a.1.1,0,0,1-.08-.04.1.1,0,0,1-.04-.08h0v-.3a.04.04,0,0,0-.02-.04q-.02-.01-.04.02h0a1.434,1.434,0,0,1-1.15.52h0a1.934,1.934,0,0,1-1.2-.37,2.069,2.069,0,0,1-.71-1.03h0a4.072,4.072,0,0,1-.18-1.25h0a3.876,3.876,0,0,1,.17-1.22h0a2.069,2.069,0,0,1,.71-1.03,1.983,1.983,0,0,1,1.23-.37h0a1.437,1.437,0,0,1,1.13.5h0a.058.058,0,0,0,.04.02.04.04,0,0,0,.02-.04h0ZM13.25-1.4a2.4,2.4,0,0,0,.23-1.16h0a2.309,2.309,0,0,0-.25-1.19h0a.846.846,0,0,0-.76-.44h0a.92.92,0,0,0-.8.42h0a2.144,2.144,0,0,0-.3,1.22h0a2.432,2.432,0,0,0,.24,1.15h0a.92.92,0,0,0,.85.48h0a.872.872,0,0,0,.79-.48Zm2.48-1.11a.108.108,0,0,1-.08-.03.124.124,0,0,1-.04-.09h0v-.76a.124.124,0,0,1,.04-.09.108.108,0,0,1,.08-.03h3.15a.108.108,0,0,1,.08.03.124.124,0,0,1,.04.09h0v.76a.124.124,0,0,1-.04.09.108.108,0,0,1-.08.03H15.73Zm8.84-4.41A.157.157,0,0,1,24.71-7h.92a.124.124,0,0,1,.09.04.108.108,0,0,1,.03.08h0V-.12a.108.108,0,0,1-.03.08.124.124,0,0,1-.09.04h-.92a.1.1,0,0,1-.08-.04.1.1,0,0,1-.04-.08h0V-4.89a.04.04,0,0,0-.02-.04.028.028,0,0,0-.04.02h0L23.28-2.99a.157.157,0,0,1-.14.08h-.46a.157.157,0,0,1-.14-.08h0L21.28-4.9q-.01-.03-.03-.02a.039.039,0,0,0-.03.04h0V-.12a.108.108,0,0,1-.03.08A.124.124,0,0,1,21.1,0h-.92a.1.1,0,0,1-.08-.04.1.1,0,0,1-.04-.08h0V-6.88a.1.1,0,0,1,.04-.08A.1.1,0,0,1,20.18-7h.92a.157.157,0,0,1,.14.08h0l1.63,2.47a.058.058,0,0,0,.04.02.032.032,0,0,0,.03-.02h0Zm4.48,1.73a2.639,2.639,0,0,1,1.11.22,1.757,1.757,0,0,1,.74.6,1.551,1.551,0,0,1,.26.88h0V-.12a.108.108,0,0,1-.03.08.124.124,0,0,1-.09.04h-.92a.1.1,0,0,1-.08-.04A.1.1,0,0,1,30-.12h0V-.44a.04.04,0,0,0-.02-.04.058.058,0,0,0-.04.02h0a1.82,1.82,0,0,1-1.42.54h0A1.921,1.921,0,0,1,27.29-.3a1.342,1.342,0,0,1-.49-1.13h0a1.476,1.476,0,0,1,.55-1.22,2.4,2.4,0,0,1,1.53-.43h1.07A.044.044,0,0,0,30-3.13h0v-.24a.8.8,0,0,0-.23-.61.993.993,0,0,0-.69-.21h0a1.164,1.164,0,0,0-.61.14.568.568,0,0,0-.3.37h0q-.03.12-.14.1h0l-.97-.12a.223.223,0,0,1-.08-.03.064.064,0,0,1-.03-.07h0a1.4,1.4,0,0,1,.66-1,2.494,2.494,0,0,1,1.44-.39ZM28.81-.84a1.369,1.369,0,0,0,.84-.26A.791.791,0,0,0,30-1.76h0v-.47a.044.044,0,0,0-.05-.05h-.84a1.484,1.484,0,0,0-.83.2.64.64,0,0,0-.31.57h0a.564.564,0,0,0,.24.49.946.946,0,0,0,.6.18ZM34.7-5.17a1.158,1.158,0,0,1,.56.13h0a.124.124,0,0,1,.06.15h0l-.17.9q-.01.12-.14.07h0a1.108,1.108,0,0,0-.35-.05h0a1.512,1.512,0,0,0-.2.01h0a1.044,1.044,0,0,0-.7.29.975.975,0,0,0-.28.72h0V-.12a.108.108,0,0,1-.03.08.124.124,0,0,1-.09.04h-.92a.1.1,0,0,1-.08-.04.1.1,0,0,1-.04-.08h0V-4.99a.124.124,0,0,1,.04-.09.108.108,0,0,1,.08-.03h.92a.146.146,0,0,1,.09.03.146.146,0,0,1,.03.09h0v.45q0,.04.02.04t.03-.02h0a1.321,1.321,0,0,1,1.17-.65ZM36.2,0a.1.1,0,0,1-.08-.04.1.1,0,0,1-.04-.08h0V-6.88a.1.1,0,0,1,.04-.08A.1.1,0,0,1,36.2-7h.92a.1.1,0,0,1,.08.04.1.1,0,0,1,.04.08h0v3.61a.04.04,0,0,0,.02.04q.02.01.04-.02h0l1.62-1.79a.21.21,0,0,1,.15-.07h1.06q.1,0,.1.07h0a.171.171,0,0,1-.03.08h0L38.93-3.44a.055.055,0,0,0-.01.07h0l1.5,3.23a.154.154,0,0,1,.02.06h0q0,.08-.11.08h-.97a.142.142,0,0,1-.14-.09h0L38.13-2.63a.064.064,0,0,0-.04-.03.032.032,0,0,0-.03.02h0l-.8.92a.161.161,0,0,0-.02.07h0V-.12a.1.1,0,0,1-.04.08.1.1,0,0,1-.08.04H36.2Zm9.05-3.13a3.564,3.564,0,0,1,.04.56h0l-.01.31a.106.106,0,0,1-.12.12H42.03a.044.044,0,0,0-.05.05h0a1.43,1.43,0,0,0,.09.45h0a1.1,1.1,0,0,0,1.17.73h0a1.26,1.26,0,0,0,1.08-.56h0a.118.118,0,0,1,.1-.06h0a.1.1,0,0,1,.07.03h0l.62.51a.107.107,0,0,1,.03.16h0a2.036,2.036,0,0,1-.83.68,2.645,2.645,0,0,1-1.14.24h0a2.426,2.426,0,0,1-1.33-.35,2.023,2.023,0,0,1-.79-.98h0a3.932,3.932,0,0,1-.23-1.5h0a3.04,3.04,0,0,1,.12-.94h0a2.021,2.021,0,0,1,.76-1.11,2.2,2.2,0,0,1,1.33-.4h0a2.046,2.046,0,0,1,2.22,2.06ZM43.03-4.19a1,1,0,0,0-.62.19.964.964,0,0,0-.34.51h0a1.736,1.736,0,0,0-.08.44h0q-.02.05.04.05h2.03a.044.044,0,0,0,.05-.05h0a1.885,1.885,0,0,0-.06-.38h0a.98.98,0,0,0-.35-.56,1.1,1.1,0,0,0-.67-.2Zm5.93-.1a.108.108,0,0,1-.03.08.124.124,0,0,1-.09.04H47.82a.044.044,0,0,0-.05.05h0v2.41a.755.755,0,0,0,.17.55.687.687,0,0,0,.52.17h.3a.108.108,0,0,1,.08.03.124.124,0,0,1,.04.09h0v.75a.123.123,0,0,1-.12.13h0l-.52.01a2.086,2.086,0,0,1-1.18-.27,1.181,1.181,0,0,1-.4-1.02h0V-4.12a.044.044,0,0,0-.05-.05h-.57a.1.1,0,0,1-.08-.04.1.1,0,0,1-.04-.08h0v-.7a.124.124,0,0,1,.04-.09.108.108,0,0,1,.08-.03h.57a.044.044,0,0,0,.05-.05h0V-6.33a.124.124,0,0,1,.04-.09.108.108,0,0,1,.08-.03h.87a.108.108,0,0,1,.08.03.124.124,0,0,1,.04.09h0v1.17a.044.044,0,0,0,.05.05h1.02a.146.146,0,0,1,.09.03.146.146,0,0,1,.03.09h0Z" transform="translate(21.79 75.4)" fill="#242530"/>
    <path id="Path_15484" data-name="Path 15484" d="M3.01.08a3.5,3.5,0,0,1-1.4-.26A1.989,1.989,0,0,1,.69-.91a1.866,1.866,0,0,1-.33-1.1h0v-.22A.1.1,0,0,1,.4-2.31a.1.1,0,0,1,.08-.04H1.62a.124.124,0,0,1,.09.04.108.108,0,0,1,.03.08h0v.15a.8.8,0,0,0,.37.67,1.619,1.619,0,0,0,1,.28h0a1.2,1.2,0,0,0,.79-.22.72.72,0,0,0,.26-.56h0A.543.543,0,0,0,4-2.31a1.3,1.3,0,0,0-.44-.29q-.27-.13-.87-.35h0a8.857,8.857,0,0,1-1.14-.47,2.224,2.224,0,0,1-.77-.66A1.607,1.607,0,0,1,.46-5.1h0A1.805,1.805,0,0,1,.77-6.15a1.974,1.974,0,0,1,.86-.69A3.15,3.15,0,0,1,2.9-7.08h0a3.211,3.211,0,0,1,1.35.27,2.224,2.224,0,0,1,.94.76,1.928,1.928,0,0,1,.33,1.12h0v.15a.108.108,0,0,1-.03.08.124.124,0,0,1-.09.04H4.25a.1.1,0,0,1-.08-.04.1.1,0,0,1-.04-.08h0v-.08a.928.928,0,0,0-.34-.72,1.444,1.444,0,0,0-.95-.29h0a1.219,1.219,0,0,0-.74.2.656.656,0,0,0-.26.55h0A.589.589,0,0,0,2-4.7a1.25,1.25,0,0,0,.46.3q.3.14.94.37h0a11.231,11.231,0,0,1,1.11.46,2.28,2.28,0,0,1,.74.59,1.6,1.6,0,0,1,.32,1.03h0A1.777,1.777,0,0,1,4.88-.47,2.918,2.918,0,0,1,3.01.08ZM9.1.08a2.9,2.9,0,0,1-1.35-.3,2.245,2.245,0,0,1-.92-.84,2.459,2.459,0,0,1-.32-1.26h0V-6.88a.108.108,0,0,1,.03-.08A.124.124,0,0,1,6.63-7H7.8a.1.1,0,0,1,.08.04.1.1,0,0,1,.04.08h0v4.57a1.13,1.13,0,0,0,.33.85,1.13,1.13,0,0,0,.85.33h0a1.163,1.163,0,0,0,.86-.33,1.149,1.149,0,0,0,.32-.85h0V-6.88a.1.1,0,0,1,.04-.08A.1.1,0,0,1,10.4-7h1.17a.124.124,0,0,1,.09.04.108.108,0,0,1,.03.08h0v4.56a2.459,2.459,0,0,1-.32,1.26,2.26,2.26,0,0,1-.91.84A2.96,2.96,0,0,1,9.1.08Zm8.25-7A.157.157,0,0,1,17.49-7h1.17a.124.124,0,0,1,.09.04.108.108,0,0,1,.03.08h0V-.12a.108.108,0,0,1-.03.08.124.124,0,0,1-.09.04H17.49a.1.1,0,0,1-.08-.04.1.1,0,0,1-.04-.08h0V-4.53q0-.04-.02-.04t-.04.03h0L16.25-2.88a.157.157,0,0,1-.14.08h-.59a.157.157,0,0,1-.14-.08h0L14.32-4.54q-.02-.03-.04-.03t-.02.05h0v4.4a.1.1,0,0,1-.04.08.1.1,0,0,1-.08.04H12.97a.124.124,0,0,1-.09-.04.108.108,0,0,1-.03-.08h0V-6.88a.108.108,0,0,1,.03-.08A.124.124,0,0,1,12.97-7h1.17a.157.157,0,0,1,.14.08h0l1.5,2.33q.03.06.06,0h0Zm7.15,0A.157.157,0,0,1,24.64-7h1.17a.1.1,0,0,1,.08.04.1.1,0,0,1,.04.08h0V-.12a.1.1,0,0,1-.04.08.1.1,0,0,1-.08.04H24.64a.124.124,0,0,1-.09-.04.108.108,0,0,1-.03-.08h0V-4.53q0-.04-.02-.04t-.04.03h0L23.4-2.88a.157.157,0,0,1-.14.08h-.59a.157.157,0,0,1-.14-.08h0L21.47-4.54q-.02-.03-.04-.03t-.02.05h0v4.4a.108.108,0,0,1-.03.08.124.124,0,0,1-.09.04H20.12a.1.1,0,0,1-.08-.04A.1.1,0,0,1,20-.12h0V-6.88a.1.1,0,0,1,.04-.08A.1.1,0,0,1,20.12-7h1.17a.157.157,0,0,1,.14.08h0l1.5,2.33q.03.06.06,0h0Zm7.51,1.01a.108.108,0,0,1-.03.08.124.124,0,0,1-.09.04H28.61a.044.044,0,0,0-.05.05h0v1.55a.044.044,0,0,0,.05.05h2.15a.108.108,0,0,1,.08.03.124.124,0,0,1,.04.09h0v.97a.124.124,0,0,1-.04.09.108.108,0,0,1-.08.03H28.61a.044.044,0,0,0-.05.05h0v1.62a.044.044,0,0,0,.05.05h3.28a.146.146,0,0,1,.09.03.146.146,0,0,1,.03.09h0v.97a.108.108,0,0,1-.03.08.124.124,0,0,1-.09.04H27.27a.124.124,0,0,1-.09-.04.108.108,0,0,1-.03-.08h0V-6.88a.108.108,0,0,1,.03-.08A.124.124,0,0,1,27.27-7h4.62a.124.124,0,0,1,.09.04.108.108,0,0,1,.03.08h0ZM36.83,0a.142.142,0,0,1-.14-.09h0L35.44-2.86a.064.064,0,0,0-.06-.04h-.93a.044.044,0,0,0-.05.05h0V-.12a.1.1,0,0,1-.04.08.1.1,0,0,1-.08.04H33.11a.124.124,0,0,1-.09-.04.108.108,0,0,1-.03-.08h0V-6.88a.108.108,0,0,1,.03-.08A.124.124,0,0,1,33.11-7h2.86a2.316,2.316,0,0,1,1.12.26,1.784,1.784,0,0,1,.75.74,2.226,2.226,0,0,1,.27,1.11h0a1.955,1.955,0,0,1-.34,1.16,1.8,1.8,0,0,1-.95.69h0a.048.048,0,0,0-.03.07h0L38.15-.14a.153.153,0,0,1,.02.06h0q0,.08-.11.08H36.83ZM34.45-5.79a.044.044,0,0,0-.05.05h0v1.71a.044.044,0,0,0,.05.05h1.31a.94.94,0,0,0,.68-.25.845.845,0,0,0,.27-.65h0a.877.877,0,0,0-.27-.66.94.94,0,0,0-.68-.25H34.45Z" transform="translate(27.56 89.5)" fill="#252530"/>
    <path id="Path_15485" data-name="Path 15485" d="M2.33-1.27a.033.033,0,0,0-.01.04.04.04,0,0,0,.04.02H5.07a.146.146,0,0,1,.09.03.146.146,0,0,1,.03.09h0v.97a.108.108,0,0,1-.03.08A.124.124,0,0,1,5.07,0H.57A.124.124,0,0,1,.48-.04.108.108,0,0,1,.45-.12h0v-.92a.2.2,0,0,1,.06-.15h0q.49-.48,1-1.04t.64-.71h0q.28-.33.57-.63h0a2.894,2.894,0,0,0,.91-1.5h0a.754.754,0,0,0-.25-.58.948.948,0,0,0-.65-.22h0a.948.948,0,0,0-.65.22.777.777,0,0,0-.25.6h0v.25a.124.124,0,0,1-.04.09.108.108,0,0,1-.08.03H.53a.108.108,0,0,1-.08-.03A.124.124,0,0,1,.41-4.8h0v-.47a1.744,1.744,0,0,1,.34-.96,2,2,0,0,1,.82-.63,2.949,2.949,0,0,1,1.16-.22h0a2.784,2.784,0,0,1,1.24.26,2.079,2.079,0,0,1,.81.72,1.855,1.855,0,0,1,.28,1h0a1.988,1.988,0,0,1-.21.86,4.755,4.755,0,0,1-.63.95h0q-.31.39-.67.77T2.48-1.42h0ZM8.44.11A2.4,2.4,0,0,1,6.7-.51a2.2,2.2,0,0,1-.64-1.67h0V-4.82A2.172,2.172,0,0,1,6.7-6.47a2.418,2.418,0,0,1,1.74-.61h0a2.454,2.454,0,0,1,1.75.61,2.172,2.172,0,0,1,.64,1.65h0v2.64a2.2,2.2,0,0,1-.64,1.67A2.43,2.43,0,0,1,8.44.11Zm0-1.21a.954.954,0,0,0,.72-.28,1.008,1.008,0,0,0,.26-.73h0V-4.86a1.008,1.008,0,0,0-.26-.73.954.954,0,0,0-.72-.28h0a.909.909,0,0,0-.7.28.986.986,0,0,0-.27.73h0v2.75a.986.986,0,0,0,.27.73.909.909,0,0,0,.7.28Zm5.19-.17a.033.033,0,0,0-.01.04.04.04,0,0,0,.04.02h2.71a.146.146,0,0,1,.09.03.146.146,0,0,1,.03.09h0v.97a.108.108,0,0,1-.03.08.124.124,0,0,1-.09.04h-4.5a.1.1,0,0,1-.08-.04.1.1,0,0,1-.04-.08h0v-.92a.2.2,0,0,1,.06-.15h0q.49-.48,1-1.04t.64-.71h0q.28-.33.57-.63h0a2.894,2.894,0,0,0,.91-1.5h0a.754.754,0,0,0-.25-.58.948.948,0,0,0-.65-.22h0a.948.948,0,0,0-.65.22.777.777,0,0,0-.25.6h0v.25a.146.146,0,0,1-.03.09.146.146,0,0,1-.09.03H11.83a.108.108,0,0,1-.08-.03.124.124,0,0,1-.04-.09h0v-.47a1.744,1.744,0,0,1,.34-.96,1.984,1.984,0,0,1,.83-.63,2.876,2.876,0,0,1,1.15-.22h0a2.784,2.784,0,0,1,1.24.26,2.079,2.079,0,0,1,.81.72,1.855,1.855,0,0,1,.28,1h0a1.988,1.988,0,0,1-.21.86,4.755,4.755,0,0,1-.63.95h0q-.31.39-.67.77t-1.07,1.1h0Zm4.71-5.7A.3.3,0,0,1,18.49-7H19.7a.124.124,0,0,1,.09.04.108.108,0,0,1,.03.08h0V-.12a.108.108,0,0,1-.03.08A.124.124,0,0,1,19.7,0H18.53a.1.1,0,0,1-.08-.04.1.1,0,0,1-.04-.08h0V-5.6a.058.058,0,0,0-.02-.04.033.033,0,0,0-.04-.01h0l-.99.27-.04.01q-.09,0-.09-.11h0l-.03-.86a.142.142,0,0,1,.09-.14h0Z" transform="translate(36.68 98.9)" fill="#252530"/>
  </g>
</svg>
