<svg id="High_Performer" data-name="High Performer" xmlns="http://www.w3.org/2000/svg" xmlns:xlink="http://www.w3.org/1999/xlink" width="92.501" height="104.3" viewBox="0 0 92.501 104.3">
  <defs>
    <clipPath id="clip-path">
      <path id="Path_15463" data-name="Path 15463" d="M89.342,56.99H3.159L0,64.49l3.159,7.5H89.342l3.159-7.5Z" transform="translate(0 -56.99)" fill="none"/>
    </clipPath>
    <clipPath id="clip-path-2">
      <rect id="Rectangle_1021" data-name="Rectangle 1021" width="92.501" height="122" fill="none"/>
    </clipPath>
    <clipPath id="clip-path-3">
      <path id="Path_15464" data-name="Path 15464" d="M47,21l10-5.6V0H37V15.4ZM49,7.86a2.15,2.15,0,0,1,.3-1.18,2.61,2.61,0,0,1,1.06-.84l.24-.1c.41-.2.51-.37.51-.57s-.22-.41-.57-.41a1,1,0,0,0-1,.62L49,4.85a1.49,1.49,0,0,1,.6-.62A1.72,1.72,0,0,1,50.49,4a1.77,1.77,0,0,1,1.06.31,1,1,0,0,1,.45.86c0,.58-.34.93-1,1.25l-.37.17c-.38.19-.57.35-.63.64h2V8H49ZM51.5,9,53,11.5,51.5,14,50,11.49H47L48.5,9ZM47.29,4a6.36,6.36,0,0,1,1.24.12L47.29,6.56A3.52,3.52,0,0,0,43.7,10a3.52,3.52,0,0,0,3.59,3.43,3.68,3.68,0,0,0,2.35-.83L51,14.84A6.5,6.5,0,0,1,47.29,16,6.16,6.16,0,0,1,41,10,6.16,6.16,0,0,1,47.29,4Z" transform="translate(-37)" fill="none"/>
    </clipPath>
    <clipPath id="clip-path-4">
      <rect id="Rectangle_1022" data-name="Rectangle 1022" width="94" height="122" fill="none"/>
    </clipPath>
  </defs>
  <path id="Path_15460" data-name="Path 15460" d="M47.057,101.31,6.63,81.1V13.681A17.35,17.35,0,0,0,21.018,2H71.407A17.369,17.369,0,0,0,86,13.721V81.1Z" fill="#fff"/>
  <path id="Path_15461" data-name="Path 15461" d="M7,81.134,46.977,101.31,85.5,81.115V13.853A19.09,19.09,0,0,1,76.67,10.23Z" transform="translate(0)" fill="#f7f8f7"/>
  <path id="Path_15462" data-name="Path 15462" d="M87.5,11.809h-.128A15.24,15.24,0,0,1,72.563,0H19.732A15.259,15.259,0,0,1,5,11.809V82.877l1.395.709L45.818,103.7l1.179.6h0l1.169-.62,37.97-20.114,1.365-.718V13.777h0ZM46.977,101.358,6.964,81.135V13.659A17.2,17.2,0,0,0,21.2,1.968H71.08A17.215,17.215,0,0,0,85.537,13.7V81.135Z" fill="#e9e9ea"/>
  <g id="Group_2438" data-name="Group 2438" transform="translate(0 55.931)" clip-path="url(#clip-path)">
    <g id="Group_2437" data-name="Group 2437" transform="translate(0 -58)" clip-path="url(#clip-path-2)">
      <rect id="banner" width="102.342" height="25" transform="translate(-4.92 53)" fill="#9132a2"/>
    </g>
  </g>
  <g id="Group_2440" data-name="Group 2440" transform="translate(36.251)" clip-path="url(#clip-path-3)">
    <g id="Group_2439" data-name="Group 2439" transform="translate(-37 -1.01)" clip-path="url(#clip-path-4)">
      <rect id="logo" width="30" height="31" transform="translate(32 -4)" fill="#9132a2"/>
    </g>
  </g>
  <path id="Path_15465" data-name="Path 15465" d="M5.152-10.51a3.5,3.5,0,0,1,1.7.4A2.764,2.764,0,0,1,7.987-8.96a3.512,3.512,0,0,1,.4,1.7h0a3.312,3.312,0,0,1-.411,1.67A2.932,2.932,0,0,1,6.8-4.48a3.654,3.654,0,0,1-1.74.4H2.981q-.068,0-.068.08h0V-.18a.163.163,0,0,1-.059.13A.17.17,0,0,1,2.727,0H1.016A.17.17,0,0,1,.889-.05.178.178,0,0,1,.84-.18h0V-10.33a.178.178,0,0,1,.049-.13.17.17,0,0,1,.127-.05H5.152ZM4.839-5.77a1.468,1.468,0,0,0,1.085-.4,1.387,1.387,0,0,0,.411-1.04h0a1.425,1.425,0,0,0-.411-1.07,1.448,1.448,0,0,0-1.085-.41H2.981q-.068,0-.068.08h0v2.76q0,.08.068.08H4.839ZM15.79-4.65a7.177,7.177,0,0,1,.049,1.27h0q-.01.19-.186.19H11.126q-.088,0-.068.07h0a2.946,2.946,0,0,0,.166.6h0a1.531,1.531,0,0,0,1.555.84h0a1.73,1.73,0,0,0,1.476-.78h0a.184.184,0,0,1,.137-.09h0a.159.159,0,0,1,.1.06h0l1.056,1.06a.221.221,0,0,1,.078.14h0a.312.312,0,0,1-.059.12h0a3.177,3.177,0,0,1-1.242.95,4.128,4.128,0,0,1-1.682.34h0A3.787,3.787,0,0,1,10.51-.46,3.27,3.27,0,0,1,9.258-2.1h0a5.158,5.158,0,0,1-.313-1.96h0A4.336,4.336,0,0,1,9.17-5.52h0a3.329,3.329,0,0,1,1.183-1.69,3.233,3.233,0,0,1,1.995-.63h0a3.226,3.226,0,0,1,2.356.87A3.853,3.853,0,0,1,15.79-4.65ZM12.368-6.01a1.18,1.18,0,0,0-1.222.88h0a3.4,3.4,0,0,0-.1.48h0q0,.07.078.07h2.532q.088,0,.059-.07h0q-.078-.43-.078-.42h0a1.28,1.28,0,0,0-.46-.7,1.323,1.323,0,0,0-.812-.24Zm8.506-1.8a1.488,1.488,0,0,1,.841.21h0a.187.187,0,0,1,.078.22h0l-.3,1.71q-.01.18-.205.11h0a1.511,1.511,0,0,0-.508-.08h0a2.585,2.585,0,0,0-.332.03h0a1.467,1.467,0,0,0-.89.4,1.247,1.247,0,0,0-.362.94h0V-.18a.163.163,0,0,1-.059.13.158.158,0,0,1-.117.05H17.3a.192.192,0,0,1-.127-.05.178.178,0,0,1-.049-.13h0V-7.53a.2.2,0,0,1,.049-.13.192.192,0,0,1,.127-.05h1.721a.158.158,0,0,1,.117.05.183.183,0,0,1,.059.13h0v.57a.068.068,0,0,0,.029.06q.02.02.039-.02h0a1.866,1.866,0,0,1,1.613-.89Zm6.248.09a.17.17,0,0,1,.127.05.178.178,0,0,1,.049.13h0v1.42a.178.178,0,0,1-.049.13.17.17,0,0,1-.127.05H25.7q-.078,0-.078.07h0V-.18a.178.178,0,0,1-.049.13A.17.17,0,0,1,25.45,0H23.739a.17.17,0,0,1-.127-.05.178.178,0,0,1-.049-.13h0V-5.87q0-.07-.078-.07h-.86a.17.17,0,0,1-.127-.05.178.178,0,0,1-.049-.13h0V-7.54a.178.178,0,0,1,.049-.13.17.17,0,0,1,.127-.05h.86a.07.07,0,0,0,.078-.08h0v-.33a3.154,3.154,0,0,1,.274-1.45,1.6,1.6,0,0,1,.9-.73,4.994,4.994,0,0,1,1.731-.19h.557a.158.158,0,0,1,.117.05.183.183,0,0,1,.059.13h0v1.21a.163.163,0,0,1-.059.13.147.147,0,0,1-.117.06h-.489a1.042,1.042,0,0,0-.714.21,1.105,1.105,0,0,0-.2.75h0v.16a.07.07,0,0,0,.078.08h1.418ZM31.375.12a3.42,3.42,0,0,1-2.112-.66,3.3,3.3,0,0,1-1.2-1.8h0a5.418,5.418,0,0,1-.205-1.53h0a5.718,5.718,0,0,1,.205-1.59h0A3.246,3.246,0,0,1,29.283-7.2a3.532,3.532,0,0,1,2.112-.63h0a3.418,3.418,0,0,1,2.053.62,3.38,3.38,0,0,1,1.193,1.74h0a5.034,5.034,0,0,1,.244,1.57h0a5.448,5.448,0,0,1-.205,1.52h0a3.306,3.306,0,0,1-1.2,1.83,3.343,3.343,0,0,1-2.1.67Zm0-1.81a1.2,1.2,0,0,0,.821-.3,1.658,1.658,0,0,0,.489-.83h0a4.8,4.8,0,0,0,.108-1.05h0a4.444,4.444,0,0,0-.108-1.06h0a1.754,1.754,0,0,0-.5-.8,1.27,1.27,0,0,0-.831-.28h0a1.231,1.231,0,0,0-.821.28,1.626,1.626,0,0,0-.479.8h0a3.566,3.566,0,0,0-.117,1.06h0a3.958,3.958,0,0,0,.108,1.05h0a1.658,1.658,0,0,0,.489.83,1.23,1.23,0,0,0,.841.3ZM39.97-7.81a1.488,1.488,0,0,1,.841.21h0a.172.172,0,0,1,.078.22h0l-.3,1.71q-.01.18-.205.11h0a1.511,1.511,0,0,0-.508-.08h0a2.373,2.373,0,0,0-.323.03h0a1.477,1.477,0,0,0-.9.4,1.247,1.247,0,0,0-.362.94h0V-.18a.163.163,0,0,1-.059.13A.17.17,0,0,1,38.1,0H36.391a.192.192,0,0,1-.127-.05.178.178,0,0,1-.049-.13h0V-7.53a.2.2,0,0,1,.049-.13.192.192,0,0,1,.127-.05H38.1a.17.17,0,0,1,.127.05.183.183,0,0,1,.059.13h0v.57a.083.083,0,0,0,.02.06q.039.02.049-.02h0a1.866,1.866,0,0,1,1.613-.89Zm10.218-.02a2.313,2.313,0,0,1,1.789.7,2.852,2.852,0,0,1,.645,1.99h0V-.18a.178.178,0,0,1-.049.13.158.158,0,0,1-.117.05H50.735a.192.192,0,0,1-.127-.05.178.178,0,0,1-.049-.13h0v-4.5a1.458,1.458,0,0,0-.3-.97,1.047,1.047,0,0,0-.831-.36h0a1.065,1.065,0,0,0-.831.36,1.385,1.385,0,0,0-.323.96h0V-.18a.178.178,0,0,1-.049.13A.192.192,0,0,1,48.1,0h-1.7a.17.17,0,0,1-.127-.05.178.178,0,0,1-.049-.13h0v-4.5a1.423,1.423,0,0,0-.323-.97,1.076,1.076,0,0,0-.841-.36h0a1.152,1.152,0,0,0-.782.28,1.241,1.241,0,0,0-.372.8h0V-.18a.178.178,0,0,1-.049.13.192.192,0,0,1-.127.05H42.013a.17.17,0,0,1-.127-.05.178.178,0,0,1-.049-.13h0V-7.53a.2.2,0,0,1,.049-.13.17.17,0,0,1,.127-.05h1.711a.192.192,0,0,1,.127.05.2.2,0,0,1,.049.13h0v.59a.068.068,0,0,0,.029.06q.029.01.059-.04h0a2.087,2.087,0,0,1,1.868-.91h0a2.492,2.492,0,0,1,1.281.32,2.059,2.059,0,0,1,.841.9h0q.039.09.108,0h0a2.066,2.066,0,0,1,.87-.92,2.521,2.521,0,0,1,1.232-.3ZM60.708-4.65a6.559,6.559,0,0,1,.059,1.27h0a.182.182,0,0,1-.2.19H56.044q-.088,0-.059.07h0a2.548,2.548,0,0,0,.156.6h0a1.531,1.531,0,0,0,1.555.84h0a1.755,1.755,0,0,0,1.486-.78h0a.161.161,0,0,1,.127-.09h0a.162.162,0,0,1,.108.06h0l1.056,1.06a.232.232,0,0,1,.068.14h0a.312.312,0,0,1-.059.12h0a3.085,3.085,0,0,1-1.242.95,4.06,4.06,0,0,1-1.672.34h0a3.757,3.757,0,0,1-2.132-.58A3.251,3.251,0,0,1,54.177-2.1h0a5.309,5.309,0,0,1-.3-1.96h0a4.517,4.517,0,0,1,.215-1.46h0a3.329,3.329,0,0,1,1.183-1.69,3.248,3.248,0,0,1,2-.63h0a3.226,3.226,0,0,1,2.356.87,3.808,3.808,0,0,1,1.076,2.32ZM57.286-6.01a1.174,1.174,0,0,0-1.212.88h0a4.452,4.452,0,0,0-.108.48h0q0,.07.078.07h2.532q.088,0,.059-.07h0q-.068-.43-.068-.42h0a1.354,1.354,0,0,0-.46-.7,1.366,1.366,0,0,0-.821-.24Zm8.506-1.8a1.488,1.488,0,0,1,.841.21h0a.183.183,0,0,1,.088.22h0l-.3,1.71q-.02.18-.215.11h0a1.458,1.458,0,0,0-.508-.08h0a2.373,2.373,0,0,0-.323.03h0a1.477,1.477,0,0,0-.9.4,1.247,1.247,0,0,0-.362.94h0V-.18a.178.178,0,0,1-.049.13.192.192,0,0,1-.127.05H62.214A.158.158,0,0,1,62.1-.05a.163.163,0,0,1-.059-.13h0V-7.53a.183.183,0,0,1,.059-.13.158.158,0,0,1,.117-.05h1.721a.192.192,0,0,1,.127.05.2.2,0,0,1,.049.13h0v.57a.068.068,0,0,0,.029.06q.029.02.049-.02h0a1.842,1.842,0,0,1,1.6-.89Z" transform="translate(12.05 51.363)" fill="#252530"/>
  <path id="Path_15466" data-name="Path 15466" d="M6.5-10.32a.2.2,0,0,1,.05-.13.164.164,0,0,1,.12-.05H8.43a.2.2,0,0,1,.13.05.2.2,0,0,1,.05.13h0V-.18a.176.176,0,0,1-.05.13A.2.2,0,0,1,8.43,0H6.67a.164.164,0,0,1-.12-.05A.176.176,0,0,1,6.5-.18h0V-4.32q0-.07-.08-.07H3.1a.062.062,0,0,0-.07.07h0V-.18a.176.176,0,0,1-.05.13A.2.2,0,0,1,2.85,0H1.09A.164.164,0,0,1,.97-.05.161.161,0,0,1,.91-.18h0V-10.32a.182.182,0,0,1,.06-.13.164.164,0,0,1,.12-.05H2.85a.2.2,0,0,1,.13.05.2.2,0,0,1,.05.13h0v4.03q0,.08.07.08H6.42a.071.071,0,0,0,.08-.08h0Zm4.84,1.74a1.153,1.153,0,0,1-.85-.34,1.12,1.12,0,0,1-.34-.84h0a1.163,1.163,0,0,1,.33-.86,1.163,1.163,0,0,1,.86-.33h0a1.163,1.163,0,0,1,.86.33,1.163,1.163,0,0,1,.33.86h0a1.12,1.12,0,0,1-.34.84,1.153,1.153,0,0,1-.85.34ZM10.44,0a.2.2,0,0,1-.13-.05.176.176,0,0,1-.05-.13h0V-7.54a.176.176,0,0,1,.05-.13.2.2,0,0,1,.13-.05H12.2a.164.164,0,0,1,.12.05.161.161,0,0,1,.06.13h0V-.18a.161.161,0,0,1-.06.13A.164.164,0,0,1,12.2,0H10.44Zm8.29-7.53a.182.182,0,0,1,.06-.13.164.164,0,0,1,.12-.05h1.76a.2.2,0,0,1,.13.05.2.2,0,0,1,.05.13h0V-.69a3.262,3.262,0,0,1-1.13,2.8,4.728,4.728,0,0,1-2.92.85h0a9.5,9.5,0,0,1-1.17-.08h0a.165.165,0,0,1-.15-.19h0l.06-1.55q0-.2.21-.17h0a6.059,6.059,0,0,0,.99.09h0A2.342,2.342,0,0,0,18.22.65,1.669,1.669,0,0,0,18.73-.7h0q0-.05-.03-.06t-.06.03h0a2.162,2.162,0,0,1-1.66.61h0a3.5,3.5,0,0,1-1.79-.47,2.619,2.619,0,0,1-1.17-1.52h0A6.027,6.027,0,0,1,13.8-3.9h0a5.575,5.575,0,0,1,.27-1.9h0a2.936,2.936,0,0,1,1.06-1.47,2.845,2.845,0,0,1,1.75-.56h0a2.225,2.225,0,0,1,1.76.69h0a.057.057,0,0,0,.06.02.046.046,0,0,0,.03-.05h0Zm-.12,4.84a4.905,4.905,0,0,0,.12-1.23h0a6.367,6.367,0,0,0-.03-.71,2.772,2.772,0,0,0-.1-.49h0a1.416,1.416,0,0,0-.45-.65,1.236,1.236,0,0,0-.78-.24h0a1.2,1.2,0,0,0-.76.24,1.454,1.454,0,0,0-.47.65h0a2.929,2.929,0,0,0-.21,1.22h0a2.887,2.887,0,0,0,.18,1.2h0a1.226,1.226,0,0,0,.47.65,1.314,1.314,0,0,0,.8.25h0a1.26,1.26,0,0,0,.8-.25,1.234,1.234,0,0,0,.43-.64Zm7.78-5.14a2.59,2.59,0,0,1,1.93.74,2.689,2.689,0,0,1,.73,1.99h0V-.18A.176.176,0,0,1,29-.05a.164.164,0,0,1-.12.05H27.12a.2.2,0,0,1-.13-.05.176.176,0,0,1-.05-.13h0V-4.67a1.4,1.4,0,0,0-.34-.97,1.133,1.133,0,0,0-.89-.37h0a1.152,1.152,0,0,0-.89.37,1.4,1.4,0,0,0-.34.97h0V-.18a.176.176,0,0,1-.05.13A.176.176,0,0,1,24.3,0H22.55a.176.176,0,0,1-.13-.05.176.176,0,0,1-.05-.13h0V-10.32a.2.2,0,0,1,.05-.13.176.176,0,0,1,.13-.05H24.3a.176.176,0,0,1,.13.05.2.2,0,0,1,.05.13h0V-7a.067.067,0,0,0,.03.06.028.028,0,0,0,.04-.02h0a2.113,2.113,0,0,1,1.84-.87Z" transform="translate(30.821 36.62)" fill="#252530"/>
  <path id="Path_15467" data-name="Path 15467" d="M4.93,0A.123.123,0,0,1,4.8-.1h0l-.32-1.07q-.019-.04-.049-.04H1.873q-.029,0-.049.04h0L1.5-.1a.123.123,0,0,1-.126.1H.407A.1.1,0,0,1,.319-.04a.1.1,0,0,1-.01-.1h0L2.416-6.9A.123.123,0,0,1,2.542-7H3.756a.123.123,0,0,1,.126.1h0L6-.14a.114.114,0,0,1,.01.05h0Q6.008,0,5.9,0H4.93ZM2.125-2.18q-.01.06.039.06h1.97q.058,0,.039-.06h0l-1-3.35q-.01-.04-.029-.04t-.029.04h0ZM8.745.06A2.763,2.763,0,0,1,7.677-.13a1.6,1.6,0,0,1-.718-.51,1.133,1.133,0,0,1-.252-.72h0v-.09a.126.126,0,0,1,.039-.09.1.1,0,0,1,.078-.03h.854a.139.139,0,0,1,.087.03.149.149,0,0,1,.029.09h0v.02a.542.542,0,0,0,.262.44,1.205,1.205,0,0,0,.679.18h0a1.127,1.127,0,0,0,.631-.16.5.5,0,0,0,.243-.42h0a.387.387,0,0,0-.194-.35,3.586,3.586,0,0,0-.65-.24h0L8.4-2.1a5.358,5.358,0,0,1-.835-.32,1.652,1.652,0,0,1-.573-.47,1.16,1.16,0,0,1-.233-.75h0a1.326,1.326,0,0,1,.534-1.11A2.212,2.212,0,0,1,8.7-5.17h0a2.636,2.636,0,0,1,1.039.19,1.651,1.651,0,0,1,.689.54,1.354,1.354,0,0,1,.243.79h0a.149.149,0,0,1-.029.09.139.139,0,0,1-.087.03H9.725a.1.1,0,0,1-.078-.03.126.126,0,0,1-.039-.09h0a.508.508,0,0,0-.243-.43,1.149,1.149,0,0,0-.679-.18h0a1.231,1.231,0,0,0-.621.14.465.465,0,0,0-.233.41h0a.386.386,0,0,0,.223.36,3.834,3.834,0,0,0,.767.28h0l.214.06a7.359,7.359,0,0,1,.864.32,1.774,1.774,0,0,1,.592.46,1.185,1.185,0,0,1,.243.77h0a1.3,1.3,0,0,1-.544,1.11A2.343,2.343,0,0,1,8.745.06Zm3.582-5.87a.66.66,0,0,1-.5-.2.7.7,0,0,1-.194-.51h0a.7.7,0,0,1,.194-.51.66.66,0,0,1,.5-.2h0a.66.66,0,0,1,.5.2.7.7,0,0,1,.194.51h0a.7.7,0,0,1-.194.51.66.66,0,0,1-.5.2ZM11.861,0a.091.091,0,0,1-.078-.04.1.1,0,0,1-.039-.08h0V-5a.1.1,0,0,1,.039-.08.091.091,0,0,1,.078-.04h.893a.091.091,0,0,1,.078.04A.1.1,0,0,1,12.87-5h0V-.12a.1.1,0,0,1-.039.08.091.091,0,0,1-.078.04h-.893Zm4.193-5.19a2.5,2.5,0,0,1,1.077.22,1.717,1.717,0,0,1,.718.6,1.585,1.585,0,0,1,.252.88h0V-.12a.11.11,0,0,1-.029.08.119.119,0,0,1-.087.04h-.893a.091.091,0,0,1-.078-.04.1.1,0,0,1-.039-.08h0V-.44a.041.041,0,0,0-.019-.04.055.055,0,0,0-.039.02h0A1.739,1.739,0,0,1,15.54.08h0A1.828,1.828,0,0,1,14.346-.3a1.36,1.36,0,0,1-.476-1.13h0A1.494,1.494,0,0,1,14.4-2.65a2.283,2.283,0,0,1,1.485-.43h1.039a.044.044,0,0,0,.049-.05h0v-.24a.818.818,0,0,0-.223-.61.946.946,0,0,0-.67-.21h0a1.1,1.1,0,0,0-.592.14.565.565,0,0,0-.291.37h0q-.029.12-.136.1h0l-.942-.12a.213.213,0,0,1-.078-.03.065.065,0,0,1-.029-.07h0a1.4,1.4,0,0,1,.641-1,2.368,2.368,0,0,1,1.4-.39ZM15.821-.84a1.3,1.3,0,0,0,.815-.26.8.8,0,0,0,.34-.66h0v-.47a.044.044,0,0,0-.049-.05h-.815a1.407,1.407,0,0,0-.806.2.644.644,0,0,0-.3.57h0a.569.569,0,0,0,.233.49.9.9,0,0,0,.582.18ZM24-7.01a2.174,2.174,0,0,1,1.077.26,1.788,1.788,0,0,1,.718.73,2.258,2.258,0,0,1,.262,1.1h0A2.18,2.18,0,0,1,25.8-3.84a1.758,1.758,0,0,1-.747.72,2.271,2.271,0,0,1-1.107.26H22.393a.044.044,0,0,0-.049.05h0V-.12a.11.11,0,0,1-.029.08.119.119,0,0,1-.087.04h-.893a.119.119,0,0,1-.087-.04.11.11,0,0,1-.029-.08h0V-6.89a.149.149,0,0,1,.029-.09.139.139,0,0,1,.087-.03H24ZM23.839-3.8a1.078,1.078,0,0,0,.8-.3,1.066,1.066,0,0,0,.3-.79h0a1.114,1.114,0,0,0-.3-.81,1.059,1.059,0,0,0-.8-.31H22.393a.044.044,0,0,0-.049.05h0v2.11a.044.044,0,0,0,.049.05h1.446ZM28.78-5.19a2.5,2.5,0,0,1,1.077.22,1.717,1.717,0,0,1,.718.6,1.585,1.585,0,0,1,.252.88h0V-.12a.1.1,0,0,1-.039.08.091.091,0,0,1-.078.04h-.893a.091.091,0,0,1-.078-.04A.1.1,0,0,1,29.7-.12h0V-.44a.041.041,0,0,0-.019-.04.055.055,0,0,0-.039.02h0a1.739,1.739,0,0,1-1.378.54h0A1.828,1.828,0,0,1,27.071-.3,1.36,1.36,0,0,1,26.6-1.43h0a1.507,1.507,0,0,1,.524-1.22,2.324,2.324,0,0,1,1.495-.43h1.039a.044.044,0,0,0,.049-.05h0v-.24a.818.818,0,0,0-.223-.61.946.946,0,0,0-.67-.21h0a1.156,1.156,0,0,0-.6.14.571.571,0,0,0-.281.37h0q-.029.12-.136.1h0l-.942-.12a.213.213,0,0,1-.078-.03.065.065,0,0,1-.029-.07h0a1.4,1.4,0,0,1,.641-1,2.368,2.368,0,0,1,1.4-.39ZM28.547-.84a1.3,1.3,0,0,0,.815-.26.8.8,0,0,0,.34-.66h0v-.47a.044.044,0,0,0-.049-.05h-.815a1.407,1.407,0,0,0-.806.2.644.644,0,0,0-.3.57h0a.569.569,0,0,0,.233.49.9.9,0,0,0,.582.18Zm5.475.92a2.118,2.118,0,0,1-1.291-.4,2.021,2.021,0,0,1-.757-1.06h0a3.777,3.777,0,0,1-.155-1.2h0a3.756,3.756,0,0,1,.155-1.18h0a1.922,1.922,0,0,1,.747-1.04,2.2,2.2,0,0,1,1.3-.39h0a2.26,2.26,0,0,1,1.32.39,1.85,1.85,0,0,1,.747.98h0a1.882,1.882,0,0,1,.068.32h0v.02a.114.114,0,0,1-.107.12h0l-.874.13h-.019a.117.117,0,0,1-.116-.1h0a.268.268,0,0,0-.01-.08h0q-.019-.08-.039-.14h0a.86.86,0,0,0-.349-.46,1.07,1.07,0,0,0-.621-.18h0A1.046,1.046,0,0,0,33.39-4a.976.976,0,0,0-.34.54h0a3.2,3.2,0,0,0-.1.89h0a3.688,3.688,0,0,0,.087.89h0a1.029,1.029,0,0,0,.349.55.953.953,0,0,0,.631.21h0a1.09,1.09,0,0,0,.641-.19A.907.907,0,0,0,35-1.64h0a.114.114,0,0,0,.01-.05h0a.042.042,0,0,0,.01-.03h0q.029-.12.136-.1h0l.874.14a.21.21,0,0,1,.087.04.129.129,0,0,1,.019.1h0q-.029.16-.049.23h0a1.8,1.8,0,0,1-.747,1.02,2.349,2.349,0,0,1-1.32.37Zm3.727-5.89a.66.66,0,0,1-.5-.2.7.7,0,0,1-.194-.51h0a.7.7,0,0,1,.194-.51.66.66,0,0,1,.5-.2h0a.66.66,0,0,1,.5.2.7.7,0,0,1,.194.51h0a.7.7,0,0,1-.194.51.66.66,0,0,1-.5.2ZM37.283,0a.091.091,0,0,1-.078-.04.1.1,0,0,1-.039-.08h0V-5a.1.1,0,0,1,.039-.08.091.091,0,0,1,.078-.04h.893a.119.119,0,0,1,.087.04.11.11,0,0,1,.029.08h0V-.12a.11.11,0,0,1-.029.08.119.119,0,0,1-.087.04h-.893Zm4.882-5.12a.119.119,0,0,1,.087.04.11.11,0,0,1,.029.08h0v.79a.11.11,0,0,1-.029.08.119.119,0,0,1-.087.04H41.2a.044.044,0,0,0-.049.05h0V-.12a.1.1,0,0,1-.039.08.091.091,0,0,1-.078.04h-.893a.091.091,0,0,1-.078-.04.1.1,0,0,1-.039-.08h0V-4.04a.044.044,0,0,0-.049-.05h-.6a.091.091,0,0,1-.078-.04.1.1,0,0,1-.039-.08h0V-5a.1.1,0,0,1,.039-.08.091.091,0,0,1,.078-.04h.6a.044.044,0,0,0,.049-.05h0v-.18a2.485,2.485,0,0,1,.165-1.01.971.971,0,0,1,.544-.5A2.887,2.887,0,0,1,41.806-7h.34a.091.091,0,0,1,.078.04.1.1,0,0,1,.039.08h0v.7a.126.126,0,0,1-.039.09.1.1,0,0,1-.078.03h-.252a.8.8,0,0,0-.582.17.932.932,0,0,0-.155.62h0v.1a.044.044,0,0,0,.049.05h.961Zm1.708-.69a.66.66,0,0,1-.5-.2.7.7,0,0,1-.194-.51h0a.7.7,0,0,1,.194-.51.66.66,0,0,1,.5-.2h0a.66.66,0,0,1,.5.2.7.7,0,0,1,.194.51h0a.7.7,0,0,1-.194.51.66.66,0,0,1-.5.2ZM43.408,0a.091.091,0,0,1-.078-.04.1.1,0,0,1-.039-.08h0V-5a.1.1,0,0,1,.039-.08.091.091,0,0,1,.078-.04H44.3a.091.091,0,0,1,.078.04.1.1,0,0,1,.039.08h0V-.12a.1.1,0,0,1-.039.08A.091.091,0,0,1,44.3,0h-.893Zm4.368.08a2.118,2.118,0,0,1-1.291-.4,2.021,2.021,0,0,1-.757-1.06h0a3.777,3.777,0,0,1-.155-1.2h0a3.756,3.756,0,0,1,.155-1.18h0a1.922,1.922,0,0,1,.747-1.04,2.2,2.2,0,0,1,1.3-.39h0a2.26,2.26,0,0,1,1.32.39,1.85,1.85,0,0,1,.747.98h0a1.882,1.882,0,0,1,.068.32h0v.02a.114.114,0,0,1-.107.12h0l-.874.13h-.019a.117.117,0,0,1-.116-.1h0a.268.268,0,0,0-.01-.08h0q-.019-.08-.039-.14h0a.86.86,0,0,0-.349-.46,1.07,1.07,0,0,0-.621-.18h0a1.046,1.046,0,0,0-.631.19.976.976,0,0,0-.34.54h0a3.2,3.2,0,0,0-.1.89h0a3.688,3.688,0,0,0,.087.89h0a1.029,1.029,0,0,0,.349.55.953.953,0,0,0,.631.21h0a1.046,1.046,0,0,0,.631-.19.892.892,0,0,0,.349-.53h0a.114.114,0,0,0,.01-.05h0a.041.041,0,0,0,.01-.03h0q.029-.12.136-.1h0l.874.14a.146.146,0,0,1,.078.04.11.11,0,0,1,.029.1h0q-.029.16-.049.23h0A1.8,1.8,0,0,1,49.1-.29a2.349,2.349,0,0,1-1.32.37Z" transform="translate(20.99 67.254)" fill="#fff"/>
  <path id="Path_15468" data-name="Path 15468" d="M3.01.08a3.5,3.5,0,0,1-1.4-.26A1.989,1.989,0,0,1,.69-.91a1.866,1.866,0,0,1-.33-1.1h0v-.22A.1.1,0,0,1,.4-2.31a.1.1,0,0,1,.08-.04H1.62a.124.124,0,0,1,.09.04.108.108,0,0,1,.03.08h0v.15a.8.8,0,0,0,.37.67,1.619,1.619,0,0,0,1,.28h0a1.2,1.2,0,0,0,.79-.22.72.72,0,0,0,.26-.56h0A.543.543,0,0,0,4-2.31a1.3,1.3,0,0,0-.44-.29q-.27-.13-.87-.35h0a8.857,8.857,0,0,1-1.14-.47,2.224,2.224,0,0,1-.77-.66A1.607,1.607,0,0,1,.46-5.1h0A1.805,1.805,0,0,1,.77-6.15a1.974,1.974,0,0,1,.86-.69A3.15,3.15,0,0,1,2.9-7.08h0a3.211,3.211,0,0,1,1.35.27,2.224,2.224,0,0,1,.94.76,1.928,1.928,0,0,1,.33,1.12h0v.15a.108.108,0,0,1-.03.08.124.124,0,0,1-.09.04H4.25a.1.1,0,0,1-.08-.04.1.1,0,0,1-.04-.08h0v-.08a.928.928,0,0,0-.34-.72,1.444,1.444,0,0,0-.95-.29h0a1.219,1.219,0,0,0-.74.2.656.656,0,0,0-.26.55h0A.589.589,0,0,0,2-4.7a1.25,1.25,0,0,0,.46.3q.3.14.94.37h0a11.231,11.231,0,0,1,1.11.46,2.28,2.28,0,0,1,.74.59,1.6,1.6,0,0,1,.32,1.03h0A1.777,1.777,0,0,1,4.88-.47,2.918,2.918,0,0,1,3.01.08ZM9.1.08a2.9,2.9,0,0,1-1.35-.3,2.245,2.245,0,0,1-.92-.84,2.459,2.459,0,0,1-.32-1.26h0V-6.88a.108.108,0,0,1,.03-.08A.124.124,0,0,1,6.63-7H7.8a.1.1,0,0,1,.08.04.1.1,0,0,1,.04.08h0v4.57a1.13,1.13,0,0,0,.33.85,1.13,1.13,0,0,0,.85.33h0a1.163,1.163,0,0,0,.86-.33,1.149,1.149,0,0,0,.32-.85h0V-6.88a.1.1,0,0,1,.04-.08A.1.1,0,0,1,10.4-7h1.17a.124.124,0,0,1,.09.04.108.108,0,0,1,.03.08h0v4.56a2.459,2.459,0,0,1-.32,1.26,2.26,2.26,0,0,1-.91.84A2.96,2.96,0,0,1,9.1.08Zm8.25-7A.157.157,0,0,1,17.49-7h1.17a.124.124,0,0,1,.09.04.108.108,0,0,1,.03.08h0V-.12a.108.108,0,0,1-.03.08.124.124,0,0,1-.09.04H17.49a.1.1,0,0,1-.08-.04.1.1,0,0,1-.04-.08h0V-4.53q0-.04-.02-.04t-.04.03h0L16.25-2.88a.157.157,0,0,1-.14.08h-.59a.157.157,0,0,1-.14-.08h0L14.32-4.54q-.02-.03-.04-.03t-.02.05h0v4.4a.1.1,0,0,1-.04.08.1.1,0,0,1-.08.04H12.97a.124.124,0,0,1-.09-.04.108.108,0,0,1-.03-.08h0V-6.88a.108.108,0,0,1,.03-.08A.124.124,0,0,1,12.97-7h1.17a.157.157,0,0,1,.14.08h0l1.5,2.33q.03.06.06,0h0Zm7.15,0A.157.157,0,0,1,24.64-7h1.17a.1.1,0,0,1,.08.04.1.1,0,0,1,.04.08h0V-.12a.1.1,0,0,1-.04.08.1.1,0,0,1-.08.04H24.64a.124.124,0,0,1-.09-.04.108.108,0,0,1-.03-.08h0V-4.53q0-.04-.02-.04t-.04.03h0L23.4-2.88a.157.157,0,0,1-.14.08h-.59a.157.157,0,0,1-.14-.08h0L21.47-4.54q-.02-.03-.04-.03t-.02.05h0v4.4a.108.108,0,0,1-.03.08.124.124,0,0,1-.09.04H20.12a.1.1,0,0,1-.08-.04A.1.1,0,0,1,20-.12h0V-6.88a.1.1,0,0,1,.04-.08A.1.1,0,0,1,20.12-7h1.17a.157.157,0,0,1,.14.08h0l1.5,2.33q.03.06.06,0h0Zm7.51,1.01a.108.108,0,0,1-.03.08.124.124,0,0,1-.09.04H28.61a.044.044,0,0,0-.05.05h0v1.55a.044.044,0,0,0,.05.05h2.15a.108.108,0,0,1,.08.03.124.124,0,0,1,.04.09h0v.97a.124.124,0,0,1-.04.09.108.108,0,0,1-.08.03H28.61a.044.044,0,0,0-.05.05h0v1.62a.044.044,0,0,0,.05.05h3.28a.146.146,0,0,1,.09.03.146.146,0,0,1,.03.09h0v.97a.108.108,0,0,1-.03.08.124.124,0,0,1-.09.04H27.27a.124.124,0,0,1-.09-.04.108.108,0,0,1-.03-.08h0V-6.88a.108.108,0,0,1,.03-.08A.124.124,0,0,1,27.27-7h4.62a.124.124,0,0,1,.09.04.108.108,0,0,1,.03.08h0ZM36.83,0a.142.142,0,0,1-.14-.09h0L35.44-2.86a.064.064,0,0,0-.06-.04h-.93a.044.044,0,0,0-.05.05h0V-.12a.1.1,0,0,1-.04.08.1.1,0,0,1-.08.04H33.11a.124.124,0,0,1-.09-.04.108.108,0,0,1-.03-.08h0V-6.88a.108.108,0,0,1,.03-.08A.124.124,0,0,1,33.11-7h2.86a2.316,2.316,0,0,1,1.12.26,1.784,1.784,0,0,1,.75.74,2.226,2.226,0,0,1,.27,1.11h0a1.955,1.955,0,0,1-.34,1.16,1.8,1.8,0,0,1-.95.69h0a.048.048,0,0,0-.03.07h0L38.15-.14a.153.153,0,0,1,.02.06h0q0,.08-.11.08H36.83ZM34.45-5.79a.044.044,0,0,0-.05.05h0v1.71a.044.044,0,0,0,.05.05h1.31a.94.94,0,0,0,.68-.25.845.845,0,0,0,.27-.65h0a.877.877,0,0,0-.27-.66.94.94,0,0,0-.68-.25H34.45Z" transform="translate(26.815 81.112)" fill="#252530"/>
  <path id="Path_15469" data-name="Path 15469" d="M2.33-1.27a.033.033,0,0,0-.01.04.04.04,0,0,0,.04.02H5.07a.146.146,0,0,1,.09.03.146.146,0,0,1,.03.09h0v.97a.108.108,0,0,1-.03.08A.124.124,0,0,1,5.07,0H.57A.124.124,0,0,1,.48-.04.108.108,0,0,1,.45-.12h0v-.92a.2.2,0,0,1,.06-.15h0q.49-.48,1-1.04t.64-.71h0q.28-.33.57-.63h0a2.894,2.894,0,0,0,.91-1.5h0a.754.754,0,0,0-.25-.58.948.948,0,0,0-.65-.22h0a.948.948,0,0,0-.65.22.777.777,0,0,0-.25.6h0v.25a.124.124,0,0,1-.04.09.108.108,0,0,1-.08.03H.53a.108.108,0,0,1-.08-.03A.124.124,0,0,1,.41-4.8h0v-.47a1.744,1.744,0,0,1,.34-.96,2,2,0,0,1,.82-.63,2.949,2.949,0,0,1,1.16-.22h0a2.784,2.784,0,0,1,1.24.26,2.079,2.079,0,0,1,.81.72,1.855,1.855,0,0,1,.28,1h0a1.988,1.988,0,0,1-.21.86,4.755,4.755,0,0,1-.63.95h0q-.31.39-.67.77T2.48-1.42h0ZM8.44.11A2.4,2.4,0,0,1,6.7-.51a2.2,2.2,0,0,1-.64-1.67h0V-4.82A2.172,2.172,0,0,1,6.7-6.47a2.418,2.418,0,0,1,1.74-.61h0a2.454,2.454,0,0,1,1.75.61,2.172,2.172,0,0,1,.64,1.65h0v2.64a2.2,2.2,0,0,1-.64,1.67A2.43,2.43,0,0,1,8.44.11Zm0-1.21a.954.954,0,0,0,.72-.28,1.008,1.008,0,0,0,.26-.73h0V-4.86a1.008,1.008,0,0,0-.26-.73.954.954,0,0,0-.72-.28h0a.909.909,0,0,0-.7.28.986.986,0,0,0-.27.73h0v2.75a.986.986,0,0,0,.27.73.909.909,0,0,0,.7.28Zm5.19-.17a.033.033,0,0,0-.01.04.04.04,0,0,0,.04.02h2.71a.146.146,0,0,1,.09.03.146.146,0,0,1,.03.09h0v.97a.108.108,0,0,1-.03.08.124.124,0,0,1-.09.04h-4.5a.1.1,0,0,1-.08-.04.1.1,0,0,1-.04-.08h0v-.92a.2.2,0,0,1,.06-.15h0q.49-.48,1-1.04t.64-.71h0q.28-.33.57-.63h0a2.894,2.894,0,0,0,.91-1.5h0a.754.754,0,0,0-.25-.58.948.948,0,0,0-.65-.22h0a.948.948,0,0,0-.65.22.777.777,0,0,0-.25.6h0v.25a.146.146,0,0,1-.03.09.146.146,0,0,1-.09.03H11.83a.108.108,0,0,1-.08-.03.124.124,0,0,1-.04-.09h0v-.47a1.744,1.744,0,0,1,.34-.96,1.984,1.984,0,0,1,.83-.63,2.876,2.876,0,0,1,1.15-.22h0a2.784,2.784,0,0,1,1.24.26,2.079,2.079,0,0,1,.81.72,1.855,1.855,0,0,1,.28,1h0a1.988,1.988,0,0,1-.21.86,4.755,4.755,0,0,1-.63.95h0q-.31.39-.67.77t-1.07,1.1h0Zm4.71-5.7A.3.3,0,0,1,18.49-7H19.7a.124.124,0,0,1,.09.04.108.108,0,0,1,.03.08h0V-.12a.108.108,0,0,1-.03.08A.124.124,0,0,1,19.7,0H18.53a.1.1,0,0,1-.08-.04.1.1,0,0,1-.04-.08h0V-5.6a.058.058,0,0,0-.02-.04.033.033,0,0,0-.04-.01h0l-.99.27-.04.01q-.09,0-.09-.11h0l-.03-.86a.142.142,0,0,1,.09-.14h0Z" transform="translate(35.935 90.11)" fill="#252530"/>
</svg>
