<svg xmlns="http://www.w3.org/2000/svg" width="92.9" height="104.3" viewBox="0 0 92.9 104.3">
  <g id="Leader" transform="translate(-0.4 -8.7)">
    <path id="Path_15491" data-name="Path 15491" d="M8.1,89.9,47.6,110l38-20.1V11.3H8.1Z" fill="#fff"/>
    <path id="Path_15492" data-name="Path 15492" d="M86.4,11.6,7.3,91.3l41,20.3L86.4,92.1Z" fill="#f2f3f2"/>
    <path id="Path_15493" data-name="Path 15493" d="M5.5,37.5V91.6l1.4.7,39.5,20.1,1.2.6,1.2-.6L86.9,92.3l1.4-.7V8.7H5.5ZM8.1,90.1V11.3H85.7V90.1L47.6,110.2Z" fill="#dcdedc"/>
    <path id="logo" d="M46.9,12.6a4.869,4.869,0,0,1,1.2.1L46.9,15a3.306,3.306,0,0,0-.4,6.6h.4a3.5,3.5,0,0,0,2.2-.8L50.4,23a6.062,6.062,0,0,1-3.5,1.1,5.755,5.755,0,1,1-.5-11.5h.5ZM51,17.5,52.5,20,51,22.4,49.6,20H46.7l1.5-2.5Zm-2.4-.9a2.016,2.016,0,0,1,.3-1.1,3.45,3.45,0,0,1,.9-.8l.2-.1c.4-.2.5-.3.5-.5s-.3-.4-.5-.4a.961.961,0,0,0-.9.6l-.5-.5a2.651,2.651,0,0,1,.5-.6A1.486,1.486,0,0,1,50,13a1.4,1.4,0,0,1,.9.3,1.234,1.234,0,0,1,.4.8,1.147,1.147,0,0,1-.9,1.1l-.3.2c-.3.2-.5.3-.6.6h1.8v.7l-2.7-.1ZM46.9,29.1l9.5-5.4V8.7H37.3V23.6l9.6,5.5Z" fill="#ff492c"/>
    <path id="banner" d="M90.2,64.5H3.6l-3.2,7,3.2,7H90.2l3.1-7Z" fill="#ff492c"/>
    <path id="Path_15494" data-name="Path 15494" d="M1.31,0a.2.2,0,0,1-.15-.06A.239.239,0,0,1,1.1-.22h0V-12.38a.239.239,0,0,1,.06-.16.2.2,0,0,1,.15-.06H3.42a.2.2,0,0,1,.15.06.22.22,0,0,1,.07.16h0V-2.27a.08.08,0,0,0,.09.09H9.61a.239.239,0,0,1,.16.06.239.239,0,0,1,.06.16h0V-.22a.239.239,0,0,1-.06.16A.239.239,0,0,1,9.61,0H1.31ZM19.42-5.58a7.44,7.44,0,0,1,.07,1.53h0a.2.2,0,0,1-.23.22H13.7q-.11,0-.07.09h0a3.2,3.2,0,0,0,.19.72h0a1.9,1.9,0,0,0,1.91,1h0a2.159,2.159,0,0,0,1.82-.93h0a.2.2,0,0,1,.16-.11h0a.2.2,0,0,1,.13.07h0l1.29,1.28a.248.248,0,0,1,.09.16h0a.378.378,0,0,1-.07.15h0A3.965,3.965,0,0,1,17.62-.26a5.135,5.135,0,0,1-2.05.4h0a4.684,4.684,0,0,1-2.62-.7,3.9,3.9,0,0,1-1.54-1.96h0a6.149,6.149,0,0,1-.38-2.36h0a5.128,5.128,0,0,1,.27-1.74h0a4.022,4.022,0,0,1,1.45-2.04,4.093,4.093,0,0,1,2.46-.75h0A4.012,4.012,0,0,1,18.1-8.37a4.533,4.533,0,0,1,1.32,2.79ZM15.23-7.22a1.446,1.446,0,0,0-1.5,1.06h0a4.38,4.38,0,0,0-.12.58h0a.08.08,0,0,0,.09.09h3.11q.11,0,.07-.09h0q-.09-.52-.09-.5h0a1.571,1.571,0,0,0-.56-.84,1.647,1.647,0,0,0-1-.3ZM24.66-9.4a5.084,5.084,0,0,1,2.09.41,3.359,3.359,0,0,1,1.43,1.11,2.587,2.587,0,0,1,.51,1.56h0v6.1a.239.239,0,0,1-.06.16.2.2,0,0,1-.15.06H26.37a.2.2,0,0,1-.15-.06.22.22,0,0,1-.07-.16h0V-.81a.078.078,0,0,0-.03-.07q-.04-.02-.07.03h0a2.87,2.87,0,0,1-2.43.99h0a3.555,3.555,0,0,1-2.27-.68,2.407,2.407,0,0,1-.87-2.02h0a2.579,2.579,0,0,1,.98-2.15,4.405,4.405,0,0,1,2.77-.76h1.83a.08.08,0,0,0,.09-.09h0v-.4a1.218,1.218,0,0,0-.36-.93,1.551,1.551,0,0,0-1.08-.33h0a1.917,1.917,0,0,0-.92.2.939.939,0,0,0-.48.56h0q-.05.2-.23.18h0L20.9-6.57q-.22-.04-.2-.16h0a2.382,2.382,0,0,1,.6-1.37,3.492,3.492,0,0,1,1.41-.95,5.184,5.184,0,0,1,1.95-.35ZM24.3-1.75a2.1,2.1,0,0,0,1.31-.41,1.273,1.273,0,0,0,.54-1.06h0v-.65a.08.08,0,0,0-.09-.09H24.77a2.25,2.25,0,0,0-1.27.31.966.966,0,0,0-.46.86h0a.915.915,0,0,0,.34.76,1.4,1.4,0,0,0,.92.28ZM36.22-12.38a.239.239,0,0,1,.06-.16.2.2,0,0,1,.15-.06h2.11a.2.2,0,0,1,.15.06.239.239,0,0,1,.06.16h0V-.22a.239.239,0,0,1-.06.16.2.2,0,0,1-.15.06H36.43a.2.2,0,0,1-.15-.06.239.239,0,0,1-.06-.16h0V-.81a.054.054,0,0,0-.04-.06.069.069,0,0,0-.07.02h0a2.47,2.47,0,0,1-2.07.99h0a3.455,3.455,0,0,1-2.17-.7,3.867,3.867,0,0,1-1.31-1.92h0a7.18,7.18,0,0,1-.3-2.18h0a7,7,0,0,1,.32-2.23h0a3.875,3.875,0,0,1,1.31-1.83,3.517,3.517,0,0,1,2.2-.68h0a2.44,2.44,0,0,1,2.02.9h0q.03.06.07.04a.072.072,0,0,0,.04-.07h0Zm-.38,9.57a3.831,3.831,0,0,0,.36-1.82h0a3.775,3.775,0,0,0-.4-1.89h0a1.312,1.312,0,0,0-1.2-.7h0a1.406,1.406,0,0,0-1.28.7h0a3.536,3.536,0,0,0-.45,1.91h0a3.828,3.828,0,0,0,.38,1.8h0a1.446,1.446,0,0,0,1.33.78h0a1.393,1.393,0,0,0,1.26-.78ZM48.85-5.58a7.44,7.44,0,0,1,.07,1.53h0a.2.2,0,0,1-.23.22H43.13q-.11,0-.07.09h0a3.2,3.2,0,0,0,.19.72h0a1.9,1.9,0,0,0,1.91,1h0a2.159,2.159,0,0,0,1.82-.93h0a.2.2,0,0,1,.16-.11h0a.2.2,0,0,1,.13.07h0l1.29,1.28a.248.248,0,0,1,.09.16h0a.378.378,0,0,1-.07.15h0A3.965,3.965,0,0,1,47.05-.26,5.135,5.135,0,0,1,45,.14h0a4.684,4.684,0,0,1-2.62-.7,3.9,3.9,0,0,1-1.54-1.96h0a6.149,6.149,0,0,1-.38-2.36h0a5.128,5.128,0,0,1,.27-1.74h0a4.022,4.022,0,0,1,1.45-2.04,4.093,4.093,0,0,1,2.46-.75h0a4.012,4.012,0,0,1,2.89,1.04,4.533,4.533,0,0,1,1.32,2.79ZM44.66-7.22a1.446,1.446,0,0,0-1.5,1.06h0a4.38,4.38,0,0,0-.12.58h0a.08.08,0,0,0,.09.09h3.11q.11,0,.07-.09h0q-.09-.52-.09-.5h0a1.571,1.571,0,0,0-.56-.84,1.647,1.647,0,0,0-1-.3ZM55.1-9.38a1.8,1.8,0,0,1,1.02.25h0a.222.222,0,0,1,.11.27h0L55.85-6.8q-.01.21-.25.12h0a1.994,1.994,0,0,0-.63-.09h0a2.637,2.637,0,0,0-.39.04h0a1.76,1.76,0,0,0-1.1.47,1.491,1.491,0,0,0-.45,1.13h0V-.22a.239.239,0,0,1-.06.16.239.239,0,0,1-.16.06h-2.1a.239.239,0,0,1-.16-.06.239.239,0,0,1-.06-.16h0V-9.04a.2.2,0,0,1,.06-.15.239.239,0,0,1,.16-.06h2.1a.239.239,0,0,1,.16.06.2.2,0,0,1,.06.15h0v.69a.078.078,0,0,0,.03.07.04.04,0,0,0,.06-.02h0A2.29,2.29,0,0,1,55.1-9.38Z" transform="translate(17.78 60)" fill="#252530"/>
    <path id="Path_15495" data-name="Path 15495" d="M2.99.08A3.415,3.415,0,0,1,1.63-.17a2.084,2.084,0,0,1-.9-.7A1.822,1.822,0,0,1,.42-1.93h0v-.25a.124.124,0,0,1,.04-.09A.108.108,0,0,1,.54-2.3h.89a.146.146,0,0,1,.09.03.146.146,0,0,1,.03.09h0v.19a.907.907,0,0,0,.41.76,1.817,1.817,0,0,0,1.12.31h0A1.4,1.4,0,0,0,4-1.18a.834.834,0,0,0,.31-.67h0a.717.717,0,0,0-.17-.48,1.656,1.656,0,0,0-.48-.35q-.32-.16-.95-.4h0a9.888,9.888,0,0,1-1.15-.49A2.079,2.079,0,0,1,.83-4.2a1.56,1.56,0,0,1-.3-.98h0a1.682,1.682,0,0,1,.64-1.39,2.666,2.666,0,0,1,1.71-.51h0a3.221,3.221,0,0,1,1.33.26,2.1,2.1,0,0,1,.89.73,1.827,1.827,0,0,1,.32,1.07h0v.17a.124.124,0,0,1-.04.09.108.108,0,0,1-.08.03H4.4a.108.108,0,0,1-.08-.03.124.124,0,0,1-.04-.09h0v-.11a.994.994,0,0,0-.38-.79,1.6,1.6,0,0,0-1.07-.33h0a1.372,1.372,0,0,0-.85.23.762.762,0,0,0-.31.65h0a.735.735,0,0,0,.16.49,1.387,1.387,0,0,0,.48.34,9.743,9.743,0,0,0,.99.4h0a11.771,11.771,0,0,1,1.14.49,2.276,2.276,0,0,1,.73.61,1.6,1.6,0,0,1,.3.99h0A1.728,1.728,0,0,1,4.8-.45,2.814,2.814,0,0,1,2.99.08Zm6.1,0A2.85,2.85,0,0,1,7.78-.21a2.094,2.094,0,0,1-.88-.82,2.386,2.386,0,0,1-.32-1.24h0V-6.88a.1.1,0,0,1,.04-.08A.1.1,0,0,1,6.7-7h.92a.124.124,0,0,1,.09.04.108.108,0,0,1,.03.08h0v4.63a1.3,1.3,0,0,0,.37.96,1.325,1.325,0,0,0,.98.37h0a1.325,1.325,0,0,0,.98-.37,1.3,1.3,0,0,0,.37-.96h0V-6.88a.1.1,0,0,1,.04-.08A.1.1,0,0,1,10.56-7h.92a.124.124,0,0,1,.09.04.108.108,0,0,1,.03.08h0v4.61a2.446,2.446,0,0,1-.31,1.24,2.094,2.094,0,0,1-.88.82A2.873,2.873,0,0,1,9.09.08Zm8.42-7A.157.157,0,0,1,17.65-7h.92a.124.124,0,0,1,.09.04.108.108,0,0,1,.03.08h0V-.12a.108.108,0,0,1-.03.08.124.124,0,0,1-.09.04h-.92a.124.124,0,0,1-.09-.04.108.108,0,0,1-.03-.08h0V-4.89a.039.039,0,0,0-.03-.04q-.02-.01-.03.02h0L16.22-2.99a.157.157,0,0,1-.14.08h-.46a.157.157,0,0,1-.14-.08h0L14.22-4.9a.028.028,0,0,0-.04-.02.04.04,0,0,0-.02.04h0V-.12a.108.108,0,0,1-.03.08.124.124,0,0,1-.09.04h-.92a.1.1,0,0,1-.08-.04A.1.1,0,0,1,13-.12h0V-6.88a.1.1,0,0,1,.04-.08A.1.1,0,0,1,13.12-7h.92a.157.157,0,0,1,.14.08h0l1.63,2.47a.058.058,0,0,0,.04.02.032.032,0,0,0,.03-.02h0Zm7.15,0A.157.157,0,0,1,24.8-7h.92a.1.1,0,0,1,.08.04.1.1,0,0,1,.04.08h0V-.12a.1.1,0,0,1-.04.08.1.1,0,0,1-.08.04H24.8a.1.1,0,0,1-.08-.04.1.1,0,0,1-.04-.08h0V-4.89a.04.04,0,0,0-.02-.04.028.028,0,0,0-.04.02h0L23.37-2.99a.157.157,0,0,1-.14.08h-.46a.157.157,0,0,1-.14-.08h0L21.37-4.9q-.01-.03-.03-.02a.039.039,0,0,0-.03.04h0V-.12a.108.108,0,0,1-.03.08.124.124,0,0,1-.09.04h-.92a.1.1,0,0,1-.08-.04.1.1,0,0,1-.04-.08h0V-6.88a.1.1,0,0,1,.04-.08A.1.1,0,0,1,20.27-7h.92a.157.157,0,0,1,.14.08h0l1.63,2.47a.058.058,0,0,0,.04.02.032.032,0,0,0,.03-.02h0Zm7.38.8a.108.108,0,0,1-.03.08.124.124,0,0,1-.09.04H28.51a.044.044,0,0,0-.05.05h0v1.87a.044.044,0,0,0,.05.05H30.8a.146.146,0,0,1,.09.03.146.146,0,0,1,.03.09h0v.76a.146.146,0,0,1-.03.09.146.146,0,0,1-.09.03H28.51a.044.044,0,0,0-.05.05h0v1.93a.044.044,0,0,0,.05.05h3.41a.124.124,0,0,1,.09.04.108.108,0,0,1,.03.08h0v.76a.108.108,0,0,1-.03.08.124.124,0,0,1-.09.04h-4.5a.1.1,0,0,1-.08-.04.1.1,0,0,1-.04-.08h0V-6.88a.1.1,0,0,1,.04-.08A.1.1,0,0,1,27.42-7h4.5a.124.124,0,0,1,.09.04.108.108,0,0,1,.03.08h0ZM37.15,0a.142.142,0,0,1-.14-.09h0L35.69-2.97a.064.064,0,0,0-.06-.04h-1.2a.044.044,0,0,0-.05.05h0V-.12a.1.1,0,0,1-.04.08.1.1,0,0,1-.08.04h-.92a.1.1,0,0,1-.08-.04.1.1,0,0,1-.04-.08h0V-6.88a.1.1,0,0,1,.04-.08A.1.1,0,0,1,33.34-7h2.75a2.265,2.265,0,0,1,1.08.25,1.85,1.85,0,0,1,.73.72,2.173,2.173,0,0,1,.26,1.07h0a1.894,1.894,0,0,1-.36,1.17,1.8,1.8,0,0,1-.98.68h0a.032.032,0,0,0-.03.02.042.042,0,0,0,0,.04h0L38.2-.14a.154.154,0,0,1,.02.06h0q0,.08-.11.08h-.96ZM34.43-6a.044.044,0,0,0-.05.05h0v1.99a.044.044,0,0,0,.05.05h1.5a1.041,1.041,0,0,0,.77-.29.977.977,0,0,0,.3-.75h0a1.009,1.009,0,0,0-.3-.76A1.041,1.041,0,0,0,35.93-6h-1.5Z" transform="translate(27.47 75.4)" fill="#fff"/>
    <path id="Path_15496" data-name="Path 15496" d="M3.38-1.84a.057.057,0,0,0-.02.06.067.067,0,0,0,.06.03H7.35a.164.164,0,0,1,.12.05.151.151,0,0,1,.06.12h0V-.17a.151.151,0,0,1-.06.12A.164.164,0,0,1,7.35,0H.83A.176.176,0,0,1,.7-.05.164.164,0,0,1,.65-.17h0V-1.51a.3.3,0,0,1,.09-.22h0q.71-.69,1.45-1.51t.93-1.02h0q.4-.48.82-.92h0A4.178,4.178,0,0,0,5.26-7.35h0a1.089,1.089,0,0,0-.36-.84,1.362,1.362,0,0,0-.94-.32h0a1.362,1.362,0,0,0-.94.32,1.11,1.11,0,0,0-.37.87h0v.36a.164.164,0,0,1-.05.12.164.164,0,0,1-.12.05H.77a.164.164,0,0,1-.12-.05.151.151,0,0,1-.06-.12h0v-.68a2.568,2.568,0,0,1,.5-1.39,2.885,2.885,0,0,1,1.19-.92,4.241,4.241,0,0,1,1.68-.32h0a3.872,3.872,0,0,1,1.79.39A2.852,2.852,0,0,1,6.92-8.85,2.647,2.647,0,0,1,7.34-7.4h0a2.856,2.856,0,0,1-.31,1.25,6.692,6.692,0,0,1-.91,1.38h0q-.45.56-.97,1.12T3.6-2.06h0Zm8.86,2A3.472,3.472,0,0,1,9.72-.73a3.2,3.2,0,0,1-.93-2.43h0V-6.99a3.133,3.133,0,0,1,.93-2.39,3.472,3.472,0,0,1,2.52-.89h0a3.529,3.529,0,0,1,2.53.89,3.133,3.133,0,0,1,.93,2.39h0v3.83a3.2,3.2,0,0,1-.93,2.43,3.529,3.529,0,0,1-2.53.89Zm0-1.75a1.353,1.353,0,0,0,1.03-.4,1.467,1.467,0,0,0,.39-1.07h0V-7.05a1.453,1.453,0,0,0-.39-1.06,1.353,1.353,0,0,0-1.03-.4h0a1.341,1.341,0,0,0-1.02.4,1.453,1.453,0,0,0-.39,1.06h0v3.99a1.467,1.467,0,0,0,.39,1.07,1.341,1.341,0,0,0,1.02.4Zm7.52-.25a.044.044,0,0,0-.01.06q.01.03.06.03h3.93a.164.164,0,0,1,.12.05.164.164,0,0,1,.05.12h0V-.17a.164.164,0,0,1-.05.12.164.164,0,0,1-.12.05H17.21a.164.164,0,0,1-.12-.05.164.164,0,0,1-.05-.12h0V-1.51a.319.319,0,0,1,.08-.22h0q.72-.69,1.45-1.51t.93-1.02h0q.41-.48.83-.92h0a4.178,4.178,0,0,0,1.32-2.17h0a1.089,1.089,0,0,0-.36-.84,1.4,1.4,0,0,0-.95-.32h0a1.362,1.362,0,0,0-.94.32,1.124,1.124,0,0,0-.36.87h0v.36a.164.164,0,0,1-.05.12.176.176,0,0,1-.13.05H17.15a.164.164,0,0,1-.12-.05.164.164,0,0,1-.05-.12h0v-.68a2.506,2.506,0,0,1,.49-1.39,2.874,2.874,0,0,1,1.2-.92,4.214,4.214,0,0,1,1.67-.32h0a3.872,3.872,0,0,1,1.79.39,2.84,2.84,0,0,1,1.18,1.03,2.7,2.7,0,0,1,.41,1.45h0a2.933,2.933,0,0,1-.3,1.25,7.069,7.069,0,0,1-.92,1.38h0q-.45.56-.97,1.12T19.98-2.06h0Zm6.83-8.27a.5.5,0,0,1,.22-.04h1.76a.164.164,0,0,1,.12.05.164.164,0,0,1,.05.12h0V-.17a.164.164,0,0,1-.05.12.164.164,0,0,1-.12.05h-1.7a.164.164,0,0,1-.12-.05.151.151,0,0,1-.06-.12h0V-8.12a.108.108,0,0,0-.02-.06.044.044,0,0,0-.06-.01h0l-1.44.39-.06.01q-.13,0-.13-.16h0l-.04-1.24a.213.213,0,0,1,.13-.21h0Z" transform="translate(32.04 95.3)" fill="#252530"/>
  </g>
</svg>
