<svg xmlns="http://www.w3.org/2000/svg" xmlns:xlink="http://www.w3.org/1999/xlink" width="82.8" height="104.3" viewBox="0 0 82.8 104.3">
  <defs>
    <clipPath id="clip-path">
      <path id="Path_15490" data-name="Path 15490" d="M42.4,80.3l3.1-.5,1.6-3.1,1.5,3,3.3.6-2.3,2.3.5,3.3-3-1.4-3,1.4.4-3.3Z"/>
    </clipPath>
  </defs>
  <g id="users-loves-us" transform="translate(-5.5 -8.7)">
    <g id="Layer_2">
      <path id="Fill-1_3_" d="M8.1,89.9,47.6,110l38-20.1V11.3H8.1Z" fill="#fff"/>
      <path id="Path-2_3_" d="M86.4,11.6,7.3,91.3l41,20.3L86.4,92.1Z" fill="#f2f3f2"/>
      <path id="outline_3_" d="M5.5,37.5V91.6l1.4.7,39.5,20.1,1.2.6,1.2-.6L86.9,92.3l1.4-.7V8.7H5.5ZM8.1,90.1V11.3H85.7V90.1L47.6,110.2Z" fill="#dcdedc"/>
      <path id="g2_3_" d="M46.9,12.6a4.869,4.869,0,0,1,1.2.1L46.9,15a3.306,3.306,0,0,0-.4,6.6h.4a3.5,3.5,0,0,0,2.2-.8L50.4,23a6.062,6.062,0,0,1-3.5,1.1,5.755,5.755,0,1,1-.5-11.5h.5ZM51,17.5,52.5,20,51,22.4,49.6,20H46.7l1.5-2.5Zm-2.4-.9a2.016,2.016,0,0,1,.3-1.1,3.45,3.45,0,0,1,.9-.8l.2-.1c.4-.2.5-.3.5-.5s-.3-.4-.5-.4a.961.961,0,0,0-.9.6l-.5-.5a2.651,2.651,0,0,1,.5-.6A1.486,1.486,0,0,1,50,13a1.4,1.4,0,0,1,.9.3,1.234,1.234,0,0,1,.4.8,1.147,1.147,0,0,1-.9,1.1l-.3.2c-.3.2-.5.3-.6.6h1.8v.7l-2.7-.1ZM46.9,29.1l9.5-5.4V8.7H37.3V23.6l9.6,5.5Z" fill="#ff492c"/>
    </g>
    <g id="Layer_1">
      <path id="Path_15487" data-name="Path 15487" d="M23.3,49.1V40.3a.215.215,0,0,1,.2-.2h2.3a.215.215,0,0,1,.2.2v8.8a2.2,2.2,0,0,0,2.3,2.3,2.152,2.152,0,0,0,2.3-2.3V40.3a.215.215,0,0,1,.2-.2h2.3a.215.215,0,0,1,.2.2v8.8c0,2.8-2,4.6-5,4.6S23.3,51.8,23.3,49.1ZM35,50.8v-.2a.215.215,0,0,1,.2-.2h2.1a.215.215,0,0,1,.2.2c0,.6.7,1,1.7,1,.9,0,1.5-.4,1.5-.9,0-.8-1.5-.8-2.9-1.3-1.3-.4-2.7-1.1-2.7-2.8,0-1.9,1.6-3.1,4.1-3.1s4.1,1.3,4.1,3.1a.215.215,0,0,1-.2.2H41a.215.215,0,0,1-.2-.2c0-.6-.6-1-1.6-1-.8,0-1.4.3-1.4.9,0,.8,1.3.8,2.8,1.3,1.5.4,3,1.1,3,2.9,0,1.9-1.7,3-4.2,3-2.7,0-4.4-1.2-4.4-2.9Zm18.9-1.6c0,.2-.1.2-.3.2h-6c-.1,0-.1,0-.1.1a2.353,2.353,0,0,0,.2.8,1.906,1.906,0,0,0,2,1.1,2.462,2.462,0,0,0,2-1c.1-.1.2-.2.3,0l1.4,1.4a.188.188,0,0,1,0,.3,4.92,4.92,0,0,1-3.9,1.7,4.408,4.408,0,0,1-4.4-2.9,5.748,5.748,0,0,1-.4-2.4,6.448,6.448,0,0,1,.3-2,4.237,4.237,0,0,1,4.2-3,4.34,4.34,0,0,1,4.5,4.1,4.145,4.145,0,0,1,.2,1.6Zm-6.2-2.3a1.268,1.268,0,0,0-.1.6c0,.1,0,.1.1.1H51c.1,0,.1,0,.1-.1A4.331,4.331,0,0,0,51,47a1.562,1.562,0,0,0-1.7-1.2,1.622,1.622,0,0,0-1.6,1.1Zm14-3.1a.367.367,0,0,1,.1.3l-.4,2.2c0,.2-.1.2-.3.1a3.75,3.75,0,0,0-1.1-.1A1.752,1.752,0,0,0,58.3,48v5.3a.215.215,0,0,1-.2.2H55.8a.215.215,0,0,1-.2-.2V43.9a.215.215,0,0,1,.2-.2h2.3a.215.215,0,0,1,.2.2v.7a.1.1,0,0,0,.1.1,2.57,2.57,0,0,1,2.1-1.2,1.922,1.922,0,0,1,1.2.3Zm.8,7v-.2a.215.215,0,0,1,.2-.2h2.1a.215.215,0,0,1,.2.2c0,.6.7,1,1.7,1,.9,0,1.5-.4,1.5-.9,0-.8-1.5-.8-2.9-1.3-1.3-.4-2.7-1.1-2.7-2.8,0-1.9,1.6-3.1,4.1-3.1s4.1,1.3,4.1,3.1a.215.215,0,0,1-.2.2H68.5a.215.215,0,0,1-.2-.2c0-.6-.6-1-1.6-1-.8,0-1.4.3-1.4.9,0,.8,1.3.8,2.8,1.3,1.5.4,3,1.1,3,2.9,0,1.9-1.7,3-4.2,3-2.7,0-4.4-1.2-4.4-2.9ZM14.6,69.5v-13a.215.215,0,0,1,.2-.2h2.3a.215.215,0,0,1,.2.2V67.3c0,.1,0,.1.1.1h6.3a.215.215,0,0,1,.2.2v1.9a.215.215,0,0,1-.2.2H14.8a.215.215,0,0,1-.2-.2Zm10.9-2.8a6.448,6.448,0,0,1-.3-2,6.014,6.014,0,0,1,.3-2,4.285,4.285,0,0,1,4.4-3,4.36,4.36,0,0,1,4.3,3,6.448,6.448,0,0,1,.3,2,5.412,5.412,0,0,1-.3,1.9,4.3,4.3,0,0,1-4.3,3.2,4.086,4.086,0,0,1-4.4-3.1Zm6.1-.6a4.65,4.65,0,0,0,0-2.7A1.781,1.781,0,0,0,29.9,62a1.632,1.632,0,0,0-1.7,1.4,2.764,2.764,0,0,0-.2,1.4,4.888,4.888,0,0,0,.1,1.3,1.808,1.808,0,0,0,1.8,1.4c.8.1,1.4-.5,1.7-1.4Zm6.6,3.4L35.1,60c-.1-.2,0-.3.2-.3h2.5c.1,0,.2.1.3.2l1.6,5.8c0,.1.1.1.1,0l1.6-5.8c0-.1.1-.2.3-.2h2.5c.2,0,.3.1.2.3l-3.1,9.4c0,.1-.1.2-.3.2H38.5c-.2.1-.3.1-.3-.1ZM54,65.4c0,.2-.1.2-.3.2h-6c-.1,0-.1,0-.1.1a2.353,2.353,0,0,0,.2.8,1.906,1.906,0,0,0,2,1.1,2.462,2.462,0,0,0,2-1c.1-.1.2-.2.3,0L53.5,68a.188.188,0,0,1,0,.3A4.92,4.92,0,0,1,49.6,70a4.408,4.408,0,0,1-4.4-2.9,5.748,5.748,0,0,1-.4-2.4,6.448,6.448,0,0,1,.3-2,4.237,4.237,0,0,1,4.2-3,4.34,4.34,0,0,1,4.5,4.1,4.145,4.145,0,0,1,.2,1.6Zm-6.2-2.3a1.268,1.268,0,0,0-.1.6c0,.1,0,.1.1.1h3.3c.1,0,.1,0,.1-.1a4.331,4.331,0,0,0-.1-.5A1.562,1.562,0,0,0,49.4,62a1.469,1.469,0,0,0-1.6,1.1Zm11.8,2.2V56.5a.215.215,0,0,1,.2-.2h2.3a.215.215,0,0,1,.2.2v8.8a2.2,2.2,0,0,0,2.3,2.3,2.152,2.152,0,0,0,2.3-2.3V56.5a.215.215,0,0,1,.2-.2h2.3a.215.215,0,0,1,.2.2v8.8c0,2.8-2,4.6-5,4.6S59.6,68,59.6,65.3ZM71.3,67v-.2a.215.215,0,0,1,.2-.2h2.1a.215.215,0,0,1,.2.2c0,.6.7,1,1.7,1,.9,0,1.5-.4,1.5-.9,0-.8-1.5-.8-2.9-1.3-1.3-.4-2.7-1.1-2.7-2.8,0-1.9,1.6-3.1,4.1-3.1s4.1,1.3,4.1,3.1a.215.215,0,0,1-.2.2H77.3a.215.215,0,0,1-.2-.2c0-.6-.6-1-1.6-1-.8,0-1.4.3-1.4.9,0,.8,1.3.8,2.8,1.3,1.5.4,3,1.1,3,2.9,0,1.9-1.7,3-4.2,3C73,69.9,71.3,68.7,71.3,67Z" fill="#252530"/>
      <path id="Path_15488" data-name="Path 15488" d="M19.3,81.2h20V82h-20Zm35.8,0h20V82h-20Z" fill="#dcdedc"/>
      <path id="Path_15489" data-name="Path 15489" d="M42.4,80.3l3.1-.5,1.6-3.1,1.5,3,3.3.6-2.3,2.3.5,3.3-3-1.4-3,1.4.4-3.3Z" fill="#dcdedc"/>
    </g>
  </g>
</svg>
