<svg width="384" height="400" viewBox="0 0 384 400" fill="none" xmlns="http://www.w3.org/2000/svg">
<g clip-path="url(#clip0)">
<path d="M31.071 169.464C17.321 215.179 78.7496 304.643 170.892 303.393C273.571 301.964 355.178 214.107 359.464 140C363.928 66.0714 290 13.9285 229.642 27.1428C169.285 40.3571 147.5 81.0714 119.107 107.143C102.321 122.5 49.2853 109.107 31.071 169.464Z" fill="#E5F6FF"/>
<path d="M313.928 176.964C311.071 182.678 309.642 188.928 309.642 195.178C309.642 196.25 309.642 197.321 310.178 198.214C311.071 200 313.035 200.893 314.999 201.25C319.821 201.786 324.642 198.928 326.964 194.643C329.106 190.357 328.749 185 326.428 180.714C325.178 178.393 323.214 176.25 320.714 175.536C318.214 174.821 314.999 175.893 313.928 178.393C314.285 179.107 315.535 179.107 316.071 178.393L313.928 176.964Z" fill="#E5F6FF"/>
<path d="M39.1065 224.285C36.2494 230 34.8208 236.25 34.8208 242.5C34.8208 243.571 34.8208 244.643 35.3565 245.535C36.2494 247.321 38.2137 248.214 40.1779 248.571C44.9994 249.107 49.8208 246.25 52.1422 241.964C54.2851 237.678 53.9279 232.321 51.6065 228.035C50.3565 225.714 48.3922 223.571 45.8922 222.857C43.3922 222.143 40.1779 223.214 39.1065 225.714C39.4637 226.428 40.7137 226.428 41.2494 225.714L39.1065 224.285Z" fill="#E5F6FF"/>
<path d="M321.071 195C318.749 196.071 317.142 198.571 316.785 201.071C318.928 202.5 321.785 203.214 324.107 202.321C326.428 201.428 328.035 198.393 326.964 196.071C325.714 193.75 321.785 193.571 320.892 196.071L321.071 195Z" fill="#E5F6FF"/>
<path d="M315.178 217.5C313.928 217.321 312.678 217.678 311.785 218.571C312.142 218.928 312.499 219.464 313.035 219.643C313.571 219.821 314.107 220 314.642 219.643C315.178 219.107 314.999 218.214 314.821 217.5C314.999 217.678 315.178 217.678 315.357 217.857L315.178 217.5Z" fill="#E5F6FF"/>
<path d="M315.356 212.678C315.356 212.321 315.535 211.964 315.714 211.607C316.249 212.321 316.071 213.393 315.892 214.285C315.714 214.821 315.535 215.357 314.999 215.357C314.642 215.357 314.285 215.178 313.928 215C313.214 214.821 312.321 215.178 311.964 214.643C311.785 214.285 311.964 213.75 312.321 213.571C312.678 213.393 313.035 213.214 313.392 213.214C314.285 213.036 315.178 212.857 316.071 212.678H315.356Z" fill="#E5F6FF"/>
<path opacity="0.5" d="M306.606 272.857C306.071 273.393 306.606 274.464 307.499 274.286C308.213 274.286 308.749 273.571 309.285 273.036C308.571 272.321 307.321 271.964 306.428 272.321L306.606 272.857Z" fill="#E5F6FF"/>
<path d="M332.678 280C333.035 279.821 333.392 280 333.571 280.357C333.749 280.714 333.749 281.071 333.571 281.428C333.571 281.607 333.392 281.785 333.214 281.964C332.857 282.321 332.142 282.143 331.964 281.785C331.785 281.428 331.785 280.714 332.321 280.535C332.678 280.357 333.392 280.357 333.571 280.714L332.678 280Z" fill="#E5F6FF"/>
<path d="M322.321 226.071C322.142 225.357 321.071 225 320.535 225.536C320.535 225.893 320.714 226.25 321.071 226.607C321.428 226.786 321.785 226.964 322.142 226.786C322.499 226.607 322.499 225.893 322.142 225.893L322.321 226.071Z" fill="#E5F6FF"/>
<path d="M317.678 209.821C316.964 209.464 315.892 209.464 315 209.821C315.357 210.535 315.714 211.071 316.071 211.785C316.25 212.143 316.428 212.321 316.785 212.5C317.321 212.857 318.214 212.5 318.392 211.785C318.75 211.071 318.392 210.357 317.678 209.821Z" fill="#E5F6FF"/>
<path opacity="0.5" d="M328.392 270.536C328.571 270.714 328.571 271.071 328.749 271.25C329.107 271.25 329.642 270.893 329.642 270.536C329.642 270.179 329.464 269.643 328.928 269.643C328.392 269.643 328.035 270 328.392 270.536Z" fill="#E5F6FF"/>
<path d="M319.999 221.25C320.535 221.25 320.713 220.714 320.713 220.178C320.535 219.643 320.178 219.286 319.999 218.928C319.821 218.393 319.821 217.857 319.999 217.5C320.178 217.321 320.356 216.964 320.713 216.964C320.892 216.964 321.071 216.964 321.249 217.143C322.142 217.678 322.856 218.214 323.392 219.107C323.928 220 323.928 221.071 323.213 221.786C322.856 222.321 321.963 222.5 321.428 222.5C320.535 222.321 319.999 221.786 319.999 221.25Z" fill="#E5F6FF"/>
<path d="M307.857 216.25C307.321 216.071 306.607 216.428 306.428 216.964C306.249 217.5 306.428 218.214 306.785 218.75C306.964 218.928 307.321 219.107 307.499 218.928C307.678 218.75 307.678 218.571 307.678 218.393C307.857 217.678 307.857 216.964 308.035 216.25H307.857Z" fill="#E5F6FF"/>
<path d="M306.607 245C307.857 244.821 308.928 246.25 308.571 247.5C307.678 247.5 306.607 247.321 305.714 246.786C304.999 246.25 304.642 245 305.357 244.286C305.892 244.286 306.428 244.286 306.964 244.107L306.607 245Z" fill="#E5F6FF"/>
<path d="M338.928 -0.000174344C338.928 -0.357317 339.285 -0.535889 339.464 -0.535889C339.821 -0.535889 339.999 -0.357317 340.178 -0.178746C340.356 -0.000174344 340.535 0.178397 340.535 0.356969C340.714 0.714111 340.535 1.24983 339.999 1.60697C339.642 1.78554 339.106 1.78554 338.749 1.60697C338.571 1.4284 338.392 1.24983 338.392 1.07125C338.392 0.892683 338.392 0.53554 338.749 0.53554L338.928 -0.000174344Z" fill="#E5F6FF"/>
<path d="M317.678 231.25C317.5 231.428 317.142 231.428 316.964 231.607C317.142 231.964 317.321 232.321 317.678 232.678C318.035 232.857 318.571 232.678 318.571 232.143C318.571 231.964 318.392 231.786 318.392 231.786C318.035 231.428 317.678 231.071 317.5 230.714L317.678 231.25Z" fill="#E5F6FF"/>
<path d="M318.214 245.178C317.678 245.536 317.142 246.071 316.964 246.607C316.607 247.143 316.607 248.036 317.142 248.393C317.321 248.571 317.678 248.75 318.035 248.75C318.928 248.928 319.999 248.036 319.999 247.143C319.999 246.25 319.107 245.357 318.214 245.178Z" fill="#E5F6FF"/>
<path d="M313.035 249.643C312.856 250 312.856 250.536 312.678 250.893C313.035 251.071 313.213 251.25 313.571 251.25C313.928 250.714 313.928 249.821 313.392 249.464L313.035 249.643Z" fill="#E5F6FF"/>
<path d="M286.25 217.857C286.25 220.357 286.607 222.857 287.678 225.178C287.857 225.536 288.035 225.893 288.392 226.25C288.928 226.786 289.821 226.786 290.714 226.607C292.5 226.071 293.928 224.107 293.928 222.143C293.928 220.178 293.035 218.393 291.428 217.143C290.535 216.428 289.464 216.071 288.392 216.25C287.321 216.428 286.428 217.321 286.428 218.393C286.607 218.571 287.142 218.393 287.142 218.036L286.25 217.857Z" fill="#E5F6FF"/>
<path d="M337.142 205.714C336.071 206.25 335.356 207.321 335.178 208.571C335.713 208.75 336.249 208.75 336.785 208.75C337.321 208.75 337.856 208.393 338.035 207.857C338.213 207.143 337.499 206.428 336.963 206.071C337.142 206.071 337.321 206.071 337.499 206.071L337.142 205.714Z" fill="#E5F6FF"/>
<path d="M339.107 214.107C338.928 214.464 338.75 214.643 338.75 215C338.75 215.357 338.928 215.535 339.107 215.893C339.642 216.607 340.178 217.321 340.535 218.214C340.892 216.785 341.25 215.357 341.607 213.928C341.607 213.75 341.607 213.75 341.785 213.571C341.964 213.214 342.5 213.393 342.857 213.214C343.392 213.035 343.571 212.321 343.392 211.607C342.857 207.321 340.178 212.678 339.107 214.107Z" fill="#E5F6FF"/>
<path d="M334.642 198.035C333.75 198.214 332.857 198.75 332.5 199.643C333.214 200 333.928 200.178 334.464 200.535C334.821 200.714 335.178 200.893 335.535 200.714C336.25 200.714 336.607 199.821 336.428 199.107C336.071 198.393 335.357 198.035 334.642 198.035Z" fill="#E5F6FF"/>
<path d="M330.535 209.107C329.999 209.286 329.642 210 329.821 210.536C329.999 211.071 330.535 211.607 331.071 211.607C331.249 211.607 331.607 211.607 331.785 211.428C331.785 211.25 331.785 211.071 331.607 210.893C331.249 210.178 330.892 209.464 330.535 208.928V209.107Z" fill="#E5F6FF"/>
<path d="M321.071 204.107C320.535 204.464 319.999 205 319.821 205.535C319.464 206.071 319.464 206.964 319.999 207.321C320.178 207.5 320.535 207.678 320.892 207.678C321.785 207.857 322.856 206.964 322.856 206.071C322.856 205.178 321.964 204.286 321.071 204.107Z" fill="#E5F6FF"/>
<path d="M305.178 232.5C305.356 233.214 306.071 233.393 306.785 233.393C307.499 233.393 308.213 233.571 308.571 234.107C308.571 234.285 308.749 234.464 308.571 234.643C308.392 235 307.678 234.821 307.321 234.821C306.963 234.821 306.606 235 306.249 235C305.356 235.178 304.463 234.821 303.928 234.107C303.928 233.571 304.106 233.214 304.463 232.857C304.821 232.678 305.356 232.678 305.713 233.035L305.178 232.5Z" fill="#E5F6FF"/>
<path d="M313.571 246.428C313.749 247.143 314.464 247.321 315.178 247.321C315.892 247.321 316.606 247.5 316.964 248.036C316.964 248.214 317.142 248.393 316.964 248.571C316.785 248.928 316.071 248.75 315.714 248.75C315.357 248.75 314.999 248.928 314.642 248.928C313.749 249.107 312.857 248.75 312.321 248.036C312.321 247.5 312.499 247.143 312.857 246.786C313.214 246.607 313.749 246.607 314.107 246.964L313.571 246.428Z" fill="#E5F6FF"/>
<path d="M309.999 257.857C309.821 258.393 309.642 258.928 309.642 259.464V259.643C309.642 259.821 309.821 259.821 309.999 259.821C310.356 259.821 310.892 259.643 310.892 259.286C311.071 258.928 311.071 258.393 310.892 258.036C310.714 257.857 310.535 257.678 310.356 257.678L309.999 257.857C309.999 258.036 310.178 258.036 309.999 257.857Z" fill="#E5F6FF"/>
<path d="M324.642 182.321C323.571 182.857 322.856 183.928 322.678 185.178C323.213 185.357 323.749 185.357 324.285 185.357C324.821 185.357 325.356 185 325.535 184.464C325.713 183.75 324.999 183.036 324.463 182.678C324.642 182.678 324.821 182.678 324.999 182.678L324.642 182.321Z" fill="#E5F6FF"/>
<path d="M335.713 185C335.178 184.464 334.106 184.821 333.928 185.536C334.285 185.714 334.642 186.071 334.999 186.071C335.356 186.071 335.892 185.893 335.892 185.536C336.071 185.178 335.713 184.643 335.356 184.821L335.713 185Z" fill="#E5F6FF"/>
<path d="M324.107 201.428C323.571 200.893 322.499 201.25 322.321 201.964C322.678 202.143 323.035 202.5 323.392 202.5C323.749 202.5 324.285 202.321 324.285 201.964C324.464 201.607 324.107 201.071 323.749 201.25L324.107 201.428Z" fill="#E5F6FF"/>
<path d="M330.714 182.5C331.071 182.321 330.892 181.607 330.535 181.25C330.178 180.893 329.642 180.893 329.107 180.714C328.75 180.536 328.392 180 328.214 179.464C328.214 179.107 328.214 178.75 328.392 178.571C328.571 178.393 328.75 178.393 328.928 178.393C329.821 178.214 330.892 178.214 331.785 178.75C332.678 179.107 333.392 180 333.392 181.071C333.392 181.786 332.857 182.321 332.321 182.678C331.785 183.036 330.892 182.857 330.357 182.5H330.714Z" fill="#E5F6FF"/>
<path d="M310.714 236.071C311.071 235.893 310.892 235.178 310.535 234.821C310.178 234.464 309.642 234.464 309.107 234.285C308.75 234.107 308.392 233.571 308.214 233.035C308.214 232.678 308.214 232.321 308.392 232.143C308.571 231.964 308.75 231.964 308.928 231.964C309.821 231.785 310.892 231.785 311.785 232.321C312.678 232.678 313.392 233.571 313.392 234.643C313.392 235.357 312.857 235.893 312.321 236.25C311.785 236.607 310.892 236.428 310.357 236.071H310.714Z" fill="#E5F6FF"/>
<path d="M304.464 234.821C304.821 234.643 304.642 233.929 304.285 233.571C303.928 233.214 303.392 233.214 302.857 233.036C302.5 232.857 302.142 232.321 301.964 231.786C301.964 231.429 301.964 231.071 302.142 230.893C302.321 230.714 302.5 230.714 302.678 230.714C303.571 230.536 304.642 230.536 305.535 231.071C306.428 231.429 307.142 232.321 307.142 233.393C307.142 234.107 306.607 234.643 306.071 235C305.535 235.357 304.642 235.179 304.107 234.821H304.464Z" fill="#E5F6FF"/>
<path d="M308.392 225.714C308.749 225.535 308.571 224.821 308.214 224.464C307.856 224.107 307.321 224.107 306.785 223.928C306.428 223.75 306.071 223.214 305.892 222.678C305.892 222.321 305.892 221.964 306.071 221.785C306.249 221.607 306.428 221.607 306.606 221.607C307.499 221.428 308.571 221.428 309.463 221.964C310.356 222.321 311.071 223.214 311.071 224.285C311.071 225 310.535 225.535 309.999 225.893C309.464 226.25 308.571 226.071 308.035 225.714H308.392Z" fill="#E5F6FF"/>
<path d="M364.464 265.535C364.821 265.357 364.642 264.643 364.285 264.285C363.928 263.928 363.392 263.928 362.857 263.75C362.5 263.571 362.142 263.035 361.964 262.5C361.964 262.143 361.964 261.785 362.142 261.607C362.321 261.428 362.5 261.428 362.678 261.428C363.571 261.25 364.642 261.25 365.535 261.785C366.428 262.143 367.142 263.035 367.142 264.107C367.142 264.821 366.607 265.357 366.071 265.714C365.535 266.071 364.642 265.893 364.107 265.535H364.464Z" fill="#E5F6FF"/>
<path d="M334.821 191.786C334.642 191.964 334.642 192.321 334.464 192.5C334.821 192.678 335.178 193.036 335.535 192.857C335.892 192.857 336.249 192.321 335.892 191.964C335.714 191.786 335.535 191.786 335.535 191.786C334.999 191.607 334.642 191.607 334.106 191.428L334.821 191.786Z" fill="#E5F6FF"/>
<path d="M341.964 243.035C341.428 243.393 340.892 243.928 340.714 244.464C340.357 245 340.357 245.893 340.892 246.25C341.071 246.428 341.428 246.607 341.785 246.607C342.678 246.785 343.749 245.893 343.749 245C343.749 244.107 342.857 243.214 341.964 243.035Z" fill="#E5F6FF"/>
<path d="M315.535 195.893C315.714 195 316.964 194.643 317.678 195.178C317.678 195.714 317.678 196.25 317.499 196.607C316.964 196.607 316.428 196.428 315.892 195.893H315.535Z" fill="#E5F6FF"/>
<path opacity="0.5" d="M336.428 249.107C336.249 249.464 335.892 249.643 335.892 250C335.714 250.357 335.892 250.714 336.249 251.071C336.785 251.429 337.499 251.071 338.035 251.071C338.571 251.071 339.107 251.786 339.821 251.607C340.357 251.429 340.714 250.714 340.357 250.179C339.999 249.643 339.464 249.286 338.928 249.107C338.392 248.929 337.857 248.75 337.321 248.75C336.785 248.75 336.249 249.286 336.249 249.821L336.428 249.107Z" fill="#E5F6FF"/>
<path d="M315.714 223.035C313.214 222.5 310.357 223.393 308.75 225.357C309.642 227.857 311.428 230 313.928 230.714C316.428 231.428 319.464 229.821 320 227.321C320.535 224.821 317.321 222.321 315.178 223.75L315.714 223.035Z" fill="#E5F6FF"/>
<path d="M309.642 194.464C309.999 194.464 310.178 195 310.178 195.178C310.178 195.536 309.821 195.893 309.464 196.071C309.285 196.25 309.107 196.25 308.928 196.25C308.392 196.25 308.035 195.714 308.035 195.357C308.035 194.821 308.571 194.464 309.107 194.464C309.642 194.464 309.999 195 309.999 195.357L309.642 194.464Z" fill="#E5F6FF"/>
<path d="M312.856 208.393C313.214 208.928 314.106 208.928 314.642 208.75C315.356 208.571 316.071 208.393 316.428 208.75C316.606 208.928 316.607 209.107 316.607 209.285C316.607 209.821 315.892 209.821 315.535 209.821C315.178 210 314.999 210.178 314.642 210.357C313.928 210.893 312.856 210.714 312.142 210.178C311.964 209.821 311.964 209.285 312.321 208.928C312.678 208.571 313.214 208.393 313.571 208.571L312.856 208.393Z" fill="#E5F6FF"/>
<path d="M324.464 225.536C324.464 225.714 324.285 226.071 324.285 226.25C324.642 226.428 325.178 226.428 325.357 226.25C325.714 225.893 325.714 225.357 325.357 225.178C325.178 224.821 324.642 225 324.464 225.536Z" fill="#E5F6FF"/>
<path d="M320.892 211.607C321.071 211.429 321.428 211.429 321.606 211.607C321.785 211.786 321.963 212.143 321.963 212.321C321.963 212.5 321.963 212.857 321.963 213.036C321.785 213.393 321.428 213.75 320.892 213.75C320.356 213.75 319.999 213.393 319.821 212.857C319.821 212.678 319.642 212.5 319.821 212.143C319.999 211.786 320.178 211.786 320.356 211.964L320.892 211.607Z" fill="#E5F6FF"/>
<path d="M342.499 210.714C340.892 208.75 338.214 207.5 335.535 207.857C334.642 210.178 334.464 213.214 335.892 215.357C337.321 217.5 340.714 218.393 342.678 216.786C344.642 215.178 343.928 211.071 341.428 210.893L342.499 210.714Z" fill="#E5F6FF"/>
<path d="M331.428 193.75C330.892 194.286 331.428 195.357 332.321 195.178C333.035 195.178 333.571 194.464 334.107 193.928C333.392 193.214 332.142 192.857 331.25 193.214L331.428 193.75Z" fill="#E5F6FF"/>
<path d="M305.178 201.607C305.178 201.785 305 202.143 305 202.321C305.357 202.5 305.892 202.5 306.071 202.321C306.428 201.964 306.428 201.428 306.071 201.25C305.714 200.893 305.178 201.071 305.178 201.607Z" fill="#E5F6FF"/>
<path d="M318.035 206.25C316.785 208.75 316.071 211.429 315.892 214.107C315.892 214.464 315.892 215 316.071 215.357C316.428 216.071 317.321 216.607 318.035 216.786C320.178 217.143 322.321 215.893 323.214 214.107C324.106 212.321 324.106 210 323.214 208.036C322.678 206.964 321.785 206.071 320.714 205.714C319.642 205.357 318.214 205.714 317.678 206.786C317.856 207.143 318.392 207.143 318.571 206.786L318.035 206.25Z" fill="#E5F6FF"/>
<path d="M356.606 229.821C354.285 230.893 352.678 233.393 352.321 235.893C354.464 237.321 357.321 238.035 359.642 237.143C361.964 236.25 363.571 233.214 362.499 230.893C361.249 228.571 357.321 228.393 356.428 230.893L356.606 229.821Z" fill="#E5F6FF"/>
<path d="M59.8209 266.964C57.4994 268.036 55.8923 270.536 55.5352 273.036C57.678 274.464 60.5352 275.179 62.8566 274.286C65.178 273.393 66.7852 270.357 65.7137 268.036C64.4637 265.714 60.5352 265.536 59.6423 268.036L59.8209 266.964Z" fill="#E5F6FF"/>
<path d="M314.642 254.821C313.571 255.357 312.856 256.428 312.678 257.678C313.213 257.857 313.749 257.857 314.285 257.857C314.821 257.857 315.356 257.5 315.535 256.964C315.713 256.25 314.999 255.536 314.463 255.178C314.642 255.178 314.821 255.178 314.999 255.178L314.642 254.821Z" fill="#E5F6FF"/>
<path d="M316.607 263.393C316.428 263.75 316.25 263.928 316.25 264.285C316.25 264.643 316.428 264.821 316.607 265.178C317.142 265.893 317.678 266.607 318.035 267.5C318.392 266.071 318.749 264.643 319.107 263.214C319.107 263.035 319.107 263.035 319.285 262.857C319.464 262.5 319.999 262.678 320.357 262.5C320.892 262.321 321.071 261.607 320.892 260.893C320.357 256.607 317.678 261.785 316.607 263.393Z" fill="#E5F6FF"/>
<path d="M311.428 210.893C311.249 211.25 311.249 211.786 311.071 212.143C311.963 212.321 312.856 212.143 313.392 211.25C313.749 210.536 313.213 209.286 312.321 209.464C311.785 209.464 310.892 209.821 310.892 209.286L311.428 210.893Z" fill="#E5F6FF"/>
<path d="M325.713 245.536C325.713 245.178 325.892 244.821 326.071 244.464C326.606 245.178 326.428 246.25 326.249 247.143C326.071 247.678 325.892 248.214 325.356 248.214C324.999 248.214 324.642 248.036 324.285 247.857C323.571 247.678 322.678 248.036 322.321 247.5C322.142 247.143 322.321 246.607 322.678 246.428C323.035 246.25 323.392 246.071 323.749 246.071C324.642 245.893 325.535 245.714 326.428 245.536H325.713Z" fill="#E5F6FF"/>
<path d="M339.821 247.5C339.285 248.036 339.821 249.107 340.714 248.928C341.428 248.928 341.964 248.214 342.499 247.678C341.785 246.964 340.535 246.607 339.642 246.964L339.821 247.5Z" fill="#E5F6FF"/>
<path opacity="0.5" d="M329.642 260C330 259.821 330.357 260 330.535 260.357C330.714 260.714 330.714 261.071 330.535 261.429C330.535 261.607 330.357 261.786 330.178 261.964C329.821 262.321 329.107 262.143 328.928 261.786C328.75 261.429 328.75 260.714 329.285 260.536C329.642 260.357 330.357 260.357 330.535 260.714L329.642 260Z" fill="#E5F6FF"/>
<path d="M325.535 257.5C325 256.964 323.928 257.321 323.75 258.036C324.107 258.214 324.464 258.571 324.821 258.571C325.178 258.571 325.714 258.393 325.714 258.036C325.892 257.678 325.535 257.143 325.178 257.321L325.535 257.5Z" fill="#E5F6FF"/>
<path d="M312.142 247.143C311.25 247.321 310.357 247.857 310 248.75C310.714 249.107 311.428 249.285 311.964 249.643C312.321 249.821 312.678 250 313.035 249.821C313.749 249.821 314.107 248.928 313.928 248.214C313.571 247.678 312.857 247.321 312.142 247.143Z" fill="#E5F6FF"/>
<path opacity="0.5" d="M339.821 256.786C340.357 256.607 340.892 256.607 341.25 256.964C341.607 257.321 341.785 257.857 341.607 258.393C341.428 258.75 341.071 259.107 340.892 258.929C340.714 258.929 340.714 258.75 340.535 258.571C340.178 258.036 339.821 257.5 339.464 256.964C339.642 256.964 339.821 256.786 339.821 256.786Z" fill="#E5F6FF"/>
<path opacity="0.5" d="M348.035 263.036C348.214 263.75 348.928 263.929 349.642 263.929C350.357 263.929 351.071 264.107 351.428 264.643C351.428 264.821 351.607 265 351.428 265.179C351.249 265.536 350.535 265.357 350.178 265.357C349.821 265.357 349.464 265.536 349.107 265.536C348.214 265.714 347.321 265.357 346.785 264.643C346.785 264.107 346.964 263.75 347.321 263.393C347.678 263.214 348.214 263.214 348.571 263.571L348.035 263.036Z" fill="#E5F6FF"/>
<path opacity="0.5" d="M299.106 229.464C299.285 230.178 299.999 230.357 300.714 230.357C301.428 230.357 302.142 230.536 302.499 231.071C302.499 231.25 302.678 231.428 302.499 231.607C302.321 231.964 301.606 231.786 301.249 231.786C300.892 231.786 300.535 231.964 300.178 231.964C299.285 232.143 298.392 231.786 297.856 231.071C297.856 230.536 298.035 230.178 298.392 229.821C298.749 229.643 299.285 229.643 299.642 230L299.106 229.464Z" fill="#E5F6FF"/>
<path opacity="0.5" d="M344.107 268.214C343.928 268.393 343.928 268.571 343.75 268.928C343.928 269.286 344.464 269.464 344.821 269.286C345.178 269.107 345.357 268.571 345.178 268.214C345 267.857 344.285 267.678 344.107 268.214Z" fill="#E5F6FF"/>
<path d="M320.714 255C321.071 254.821 320.892 254.107 320.535 253.75C320.178 253.393 319.642 253.393 319.107 253.214C318.75 253.036 318.392 252.5 318.214 251.964C318.214 251.607 318.214 251.25 318.392 251.071C318.571 250.893 318.75 250.893 318.928 250.893C319.821 250.714 320.892 250.714 321.785 251.25C322.678 251.607 323.392 252.5 323.392 253.571C323.392 254.286 322.857 254.821 322.321 255.178C321.785 255.536 320.892 255.357 320.357 255H320.714Z" fill="#E5F6FF"/>
<path d="M308.035 258.393C307.499 258.571 307.142 259.286 307.321 259.821C307.499 260.357 308.035 260.893 308.571 260.893C308.749 260.893 309.107 260.893 309.285 260.714C309.285 260.536 309.285 260.357 309.107 260.178C308.749 259.464 308.392 258.75 308.035 258.214V258.393Z" fill="#E5F6FF"/>
<path d="M334.999 238.036C336.249 237.857 337.321 239.286 336.963 240.536C336.071 240.536 334.999 240.357 334.106 239.821C333.392 239.286 333.035 238.036 333.749 237.321C334.285 237.321 334.821 237.321 335.356 237.143L334.999 238.036Z" fill="#E5F6FF"/>
<path opacity="0.5" d="M324.821 264.286C324.642 264.464 324.642 264.821 324.464 265C324.821 265.178 325.178 265.536 325.535 265.357C325.892 265.357 326.249 264.821 325.892 264.464C325.714 264.286 325.535 264.286 325.535 264.286C324.999 264.107 324.642 264.107 324.106 263.928L324.821 264.286Z" fill="#E5F6FF"/>
<path d="M321.428 195.178C320.892 195.536 320.357 196.071 320.178 196.607C319.821 197.143 319.821 198.036 320.357 198.393C320.535 198.571 320.892 198.75 321.25 198.75C322.142 198.928 323.214 198.036 323.214 197.143C323.214 196.25 322.5 195.357 321.428 195.178Z" fill="#E5F6FF"/>
<path d="M346.428 224.286C346.249 224.643 346.249 225.178 346.071 225.536C346.428 225.714 346.607 225.893 346.964 225.893C347.321 225.357 347.321 224.464 346.785 224.107L346.428 224.286Z" fill="#E5F6FF"/>
<path d="M329.107 162.143C329.464 161.964 329.821 162.143 330 162.5C330.178 162.857 330.178 163.214 330 163.571C330 163.75 329.821 163.929 329.642 164.107C329.285 164.464 328.571 164.286 328.392 163.929C328.214 163.571 328.214 162.857 328.75 162.679C329.107 162.5 329.821 162.5 330 162.857L329.107 162.143Z" fill="#E5F6FF"/>
<path d="M337.678 230.714C337.499 231.071 337.499 231.607 337.321 231.964C337.678 232.143 337.857 232.321 338.214 232.321C338.571 231.785 338.571 230.893 338.035 230.535L337.678 230.714Z" fill="#E5F6FF"/>
<path d="M302.857 221.786C302.321 221.964 302.321 222.678 302.678 223.036C303.035 223.393 303.392 223.571 303.749 223.928C304.107 224.286 304.285 224.821 304.285 225.357C304.285 225.714 304.107 225.893 303.928 226.071C303.749 226.071 303.571 226.071 303.392 226.071C302.499 225.893 301.428 225.536 300.714 225C299.999 224.286 299.642 223.214 299.999 222.321C300.178 221.607 300.892 221.25 301.428 221.071C301.964 220.893 302.678 221.25 302.857 221.786Z" fill="#E5F6FF"/>
<path d="M324.464 207.143C324.821 206.964 324.999 206.785 325.357 206.428C325.535 206.071 325.535 205.714 325.357 205.357C324.999 204.821 324.285 205 323.571 204.821C323.035 204.643 322.678 203.75 322.142 203.75C321.607 203.75 321.071 204.464 321.249 205C321.428 205.535 321.785 206.071 322.321 206.428C322.678 206.785 323.214 207.143 323.749 207.143C324.285 207.143 324.821 206.964 324.999 206.428L324.464 207.143Z" fill="#E5F6FF"/>
<path d="M316.607 234.286C316.964 232.143 316.964 229.821 316.25 227.678C316.071 227.321 316.071 226.964 315.892 226.786C315.357 226.25 314.642 226.071 313.928 226.25C312.321 226.428 310.892 228.036 310.535 229.643C310.178 231.25 310.892 233.036 311.964 234.286C312.678 235 313.571 235.536 314.464 235.536C315.357 235.536 316.428 234.821 316.428 233.928C316.25 233.75 315.714 233.75 315.714 234.107L316.607 234.286Z" fill="#E5F6FF"/>
<path d="M302.321 226.428C301.964 226.428 301.607 226.428 301.25 226.607C300.892 226.786 300.892 227.143 300.714 227.321C300.357 228.214 300 228.928 299.464 229.643C300.892 229.286 302.321 228.75 303.75 228.393C303.928 228.393 303.928 228.393 304.107 228.393C304.464 228.393 304.642 228.928 305 229.286C305.535 229.643 306.25 229.464 306.607 228.928C310 226.25 304.285 226.607 302.321 226.428Z" fill="#E5F6FF"/>
<path d="M316.071 234.286C315.892 234.464 315.714 234.643 315.714 235C315.892 235.357 316.428 235.536 316.785 235.357C317.142 235.179 317.321 234.643 317.142 234.286C316.964 233.929 316.25 233.929 316.071 234.286Z" fill="#E5F6FF"/>
<path d="M303.928 233.214C303.571 232.678 302.678 232.857 302.321 233.214C301.964 233.571 301.785 234.286 301.964 235C301.964 235.178 302.321 235.535 302.499 235.535C302.678 235.535 302.856 235.357 302.856 235.178C303.214 234.464 303.749 233.928 304.107 233.214H303.928Z" fill="#E5F6FF"/>
<path d="M311.785 235.893C310.714 235.178 309.464 235.178 308.392 235.536C308.571 236.071 308.749 236.607 309.106 236.964C309.464 237.321 309.999 237.678 310.535 237.5C311.249 237.321 311.428 236.428 311.606 235.714C311.785 235.893 311.785 236.071 311.964 236.25L311.785 235.893Z" fill="#E5F6FF"/>
<path d="M315.357 239.821C315.714 239.643 316.071 239.643 316.428 239.643C316.071 240.535 314.999 240.893 314.107 241.071C313.571 241.25 313.035 241.25 312.678 240.893C312.499 240.535 312.499 240.178 312.499 239.821C312.321 239.107 311.428 238.393 311.785 237.857C311.964 237.5 312.499 237.5 312.857 237.5C313.214 237.678 313.571 238.035 313.749 238.214C314.285 238.928 314.999 239.643 315.535 240.178L315.357 239.821Z" fill="#E5F6FF"/>
<path d="M307.142 228.75C306.607 228.036 305.714 227.678 304.821 227.678C304.821 228.393 304.999 229.107 304.999 229.821C304.999 230.178 304.999 230.536 305.357 230.893C305.714 231.428 306.785 231.428 307.142 230.893C307.499 230.357 307.499 229.464 307.142 228.75Z" fill="#E5F6FF"/>
<path d="M304.464 240.178C304.821 240.357 305.357 240 305.535 239.464C305.714 238.928 305.357 238.571 305.357 238.036C305.357 237.5 305.535 236.964 305.892 236.786C306.071 236.607 306.428 236.428 306.785 236.607C306.964 236.607 307.142 236.785 307.142 236.964C307.678 237.678 308.214 238.571 308.392 239.643C308.392 240.535 308.035 241.607 307.142 242.143C306.607 242.5 305.714 242.321 305.178 241.964C304.821 241.428 304.464 240.714 304.464 240.178Z" fill="#E5F6FF"/>
<path d="M328.392 219.107C327.857 218.928 327.142 218.75 326.607 218.75C325.892 218.75 325.357 219.107 325.178 219.821C324.999 220.178 325.178 220.535 325.178 220.714C325.535 221.607 326.785 222.143 327.678 221.607C328.392 221.25 328.749 220 328.392 219.107Z" fill="#E5F6FF"/>
<path d="M315.714 212.5C314.642 211.786 313.392 211.786 312.321 212.143C312.499 212.679 312.678 213.214 313.035 213.571C313.392 213.929 313.928 214.286 314.464 214.107C315.178 213.929 315.357 213.036 315.535 212.321C315.714 212.5 315.714 212.679 315.892 212.857L315.714 212.5Z" fill="#E5F6FF"/>
<path d="M316.071 241.964C316.249 242.678 316.964 242.857 317.678 242.857C318.392 242.857 319.107 243.036 319.285 243.75C319.285 243.928 319.464 244.107 319.285 244.286C319.107 244.643 318.392 244.464 318.035 244.464C317.678 244.464 317.321 244.643 316.964 244.643C316.071 244.821 315.178 244.286 314.821 243.571C314.821 243.036 315.178 242.678 315.535 242.5C315.892 242.321 316.428 242.321 316.785 242.678L316.071 241.964Z" fill="#E5F6FF"/>
<path d="M339.285 197.321C339.285 197.5 339.285 197.857 339.285 198.036C339.642 198.214 340.178 198.035 340.357 197.678C340.535 197.321 340.535 196.786 339.999 196.607C339.821 196.607 339.285 196.964 339.285 197.321Z" fill="#E5F6FF"/>
<path d="M312.499 226.071C312.321 226.071 311.964 226.071 311.785 226.071C311.785 226.428 311.785 226.964 311.964 227.321C312.142 227.678 312.857 227.678 312.857 227.321C312.857 227.143 312.857 226.964 312.857 226.786C312.678 226.25 312.499 225.893 312.321 225.357L312.499 226.071Z" fill="#E5F6FF"/>
<path d="M342.143 133.571C343.571 129.464 344.286 125.179 343.75 120.893C343.75 120.179 343.571 119.464 343.214 118.929C342.5 117.679 341.071 117.321 339.821 117.143C336.607 117.143 333.393 119.286 332.143 122.5C330.893 125.714 331.607 129.107 333.393 131.964C334.464 133.393 335.893 134.643 337.678 135C339.464 135.357 341.428 134.286 341.964 132.679C341.607 132.143 340.714 132.321 340.536 132.857L342.143 133.571Z" fill="white"/>
<path d="M335.893 121.786C337.321 120.893 338.393 119.107 338.393 117.321C336.786 116.428 334.821 116.25 333.393 116.964C331.786 117.857 331.071 120 331.964 121.428C332.857 122.857 335.714 122.678 336.071 121.071L335.893 121.786Z" fill="white"/>
<path d="M338.392 106.071C339.285 106.071 340 105.714 340.535 105.179C340.357 105 340 104.643 339.642 104.464C339.285 104.286 338.928 104.286 338.571 104.643C338.214 105 338.392 105.536 338.571 106.071C338.392 106.071 338.392 105.893 338.214 105.893L338.392 106.071Z" fill="white"/>
<path d="M338.571 109.286C338.571 109.464 338.571 109.821 338.393 110C337.857 109.464 338.035 108.75 338.035 108.214C338.035 107.857 338.214 107.5 338.571 107.321C338.75 107.321 339.107 107.5 339.285 107.5C339.821 107.5 340.357 107.321 340.714 107.678C340.893 107.857 340.714 108.214 340.535 108.393C340.357 108.571 340 108.75 339.821 108.75C339.285 108.928 338.571 109.107 338.035 109.286H338.571Z" fill="white"/>
<path opacity="0.5" d="M340.178 67.8571C340.535 67.4999 340 66.7857 339.464 66.9642C338.928 66.9642 338.571 67.4999 338.393 67.8571C338.928 68.3928 339.821 68.3928 340.357 68.0356L340.178 67.8571Z" fill="white"/>
<path d="M322.143 64.9999C321.964 65.1785 321.607 64.9999 321.428 64.8213C321.25 64.6427 321.25 64.2856 321.428 64.107C321.428 63.9285 321.607 63.7499 321.607 63.7499C321.786 63.5713 322.321 63.5713 322.5 63.7499C322.678 63.9285 322.678 64.4642 322.321 64.6428C322.143 64.8213 321.607 64.8213 321.428 64.6428L322.143 64.9999Z" fill="white"/>
<path d="M332.857 100.714C333.036 101.25 333.75 101.428 334.107 100.893C334.107 100.714 333.928 100.357 333.75 100.178C333.571 99.9998 333.214 99.9998 333.036 100.178C332.857 100.357 332.857 100.714 333.214 100.893L332.857 100.714Z" fill="white"/>
<path d="M337.143 111.429C337.678 111.607 338.393 111.607 338.928 111.25C338.571 110.893 338.393 110.357 338.035 110C337.857 109.821 337.678 109.643 337.5 109.464C337.143 109.286 336.607 109.643 336.428 110C336.428 110.714 336.607 111.071 337.143 111.429Z" fill="white"/>
<path opacity="0.5" d="M325.714 71.0715C325.536 70.8929 325.536 70.7144 325.357 70.7144C325 70.7144 324.821 70.8929 324.821 71.2501C324.821 71.6072 325 71.7858 325.357 71.7858C325.714 71.7858 325.893 71.2501 325.714 71.0715Z" fill="white"/>
<path d="M334.821 103.928C334.464 103.928 334.286 104.464 334.464 104.643C334.643 105 334.821 105.178 335 105.536C335.178 105.893 335.178 106.25 335 106.607C335 106.786 334.821 106.964 334.643 106.964C334.464 106.964 334.464 106.964 334.286 106.964C333.75 106.607 333.036 106.25 332.678 105.714C332.321 105.178 332.143 104.464 332.5 103.928C332.678 103.571 333.214 103.393 333.75 103.393C334.286 103.214 334.821 103.571 334.821 103.928Z" fill="white"/>
<path d="M343.392 106.429C343.75 106.607 344.285 106.25 344.285 105.893C344.464 105.536 344.285 105 343.928 104.821C343.75 104.643 343.571 104.643 343.392 104.643C343.214 104.643 343.214 104.821 343.214 105C343.392 105.357 343.392 105.893 343.392 106.429Z" fill="white"/>
<path d="M342.143 86.7857C341.25 86.9643 340.357 86.0715 340.536 85.3572C341.25 85.3572 341.964 85.3572 342.5 85.5358C343.036 85.8929 343.393 86.7857 343.036 87.1429C342.679 87.1429 342.321 87.3215 341.964 87.3215L342.143 86.7857Z" fill="white"/>
<path d="M337.142 152.679C337.142 152.857 336.964 153.036 336.785 153.036C336.607 153.036 336.428 152.857 336.249 152.857C336.071 152.679 336.071 152.679 335.892 152.5C335.714 152.143 335.892 151.786 336.071 151.607C336.249 151.429 336.607 151.429 336.964 151.607C337.142 151.607 337.142 151.786 337.321 151.964C337.321 152.143 337.321 152.321 337.142 152.321V152.679Z" fill="white"/>
<path d="M335.714 96.9643C335.892 96.7858 336.071 96.7858 336.249 96.6072C336.071 96.4286 336.071 96.0715 335.714 95.8929C335.535 95.7143 334.999 96.0715 335.178 96.2501C335.178 96.4286 335.357 96.4286 335.357 96.4286C335.535 96.6072 335.892 96.9643 336.071 97.1429L335.714 96.9643Z" fill="white"/>
<path d="M334.464 87.5C334.821 87.1429 334.999 86.7857 335.178 86.4286C335.357 86.0714 335.357 85.5357 334.999 85.1786C334.821 85 334.642 85 334.464 85C333.749 85 333.214 85.5357 333.214 86.25C333.035 86.9643 333.749 87.5 334.464 87.5Z" fill="white"/>
<path d="M337.5 84.1071C337.5 83.7499 337.678 83.5714 337.678 83.2142C337.5 83.0356 337.321 83.0356 336.964 83.0356C336.786 83.3928 336.786 83.9285 337.321 84.1071H337.5Z" fill="white"/>
<path d="M357.857 103.75C357.678 101.964 357.143 100.357 356.25 98.9285C356.071 98.75 355.893 98.3928 355.714 98.2143C355.357 97.8571 354.643 98.0357 354.107 98.2143C352.857 98.75 352.143 100.179 352.321 101.429C352.321 102.679 353.214 103.929 354.285 104.643C354.821 105 355.714 105.179 356.428 105C357.143 104.821 357.678 104.107 357.678 103.393C357.5 103.214 357.143 103.393 357.143 103.75H357.857Z" fill="white"/>
<path d="M324.285 115.714C325 115.178 325.357 114.464 325.535 113.571C325.178 113.571 324.821 113.393 324.464 113.571C324.107 113.75 323.75 113.928 323.75 114.286C323.75 114.821 324.107 115.178 324.642 115.536C324.464 115.536 324.285 115.536 324.285 115.536V115.714Z" fill="white"/>
<path d="M322.321 110C322.5 109.821 322.5 109.643 322.5 109.286C322.5 109.107 322.321 108.928 322.143 108.75C321.785 108.214 321.428 107.857 321.071 107.321C320.893 108.393 320.714 109.286 320.714 110.357V110.536C320.535 110.714 320.178 110.714 320 110.893C319.643 111.071 319.643 111.607 319.643 111.964C320.357 114.821 321.785 111.25 322.321 110Z" fill="white"/>
<path d="M326.607 120.714C327.143 120.536 327.678 120.179 328.036 119.464C327.5 119.286 327.143 119.107 326.607 118.929C326.428 118.929 326.071 118.75 325.893 118.75C325.357 118.929 325.178 119.464 325.357 119.821C325.536 120.536 326.071 120.714 326.607 120.714Z" fill="white"/>
<path d="M327.321 151.071C327.143 150.893 327.143 150.714 326.964 150.714C326.607 150.714 326.428 150.893 326.428 151.25C326.428 151.607 326.607 151.786 326.964 151.786C327.143 151.607 327.5 151.25 327.321 151.071Z" fill="white"/>
<path d="M328.571 112.857C328.928 112.678 329.107 112.143 328.928 111.786C328.75 111.428 328.392 111.071 328.035 111.071C327.857 111.071 327.678 111.071 327.5 111.25C327.5 111.428 327.5 111.428 327.678 111.607C327.857 112.143 328.214 112.5 328.571 112.857Z" fill="white"/>
<path d="M335.357 115.536C335.714 115.179 335.893 114.821 336.071 114.464C336.25 114.107 336.25 113.571 335.893 113.214C335.714 113.036 335.535 113.036 335.357 113.036C334.643 113.036 334.107 113.571 334.107 114.286C333.928 115 334.643 115.536 335.357 115.536Z" fill="white"/>
<path d="M344.107 95.1785C343.928 94.8213 343.393 94.6428 343.035 94.6428C342.678 94.6428 342.143 94.6428 341.785 94.2856C341.785 94.1071 341.607 94.1071 341.785 93.9285C341.964 93.5714 342.321 93.7499 342.678 93.7499C342.857 93.7499 343.214 93.5714 343.393 93.5714C343.928 93.3928 344.643 93.5714 345 94.1071C345 94.4642 345 94.8214 344.643 94.9999C344.464 95.1785 343.928 95.1785 343.75 94.9999L344.107 95.1785Z" fill="white"/>
<path d="M337.321 86.4285C337.143 86.0714 336.607 85.8928 336.25 85.8928C335.893 85.8928 335.357 85.8928 335 85.5356C335 85.3571 334.821 85.3571 335 85.1785C335.178 84.8214 335.535 84.9999 335.893 84.9999C336.071 84.9999 336.428 84.8214 336.607 84.8214C337.143 84.6428 337.857 84.8214 338.214 85.3571C338.214 85.7142 338.214 86.0714 337.857 86.2499C337.678 86.4285 337.143 86.4285 336.964 86.2499L337.321 86.4285Z" fill="white"/>
<path d="M338.928 78.3929C339.107 78.0358 339.107 77.6786 339.107 77.3215V77.1429C339.107 76.9644 338.928 76.9644 338.75 76.9644C338.393 76.9644 338.214 77.1429 338.214 77.5001C338.036 77.6786 338.214 78.0358 338.393 78.2144C338.571 78.3929 338.571 78.3929 338.75 78.3929H338.928C338.928 78.2144 338.928 78.2144 338.928 78.3929Z" fill="white"/>
<path d="M334.285 130.535C335 130 335.357 129.285 335.535 128.393C335.178 128.393 334.821 128.214 334.464 128.393C334.107 128.571 333.75 128.75 333.75 129.107C333.75 129.643 334.107 130 334.642 130.357C334.464 130.357 334.285 130.357 334.285 130.357V130.535Z" fill="white"/>
<path d="M326.786 129.643C327.143 130 327.857 129.643 327.857 129.107C327.678 128.929 327.321 128.75 327.143 128.75C326.786 128.75 326.607 128.929 326.607 129.286C326.607 129.464 326.786 129.821 327.143 129.821L326.786 129.643Z" fill="white"/>
<path d="M333.392 117.679C333.75 118.036 334.464 117.678 334.464 117.143C334.285 116.964 333.928 116.786 333.75 116.786C333.571 116.786 333.214 116.964 333.214 117.321C333.214 117.5 333.392 117.857 333.75 117.857L333.392 117.679Z" fill="white"/>
<path d="M330.178 130.893C329.821 131.071 330 131.607 330.357 131.786C330.714 131.964 331.071 131.964 331.25 132.143C331.607 132.321 331.785 132.5 331.964 132.857C331.964 133.036 331.964 133.214 331.964 133.393C331.785 133.571 331.785 133.571 331.607 133.571C330.893 133.75 330.357 133.75 329.643 133.571C328.928 133.393 328.393 132.857 328.393 132.143C328.393 131.607 328.571 131.25 328.928 131.071C329.464 130.714 330 130.714 330.178 130.893Z" fill="white"/>
<path d="M340 93.2142C339.642 93.3928 339.821 93.9285 340.178 94.1071C340.535 94.2856 340.892 94.2856 341.071 94.4642C341.428 94.6428 341.607 94.8213 341.785 95.1785C341.785 95.3571 341.785 95.5356 341.785 95.7142C341.607 95.8928 341.607 95.8928 341.428 95.8928C340.714 96.0713 340.178 96.0713 339.464 95.8928C338.75 95.7142 338.214 95.1785 338.214 94.4642C338.214 93.9285 338.392 93.5713 338.75 93.3928C339.285 93.0356 339.821 92.8571 340 93.2142Z" fill="white"/>
<path d="M344.285 93.5712C343.928 93.7497 344.107 94.2854 344.464 94.464C344.821 94.6426 345.178 94.6426 345.357 94.8211C345.714 94.9997 345.892 95.1783 346.071 95.5354C346.071 95.714 346.071 95.8926 346.071 96.0711C345.892 96.2497 345.892 96.2497 345.714 96.2497C345 96.4283 344.464 96.4283 343.75 96.2497C343.035 96.0712 342.5 95.5354 342.5 94.8211C342.5 94.2854 342.678 93.9283 343.035 93.7497C343.571 93.3926 344.107 93.3926 344.285 93.5712Z" fill="white"/>
<path d="M342.321 99.9999C341.964 100.178 342.143 100.714 342.5 100.893C342.857 101.071 343.214 101.071 343.393 101.25C343.75 101.428 343.929 101.607 344.107 101.964C344.107 102.143 344.107 102.321 344.107 102.5C343.929 102.678 343.929 102.678 343.75 102.678C343.036 102.857 342.5 102.857 341.786 102.678C341.071 102.5 340.536 101.964 340.536 101.25C340.536 100.714 340.714 100.357 341.071 100.178C341.607 99.8213 342.143 99.8213 342.321 99.9999Z" fill="white"/>
<path d="M301.428 76.9642C301.071 77.1428 301.25 77.6785 301.607 77.8571C301.964 78.0356 302.321 78.0356 302.5 78.2142C302.857 78.3928 303.035 78.5714 303.214 78.9285C303.214 79.1071 303.214 79.2856 303.214 79.4642C303.035 79.6428 303.035 79.6428 302.857 79.6428C302.143 79.8214 301.607 79.8214 300.893 79.6428C300.178 79.4642 299.643 78.9285 299.643 78.2142C299.643 77.6785 299.821 77.3214 300.178 77.1428C300.714 76.7857 301.25 76.7856 301.428 76.9642Z" fill="white"/>
<path d="M326.785 124.821C326.785 124.643 326.964 124.464 326.964 124.286C326.785 124.107 326.428 124.107 326.25 124.107C326.071 124.107 325.892 124.643 326.071 124.821C326.071 124.821 326.25 124.821 326.428 124.821C326.785 124.821 327.142 124.821 327.5 125L326.785 124.821Z" fill="white"/>
<path d="M318.393 90.7141C318.75 90.357 318.928 89.9998 319.107 89.6427C319.285 89.2855 319.285 88.7498 318.928 88.3927C318.75 88.2141 318.571 88.2141 318.393 88.2141C317.678 88.2141 317.143 88.7498 317.143 89.4641C317.143 89.9998 317.678 90.7141 318.393 90.7141Z" fill="white"/>
<path d="M339.642 120.714C339.642 121.428 338.75 121.786 338.214 121.25C338.214 120.893 338.214 120.536 338.214 120.178C338.571 120.178 338.928 120.357 339.285 120.536L339.642 120.714Z" fill="white"/>
<path opacity="0.5" d="M321.785 86.0713C321.964 85.8928 322.143 85.7142 322.143 85.3571C322.143 85.1785 322.143 84.8213 321.964 84.6428C321.607 84.4642 321.25 84.8213 320.714 84.8213C320.357 84.8213 320 84.4642 319.464 84.6428C319.107 84.8213 318.928 85.3571 319.285 85.7142C319.464 86.0713 320 86.2499 320.357 86.4285C320.714 86.6071 321.071 86.6071 321.428 86.6071C321.785 86.6071 322.143 86.2499 322.143 85.8928L321.785 86.0713Z" fill="white"/>
<path d="M337.5 102.321C339.286 102.5 341.071 101.607 342.143 100.178C341.429 98.5713 340 97.1427 338.214 96.9642C336.428 96.607 334.464 97.857 334.286 99.6427C334.107 101.428 336.428 102.857 337.857 101.786L337.5 102.321Z" fill="white"/>
<path d="M343.75 121.25C343.571 121.25 343.393 121.071 343.393 120.714C343.393 120.535 343.571 120.178 343.75 120.178C343.928 120.178 343.928 120 344.107 120C344.464 120 344.821 120.178 344.821 120.535C344.821 120.893 344.464 121.25 344.285 121.25C343.928 121.25 343.571 121.071 343.571 120.714L343.75 121.25Z" fill="white"/>
<path d="M340.536 112.143C340.178 111.786 339.643 111.964 339.286 112.143C338.928 112.321 338.393 112.5 338.036 112.143C337.857 112.143 337.857 111.964 337.857 111.786C337.857 111.428 338.214 111.428 338.571 111.25C338.75 111.071 338.928 110.893 339.107 110.714C339.643 110.357 340.357 110.357 340.714 110.536C340.893 110.893 340.893 111.25 340.714 111.428C340.536 111.607 340.178 111.786 339.821 111.786L340.536 112.143Z" fill="white"/>
<path d="M331.428 101.25C331.428 101.071 331.428 100.893 331.428 100.714C331.25 100.536 330.893 100.536 330.714 100.893C330.535 101.071 330.535 101.429 330.714 101.607C331.071 101.786 331.428 101.607 331.428 101.25Z" fill="white"/>
<path d="M334.821 110.536C334.821 110.714 334.464 110.714 334.285 110.714C334.107 110.536 334.107 110.357 333.928 110.179C333.928 110 333.928 109.821 333.928 109.643C333.928 109.286 334.285 109.107 334.643 109.107C335 109.107 335.178 109.286 335.357 109.643C335.357 109.821 335.535 110 335.357 110C335.357 110.179 335.178 110.179 335 110.179L334.821 110.536Z" fill="white"/>
<path d="M320.357 112.678C321.607 113.928 323.571 114.464 325.178 114.107C325.714 112.5 325.535 110.357 324.464 109.107C323.392 107.678 321.071 107.321 319.821 108.571C318.571 109.821 319.285 112.5 321.071 112.5L320.357 112.678Z" fill="white"/>
<path d="M328.928 123.393C329.285 123.036 328.75 122.321 328.214 122.5C327.678 122.5 327.321 123.036 327.143 123.393C327.678 123.928 328.571 123.928 329.107 123.571L328.928 123.393Z" fill="white"/>
<path d="M346.25 116.071C346.25 115.893 346.25 115.714 346.25 115.536C346.071 115.357 345.714 115.357 345.535 115.714C345.357 115.893 345.357 116.25 345.535 116.428C345.892 116.607 346.25 116.428 346.25 116.071Z" fill="white"/>
<path d="M337.321 113.929C338.035 112.143 338.392 110.357 338.214 108.393C338.214 108.036 338.214 107.857 338.035 107.5C337.678 106.964 337.143 106.786 336.607 106.786C335.178 106.786 333.75 107.679 333.214 108.929C332.678 110.179 332.857 111.786 333.75 113.036C334.107 113.75 334.821 114.286 335.535 114.464C336.25 114.643 337.143 114.286 337.5 113.571C337.321 113.393 336.964 113.393 336.964 113.571L337.321 113.929Z" fill="white"/>
<path d="M309.464 100.536C310.893 99.6428 311.964 97.857 311.964 96.0713C310.357 95.1785 308.393 94.9999 306.964 95.7142C305.357 96.607 304.643 98.7499 305.535 100.178C306.428 101.607 309.285 101.428 309.643 99.8213L309.464 100.536Z" fill="white"/>
<path d="M336.071 80.7142C336.785 80.1785 337.142 79.4642 337.321 78.5713C336.964 78.5713 336.607 78.3927 336.249 78.5713C335.892 78.7499 335.535 78.9285 335.535 79.2856C335.535 79.8213 335.892 80.1785 336.428 80.5356C336.249 80.5356 336.071 80.5356 336.071 80.5356V80.7142Z" fill="white"/>
<path d="M334.107 74.9999C334.285 74.8213 334.285 74.6427 334.285 74.2856C334.285 74.107 334.107 73.9284 333.928 73.7499C333.571 73.2141 333.214 72.857 332.857 72.3213C332.678 73.3927 332.5 74.2856 332.5 75.357V75.5356C332.321 75.7141 331.964 75.7141 331.785 75.8927C331.428 76.0713 331.428 76.607 331.428 76.9641C332.143 79.8213 333.393 76.2499 334.107 74.9999Z" fill="white"/>
<path d="M341.428 110.178C341.428 109.821 341.607 109.643 341.607 109.286C341.071 109.286 340.357 109.464 340.178 110C340 110.536 340.357 111.25 341.071 111.25C341.428 111.25 341.964 110.893 341.964 111.25L341.428 110.178Z" fill="white"/>
<path d="M329.107 87.8571C329.107 88.0357 329.107 88.3928 328.928 88.5714C328.392 88.0357 328.571 87.3214 328.571 86.7857C328.571 86.4285 328.75 86.0714 329.107 85.8928C329.285 85.8928 329.642 86.0714 329.821 86.0714C330.357 86.0714 330.892 85.8928 331.25 86.25C331.428 86.4285 331.25 86.7857 331.071 86.9643C330.892 87.1428 330.535 87.3214 330.357 87.3214C329.821 87.5 329.107 87.6785 328.571 87.8571H329.107Z" fill="white"/>
<path d="M319.464 87.4999C319.821 87.1428 319.285 86.4285 318.75 86.607C318.214 86.607 317.857 87.1428 317.678 87.4999C318.214 88.0356 319.107 88.0356 319.643 87.6785L319.464 87.4999Z" fill="white"/>
<path opacity="0.5" d="M325.535 78.214C325.357 78.3926 325 78.214 324.821 78.0354C324.642 77.8569 324.642 77.4997 324.821 77.3212C324.821 77.1426 325 76.964 325 76.964C325.178 76.7854 325.714 76.7854 325.892 76.964C326.071 77.1426 326.071 77.6783 325.714 77.8569C325.535 78.0354 325 78.0354 324.821 77.8569L325.535 78.214Z" fill="white"/>
<path d="M328.392 79.6429C328.75 80 329.464 79.6429 329.464 79.1071C329.285 78.9286 328.928 78.75 328.75 78.75C328.571 78.75 328.214 78.9286 328.214 79.2857C328.214 79.4643 328.392 79.8214 328.75 79.8214L328.392 79.6429Z" fill="white"/>
<path d="M338.393 85.7142C338.928 85.5356 339.464 85.1785 339.821 84.4642C339.285 84.2856 338.928 84.1071 338.393 83.9285C338.214 83.9285 337.857 83.7499 337.678 83.9285C337.143 84.1071 336.964 84.6428 337.143 84.9999C337.321 85.5356 337.857 85.7142 338.393 85.7142Z" fill="white"/>
<path opacity="0.5" d="M318.928 81.0714C318.571 81.2499 318.214 81.2499 317.857 81.0714C317.5 80.8928 317.321 80.5357 317.5 80.1785C317.5 79.9999 317.678 79.6428 318.035 79.8214C318.214 79.8214 318.214 79.9999 318.214 79.9999C318.393 80.3571 318.75 80.7142 318.928 81.0714Z" fill="white"/>
<path opacity="0.5" d="M312.857 77.4998C312.678 77.1427 312.143 76.9641 311.785 76.9641C311.428 76.9641 310.893 76.9641 310.535 76.6069C310.535 76.4284 310.357 76.4284 310.535 76.2498C310.714 75.8926 311.071 76.0712 311.428 76.0712C311.607 76.0712 311.964 75.8926 312.143 75.8926C312.678 75.7141 313.393 75.8926 313.75 76.4284C313.75 76.7855 313.75 77.1426 313.393 77.3212C313.214 77.4998 312.678 77.4998 312.5 77.3212L312.857 77.4998Z" fill="white"/>
<path opacity="0.5" d="M348.392 96.7857C348.214 96.4285 347.678 96.25 347.321 96.25C346.964 96.25 346.428 96.25 346.071 95.8928C346.071 95.7143 345.892 95.7143 346.071 95.5357C346.25 95.1785 346.607 95.3571 346.964 95.3571C347.142 95.3571 347.5 95.1785 347.678 95.1785C348.214 95 348.928 95.1785 349.285 95.7143C349.285 96.0714 349.285 96.4285 348.928 96.6071C348.75 96.7857 348.214 96.7857 348.035 96.6071L348.392 96.7857Z" fill="white"/>
<path opacity="0.5" d="M315.178 73.7499C315.178 73.5713 315.357 73.3928 315.357 73.2142C315.178 73.0356 314.821 72.8571 314.643 73.0356C314.464 73.2142 314.286 73.5713 314.464 73.7499C314.643 74.1071 315 74.1071 315.178 73.7499Z" fill="white"/>
<path d="M331.964 81.0712C331.607 81.2497 331.785 81.7855 332.143 81.964C332.5 82.1426 332.857 82.1426 333.035 82.3212C333.393 82.4997 333.571 82.6783 333.75 83.0355C333.75 83.214 333.75 83.3926 333.75 83.5712C333.571 83.7497 333.571 83.7497 333.393 83.7497C332.678 83.9283 332.143 83.9283 331.428 83.7497C330.893 83.5712 330.178 83.0355 330.178 82.3212C330.178 81.7855 330.357 81.4283 330.714 81.2497C331.071 80.714 331.607 80.714 331.964 81.0712Z" fill="white"/>
<path d="M340.357 77.857C340.714 77.6784 340.893 77.1427 340.714 76.7856C340.536 76.4284 340.179 76.0713 339.821 76.0713C339.643 76.0713 339.464 76.0713 339.286 76.2499C339.286 76.4284 339.286 76.4284 339.464 76.607C339.643 77.1427 340 77.4999 340.357 77.857Z" fill="white"/>
<path d="M323.392 93.5714C322.499 93.75 321.607 92.8571 321.785 92.1428C322.499 92.1428 323.214 92.1428 323.75 92.3214C324.285 92.6785 324.642 93.5714 324.285 93.9285C323.928 93.9285 323.571 94.1071 323.214 94.1071L323.392 93.5714Z" fill="white"/>
<path opacity="0.5" d="M328.571 74.9999C328.571 74.8214 328.75 74.6428 328.75 74.4642C328.571 74.2856 328.214 74.2856 328.035 74.2856C327.857 74.2856 327.678 74.8214 327.857 74.9999C327.857 74.9999 328.035 74.9999 328.214 74.9999C328.571 74.9999 328.928 74.9999 329.285 75.1785L328.571 74.9999Z" fill="white"/>
<path d="M335.714 121.607C336.071 121.25 336.25 120.893 336.428 120.536C336.607 120.178 336.607 119.643 336.25 119.286C336.071 119.107 335.892 119.107 335.714 119.107C335 119.107 334.464 119.643 334.464 120.357C334.285 121.071 335 121.607 335.714 121.607Z" fill="white"/>
<path d="M316.786 103.75C316.786 103.393 316.964 103.214 316.964 102.857C316.786 102.678 316.607 102.678 316.25 102.678C316.071 103.036 316.071 103.571 316.607 103.75H316.786Z" fill="white"/>
<path d="M332.857 144.643C332.678 144.821 332.321 144.643 332.143 144.464C331.964 144.286 331.964 143.928 332.143 143.75C332.143 143.571 332.321 143.393 332.321 143.393C332.5 143.214 333.036 143.214 333.214 143.393C333.393 143.571 333.393 144.107 333.036 144.286C332.857 144.464 332.321 144.464 332.143 144.286L332.857 144.643Z" fill="white"/>
<path d="M322.142 98.7499C322.142 98.3928 322.321 98.2142 322.321 97.857C322.143 97.6785 321.964 97.6785 321.607 97.6785C321.428 98.0356 321.428 98.5713 321.964 98.7499H322.142Z" fill="white"/>
<path d="M346.428 102.321C346.785 102.143 346.785 101.786 346.428 101.428C346.25 101.25 345.893 101.071 345.535 100.893C345.357 100.714 345.178 100.357 345.178 99.9998C345.178 99.8213 345.178 99.6427 345.357 99.4641C345.535 99.4641 345.535 99.4641 345.714 99.4641C346.428 99.4641 346.964 99.6427 347.5 99.9998C348.035 100.357 348.392 101.071 348.214 101.786C348.035 102.143 347.678 102.678 347.321 102.678C347.142 102.857 346.607 102.678 346.428 102.321Z" fill="white"/>
<path d="M332.678 113.75C332.5 113.928 332.321 114.107 332.143 114.286C331.964 114.464 331.964 114.821 332.143 115C332.5 115.357 332.857 115.178 333.393 115.178C333.75 115.357 334.107 115.714 334.464 115.714C334.821 115.714 335.178 115.178 335 114.821C334.821 114.464 334.464 114.107 334.286 113.928C333.928 113.75 333.571 113.571 333.214 113.571C332.857 113.571 332.5 113.75 332.321 114.107L332.678 113.75Z" fill="white"/>
<path d="M336.25 94.8213C336.071 96.2499 336.428 97.857 336.964 99.2856C337.142 99.4642 337.142 99.8213 337.321 99.9999C337.678 100.357 338.214 100.357 338.75 100.178C339.821 99.8213 340.714 98.7499 340.892 97.6785C341.071 96.607 340.357 95.357 339.464 94.6428C338.928 94.2856 338.392 93.9285 337.678 93.9285C336.964 93.9285 336.428 94.4642 336.428 95.1785C336.607 95.357 336.785 95.1785 336.964 94.9999L336.25 94.8213Z" fill="white"/>
<path d="M346.428 99.1071C346.607 99.1071 346.964 99.1071 347.143 98.9285C347.321 98.7499 347.321 98.5714 347.5 98.3928C347.678 97.8571 347.857 97.3214 348.214 96.7856C347.321 97.1428 346.25 97.4999 345.357 97.8571H345.178C344.821 97.8571 344.821 97.4999 344.464 97.3214C344.107 97.1428 343.75 97.3214 343.393 97.6785C341.25 99.6428 345.178 99.1071 346.428 99.1071Z" fill="white"/>
<path d="M336.607 94.6427C336.607 94.4642 336.785 94.2856 336.785 94.107C336.607 93.9285 336.249 93.7499 336.071 93.9285C335.892 94.107 335.714 94.4642 335.892 94.6427C336.071 94.9999 336.428 94.9999 336.607 94.6427Z" fill="white"/>
<path d="M344.821 94.6427C345.178 94.9998 345.714 94.8212 345.893 94.4641C346.071 94.1069 346.25 93.7498 346.071 93.2141C346.071 93.0355 345.893 92.8569 345.714 92.8569C345.536 92.8569 345.536 93.0355 345.536 93.0355C345.178 93.7498 344.821 94.1069 344.821 94.6427Z" fill="white"/>
<path d="M339.464 93.3929C340.179 93.7501 341.071 93.7501 341.786 93.3929C341.607 93.0358 341.429 92.6787 341.25 92.5001C341.071 92.3215 340.536 92.143 340.179 92.3215C339.643 92.5001 339.643 93.0358 339.643 93.5715C339.464 93.393 339.464 93.393 339.286 93.2144L339.464 93.3929Z" fill="white"/>
<path d="M336.607 90.8929C336.428 91.0714 336.071 91.0714 335.893 91.0714C336.071 90.5357 336.785 90.1786 337.321 89.8214C337.678 89.6429 338.035 89.6429 338.393 89.8214C338.571 90 338.571 90.3571 338.571 90.5357C338.75 91.0714 339.285 91.4286 339.107 91.7857C338.928 91.9643 338.571 92.1429 338.393 92.1429C338.035 92.1429 337.857 91.7857 337.678 91.6071C337.143 91.25 336.785 90.7143 336.25 90.3571L336.607 90.8929Z" fill="white"/>
<path d="M343.035 97.857C343.393 98.2141 344.107 98.5713 344.643 98.3927C344.464 97.857 344.464 97.3213 344.285 96.9641C344.285 96.7856 344.107 96.4284 343.928 96.2499C343.571 95.8927 343.035 96.0713 342.678 96.4284C342.678 96.7856 342.678 97.3213 343.035 97.857Z" fill="white"/>
<path d="M343.928 89.9999C343.571 89.8213 343.392 90.1785 343.214 90.5356C343.214 90.8927 343.392 91.2499 343.392 91.4285C343.392 91.7856 343.392 92.1427 343.035 92.3213C342.857 92.4999 342.678 92.4999 342.499 92.4999C342.321 92.4999 342.321 92.3213 342.142 92.3213C341.607 91.7856 341.249 91.2499 341.249 90.5356C341.071 89.8213 341.249 89.107 341.964 88.7499C342.321 88.5713 342.857 88.5713 343.214 88.7499C343.749 89.107 343.928 89.6428 343.928 89.9999Z" fill="white"/>
<path d="M329.285 105.893C329.643 106.071 330.178 106.071 330.535 106.071C330.893 106.071 331.428 105.714 331.428 105.357C331.428 105.179 331.428 105 331.25 104.643C330.893 104.107 330.178 103.75 329.464 104.107C329.107 104.464 328.928 105.357 329.285 105.893Z" fill="white"/>
<path d="M338.392 109.464C339.107 109.821 340 109.821 340.714 109.464C340.535 109.107 340.357 108.75 340.178 108.571C340 108.393 339.464 108.214 339.107 108.393C338.571 108.571 338.571 109.107 338.571 109.643C338.392 109.464 338.392 109.464 338.214 109.286L338.392 109.464Z" fill="white"/>
<path d="M336.071 89.4641C335.893 89.107 335.357 88.9284 335 88.9284C334.643 88.9284 334.107 88.9284 333.75 88.5713C333.75 88.3927 333.571 88.3927 333.75 88.2141C333.928 87.857 334.285 88.0356 334.643 88.0356C334.821 88.0356 335.178 87.857 335.357 87.857C335.893 87.6784 336.607 87.857 336.964 88.3927C336.964 88.7499 336.786 89.107 336.607 89.2856C336.25 89.4642 335.893 89.4642 335.714 89.2856L336.071 89.4641Z" fill="white"/>
<path d="M323.393 121.429C323.393 121.25 323.393 121.071 323.393 120.893C323.036 120.893 322.857 120.893 322.678 121.25C322.5 121.429 322.678 121.786 322.857 121.964C323.214 121.964 323.393 121.786 323.393 121.429Z" fill="white"/>
<path d="M339.464 100C339.643 100 339.821 100 340 100C340 99.6429 340 99.4643 339.821 99.2858C339.643 99.1072 339.286 99.1072 339.107 99.4643C339.107 99.6429 339.107 99.6429 339.107 99.8215C339.286 100.179 339.464 100.357 339.464 100.714V100Z" fill="white"/>
<path opacity="0.5" d="M188.035 377.678C228.273 377.678 260.893 370.403 260.893 361.428C260.893 352.454 228.273 345.178 188.035 345.178C147.797 345.178 115.178 352.454 115.178 361.428C115.178 370.403 147.797 377.678 188.035 377.678Z" fill="url(#paint0_radial)"/>
<path d="M181.964 294.643C181.25 302.5 168.928 327.5 159.286 334.286C157.5 335.536 155.714 336.25 154.107 335.893C147.143 334.464 143.75 301.25 143.393 282.5C143.214 275.178 143.571 270.178 144.286 270C150.714 268.036 182.678 285.357 181.964 294.643Z" fill="url(#paint1_linear)"/>
<path d="M115.535 246.428C92.3212 273.214 72.6784 316.785 72.6784 316.785L15.3569 297.678L28.0355 291.25L115.535 246.428Z" fill="url(#paint2_linear)"/>
<path d="M181.964 297.142C181.964 297.142 173.393 301.785 160 295.178C149.643 290 142.5 272.857 144.286 269.821C146.25 266.785 186.786 285 181.964 297.142Z" fill="url(#paint3_linear)"/>
<path opacity="0.3" d="M181.964 294.643C181.25 302.5 168.928 327.5 159.286 334.286C166.607 325.893 166.786 308.928 162.143 301.071C158.571 295.178 148.214 286.428 143.393 282.5C143.214 275.178 143.571 270.178 144.286 270C150.714 268.036 182.678 285.357 181.964 294.643Z" fill="url(#paint4_linear)"/>
<path d="M155 223.571C155 223.571 118.214 244.464 109.642 243.571C101.071 242.678 104.821 223.035 104.821 223.035C105.892 221.607 107.321 220.357 108.571 218.928C122.321 204.285 145.892 185.714 159.464 176.964C165.178 173.214 169.107 171.25 169.821 171.964C174.821 177.321 155 223.571 155 223.571Z" fill="url(#paint5_linear)"/>
<path d="M104.821 223.036C104.821 223.036 109.642 218.928 115.535 224.464C121.428 229.821 115.357 242.857 109.642 243.571C103.928 244.107 100.357 231.428 104.821 223.036Z" fill="url(#paint6_linear)"/>
<path opacity="0.3" d="M155 223.571C155 223.571 118.214 244.464 109.642 243.571C101.071 242.678 104.821 223.035 104.821 223.035C105.892 221.607 107.321 220.357 108.571 218.928C108.571 218.928 117.5 224.285 134.107 221.607C150.714 219.107 159.642 176.785 159.642 176.785C165.357 173.035 169.285 171.071 170 171.785C174.821 177.321 155 223.571 155 223.571Z" fill="url(#paint7_linear)"/>
<path d="M129.464 40.5354C129.464 40.5354 117.143 53.5711 115.714 77.8568C114.285 101.964 142.321 67.1425 142.321 67.1425L129.464 40.5354Z" fill="url(#paint8_linear)"/>
<path d="M121.428 66.964C121.428 66.964 126.964 37.1426 136.25 30.8926C145.535 24.6426 162.143 30.3568 162.143 30.3568L121.428 66.964Z" fill="url(#paint9_linear)"/>
<path d="M264.107 136.607C243.214 169.643 139.285 174.821 121.428 158.393C114.285 151.785 109.821 143.214 107.5 133.393C97.8569 91.6068 130.357 29.464 184.285 23.3926C220.714 19.2854 251.25 49.464 264.107 81.7854C271.964 101.785 273.035 122.857 264.107 136.607Z" fill="url(#paint10_linear)"/>
<path d="M243.75 152.5C230.893 158.035 211.607 163.393 198.571 165.178C174.464 168.393 156.607 168.035 146.429 165.357C139.643 163.571 136.25 161.071 136.25 157.857C136.25 155.893 140.714 153.571 148.036 151.25C169.464 144.285 214.643 137.143 239.643 137.5C241.786 137.5 243.75 137.678 245.536 137.857C245.893 137.857 246.25 137.857 246.607 138.035H246.786C251.071 138.571 254.286 139.464 255.893 140.714C256.25 141.071 256.607 141.428 256.786 141.785C258.214 144.821 252.5 148.75 243.75 152.5Z" fill="url(#paint11_linear)"/>
<path opacity="0.3" d="M264.107 136.607C243.214 169.643 139.286 174.821 121.429 158.392C114.286 151.785 109.821 143.214 107.5 133.392C107.5 133.392 116.25 145.893 137.321 145.714C158.571 145.535 218.929 134.285 230.179 123.393C241.25 112.678 230.893 71.4282 230.893 71.4282L263.929 81.7854C271.964 101.785 273.036 122.857 264.107 136.607Z" fill="url(#paint12_linear)"/>
<path opacity="0.5" d="M243.75 152.5C232.679 149.285 200.714 141.785 177.143 150.357C148.214 161.071 146.429 165.357 146.429 165.357C139.643 163.571 136.25 161.071 136.25 157.857C136.25 155.893 140.714 153.571 148.036 151.25C169.464 144.285 214.643 137.143 239.643 137.5C242.321 137.678 244.643 137.678 246.786 137.857H246.964C251.25 138.393 254.464 139.285 256.071 140.535C256.429 140.893 256.786 141.25 256.964 141.607C258.214 144.821 252.5 148.75 243.75 152.5Z" fill="url(#paint13_linear)"/>
<path d="M245.536 137.857C240.536 144.107 213.75 152.5 198.214 154.464C170.178 158.214 152.679 156.071 148.036 151.25C171.25 143.75 222.678 135.892 245.536 137.857Z" fill="url(#paint14_linear)"/>
<path d="M107.5 135.357C113.571 147.5 202.857 140.357 222.5 115C242.143 89.6427 210.893 18.3927 165 31.2499C121.071 43.7499 96.4282 113.393 107.5 135.357Z" fill="#DFE3FB"/>
<path d="M107.5 133.393C113.571 145.536 202.857 138.393 222.5 113.036C242.143 87.6784 210.893 16.4284 165 29.2855C121.071 41.7855 96.4282 111.428 107.5 133.393Z" fill="url(#paint15_linear)"/>
<path d="M234.107 256.607C227.857 285.178 211.428 297.5 181.964 297.143C153.214 296.785 135.536 265.535 144.821 228.928C150.714 205.535 157.678 184.821 169.821 171.785C176.786 164.464 185.357 159.643 196.607 158.393C205.357 157.321 212.678 162.143 218.571 170.178C233.75 191.071 238.928 234.464 234.107 256.607Z" fill="url(#paint16_linear)"/>
<path d="M226.964 35.714C226.964 35.714 222.143 79.6426 249.286 95.3569C249.286 95.3569 262.678 96.7854 270.357 88.7497C270.357 88.7497 258.214 99.9997 245.536 88.214C232.857 76.4283 235.893 43.9283 245.536 33.214C255.178 22.6783 269.107 25.3569 269.107 25.3569L263.571 20.3569C263.571 20.3569 243.036 16.2497 226.964 35.714Z" fill="url(#paint17_linear)"/>
<path opacity="0.3" d="M218.571 202.857C218.571 202.857 221.607 225.178 221.607 240.178C221.607 257.857 210.714 273.393 210.714 273.393L232.678 261.607C232.678 261.607 236.785 250 235.714 238.214C234.642 226.428 233.75 221.071 233.75 221.071L218.571 202.857Z" fill="url(#paint18_linear)"/>
<path d="M263.571 20.3568C263.571 20.3568 248.393 18.9282 237.857 36.4282C226.607 54.9996 234.821 87.1425 248.393 92.1425C261.964 97.1425 275.714 44.9996 275.714 44.9996L267.857 24.2853C268.036 24.2853 266.428 21.4282 263.571 20.3568Z" fill="url(#paint19_linear)"/>
<path d="M283.035 64.6425C281.071 74.6425 276.964 82.8568 271.607 88.0354L270 89.464C265.535 93.0354 260.357 94.8211 254.643 94.1068C236.25 91.7854 233.75 65.1783 235.893 49.9997C238.393 32.4997 253.392 22.1425 265.178 23.5711C279.464 25.5354 286.964 44.9997 283.035 64.6425Z" fill="url(#paint20_linear)"/>
<path d="M143.214 233.571C143.214 233.571 149.821 211.964 170.535 211.964C195.357 211.964 211.964 239.464 210.535 258.036C209.107 276.607 203.392 294.107 180 294.821C180.178 294.821 136.25 293.75 143.214 233.571Z" fill="url(#paint21_linear)"/>
<path d="M143.214 236.071C143.214 236.071 149.821 214.464 170.535 214.464C195.357 214.464 211.964 241.964 210.535 260.536C209.107 279.107 203.392 296.607 180 297.321C180.178 297.143 136.25 296.071 143.214 236.071Z" fill="url(#paint22_radial)"/>
<path d="M230.357 226.785C229.286 226.785 228.214 225.893 226.964 224.285C221.786 217.321 216.25 197.321 216.429 186.25C216.429 181.964 217.321 178.928 219.286 178.571C222.679 178.035 229.286 189.107 232.679 204.821C234.464 214.285 234.821 226.785 230.357 226.785Z" fill="url(#paint23_linear)"/>
<path d="M226.964 224.464C221.786 217.5 216.25 197.5 216.429 186.428C219.643 190.714 223.571 199.285 225.714 209.821C226.607 214.464 227.143 220 226.964 224.464Z" fill="#6340A2"/>
<path d="M279.464 268.035C276.071 278.75 263.392 280 259.821 277.321C256.607 275 247.678 264.642 239.107 245.535C237.857 242.678 236.607 239.642 235.357 236.607C225.892 211.607 218.75 165.714 228.571 167.5C257.142 172.678 282.678 257.321 279.464 268.035Z" fill="url(#paint24_linear)"/>
<path d="M233.214 344.107C231.25 345 228.571 344.107 225.536 341.785C222.143 339.285 218.393 335.357 214.643 330.714C204.107 317.678 193.75 299.643 194.286 295.714C196.071 281.785 215 269.643 226.25 264.285C230.714 262.143 233.928 261.071 234.464 261.428C236.428 262.143 243.214 339.107 233.214 344.107Z" fill="url(#paint25_linear)"/>
<path d="M253.571 270.714C253.571 270.714 253.75 260.714 262.5 257.321C271.25 253.75 279.821 265.535 279.821 265.535C279.821 265.535 279.821 276.607 268.036 276.964C255.893 276.964 253.571 270.714 253.571 270.714Z" fill="url(#paint26_linear)"/>
<path d="M114.107 235.357C114.107 235.357 106.786 246.786 99.1071 252.321C91.25 257.857 75.8929 260.357 75.8929 260.357C75.8929 260.357 65 255.357 65 247.857C65 247.857 76.7857 241.964 81.25 232.5C81.25 232.5 96.4286 227.143 103.036 228.928C109.643 230.714 114.107 235.357 114.107 235.357Z" fill="url(#paint27_linear)"/>
<path d="M115.535 246.428C113.75 248.392 84.8212 279.642 71.4284 312.857L15.3569 297.678C15.3569 297.678 23.0355 281.428 38.0355 262.142C46.6069 251.071 57.8569 239.107 71.2498 228.571C71.4284 228.571 93.9284 231.964 115.535 246.428Z" fill="url(#paint28_linear)"/>
<path d="M92.3211 231.785L104.643 240L88.9282 233.214L92.3211 231.785Z" fill="url(#paint29_linear)"/>
<path d="M104.643 121.785C104.643 121.785 92.5 127.143 82.5 139.107C72.5 151.25 71.6071 163.75 86.0714 159.821L92.1429 154.464C92.1429 154.464 83.5714 157.321 83.0357 148.214C82.5 139.107 104.643 123.393 104.643 123.393V121.785Z" fill="url(#paint30_linear)"/>
<path d="M82.1427 153.036C78.5713 158.393 88.0356 160.714 95.357 160.536C103.75 160.357 118.214 156.607 116.071 148.393C114.286 140.178 90.5356 140.536 82.1427 153.036Z" fill="url(#paint31_linear)"/>
<path d="M82.8569 153.75C82.8569 155.178 112.321 151.428 112.321 146.071C112.143 140.893 83.3926 143.035 82.8569 153.75Z" fill="url(#paint32_linear)"/>
<path d="M118.035 104.642C120.178 111.428 134.285 109.642 138.035 98.9281C141.785 88.2139 137.678 74.4639 130.535 73.9281C123.214 73.3924 113.928 91.071 118.035 104.642Z" fill="url(#paint33_linear)"/>
<path d="M175.536 81.6068C175 82.4997 185.714 72.4997 206.429 76.2497C208.393 76.6068 184.643 62.3211 175.536 81.6068Z" fill="url(#paint34_linear)"/>
<path d="M154.643 119.107C154.643 119.107 174.464 113.928 183.214 98.0354C183.214 98.214 180 119.643 154.643 119.107Z" fill="#2F95CD"/>
<path opacity="0.5" d="M121.429 74.9996C123.929 77.6782 138.929 65.8925 157.5 64.1068C176.071 62.4997 199.464 76.4282 213.929 71.4282C225.357 67.3211 201.607 27.6782 170.714 29.8211C139.821 31.7854 118.929 72.4996 121.429 74.9996Z" fill="url(#paint35_linear)"/>
<path opacity="0.5" d="M127.143 133.571C127.143 133.571 145.178 124.821 169.107 123.036C193.035 121.071 197.321 122.857 197.321 125.178C197.321 127.5 181.071 135.357 159.285 137.143C137.5 138.928 127.143 133.571 127.143 133.571Z" fill="url(#paint36_linear)"/>
<path opacity="0.5" d="M107.5 129.821C107.5 129.821 101.964 113.75 112.321 87.4998C112.321 87.4998 114.821 83.2141 116.607 84.2855C118.214 85.3569 106.607 105.178 107.5 129.821Z" fill="url(#paint37_linear)"/>
<path opacity="0.72" d="M238.928 71.2498C238.928 71.2498 240.893 87.4998 252.857 91.0712C264.821 94.6426 274.643 85.8926 277.678 73.7498C277.678 73.7498 273.928 84.2855 258.214 81.6069C242.678 78.9283 238.928 71.2498 238.928 71.2498Z" fill="url(#paint38_linear)"/>
<path opacity="0.72" d="M241.25 40.5353C241.429 43.5711 263.393 37.3211 270.357 38.2139C277.321 39.1068 280.357 47.6782 281.429 47.4996C282.5 47.3211 279.643 27.1425 266.607 25.7139C253.571 24.1068 241.071 38.3925 241.25 40.5353Z" fill="url(#paint39_linear)"/>
<path opacity="0.5" d="M218.571 170.178C218.571 170.178 188.214 181.607 176.607 180.357C165.357 179.107 169.643 172.321 169.821 171.964C176.786 164.643 185.357 159.821 196.607 158.571C205.536 157.321 212.857 162.143 218.571 170.178Z" fill="url(#paint40_linear)"/>
<path opacity="0.3" d="M279.464 268.035C276.071 278.75 263.393 280 259.821 277.321C256.607 275 247.678 264.643 239.107 245.535C240 247.143 246.25 258.75 251.786 258.75C257.857 258.75 269.464 241.964 257.678 206.964C246.25 173.035 229.643 167.678 228.571 167.5C257.143 172.678 282.678 257.321 279.464 268.035Z" fill="url(#paint41_linear)"/>
<path d="M264.107 262.321C269.107 260.893 276.964 265 279.643 268.928C282.321 273.035 289.286 290 285.357 311.964C285.357 311.964 277.857 321.785 269.643 319.643C263.214 318.035 261.786 299.107 260 285.714C258.214 272.321 255.893 264.643 264.107 262.321Z" fill="url(#paint42_linear)"/>
<path d="M270.714 320.357C270.714 320.357 273.75 276.428 255.892 269.285C255.892 269.285 255.714 276.428 259.464 292.857C263.035 309.285 266.607 319.285 270.714 320.357Z" fill="url(#paint43_linear)"/>
<path opacity="0.5" d="M269.464 296.25C269.464 296.25 265.714 303.035 262.857 304.464C260 305.892 257.5 305 257.5 305L266.607 284.285C266.607 284.107 269.464 291.607 269.464 296.25Z" fill="url(#paint44_linear)"/>
<path d="M266.607 284.107C266.607 284.107 263.036 272.321 255.357 270.178C255.357 270.178 249.286 277.5 253.571 303.035C253.571 303.035 257.857 307.678 262.678 302.143C262.857 302.143 266.428 292.857 266.607 284.107Z" fill="url(#paint45_linear)"/>
<path d="M262.143 280.357C264.643 280.178 261.964 291.428 260.714 291.25C259.285 291.071 260 280.535 262.143 280.357Z" fill="white"/>
<path opacity="0.72" d="M146.25 234.285C149.286 240.178 161.071 232.678 175.536 234.285C190 235.892 197.857 243.571 201.964 241.607C206.071 239.464 193.036 217.857 170.714 216.964C152.857 216.071 145.178 232.321 146.25 234.285Z" fill="url(#paint46_linear)"/>
<path opacity="0.72" d="M162.143 288.035C162.143 288.035 168.214 294.285 178.393 294.643C188.393 295 191.785 290.178 191.785 290.178C191.785 290.178 187.321 288.214 180.178 289.643C173.035 290.893 166.607 290 162.143 288.035Z" fill="url(#paint47_linear)"/>
<path opacity="0.3" d="M233.214 344.107C231.25 345 228.571 344.107 225.535 341.785L214.643 330.714C215.714 331.607 227.857 342.321 230.178 320.178C232.678 296.964 225.178 265.714 225.178 265.714L226.25 264.285C230.714 262.143 233.928 261.071 234.464 261.428C236.428 262.143 243.214 339.107 233.214 344.107Z" fill="url(#paint48_linear)"/>
<path d="M233.928 207.5C229.643 210 238.571 228.035 240.536 228.392C242.678 228.928 236.786 205.892 233.928 207.5Z" fill="white"/>
<path d="M241.785 231.428C240.892 231.607 241.964 235.714 242.5 236.25C243.214 236.785 244.642 236.964 245 236.607C245.535 236.25 242.857 231.428 241.785 231.428Z" fill="white"/>
<path d="M199.107 187.857C197.321 187.857 194.286 205 195.714 205.536C197.143 206.071 199.107 202.5 200.357 196.786C201.786 191.25 200.893 187.857 199.107 187.857Z" fill="white"/>
<path d="M121.786 209.107C122.143 210.357 130.893 206.428 130.893 202.678C130.893 199.107 121.25 207.321 121.786 209.107Z" fill="white"/>
<path d="M206.071 294.821C202.321 295.714 207.857 305 208.75 305.357C209.643 305.714 210.357 301.785 209.643 298.928C209.107 296.428 207.5 294.464 206.071 294.821Z" fill="white"/>
<path d="M153.571 302.143C151.428 301.607 151.964 307.678 152.321 308.035C152.678 308.393 153.928 306.607 154.285 305C154.643 303.75 154.285 302.321 153.571 302.143Z" fill="white"/>
<path d="M209.643 306.428C208.929 306.964 210.714 310 211.25 309.285C211.786 308.75 211.786 307.143 211.25 306.607C210.893 306.25 210 306.25 209.643 306.428Z" fill="white"/>
<path d="M75.1786 226.25C75.1786 226.25 77.1429 252.5 72.3214 267.857C72.3214 267.857 34.1071 282.143 16.25 297.143L74.2857 268.571C74.4643 268.571 78.3929 242.321 75.1786 226.25Z" fill="url(#paint49_linear)"/>
<path opacity="0.5" d="M63.0356 235.535C63.0356 235.535 67.3214 243.035 80.1785 242.857C92.8571 242.678 96.6071 236.428 96.6071 236.428L89.1071 233.214L69.1071 230.357C69.1071 230.357 63.3928 235.178 63.0356 235.535Z" fill="url(#paint50_linear)"/>
<path opacity="0.5" d="M61.4284 266.428C61.4284 271.071 68.3926 277.857 75.1784 275.893C83.7498 273.571 84.2855 261.25 79.4641 259.285C74.4641 257.143 73.2141 260.357 70.5355 260.357C67.8569 260.714 61.2498 260.893 61.4284 266.428Z" fill="url(#paint51_linear)"/>
<path d="M61.4284 264.821C61.4284 269.464 68.3926 276.25 75.1784 274.285C83.7498 271.964 84.2855 259.643 79.4641 257.678C74.4641 255.535 73.2141 258.75 70.5355 258.75C67.8569 258.75 61.2498 259.285 61.4284 264.821Z" fill="url(#paint52_radial)"/>
<path d="M109.643 225.535C109.643 225.535 101.785 217.321 95.3569 216.785C88.7497 216.25 72.1426 223.392 67.1426 232.857C67.1426 232.857 67.8569 235.178 73.5712 236.428C79.2854 237.857 92.3212 231.785 92.3212 231.785L114.107 235.535C114.107 235.535 114.107 230.714 109.643 225.535Z" fill="url(#paint53_linear)"/>
<path d="M92.3213 231.786C92.3213 231.786 102.857 228.571 104.107 220.714L105.714 221.964C105.714 222.143 104.107 230.178 92.3213 231.786Z" fill="url(#paint54_linear)"/>
<path d="M73.5713 228.571C73.7499 230.178 85.357 224.821 85.357 222.857C85.357 220.893 73.3927 225.714 73.5713 228.571Z" fill="white"/>
<path opacity="0.5" d="M72.4998 271.607C71.7855 271.607 71.0712 271.428 70.3569 271.25C67.8569 270.535 66.2498 268.928 64.6426 267.143C62.4998 265 61.9641 263.214 63.7498 261.607C66.4283 259.285 73.0355 258.928 75.3569 258.571C76.9641 258.393 77.8569 259.107 78.7498 261.071C79.1069 261.785 79.2855 262.857 79.6426 264.107C80.5355 268.393 76.4283 271.964 72.4998 271.607Z" fill="url(#paint55_linear)"/>
<path d="M72.4999 271.607C71.7856 271.607 71.0713 271.428 70.357 271.25C69.8213 270.714 69.107 270.178 68.5713 269.464C66.4285 267.142 65.8928 265.535 67.6785 263.928C70.1785 261.785 75.8928 261.25 78.5713 261.071C78.9285 261.785 79.107 262.857 79.4642 264.107C80.5356 268.392 76.4285 271.964 72.4999 271.607Z" fill="url(#paint56_radial)"/>
<path opacity="0.3" d="M115.535 246.607C92.3212 273.214 72.8569 316.964 72.8569 316.964L15.3569 297.678C15.3569 297.678 23.0355 281.428 38.0355 262.143C37.1426 263.571 23.9284 284.286 20.8926 290.357L27.8569 291.25L74.8212 297.143C74.8212 297.143 98.9284 262.143 115.535 246.607Z" fill="url(#paint57_linear)"/>
</g>
<defs>
<radialGradient id="paint0_radial" cx="0" cy="0" r="1" gradientUnits="userSpaceOnUse" gradientTransform="translate(188.055 361.425) scale(72.8348 16.2057)">
<stop stop-color="#BE9DEA"/>
<stop offset="0.3883" stop-color="#E0BFF5"/>
<stop offset="1" stop-color="white"/>
</radialGradient>
<linearGradient id="paint1_linear" x1="156.218" y1="336.083" x2="164.268" y2="271.987" gradientUnits="userSpaceOnUse">
<stop stop-color="#CBC1F7"/>
<stop offset="1" stop-color="#E8DCF7"/>
</linearGradient>
<linearGradient id="paint2_linear" x1="57.1893" y1="313.734" x2="72.2934" y2="237.829" gradientUnits="userSpaceOnUse">
<stop stop-color="#A242EA"/>
<stop offset="1" stop-color="#FE117E"/>
</linearGradient>
<linearGradient id="paint3_linear" x1="144.127" y1="284.083" x2="182.361" y2="284.083" gradientUnits="userSpaceOnUse">
<stop stop-color="#8879EA"/>
<stop offset="1" stop-color="#9E8CEF"/>
</linearGradient>
<linearGradient id="paint4_linear" x1="162.691" y1="334.154" x2="162.691" y2="269.681" gradientUnits="userSpaceOnUse">
<stop stop-color="#9D68C2"/>
<stop offset="1" stop-color="#CCEDFF"/>
</linearGradient>
<linearGradient id="paint5_linear" x1="131.852" y1="246.282" x2="141.664" y2="168.165" gradientUnits="userSpaceOnUse">
<stop stop-color="#CBC1F7"/>
<stop offset="1" stop-color="#D4BEF1"/>
</linearGradient>
<linearGradient id="paint6_linear" x1="111.628" y1="243.283" x2="109.41" y2="221.507" gradientUnits="userSpaceOnUse">
<stop stop-color="#BE9DEA"/>
<stop offset="1" stop-color="#9E8CEF"/>
</linearGradient>
<linearGradient id="paint7_linear" x1="137.327" y1="243.514" x2="137.327" y2="171.658" gradientUnits="userSpaceOnUse">
<stop stop-color="#9D68C2"/>
<stop offset="1" stop-color="#CCEDFF"/>
</linearGradient>
<linearGradient id="paint8_linear" x1="128.945" y1="86.2388" x2="128.945" y2="40.4556" gradientUnits="userSpaceOnUse">
<stop stop-color="#45FFCD"/>
<stop offset="1" stop-color="#22E0FF"/>
</linearGradient>
<linearGradient id="paint9_linear" x1="141.79" y1="66.967" x2="141.79" y2="27.882" gradientUnits="userSpaceOnUse">
<stop stop-color="#B9ACF4"/>
<stop offset="1" stop-color="#E1D1F5"/>
</linearGradient>
<linearGradient id="paint10_linear" x1="180.998" y1="170.73" x2="199.47" y2="23.6524" gradientUnits="userSpaceOnUse">
<stop stop-color="#CBC1F7"/>
<stop offset="1" stop-color="#E8DCF7"/>
</linearGradient>
<linearGradient id="paint11_linear" x1="136.272" y1="152.475" x2="257.001" y2="152.475" gradientUnits="userSpaceOnUse">
<stop stop-color="#8879EA"/>
<stop offset="1" stop-color="#9E8CEF"/>
</linearGradient>
<linearGradient id="paint12_linear" x1="188.892" y1="167.465" x2="188.892" y2="71.4329" gradientUnits="userSpaceOnUse">
<stop stop-color="#9D68C2"/>
<stop offset="1" stop-color="#CCEDFF"/>
</linearGradient>
<linearGradient id="paint13_linear" x1="196.636" y1="165.41" x2="196.636" y2="137.482" gradientUnits="userSpaceOnUse">
<stop stop-color="#8DA4E5"/>
<stop offset="1" stop-color="#755CBB"/>
</linearGradient>
<linearGradient id="paint14_linear" x1="196.916" y1="156.146" x2="196.766" y2="137.809" gradientUnits="userSpaceOnUse">
<stop stop-color="#5E36CC"/>
<stop offset="1" stop-color="#6C4A96"/>
</linearGradient>
<linearGradient id="paint15_linear" x1="166.671" y1="139.144" x2="166.671" y2="27.7979" gradientUnits="userSpaceOnUse">
<stop stop-color="#0665BD"/>
<stop offset="1" stop-color="#1A1F77"/>
</linearGradient>
<linearGradient id="paint16_linear" x1="182.338" y1="297.423" x2="199.825" y2="158.191" gradientUnits="userSpaceOnUse">
<stop stop-color="#CBC1F7"/>
<stop offset="1" stop-color="#E8DCF7"/>
</linearGradient>
<linearGradient id="paint17_linear" x1="248.488" y1="95.3508" x2="248.488" y2="19.9738" gradientUnits="userSpaceOnUse">
<stop stop-color="#B9ACF4"/>
<stop offset="1" stop-color="#E1D1F5"/>
</linearGradient>
<linearGradient id="paint18_linear" x1="223.436" y1="273.239" x2="223.436" y2="202.798" gradientUnits="userSpaceOnUse">
<stop stop-color="#9D68C2"/>
<stop offset="1" stop-color="#CCEDFF"/>
</linearGradient>
<linearGradient id="paint19_linear" x1="254.262" y1="92.4885" x2="254.262" y2="20.3241" gradientUnits="userSpaceOnUse">
<stop stop-color="#BE9DEA"/>
<stop offset="1" stop-color="#9E8CEF"/>
</linearGradient>
<linearGradient id="paint20_linear" x1="259.709" y1="94.2811" x2="259.709" y2="23.5457" gradientUnits="userSpaceOnUse">
<stop stop-color="#45FFCD"/>
<stop offset="1" stop-color="#22E0FF"/>
</linearGradient>
<linearGradient id="paint21_linear" x1="142.52" y1="253.353" x2="210.796" y2="253.353" gradientUnits="userSpaceOnUse">
<stop stop-color="#BE9DEA"/>
<stop offset="1" stop-color="#9E8CEF"/>
</linearGradient>
<radialGradient id="paint22_radial" cx="0" cy="0" r="1" gradientUnits="userSpaceOnUse" gradientTransform="translate(177.795 284.298) scale(51.5995)">
<stop stop-color="#45FFCD"/>
<stop offset="1" stop-color="#22E0FF"/>
</radialGradient>
<linearGradient id="paint23_linear" x1="216.323" y1="202.798" x2="233.902" y2="202.798" gradientUnits="userSpaceOnUse">
<stop stop-color="#8879EA"/>
<stop offset="1" stop-color="#9E8CEF"/>
</linearGradient>
<linearGradient id="paint24_linear" x1="244.86" y1="276.23" x2="258.055" y2="171.176" gradientUnits="userSpaceOnUse">
<stop stop-color="#CBC1F7"/>
<stop offset="1" stop-color="#E8DCF7"/>
</linearGradient>
<linearGradient id="paint25_linear" x1="212.312" y1="342.022" x2="222.65" y2="259.71" gradientUnits="userSpaceOnUse">
<stop stop-color="#CBC1F7"/>
<stop offset="1" stop-color="#E8DCF7"/>
</linearGradient>
<linearGradient id="paint26_linear" x1="266.589" y1="276.867" x2="266.589" y2="256.647" gradientUnits="userSpaceOnUse">
<stop stop-color="#BE9DEA"/>
<stop offset="1" stop-color="#9E8CEF"/>
</linearGradient>
<linearGradient id="paint27_linear" x1="87.0173" y1="261.787" x2="91.3441" y2="227.337" gradientUnits="userSpaceOnUse">
<stop stop-color="#CBC1F7"/>
<stop offset="1" stop-color="#E8DCF7"/>
</linearGradient>
<linearGradient id="paint28_linear" x1="57.8826" y1="310.249" x2="74.0451" y2="229.026" gradientUnits="userSpaceOnUse">
<stop stop-color="#D93DE3"/>
<stop offset="1" stop-color="#FF6DBA"/>
</linearGradient>
<linearGradient id="paint29_linear" x1="97.2075" y1="240.8" x2="96.252" y2="231.42" gradientUnits="userSpaceOnUse">
<stop stop-color="#BE9DEA"/>
<stop offset="1" stop-color="#9E8CEF"/>
</linearGradient>
<linearGradient id="paint30_linear" x1="87.0752" y1="161.334" x2="92.2491" y2="120.14" gradientUnits="userSpaceOnUse">
<stop stop-color="#BE9DEA"/>
<stop offset="1" stop-color="#9E8CEF"/>
</linearGradient>
<linearGradient id="paint31_linear" x1="98.1406" y1="161.037" x2="99.925" y2="142.318" gradientUnits="userSpaceOnUse">
<stop stop-color="#DD1A8F"/>
<stop offset="1" stop-color="#FE117E"/>
</linearGradient>
<linearGradient id="paint32_linear" x1="97.9236" y1="152.593" x2="96.7568" y2="144.075" gradientUnits="userSpaceOnUse">
<stop stop-color="#D93DE3"/>
<stop offset="1" stop-color="#FF6DBA"/>
</linearGradient>
<linearGradient id="paint33_linear" x1="128.246" y1="108.692" x2="128.246" y2="73.8899" gradientUnits="userSpaceOnUse">
<stop stop-color="#45FFCD"/>
<stop offset="1" stop-color="#22E0FF"/>
</linearGradient>
<linearGradient id="paint34_linear" x1="190.943" y1="81.6404" x2="190.943" y2="71.4268" gradientUnits="userSpaceOnUse">
<stop stop-color="#45FFCD"/>
<stop offset="1" stop-color="#22E0FF"/>
</linearGradient>
<linearGradient id="paint35_linear" x1="121.199" y1="52.5473" x2="216.891" y2="52.5473" gradientUnits="userSpaceOnUse">
<stop/>
<stop offset="1" stop-color="#6A9BFF"/>
</linearGradient>
<linearGradient id="paint36_linear" x1="127.11" y1="129.834" x2="197.234" y2="129.834" gradientUnits="userSpaceOnUse">
<stop/>
<stop offset="1" stop-color="#6A9BFF"/>
</linearGradient>
<linearGradient id="paint37_linear" x1="111.286" y1="129.834" x2="111.286" y2="84.1385" gradientUnits="userSpaceOnUse">
<stop/>
<stop offset="1" stop-color="#6A9BFF"/>
</linearGradient>
<linearGradient id="paint38_linear" x1="258.355" y1="91.9698" x2="258.355" y2="71.3112" gradientUnits="userSpaceOnUse">
<stop stop-color="#D4E2FF"/>
<stop offset="1"/>
</linearGradient>
<linearGradient id="paint39_linear" x1="241.181" y1="36.4843" x2="281.659" y2="36.4843" gradientUnits="userSpaceOnUse">
<stop/>
<stop offset="1" stop-color="#D4E2FF"/>
</linearGradient>
<linearGradient id="paint40_linear" x1="193.736" y1="180.354" x2="193.736" y2="158.245" gradientUnits="userSpaceOnUse">
<stop stop-color="#8DA4E5"/>
<stop offset="1" stop-color="#755CBB"/>
</linearGradient>
<linearGradient id="paint41_linear" x1="254.126" y1="278.603" x2="254.126" y2="167.486" gradientUnits="userSpaceOnUse">
<stop stop-color="#9D68C2"/>
<stop offset="1" stop-color="#CCEDFF"/>
</linearGradient>
<linearGradient id="paint42_linear" x1="279.339" y1="318.592" x2="266.273" y2="261.869" gradientUnits="userSpaceOnUse">
<stop stop-color="#CBC1F7"/>
<stop offset="1" stop-color="#E8DCF7"/>
</linearGradient>
<linearGradient id="paint43_linear" x1="266.739" y1="320.683" x2="261.44" y2="268.636" gradientUnits="userSpaceOnUse">
<stop stop-color="#BE9DEA"/>
<stop offset="1" stop-color="#9E8CEF"/>
</linearGradient>
<linearGradient id="paint44_linear" x1="264.038" y1="304.681" x2="261.989" y2="284.555" gradientUnits="userSpaceOnUse">
<stop stop-color="#8DA4E5"/>
<stop offset="1" stop-color="#755CBB"/>
</linearGradient>
<linearGradient id="paint45_linear" x1="262.591" y1="303.869" x2="254.861" y2="270.312" gradientUnits="userSpaceOnUse">
<stop stop-color="#CBC1F7"/>
<stop offset="1" stop-color="#E8DCF7"/>
</linearGradient>
<linearGradient id="paint46_linear" x1="146.072" y1="229.36" x2="202.724" y2="229.36" gradientUnits="userSpaceOnUse">
<stop/>
<stop offset="1" stop-color="#D4E2FF"/>
</linearGradient>
<linearGradient id="paint47_linear" x1="176.971" y1="294.606" x2="176.971" y2="288.064" gradientUnits="userSpaceOnUse">
<stop stop-color="#D4E2FF"/>
<stop offset="1"/>
</linearGradient>
<linearGradient id="paint48_linear" x1="226.517" y1="344.402" x2="226.517" y2="261.158" gradientUnits="userSpaceOnUse">
<stop stop-color="#9D68C2"/>
<stop offset="1" stop-color="#CCEDFF"/>
</linearGradient>
<linearGradient id="paint49_linear" x1="41.6114" y1="302.152" x2="57.4098" y2="222.758" gradientUnits="userSpaceOnUse">
<stop stop-color="#A242EA"/>
<stop offset="1" stop-color="#FE117E"/>
</linearGradient>
<linearGradient id="paint50_linear" x1="78.8135" y1="243.038" x2="80.2396" y2="231.684" gradientUnits="userSpaceOnUse">
<stop stop-color="#8DA4E5"/>
<stop offset="1" stop-color="#755CBB"/>
</linearGradient>
<linearGradient id="paint51_linear" x1="63.7233" y1="261.043" x2="80.8384" y2="271.645" gradientUnits="userSpaceOnUse">
<stop stop-color="#8DA4E5"/>
<stop offset="1" stop-color="#755CBB"/>
</linearGradient>
<radialGradient id="paint52_radial" cx="0" cy="0" r="1" gradientUnits="userSpaceOnUse" gradientTransform="translate(72.2808 264.672) rotate(31.7764) scale(9.90953)">
<stop stop-color="#45FFCD"/>
<stop offset="1" stop-color="#22E0FF"/>
</radialGradient>
<linearGradient id="paint53_linear" x1="89.9685" y1="238.648" x2="92.7433" y2="216.555" gradientUnits="userSpaceOnUse">
<stop stop-color="#CBC1F7"/>
<stop offset="1" stop-color="#E8DCF7"/>
</linearGradient>
<linearGradient id="paint54_linear" x1="99.3733" y1="231.103" x2="98.3808" y2="221.36" gradientUnits="userSpaceOnUse">
<stop stop-color="#BE9DEA"/>
<stop offset="1" stop-color="#9E8CEF"/>
</linearGradient>
<linearGradient id="paint55_linear" x1="70.2946" y1="271.385" x2="71.9591" y2="258.132" gradientUnits="userSpaceOnUse">
<stop stop-color="#8DA4E5"/>
<stop offset="1" stop-color="#755CBB"/>
</linearGradient>
<radialGradient id="paint56_radial" cx="0" cy="0" r="1" gradientUnits="userSpaceOnUse" gradientTransform="translate(73.1465 266.38) scale(5.92749)">
<stop stop-color="#45FFCD"/>
<stop offset="1" stop-color="#22E0FF"/>
</radialGradient>
<linearGradient id="paint57_linear" x1="60.0198" y1="315.236" x2="69.376" y2="240.741" gradientUnits="userSpaceOnUse">
<stop stop-color="#9D68C2"/>
<stop offset="1" stop-color="#CCEDFF"/>
</linearGradient>
<clipPath id="clip0">
<rect width="383.929" height="400" fill="white" transform="translate(0 -0.000244141)"/>
</clipPath>
</defs>
</svg>
