<svg width="355" height="399" viewBox="0 0 355 399" fill="none" xmlns="http://www.w3.org/2000/svg">
<path d="M300.257 283.604C295.944 292.214 290.801 299.498 284.995 304.631C283.336 306.121 281.512 307.445 279.853 308.604C278.194 309.763 276.369 310.591 274.71 311.419C248.666 322.18 221.958 297.677 192.264 300.657C167.381 303.141 149.299 316.882 133.374 328.471C127.734 332.61 122.425 336.418 116.951 339.398C115.458 340.226 113.965 341.054 112.472 341.716C110.813 342.378 109.154 343.041 107.329 343.703C84.271 351.65 45.2873 351.319 28.035 334.266C9.95324 316.551 -12.1098 258.936 37.6565 184.599C92.8971 102.15 243.855 90.7268 284.166 118.044C325.804 146.189 324.145 236.254 300.257 283.604Z" fill="#E5F6FF"/>
<path d="M303.409 151.818C308.054 148.176 311.703 143.375 314.192 138.077C314.523 137.249 315.021 136.256 315.021 135.428C315.021 133.607 313.694 131.951 312.201 130.958C308.386 128.64 303.077 129.137 299.593 131.786C296.11 134.6 294.285 139.236 294.617 143.706C294.783 146.189 295.612 148.673 297.437 150.328C299.262 151.984 302.414 152.315 304.238 150.66C304.238 149.832 303.077 149.335 302.579 149.832L303.409 151.818Z" fill="#E5F6FF"/>
<path d="M309.547 268.704C314.192 265.062 317.841 260.26 320.329 254.962C320.661 254.135 321.159 253.141 321.159 252.313C321.159 250.492 319.832 248.837 318.339 247.843C314.523 245.526 309.215 246.022 305.731 248.671C302.248 251.486 300.423 256.121 300.755 260.591C300.921 263.075 301.75 265.558 303.575 267.214C305.399 268.869 308.551 269.201 310.376 267.545C310.376 266.717 309.215 266.221 308.717 266.717L309.547 268.704Z" fill="#E5F6FF"/>
<path d="M304.404 133.772C306.892 133.772 309.215 132.282 310.376 130.296C309.215 128.309 307.058 126.488 304.57 126.488C302.248 126.322 299.593 128.309 299.759 130.627C299.925 132.945 303.243 134.766 304.902 132.945L304.404 133.772Z" fill="#E5F6FF"/>
<path d="M318.173 117.051C319.168 117.713 320.329 117.878 321.325 117.547C321.159 117.051 320.993 116.554 320.827 116.223C320.495 115.892 319.998 115.561 319.5 115.726C318.836 115.892 318.671 116.72 318.505 117.382C318.339 117.216 318.339 117.051 318.173 116.885V117.051Z" fill="#E5F6FF"/>
<path d="M316.016 121.024C315.85 121.355 315.519 121.521 315.187 121.687C315.021 120.859 315.519 120.031 316.016 119.369C316.348 119.038 316.846 118.541 317.177 118.706C317.509 118.872 317.675 119.203 318.007 119.369C318.505 119.865 319.5 119.865 319.5 120.528C319.5 120.859 319.168 121.19 318.836 121.355C318.505 121.521 318.007 121.355 317.675 121.355C316.846 121.19 316.016 121.024 315.187 120.859L316.016 121.024Z" fill="#E5F6FF"/>
<path opacity="0.5" d="M347.037 73.8396C347.701 73.6741 347.535 72.5151 346.872 72.184C346.208 71.8529 345.544 72.184 344.881 72.5152C345.213 73.5085 346.042 74.1708 347.037 74.1708V73.8396Z" fill="#E5F6FF"/>
<path d="M327.794 57.7803C327.463 57.7803 327.131 57.4491 327.131 57.118C327.131 56.7869 327.297 56.4558 327.463 56.2902C327.628 56.1246 327.794 55.9591 327.96 55.9591C328.458 55.7935 328.956 56.1246 328.956 56.6213C328.956 57.118 328.624 57.4491 328.292 57.6147C327.794 57.6147 327.463 57.2836 327.297 56.9524L327.794 57.7803Z" fill="#E5F6FF"/>
<path d="M315.353 106.952C315.187 107.614 316.016 108.276 316.68 108.11C316.68 107.779 316.846 107.448 316.68 107.117C316.514 106.786 316.182 106.455 315.85 106.62C315.519 106.62 315.353 107.117 315.519 107.448L315.353 106.952Z" fill="#E5F6FF"/>
<path d="M313.03 122.514C313.528 123.176 314.357 123.673 315.187 123.508C315.187 122.845 315.021 122.183 315.021 121.521C315.021 121.19 315.021 120.859 314.689 120.528C314.357 120.031 313.528 120.031 313.03 120.528C312.699 121.19 312.699 121.852 313.03 122.514Z" fill="#E5F6FF"/>
<path opacity="0.5" d="M327.628 67.3827C327.628 67.2171 327.628 66.886 327.628 66.7205C327.297 66.5549 326.799 66.7205 326.633 67.0516C326.467 67.3827 326.467 67.8794 326.799 68.0449C327.297 68.0449 327.628 67.8794 327.628 67.3827Z" fill="#E5F6FF"/>
<path d="M315.519 112.084C315.187 111.918 314.689 112.249 314.523 112.746C314.523 113.243 314.689 113.574 314.689 114.071C314.689 114.567 314.523 115.064 314.026 115.23C313.86 115.395 313.528 115.561 313.196 115.395C313.03 115.395 312.864 115.23 312.864 115.064C312.367 114.402 311.869 113.574 311.869 112.581C311.869 111.753 312.201 110.759 313.03 110.263C313.528 109.932 314.357 110.097 314.855 110.428C315.353 110.925 315.685 111.587 315.519 112.084Z" fill="#E5F6FF"/>
<path d="M323.813 121.024C324.145 121.521 324.974 121.355 325.306 121.024C325.638 120.693 325.804 120.031 325.638 119.369C325.638 119.203 325.306 118.872 325.14 118.872C324.974 118.872 324.808 119.038 324.808 119.203C324.477 119.7 323.979 120.362 323.647 120.859L323.813 121.024Z" fill="#E5F6FF"/>
<path d="M336.089 97.349C334.927 97.0178 334.596 95.3622 335.259 94.5344C336.089 94.8655 336.918 95.3622 337.416 96.19C337.913 97.0178 337.582 98.1768 336.752 98.5079C336.255 98.3423 335.757 98.1768 335.259 98.0112L336.089 97.349Z" fill="#E5F6FF"/>
<path d="M284.166 170.692C284 170.858 283.668 171.023 283.502 170.858C283.336 170.692 283.171 170.527 283.005 170.196C283.005 170.03 282.839 169.865 282.839 169.533C282.839 169.037 283.336 168.706 283.668 168.706C284.166 168.706 284.498 168.871 284.664 169.202C284.829 169.368 284.829 169.533 284.829 169.865C284.829 170.03 284.498 170.196 284.332 170.196L284.166 170.692Z" fill="#E5F6FF"/>
<path d="M321.325 104.634C321.491 104.634 321.822 104.634 321.988 104.634C321.988 104.303 321.988 103.806 321.822 103.475C321.657 103.144 320.993 103.144 320.993 103.475C320.993 103.64 320.993 103.806 320.993 103.972C321.159 104.468 321.325 104.799 321.325 105.296V104.634Z" fill="#E5F6FF"/>
<path d="M326.467 92.7134C326.965 92.5478 327.629 92.3822 328.126 92.0511C328.624 91.72 328.956 91.0578 328.79 90.3955C328.624 90.0644 328.458 89.8988 328.292 89.7333C327.463 89.2366 326.467 89.5677 325.97 90.23C325.306 91.0578 325.638 92.2167 326.467 92.7134Z" fill="#E5F6FF"/>
<path d="M332.439 90.8922C332.771 90.5611 332.937 90.2299 333.269 89.8988C333.103 89.5677 332.937 89.4021 332.605 89.2366C332.107 89.5677 331.776 90.2299 332.107 90.7266L332.439 90.8922Z" fill="#E5F6FF"/>
<path d="M342.558 128.143C343.554 125.991 344.217 123.673 344.217 121.355C344.217 121.024 344.217 120.527 344.051 120.196C343.72 119.534 343.056 119.203 342.227 119.037C340.402 118.872 338.577 119.865 337.748 121.521C336.918 123.176 337.084 125.163 337.913 126.653C338.411 127.481 339.075 128.309 340.07 128.474C341.065 128.806 342.227 128.309 342.558 127.481C342.392 127.15 341.895 127.15 341.729 127.481L342.558 128.143Z" fill="#E5F6FF"/>
<path d="M294.949 118.541C296.11 118.541 297.105 117.879 297.769 116.885C297.437 116.554 296.939 116.223 296.442 116.058C295.944 115.892 295.446 116.058 295.114 116.389C294.783 116.885 294.949 117.713 295.28 118.375C295.114 118.375 294.949 118.21 294.783 118.21L294.949 118.541Z" fill="#E5F6FF"/>
<path d="M296.607 110.594C296.939 110.428 297.105 110.263 297.271 109.932C297.437 109.6 297.271 109.269 297.271 109.104C297.105 108.276 296.939 107.448 296.939 106.62C296.11 107.614 295.28 108.773 294.285 109.766C294.285 109.932 294.119 109.932 294.119 109.932C293.787 110.097 293.456 109.766 292.958 109.766C292.46 109.766 291.963 110.263 291.797 110.925C290.801 114.898 295.114 111.422 296.607 110.594Z" fill="#E5F6FF"/>
<path d="M294.119 125.991C294.949 126.156 295.778 125.991 296.442 125.494C295.944 124.998 295.446 124.501 295.114 124.004C294.949 123.839 294.617 123.507 294.285 123.342C293.621 123.176 292.958 123.673 292.958 124.335C292.958 124.998 293.456 125.66 294.119 125.991Z" fill="#E5F6FF"/>
<path d="M301.916 118.21C302.413 118.375 303.077 117.879 303.077 117.382C303.243 116.885 302.911 116.223 302.413 115.892C302.248 115.726 301.916 115.561 301.75 115.892C301.584 116.057 301.584 116.223 301.584 116.389C301.584 117.051 301.584 117.713 301.584 118.541L301.916 118.21Z" fill="#E5F6FF"/>
<path d="M307.888 125.991C308.386 125.826 309.049 125.66 309.547 125.329C310.044 124.998 310.376 124.336 310.21 123.673C310.044 123.342 309.879 123.177 309.713 123.011C308.883 122.514 307.888 122.846 307.39 123.508C306.893 124.501 307.224 125.494 307.888 125.991Z" fill="#E5F6FF"/>
<path d="M332.439 108.276C332.605 107.614 331.942 107.283 331.444 106.952C330.946 106.62 330.283 106.289 330.283 105.627C330.283 105.462 330.283 105.296 330.449 105.13C330.78 104.799 331.278 105.296 331.61 105.462C331.942 105.627 332.273 105.627 332.605 105.627C333.435 105.793 334.098 106.455 334.098 107.283C333.932 107.614 333.6 107.945 333.103 108.111C332.605 108.111 332.273 107.945 332.107 107.448L332.439 108.276Z" fill="#E5F6FF"/>
<path d="M330.78 93.3757C330.946 92.7134 330.283 92.3823 329.785 92.0512C329.287 91.7201 328.624 91.389 328.624 90.7267C328.624 90.5612 328.624 90.3956 328.79 90.23C329.121 89.8989 329.619 90.3956 329.951 90.5612C330.283 90.7267 330.614 90.7267 330.946 90.7267C331.776 90.8923 332.439 91.5545 332.439 92.3823C332.273 92.7134 331.942 93.0446 331.444 93.2101C330.946 93.2101 330.614 93.0446 330.449 92.5479L330.78 93.3757Z" fill="#E5F6FF"/>
<path d="M338.245 85.0976C338.577 84.7665 338.909 84.4354 339.075 83.9387V83.7731C339.075 83.6076 338.909 83.442 338.743 83.442C338.411 83.2764 337.914 83.2764 337.748 83.6076C337.416 83.7731 337.25 84.2698 337.416 84.6009C337.416 84.7665 337.582 85.0976 337.748 85.0976C337.914 85.0976 338.079 85.2632 338.245 85.0976C338.245 84.932 338.245 84.932 338.079 84.932L338.245 85.0976Z" fill="#E5F6FF"/>
<path d="M296.442 143.044C297.603 143.044 298.598 142.381 299.262 141.388C298.93 141.057 298.432 140.726 297.935 140.56C297.437 140.395 296.939 140.56 296.607 140.891C296.276 141.388 296.442 142.216 296.773 142.878C296.607 142.878 296.442 142.713 296.276 142.713L296.442 143.044Z" fill="#E5F6FF"/>
<path d="M288.147 136.421C288.313 137.084 289.474 137.249 289.806 136.587C289.64 136.256 289.474 135.925 289.142 135.759C288.811 135.594 288.313 135.594 288.147 135.925C287.981 136.256 287.981 136.753 288.313 136.753L288.147 136.421Z" fill="#E5F6FF"/>
<path d="M304.238 127.15C304.404 127.812 305.565 127.978 305.897 127.315C305.731 126.984 305.565 126.653 305.234 126.488C304.902 126.322 304.404 126.322 304.238 126.653C304.072 126.984 304.072 127.481 304.404 127.481L304.238 127.15Z" fill="#E5F6FF"/>
<path d="M291.299 140.395C290.801 140.395 290.635 141.057 290.967 141.554C291.133 141.885 291.631 142.216 291.797 142.547C292.128 142.878 292.128 143.375 291.963 143.871C291.963 144.203 291.797 144.368 291.465 144.534C291.299 144.534 291.133 144.534 290.967 144.534C290.138 144.203 289.308 143.871 288.645 143.209C287.981 142.547 287.815 141.554 288.313 140.726C288.645 140.229 289.142 139.732 289.806 139.732C290.47 139.732 291.133 140.064 291.299 140.395Z" fill="#E5F6FF"/>
<path d="M329.121 103.144C328.624 103.144 328.458 103.806 328.79 104.303C329.121 104.799 329.453 104.965 329.619 105.296C329.951 105.627 329.951 106.124 329.785 106.62C329.785 106.952 329.619 107.117 329.287 107.283C329.121 107.283 328.956 107.283 328.79 107.283C327.96 106.952 327.131 106.62 326.467 105.958C325.804 105.296 325.638 104.303 326.135 103.475C326.467 102.978 326.965 102.481 327.628 102.481C328.292 102.481 328.956 102.813 329.121 103.144Z" fill="#E5F6FF"/>
<path d="M333.766 106.786C333.269 106.786 333.103 107.448 333.435 107.945C333.6 108.276 334.098 108.607 334.264 108.938C334.596 109.27 334.596 109.766 334.43 110.263C334.43 110.594 334.264 110.76 333.932 110.925C333.766 110.925 333.6 110.925 333.435 110.925C332.605 110.594 331.776 110.263 331.112 109.601C330.449 108.938 330.283 107.945 330.78 107.117C331.112 106.621 331.61 106.124 332.273 106.124C333.103 105.958 333.6 106.289 333.766 106.786Z" fill="#E5F6FF"/>
<path d="M326.965 112.746C326.467 112.746 326.301 113.408 326.633 113.905C326.799 114.236 327.297 114.567 327.463 114.898C327.794 115.229 327.794 115.726 327.628 116.223C327.628 116.554 327.463 116.72 327.131 116.885C326.965 116.885 326.799 116.885 326.633 116.885C325.804 116.554 324.974 116.223 324.311 115.561C323.647 114.898 323.481 113.905 323.979 113.077C324.311 112.581 324.808 112.084 325.472 112.084C326.301 111.918 326.799 112.249 326.965 112.746Z" fill="#E5F6FF"/>
<path d="M295.28 57.4492C294.783 57.4492 294.617 58.1114 294.949 58.6081C295.114 58.9392 295.612 59.2704 295.778 59.6015C296.11 59.9326 296.11 60.4293 295.944 60.926C295.944 61.2571 295.778 61.4227 295.446 61.5882C295.28 61.5882 295.114 61.5882 294.949 61.5882C294.119 61.2571 293.29 60.926 292.626 60.2637C291.963 59.6015 291.797 58.6081 292.294 57.7803C292.626 57.2836 293.124 56.787 293.787 56.787C294.451 56.6214 295.114 56.9525 295.28 57.4492Z" fill="#E5F6FF"/>
<path d="M291.465 130.958C291.631 130.792 291.797 130.627 291.963 130.461C291.797 130.13 291.465 129.799 291.133 129.633C290.801 129.468 290.304 129.799 290.47 130.296C290.47 130.461 290.635 130.461 290.801 130.627C291.133 130.958 291.465 131.123 291.963 131.455L291.465 130.958Z" fill="#E5F6FF"/>
<path d="M305.565 85.2632C306.063 85.0976 306.727 84.9321 307.224 84.6009C307.722 84.2698 308.054 83.6076 307.888 82.9453C307.722 82.6142 307.556 82.4486 307.39 82.2831C306.561 81.7864 305.565 82.1175 305.068 82.7798C304.404 83.6076 304.736 84.7665 305.565 85.2632Z" fill="#E5F6FF"/>
<path d="M309.381 135.097C308.883 135.759 307.556 135.593 307.39 134.766C307.556 134.269 307.722 133.938 308.054 133.607C308.551 133.772 308.883 134.269 309.049 134.766L309.381 135.097Z" fill="#E5F6FF"/>
<path opacity="0.5" d="M312.533 82.2832C312.864 82.1176 313.196 81.9521 313.362 81.7865C313.528 81.4554 313.694 81.1243 313.528 80.7931C313.196 80.2965 312.533 80.462 312.035 80.1309C311.537 79.7998 311.371 79.1375 310.874 78.972C310.376 78.8064 309.878 79.4687 309.878 79.9653C309.878 80.462 310.21 80.9587 310.708 81.4554C311.04 81.7865 311.371 82.1176 311.869 82.2832C312.367 82.4487 313.03 82.2832 313.196 81.7865L312.533 82.2832Z" fill="#E5F6FF"/>
<path d="M319.832 112.25C321.822 113.574 324.477 113.905 326.633 112.912C326.799 110.594 326.135 107.945 324.311 106.455C322.486 104.965 319.334 104.965 318.007 106.952C316.68 108.938 318.339 112.25 320.661 111.918L319.832 112.25Z" fill="#E5F6FF"/>
<path d="M313.694 138.573C313.362 138.408 313.362 137.911 313.528 137.746C313.694 137.415 314.026 137.415 314.357 137.249C314.523 137.249 314.689 137.249 314.855 137.249C315.353 137.415 315.519 137.911 315.187 138.408C314.855 138.905 314.357 138.905 314.026 138.739C313.694 138.573 313.528 137.911 313.694 137.58V138.573Z" fill="#E5F6FF"/>
<path d="M316.514 125.825C316.348 125.163 315.685 124.998 315.021 124.832C314.357 124.666 313.694 124.666 313.528 124.004C313.528 123.839 313.362 123.673 313.528 123.507C313.694 123.176 314.357 123.342 314.689 123.507C315.021 123.507 315.353 123.342 315.685 123.342C316.514 123.176 317.343 123.673 317.675 124.335C317.675 124.832 317.343 125.163 317.012 125.329C316.68 125.494 316.182 125.494 315.85 125.163L316.514 125.825Z" fill="#E5F6FF"/>
<path d="M313.362 106.786C313.528 106.621 313.694 106.455 313.694 106.289C313.528 105.958 313.03 105.793 312.699 105.958C312.367 106.124 312.035 106.621 312.201 106.952C312.533 106.952 313.03 107.117 313.362 106.786Z" fill="#E5F6FF"/>
<path d="M311.04 119.865C310.874 120.031 310.542 119.865 310.376 119.7C310.21 119.534 310.376 119.203 310.376 118.872C310.376 118.706 310.542 118.541 310.708 118.375C311.04 118.044 311.537 118.044 311.869 118.21C312.201 118.375 312.367 118.872 312.367 119.369C312.367 119.534 312.201 119.865 312.201 119.865C312.035 120.031 311.703 120.031 311.703 119.865H311.04Z" fill="#E5F6FF"/>
<path d="M292.46 112.25C292.958 114.567 294.949 116.554 297.105 117.216C298.764 115.561 300.091 113.243 299.593 110.76C299.262 108.442 296.773 106.289 294.451 106.952C292.128 107.614 291.133 111.256 293.29 112.415L292.46 112.25Z" fill="#E5F6FF"/>
<path d="M295.114 130.792C295.778 130.627 295.612 129.468 294.949 129.137C294.285 128.806 293.621 129.137 292.958 129.468C293.29 130.461 294.119 131.123 295.114 131.123V130.792Z" fill="#E5F6FF"/>
<path d="M320.329 134.434C320.495 134.269 320.661 134.103 320.661 133.938C320.495 133.607 319.998 133.441 319.666 133.607C319.334 133.772 319.002 134.269 319.168 134.6C319.666 134.766 320.164 134.766 320.329 134.434Z" fill="#E5F6FF"/>
<path d="M311.372 125.495C313.362 124.004 315.021 122.018 316.182 119.7C316.348 119.369 316.514 118.872 316.514 118.541C316.514 117.713 316.016 117.051 315.353 116.554C313.694 115.395 311.372 115.561 309.879 116.72C308.386 117.879 307.556 119.865 307.556 121.852C307.556 122.846 307.888 124.004 308.717 124.667C309.547 125.329 310.874 125.495 311.703 124.832C311.703 124.501 311.206 124.336 311.04 124.501L311.372 125.495Z" fill="#E5F6FF"/>
<path d="M287.981 90.5612C290.47 90.5612 292.792 89.0711 293.953 87.0844C292.792 85.0977 290.636 83.2765 288.147 83.2765C285.825 83.1109 283.171 85.0977 283.336 87.4155C283.502 89.7334 286.82 91.5545 288.479 89.7334L287.981 90.5612Z" fill="#E5F6FF"/>
<path d="M333.103 85.9253C334.264 85.9253 335.259 85.2631 335.923 84.2697C335.591 83.9386 335.093 83.6075 334.596 83.4419C334.098 83.2763 333.6 83.4419 333.269 83.773C332.937 84.2697 333.103 85.0975 333.435 85.7598C333.269 85.7598 333.103 85.5942 332.937 85.5942L333.103 85.9253Z" fill="#E5F6FF"/>
<path d="M334.762 77.9786C335.093 77.813 335.259 77.6475 335.425 77.3163C335.591 76.9852 335.425 76.6541 335.425 76.4885C335.259 75.6607 335.093 74.8329 335.093 74.0051C334.264 74.9985 333.435 76.1574 332.439 77.1508C332.439 77.3163 332.273 77.3163 332.273 77.3163C331.942 77.4819 331.61 77.1508 331.112 77.1508C330.614 77.1508 330.117 77.6475 329.951 78.3097C328.956 82.1176 333.269 78.8064 334.762 77.9786Z" fill="#E5F6FF"/>
<path d="M318.671 124.004C319.002 123.673 319.168 123.342 319.5 123.177C318.836 122.68 317.841 122.514 317.178 123.011C316.514 123.508 316.514 124.667 317.343 124.998C317.841 125.163 318.671 125.163 318.505 125.66L318.671 124.004Z" fill="#E5F6FF"/>
<path d="M319.998 89.4022C319.832 89.7334 319.5 89.8989 319.168 90.0645C319.002 89.2367 319.5 88.4089 319.998 87.7466C320.329 87.4155 320.827 86.9188 321.159 87.0844C321.491 87.25 321.657 87.5811 321.988 87.7466C322.486 88.2433 323.481 88.2433 323.481 88.9056C323.481 89.2367 323.149 89.5678 322.818 89.7334C322.486 89.8989 321.988 89.7334 321.656 89.7334C320.827 89.5678 319.998 89.4022 319.168 89.2367L319.998 89.4022Z" fill="#E5F6FF"/>
<path d="M309.049 82.2832C309.713 82.1177 309.547 80.9588 308.883 80.6276C308.22 80.2965 307.556 80.6276 306.893 80.9588C307.224 81.9521 308.054 82.6143 309.049 82.6143V82.2832Z" fill="#E5F6FF"/>
<path opacity="0.5" d="M322.486 75.6609C322.154 75.6609 321.822 75.3297 321.822 74.9986C321.822 74.6675 321.988 74.3364 322.154 74.1708C322.32 74.0053 322.486 73.8397 322.652 73.8397C323.15 73.6741 323.647 74.0053 323.647 74.5019C323.647 74.9986 323.315 75.3297 322.984 75.4953C322.486 75.4953 322.154 75.1642 321.988 74.8331L322.486 75.6609Z" fill="#E5F6FF"/>
<path d="M324.974 79.4685C325.14 80.1307 326.301 80.2963 326.633 79.6341C326.467 79.3029 326.301 78.9718 325.97 78.8063C325.638 78.6407 325.14 78.6407 324.974 78.9718C324.808 79.3029 324.808 79.7996 325.14 79.7996L324.974 79.4685Z" fill="#E5F6FF"/>
<path d="M332.273 93.3756C333.103 93.5412 333.932 93.3756 334.596 92.879C334.098 92.3823 333.6 91.8856 333.269 91.3889C333.103 91.2234 332.771 90.8922 332.439 90.7267C331.776 90.5611 331.112 91.0578 331.112 91.72C331.112 92.3823 331.61 92.879 332.273 93.3756Z" fill="#E5F6FF"/>
<path opacity="0.5" d="M312.699 74.3362C312.201 74.3362 311.703 74.0051 311.537 73.674C311.371 73.1773 311.371 72.6806 311.703 72.3495C311.869 72.0184 312.367 72.0184 312.533 72.1839C312.699 72.3495 312.699 72.5151 312.699 72.5151C312.864 73.1773 312.865 73.674 312.865 74.3362C312.865 74.5018 312.699 74.5018 312.699 74.3362Z" fill="#E5F6FF"/>
<path opacity="0.5" d="M308.054 66.0583C308.22 65.3961 307.556 65.0649 307.058 64.7338C306.561 64.4027 305.897 64.0716 305.897 63.4093C305.897 63.2438 305.897 63.0782 306.063 62.9127C306.395 62.5815 306.893 63.0782 307.224 63.2438C307.556 63.4093 307.888 63.4093 308.22 63.4093C309.049 63.5749 309.713 64.2371 309.713 65.0649C309.547 65.3961 309.215 65.7272 308.717 65.8927C308.22 65.8927 307.888 65.7272 307.722 65.2305L308.054 66.0583Z" fill="#E5F6FF"/>
<path opacity="0.5" d="M336.255 113.243C336.421 112.581 335.757 112.25 335.259 111.918C334.762 111.587 334.098 111.256 334.098 110.594C334.098 110.428 334.098 110.263 334.264 110.097C334.596 109.766 335.093 110.263 335.425 110.428C335.757 110.594 336.089 110.594 336.421 110.594C337.25 110.759 337.914 111.422 337.914 112.25C337.748 112.581 337.416 112.912 336.918 113.077C336.421 113.077 336.089 112.912 335.923 112.415L336.255 113.243Z" fill="#E5F6FF"/>
<path opacity="0.5" d="M313.528 63.2436C313.694 63.0781 313.86 62.9125 314.026 62.9125C314.026 62.5814 313.694 62.2502 313.196 62.2502C312.865 62.2502 312.533 62.5814 312.533 62.9125C312.533 63.2436 313.03 63.4092 313.528 63.2436Z" fill="#E5F6FF"/>
<path d="M328.126 83.4421C327.628 83.4421 327.463 84.1044 327.794 84.601C327.96 84.9322 328.458 85.2633 328.624 85.5944C328.956 85.9255 328.956 86.4222 328.79 86.9189C328.79 87.25 328.624 87.4156 328.292 87.5811C328.126 87.5811 327.96 87.5811 327.794 87.5811C326.965 87.25 326.135 86.9189 325.472 86.2566C324.808 85.5944 324.642 84.601 325.14 83.7732C325.472 83.2766 325.97 82.7799 326.633 82.7799C327.297 82.6143 327.96 82.9454 328.126 83.4421Z" fill="#E5F6FF"/>
<path d="M340.07 85.5945C340.568 85.76 341.231 85.2633 341.231 84.7667C341.397 84.27 341.065 83.6077 340.568 83.2766C340.402 83.1111 340.07 82.9455 339.904 83.2766C339.738 83.4422 339.738 83.6077 339.738 83.7733C339.738 84.4355 339.738 85.0978 339.738 85.9256L340.07 85.5945Z" fill="#E5F6FF"/>
<path d="M309.381 92.2169C308.22 91.8857 307.888 90.2301 308.551 89.4023C309.381 89.7335 310.21 90.2301 310.708 91.0579C311.206 91.8857 310.874 93.0447 310.044 93.3758C309.547 93.2102 309.049 93.0447 308.551 92.8791L309.381 92.2169Z" fill="#E5F6FF"/>
<path opacity="0.5" d="M328.292 74.0052C328.458 73.8397 328.624 73.6741 328.79 73.5086C328.624 73.1774 328.292 72.8463 327.96 72.6808C327.628 72.5152 327.131 72.8463 327.297 73.343C327.297 73.5086 327.463 73.5086 327.628 73.6741C327.96 74.0052 328.292 74.1708 328.79 74.5019L328.292 74.0052Z" fill="#E5F6FF"/>
<path d="M304.072 133.441C304.57 133.276 305.234 133.11 305.731 132.779C306.229 132.448 306.561 131.786 306.395 131.123C306.229 130.792 306.063 130.627 305.897 130.461C305.068 129.964 304.072 130.296 303.575 130.958C302.911 131.786 303.409 132.944 304.072 133.441Z" fill="#E5F6FF"/>
<path d="M294.451 99.3358C294.783 99.0047 294.949 98.6735 295.28 98.3424C295.114 98.0113 294.949 97.8457 294.617 97.6802C294.119 98.0113 293.787 98.6735 294.119 99.1702L294.451 99.3358Z" fill="#E5F6FF"/>
<path d="M284.829 158.275C284.498 158.275 284.166 157.944 284.166 157.613C284.166 157.282 284.332 156.951 284.498 156.785C284.663 156.62 284.829 156.454 284.995 156.454C285.493 156.288 285.991 156.62 285.991 157.116C285.991 157.613 285.659 157.944 285.327 158.11C284.829 158.11 284.498 157.778 284.332 157.447L284.829 158.275Z" fill="#E5F6FF"/>
<path d="M304.238 97.1837C304.57 96.8526 304.736 96.5214 305.068 96.1903C304.902 95.8592 304.736 95.6936 304.404 95.5281C303.907 95.8592 303.575 96.5214 303.906 97.0181L304.238 97.1837Z" fill="#E5F6FF"/>
<path d="M330.117 118.375C330.614 118.541 330.946 117.879 330.78 117.382C330.614 116.885 330.283 116.554 330.283 116.057C330.117 115.561 330.117 115.064 330.449 114.733C330.614 114.567 330.78 114.236 331.112 114.236C331.278 114.236 331.444 114.402 331.61 114.402C332.273 114.899 333.103 115.561 333.435 116.389C333.766 117.216 333.766 118.21 333.103 118.872C332.605 119.369 331.942 119.534 331.444 119.369C330.614 119.369 330.117 118.872 330.117 118.375Z" fill="#E5F6FF"/>
<path d="M306.229 122.183C305.897 122.183 305.565 122.349 305.234 122.514C304.902 122.68 304.736 123.011 304.736 123.342C304.902 123.839 305.565 124.004 305.897 124.501C306.229 124.998 306.229 125.66 306.727 125.991C307.224 126.322 307.888 125.826 308.054 125.329C308.22 124.832 308.054 124.17 307.722 123.673C307.556 123.177 307.224 122.68 306.893 122.514C306.395 122.183 305.897 122.183 305.565 122.514L306.229 122.183Z" fill="#E5F6FF"/>
<path d="M323.481 102.482C322.32 104.137 321.491 106.124 321.159 108.111C321.159 108.442 320.993 108.773 321.159 109.104C321.325 109.766 321.988 110.097 322.486 110.263C323.979 110.76 325.804 110.097 326.633 108.773C327.628 107.448 327.794 105.793 327.131 104.303C326.799 103.475 326.301 102.647 325.472 102.316C324.642 101.985 323.647 102.15 323.149 102.813C323.315 103.144 323.647 103.144 323.813 102.978L323.481 102.482Z" fill="#E5F6FF"/>
<path d="M332.439 114.567C332.771 114.733 332.937 114.898 333.269 114.898C333.6 114.898 333.766 114.567 334.098 114.402C334.762 113.905 335.425 113.408 336.089 112.912C334.762 112.746 333.435 112.415 331.942 112.249C331.776 112.249 331.776 112.249 331.61 112.084C331.278 111.918 331.444 111.422 331.278 111.091C331.112 110.594 330.283 110.594 329.785 110.759C325.804 111.753 330.946 113.739 332.439 114.567Z" fill="#E5F6FF"/>
<path d="M323.979 102.647C324.145 102.482 324.311 102.482 324.642 102.316C324.642 101.985 324.311 101.654 323.979 101.488C323.647 101.488 323.149 101.819 323.149 102.151C323.149 102.647 323.647 102.813 323.979 102.647Z" fill="#E5F6FF"/>
<path d="M333.6 108.111C333.766 108.607 334.43 108.938 334.928 108.773C335.425 108.607 335.757 107.945 335.923 107.448C335.923 107.117 335.923 106.952 335.591 106.786C335.425 106.786 335.259 106.786 335.093 106.952C334.43 107.283 333.932 107.614 333.269 108.111H333.6Z" fill="#E5F6FF"/>
<path d="M328.126 102.978C328.79 103.971 329.785 104.468 330.946 104.634C330.946 104.137 331.112 103.64 330.946 103.144C330.78 102.647 330.449 102.15 329.951 102.15C329.287 101.985 328.79 102.647 328.292 103.309C328.292 103.144 328.292 102.978 328.126 102.812V102.978Z" fill="#E5F6FF"/>
<path d="M326.633 98.177C326.301 98.177 325.97 98.0115 325.638 97.8459C326.301 97.1837 327.297 97.3492 328.126 97.5148C328.624 97.6803 329.121 97.8459 329.287 98.3426C329.287 98.6737 329.121 99.0048 329.121 99.3359C328.956 99.9982 329.453 100.826 328.956 101.323C328.624 101.488 328.126 101.488 327.96 101.157C327.628 100.826 327.628 100.495 327.463 100.164C327.297 99.3359 326.965 98.5081 326.799 97.8459L326.633 98.177Z" fill="#E5F6FF"/>
<path d="M329.453 110.759C329.619 111.587 330.283 112.249 331.112 112.581C331.278 111.918 331.61 111.256 331.776 110.594C331.942 110.263 331.942 109.932 331.942 109.6C331.776 108.938 330.946 108.607 330.449 108.938C329.619 109.269 329.287 109.932 329.453 110.759Z" fill="#E5F6FF"/>
<path d="M335.923 102.15C335.591 101.819 335.093 101.985 334.762 102.316C334.596 102.647 334.596 103.144 334.264 103.64C334.098 104.137 333.6 104.468 333.269 104.468C332.937 104.468 332.771 104.468 332.439 104.303C332.273 104.137 332.273 103.972 332.273 103.806C332.108 102.978 331.942 101.985 332.273 101.157C332.605 100.329 333.269 99.667 334.264 99.5015C334.928 99.5015 335.591 99.8326 335.757 100.329C336.089 100.826 336.089 101.654 335.757 102.15H335.923Z" fill="#E5F6FF"/>
<path d="M307.722 110.594C308.22 111.091 308.551 111.422 309.215 111.587C309.713 111.753 310.542 111.753 310.874 111.256C311.04 111.091 311.206 110.76 311.206 110.429C311.206 109.601 310.376 108.607 309.547 108.773C308.551 108.773 307.722 109.601 307.722 110.594Z" fill="#E5F6FF"/>
<path d="M315.685 121.19C316.348 122.183 317.343 122.68 318.505 122.845C318.505 122.349 318.671 121.852 318.505 121.355C318.339 120.859 318.007 120.362 317.509 120.362C316.846 120.196 316.348 120.859 315.85 121.521C315.85 121.355 315.85 121.19 315.685 121.024V121.19Z" fill="#E5F6FF"/>
<path d="M326.965 96.1903C327.131 95.5281 326.467 95.0314 325.97 94.7003C325.472 94.3692 324.808 94.038 324.808 93.3758C324.808 93.2102 324.808 93.0447 324.974 92.8791C325.306 92.7135 325.804 93.0447 326.135 93.2102C326.467 93.3758 326.799 93.3758 327.131 93.5413C327.96 93.7069 328.458 94.5347 328.624 95.3625C328.458 95.6936 327.96 96.0248 327.628 96.0248C327.297 96.0248 326.799 95.6936 326.633 95.3625L326.965 96.1903Z" fill="#E5F6FF"/>
<path d="M289.972 124.667C290.138 124.501 290.138 124.17 290.304 124.004C289.972 123.673 289.64 123.673 289.308 123.839C288.977 124.004 288.811 124.501 289.143 124.832C289.143 125.163 289.806 124.998 289.972 124.667Z" fill="#E5F6FF"/>
<path d="M323.647 110.925C323.813 111.091 324.145 111.091 324.311 111.256C324.477 110.925 324.642 110.594 324.642 110.263C324.477 109.932 323.979 109.601 323.813 109.932C323.647 110.097 323.647 110.263 323.647 110.263C323.647 110.76 323.481 111.091 323.481 111.587L323.647 110.925Z" fill="#E5F6FF"/>
<path d="M195.914 285.425C192.762 282.942 189.112 281.121 185.131 280.293C184.467 280.127 183.804 280.127 183.14 280.127C181.979 280.459 180.984 281.452 180.652 282.776C179.657 285.591 180.818 289.068 183.14 291.054C185.463 293.041 188.946 293.538 191.766 292.544C193.425 292.048 194.918 291.054 195.748 289.564C196.577 288.074 196.245 285.922 194.918 285.094C194.421 285.26 194.255 286.088 194.586 286.419L195.914 285.425Z" fill="white"/>
<path d="M183.804 287.412C183.472 285.756 182.145 284.432 180.486 283.935C179.325 285.094 178.495 286.75 178.827 288.24C179.159 289.896 180.818 291.22 182.311 290.723C183.97 290.227 184.467 287.743 183.14 286.915L183.804 287.412Z" fill="white"/>
<path d="M170.699 280.79C171.03 280.127 170.864 279.3 170.533 278.637C170.201 278.803 169.869 278.969 169.703 279.3C169.537 279.631 169.371 279.962 169.537 280.293C169.703 280.624 170.367 280.79 170.864 280.79C170.699 280.955 170.699 280.955 170.533 281.121L170.699 280.79Z" fill="white"/>
<path d="M173.519 281.618C173.685 281.618 174.016 281.783 174.016 281.949C173.519 282.28 172.855 281.949 172.357 281.783C172.026 281.618 171.694 281.452 171.694 281.121C171.694 280.955 171.86 280.79 172.026 280.459C172.192 280.128 172.192 279.465 172.523 279.3C172.689 279.134 173.021 279.465 173.187 279.631C173.353 279.796 173.353 280.128 173.353 280.459C173.353 280.955 173.353 281.618 173.353 282.114L173.519 281.618Z" fill="white"/>
<path opacity="0.5" d="M137.355 268.207C137.189 267.71 136.36 268.042 136.36 268.538C136.194 269.035 136.526 269.532 136.857 269.863C137.355 269.532 137.687 268.869 137.687 268.207H137.355Z" fill="white"/>
<path d="M129.724 283.439C129.724 283.604 129.558 283.935 129.393 283.935C129.227 283.935 128.895 283.935 128.729 283.77C128.563 283.77 128.563 283.604 128.397 283.439C128.231 283.108 128.397 282.776 128.729 282.611C129.061 282.445 129.393 282.611 129.558 282.942C129.724 283.273 129.558 283.604 129.227 283.77L129.724 283.439Z" fill="white"/>
<path d="M164.395 284.101C164.892 284.101 165.224 283.439 164.892 283.108C164.561 283.108 164.395 283.108 164.229 283.273C164.063 283.439 163.897 283.77 164.063 283.935C164.229 284.101 164.561 284.267 164.727 284.101H164.395Z" fill="white"/>
<path d="M175.012 283.439C175.343 282.942 175.509 282.445 175.343 281.783C174.846 281.949 174.514 282.114 174.016 282.28C173.85 282.28 173.519 282.445 173.519 282.611C173.187 282.942 173.353 283.439 173.685 283.77C174.182 283.77 174.68 283.77 175.012 283.439Z" fill="white"/>
<path opacity="0.5" d="M136.028 281.948C135.862 281.948 135.696 281.948 135.53 282.114C135.53 282.445 135.53 282.611 135.862 282.776C136.028 282.942 136.36 282.776 136.526 282.445C136.526 282.114 136.36 281.948 136.028 281.948Z" fill="white"/>
<path d="M167.713 283.273C167.547 283.604 168.044 283.77 168.21 283.77C168.542 283.77 168.874 283.604 169.04 283.438C169.372 283.438 169.703 283.439 169.869 283.604C170.035 283.77 170.201 283.935 170.035 284.101C170.035 284.266 169.869 284.266 169.869 284.432C169.537 284.929 169.04 285.26 168.376 285.425C167.713 285.591 167.049 285.425 166.717 284.929C166.386 284.597 166.386 284.101 166.551 283.77C166.883 283.604 167.381 283.273 167.713 283.273Z" fill="white"/>
<path d="M172.357 276.485C172.523 276.154 172.523 275.657 172.192 275.492C171.86 275.326 171.362 275.326 171.03 275.492C170.864 275.657 170.699 275.657 170.864 275.823C170.864 275.989 171.03 275.989 171.196 275.989C171.528 276.154 172.026 276.32 172.357 276.485Z" fill="white"/>
<path d="M154.773 271.849C154.773 272.677 153.612 273.174 152.949 272.843C153.114 272.181 153.28 271.684 153.778 271.187C154.276 270.856 155.105 270.691 155.437 271.187C155.437 271.518 155.271 271.849 155.271 272.181L154.773 271.849Z" fill="white"/>
<path d="M211.507 295.194C211.673 295.194 211.839 295.359 211.673 295.525C211.673 295.69 211.507 295.856 211.341 295.856C211.175 296.021 211.009 296.021 211.009 296.021C210.678 296.021 210.512 295.856 210.346 295.525C210.18 295.194 210.346 294.862 210.512 294.697C210.678 294.531 210.678 294.531 210.843 294.531C211.009 294.531 211.175 294.697 211.175 294.862L211.507 295.194Z" fill="white"/>
<path d="M161.906 280.624C161.906 280.459 161.907 280.293 161.741 280.127C161.409 280.127 161.243 280.127 161.077 280.459C160.911 280.624 160.911 281.121 161.243 281.121C161.409 281.121 161.409 281.121 161.575 280.955C161.907 280.79 162.072 280.624 162.404 280.459L161.906 280.624Z" fill="white"/>
<path d="M153.114 278.968C152.949 278.637 152.783 278.306 152.451 277.975C152.119 277.644 151.621 277.644 151.29 277.809C151.124 277.975 150.958 278.141 150.958 278.306C150.792 278.803 151.124 279.631 151.621 279.796C152.285 279.962 152.949 279.631 153.114 278.968Z" fill="white"/>
<path d="M150.958 275.326C150.792 275.161 150.46 274.995 150.294 274.995C150.128 275.161 149.963 275.326 149.963 275.492C150.294 275.823 150.792 275.823 151.124 275.492L150.958 275.326Z" fill="white"/>
<path d="M174.348 262.909C172.855 262.578 171.196 262.578 169.537 262.909C169.206 262.909 169.04 263.075 168.874 263.24C168.542 263.571 168.376 264.068 168.376 264.565C168.542 265.724 169.537 266.883 170.699 267.214C171.86 267.545 173.187 267.048 174.182 266.386C174.68 265.889 175.012 265.393 175.178 264.73C175.178 264.068 174.846 263.406 174.182 263.24C174.016 263.406 174.016 263.737 174.348 263.737V262.909Z" fill="white"/>
<path d="M175.012 295.856C174.846 295.194 174.182 294.531 173.519 294.2C173.353 294.531 173.187 294.862 173.187 295.194C173.187 295.525 173.353 295.856 173.685 296.021C174.182 296.187 174.514 295.856 175.012 295.69C175.012 295.856 175.012 296.021 175.012 296.021V295.856Z" fill="white"/>
<path d="M169.537 296.021C169.371 295.856 169.206 295.69 169.04 295.69C168.874 295.69 168.708 295.69 168.376 295.856C167.878 296.021 167.381 296.352 166.717 296.352C167.547 296.684 168.376 297.18 169.206 297.511C169.206 297.511 169.371 297.511 169.371 297.677C169.537 297.842 169.371 298.174 169.371 298.505C169.371 298.836 169.869 299.001 170.201 299.001C173.187 299.332 170.367 297.015 169.537 296.021Z" fill="white"/>
<path d="M180.154 295.359C180.154 294.862 179.988 294.2 179.491 293.869C179.159 294.2 178.993 294.697 178.661 295.028C178.495 295.193 178.329 295.359 178.329 295.69C178.329 296.187 178.827 296.518 179.159 296.352C179.657 296.352 179.988 295.856 180.154 295.359Z" fill="white"/>
<path d="M207.194 303.471C207.028 303.471 206.862 303.471 206.696 303.637C206.696 303.968 206.696 304.134 207.028 304.299C207.194 304.465 207.526 304.299 207.692 303.968C207.692 303.637 207.526 303.306 207.194 303.471Z" fill="white"/>
<path d="M173.85 291.386C173.85 291.054 173.519 290.723 173.021 290.723C172.689 290.723 172.357 291.054 172.192 291.386C172.192 291.551 172.026 291.717 172.192 291.882C172.357 291.882 172.357 291.882 172.523 291.882C173.021 291.717 173.519 291.551 173.85 291.386Z" fill="white"/>
<path d="M178.163 286.253C177.998 285.922 177.832 285.591 177.5 285.26C177.168 284.929 176.671 284.929 176.339 285.094C176.173 285.26 176.007 285.425 176.007 285.591C175.841 286.088 176.173 286.916 176.671 287.081C177.168 287.247 177.832 286.75 178.163 286.253Z" fill="white"/>
<path d="M162.57 272.512C162.238 272.512 161.907 273.009 161.907 273.34C161.741 273.671 161.575 274.167 161.243 274.333C161.077 274.333 161.077 274.333 160.911 274.333C160.745 274.167 160.911 273.836 160.911 273.505C160.911 273.34 160.911 273.009 160.911 272.843C160.911 272.346 161.243 271.684 161.741 271.519C162.072 271.519 162.238 271.85 162.404 272.015C162.57 272.181 162.404 272.677 162.238 272.843L162.57 272.512Z" fill="white"/>
<path d="M152.949 275.988C152.617 275.988 152.285 276.485 152.285 276.816C152.119 277.147 151.953 277.644 151.622 277.81C151.456 277.81 151.456 277.81 151.29 277.81C151.124 277.644 151.29 277.313 151.29 276.982C151.29 276.816 151.29 276.485 151.29 276.32C151.29 275.823 151.622 275.161 152.119 274.995C152.451 274.995 152.617 275.326 152.783 275.492C152.949 275.657 152.783 276.154 152.617 276.32L152.949 275.988Z" fill="white"/>
<path d="M146.313 272.346C145.981 272.18 145.65 272.015 145.318 272.015H145.152C144.986 272.015 144.986 272.18 144.986 272.18C144.986 272.346 144.986 272.677 145.152 272.843C145.318 273.008 145.65 273.008 145.815 273.008C145.981 273.008 146.147 272.843 146.147 272.677C146.313 272.512 146.313 272.346 146.313 272.346C146.147 272.346 146.147 272.346 146.313 272.346Z" fill="white"/>
<path d="M191.103 291.386C190.937 290.723 190.273 290.061 189.61 289.73C189.444 290.061 189.278 290.392 189.278 290.723C189.278 291.054 189.444 291.386 189.776 291.551C190.273 291.717 190.605 291.386 191.103 291.22C191.103 291.386 191.103 291.551 191.103 291.551V291.386Z" fill="white"/>
<path d="M188.117 297.843C188.449 297.511 188.449 296.849 187.951 296.684C187.785 296.849 187.619 297.015 187.453 297.18C187.287 297.346 187.453 297.677 187.619 297.843C187.785 298.008 188.117 297.843 188.117 297.511V297.843Z" fill="white"/>
<path d="M179.325 288.571C179.656 288.24 179.656 287.578 179.159 287.412C178.993 287.578 178.827 287.743 178.661 287.909C178.495 288.074 178.661 288.405 178.827 288.571C178.993 288.737 179.325 288.571 179.325 288.24V288.571Z" fill="white"/>
<path d="M190.273 295.028C190.439 295.359 190.771 295.359 191.103 295.028C191.269 294.862 191.435 294.531 191.6 294.2C191.766 294.034 192.098 293.869 192.43 293.869C192.596 293.869 192.762 293.869 192.928 294.034C192.928 294.2 192.928 294.2 192.928 294.366C192.928 295.028 192.762 295.524 192.43 296.021C192.098 296.518 191.435 296.849 190.771 296.683C190.439 296.518 189.942 296.187 189.942 295.856C189.776 295.69 189.942 295.193 190.273 295.028Z" fill="white"/>
<path d="M159.75 275.657C159.916 275.988 160.248 275.988 160.579 275.657C160.745 275.492 160.911 275.161 161.077 274.829C161.243 274.664 161.575 274.498 161.907 274.498C162.072 274.498 162.238 274.498 162.404 274.664C162.404 274.829 162.404 274.829 162.404 274.995C162.404 275.657 162.238 276.154 161.907 276.651C161.575 277.147 160.911 277.478 160.248 277.313C159.916 277.147 159.418 276.816 159.418 276.485C159.252 276.319 159.418 275.823 159.75 275.657Z" fill="white"/>
<path d="M161.409 272.015C161.575 272.346 161.907 272.346 162.238 272.015C162.404 271.849 162.57 271.518 162.736 271.187C162.902 271.022 163.234 270.856 163.565 270.856C163.731 270.856 163.897 270.856 164.063 271.022C164.063 271.187 164.063 271.187 164.063 271.353C164.063 272.015 163.897 272.512 163.565 273.008C163.234 273.505 162.57 273.836 161.907 273.67C161.575 273.505 161.077 273.174 161.077 272.843C160.911 272.512 161.077 272.18 161.409 272.015Z" fill="white"/>
<path d="M166.386 275.492C166.551 275.823 166.883 275.823 167.215 275.492C167.381 275.326 167.547 274.995 167.713 274.664C167.878 274.499 168.21 274.333 168.542 274.333C168.708 274.333 168.874 274.333 169.04 274.499C169.04 274.664 169.04 274.664 169.04 274.83C169.04 275.492 168.874 275.989 168.542 276.485C168.21 276.982 167.547 277.313 166.883 277.147C166.551 276.982 166.054 276.651 166.054 276.32C165.888 276.154 166.054 275.657 166.386 275.492Z" fill="white"/>
<path d="M134.369 304.962C134.535 305.293 134.867 305.293 135.199 304.962C135.53 304.631 135.53 304.465 135.696 304.134C135.862 303.968 136.194 303.803 136.526 303.803C136.692 303.803 136.857 303.803 137.023 303.968C137.023 304.134 137.023 304.134 137.023 304.299C137.023 304.962 136.857 305.458 136.526 305.955C136.194 306.452 135.53 306.783 134.867 306.617C134.535 306.452 134.037 306.121 134.037 305.789C133.871 305.624 134.037 305.127 134.369 304.962Z" fill="white"/>
<path d="M183.97 296.352C183.804 296.187 183.638 296.187 183.638 296.021C183.472 296.187 183.306 296.352 183.306 296.683C183.306 297.015 183.638 297.18 183.804 297.015L183.97 296.849C184.136 296.518 184.136 296.352 184.301 296.021L183.97 296.352Z" fill="white"/>
<path d="M151.29 294.035C151.124 293.703 150.958 293.372 150.626 293.041C150.294 292.71 149.797 292.71 149.465 292.876C149.299 293.041 149.133 293.207 149.133 293.372C148.967 293.869 149.299 294.697 149.797 294.862C150.46 295.028 151.124 294.531 151.29 294.035Z" fill="white"/>
<path d="M183.97 283.77C184.467 283.935 184.633 284.929 184.136 285.094C183.804 285.094 183.472 284.929 183.14 284.763C183.306 284.432 183.472 284.101 183.804 283.935L183.97 283.77Z" fill="white"/>
<path opacity="0.5" d="M148.304 289.73C148.138 289.564 147.972 289.399 147.806 289.233C147.64 289.068 147.308 289.068 147.142 289.233C146.811 289.564 146.977 289.896 146.977 290.392C146.811 290.723 146.479 291.054 146.479 291.386C146.479 291.717 146.977 292.048 147.308 291.882C147.64 291.717 147.972 291.551 148.138 291.22C148.304 290.889 148.47 290.558 148.47 290.227C148.47 289.896 148.304 289.564 147.972 289.399L148.304 289.73Z" fill="white"/>
<path d="M167.049 280.458C167.713 278.968 167.547 277.147 166.551 275.823C164.892 275.988 163.234 276.816 162.57 278.306C161.906 279.796 162.404 281.783 163.897 282.445C165.39 283.107 167.381 281.452 166.883 279.962L167.049 280.458Z" fill="white"/>
<path d="M185.629 280.459C185.629 280.624 185.297 280.79 185.131 280.624C184.965 280.624 184.799 280.293 184.633 280.128C184.633 279.962 184.633 279.796 184.633 279.796C184.633 279.465 184.965 279.3 185.297 279.3C185.629 279.3 185.794 279.797 185.629 279.962C185.463 280.293 185.297 280.459 184.965 280.459H185.629Z" fill="white"/>
<path d="M176.671 280.459C176.339 280.624 176.173 281.121 176.339 281.618C176.339 281.949 176.339 282.445 176.007 282.776C175.841 282.776 175.841 282.942 175.675 282.776C175.343 282.611 175.509 282.28 175.509 281.949C175.509 281.783 175.343 281.452 175.178 281.286C175.012 280.79 175.178 280.128 175.509 279.796C175.841 279.796 176.173 279.796 176.339 280.128C176.505 280.293 176.505 280.79 176.339 280.955L176.671 280.459Z" fill="white"/>
<path d="M164.395 285.591C164.229 285.591 164.063 285.425 163.897 285.425C163.731 285.591 163.565 285.922 163.731 286.088C163.897 286.253 164.229 286.419 164.395 286.253C164.727 286.088 164.727 285.591 164.395 285.591Z" fill="white"/>
<path d="M173.519 285.094C173.685 285.26 173.519 285.426 173.519 285.591C173.353 285.757 173.187 285.757 173.021 285.757C172.855 285.757 172.689 285.757 172.523 285.591C172.192 285.426 172.192 285.094 172.192 284.763C172.357 284.432 172.523 284.267 172.855 284.267C173.021 284.267 173.187 284.267 173.187 284.267C173.353 284.432 173.353 284.598 173.187 284.598L173.519 285.094Z" fill="white"/>
<path d="M171.196 298.67C172.689 298.008 173.685 296.352 173.85 294.862C172.523 294.035 170.699 293.538 169.206 294.2C167.713 294.862 166.717 296.684 167.381 298.174C168.21 299.664 170.699 299.664 171.196 298.174V298.67Z" fill="white"/>
<path d="M183.14 294.035C182.974 293.538 182.145 293.869 182.145 294.366C181.979 294.862 182.311 295.359 182.642 295.69C183.14 295.359 183.472 294.697 183.472 294.035H183.14Z" fill="white"/>
<path d="M181.813 276.651C181.647 276.651 181.481 276.485 181.315 276.485C181.15 276.651 180.984 276.982 181.15 277.147C181.315 277.313 181.647 277.478 181.813 277.313C182.145 277.147 182.145 276.816 181.813 276.651Z" fill="white"/>
<path d="M177.168 283.935C175.841 282.776 174.182 281.949 172.523 281.618C172.192 281.618 172.026 281.452 171.694 281.618C171.196 281.783 170.699 282.114 170.533 282.776C170.035 283.935 170.533 285.425 171.528 286.419C172.523 287.247 174.016 287.578 175.343 287.247C176.007 287.081 176.671 286.75 177.168 286.088C177.5 285.425 177.5 284.598 176.836 284.101C176.671 284.101 176.505 284.432 176.671 284.598L177.168 283.935Z" fill="white"/>
<path d="M157.593 304.796C157.262 303.141 155.935 301.816 154.276 301.319C153.114 302.478 152.285 304.134 152.617 305.624C152.949 307.279 154.607 308.604 156.1 308.107C157.759 307.611 158.257 305.127 156.93 304.299L157.593 304.796Z" fill="white"/>
<path d="M147.474 275.492C147.308 274.83 146.645 274.167 145.981 273.836C145.815 274.167 145.649 274.498 145.649 274.83C145.649 275.161 145.815 275.492 146.147 275.657C146.645 275.823 146.977 275.492 147.474 275.326C147.474 275.492 147.474 275.657 147.474 275.657V275.492Z" fill="white"/>
<path d="M142 275.657C141.834 275.492 141.668 275.326 141.502 275.326C141.336 275.326 141.171 275.326 140.839 275.492C140.341 275.657 139.843 275.988 139.18 275.988C140.009 276.32 140.839 276.816 141.668 277.147C141.668 277.147 141.834 277.147 141.834 277.313C142 277.478 141.834 277.81 141.834 278.141C141.834 278.472 142.332 278.637 142.664 278.637C145.65 278.803 142.829 276.485 142 275.657Z" fill="white"/>
<path d="M175.178 279.3C175.012 279.134 174.68 278.969 174.514 278.969C174.348 279.465 174.348 280.127 174.68 280.459C175.012 280.79 175.841 280.624 176.007 280.127C176.007 279.796 176.007 279.3 176.339 279.3H175.178Z" fill="white"/>
<path d="M151.953 283.77C152.119 283.77 152.451 283.935 152.451 284.101C151.953 284.432 151.29 284.101 150.792 283.935C150.46 283.77 150.128 283.604 150.128 283.273C150.128 283.107 150.294 282.942 150.46 282.611C150.626 282.28 150.626 281.617 150.958 281.452C151.124 281.286 151.456 281.617 151.621 281.783C151.787 281.949 151.787 282.28 151.787 282.611C151.787 283.107 151.787 283.77 151.787 284.266L151.953 283.77Z" fill="white"/>
<path d="M148.801 292.048C148.636 291.551 147.806 291.882 147.806 292.379C147.64 292.876 147.972 293.372 148.304 293.703C148.801 293.372 149.133 292.71 149.133 292.048H148.801Z" fill="white"/>
<path opacity="0.5" d="M142.332 284.101C142.332 284.266 142.166 284.597 142 284.597C141.834 284.597 141.502 284.597 141.336 284.432C141.171 284.432 141.171 284.266 141.005 284.101C140.839 283.77 141.005 283.439 141.336 283.273C141.668 283.107 142 283.273 142.166 283.604C142.332 283.935 142.166 284.266 141.834 284.432L142.332 284.101Z" fill="white"/>
<path d="M144.488 281.949C144.82 281.618 144.82 280.955 144.322 280.79C144.157 280.955 143.991 281.121 143.825 281.286C143.825 281.452 143.825 281.783 143.991 281.949C144.157 282.114 144.488 281.949 144.488 281.618V281.949Z" fill="white"/>
<path d="M152.617 274.995C152.617 274.498 152.451 273.836 151.953 273.505C151.621 273.836 151.456 274.333 151.124 274.664C150.958 274.83 150.792 274.995 150.792 275.326C150.792 275.823 151.29 276.154 151.621 275.989C152.119 275.823 152.451 275.492 152.617 274.995Z" fill="white"/>
<path opacity="0.5" d="M142.995 290.889C143.161 291.22 142.995 291.551 142.664 291.717C142.332 291.882 142 291.882 141.668 291.882C141.502 291.717 141.336 291.551 141.502 291.386L141.668 291.22C142.166 291.055 142.664 290.889 142.995 290.889C142.995 290.723 142.995 290.889 142.995 290.889Z" fill="white"/>
<path opacity="0.5" d="M138.185 295.194C137.853 295.194 137.521 295.69 137.521 296.021C137.355 296.353 137.189 296.849 136.857 297.015C136.692 297.015 136.692 297.015 136.526 297.015C136.36 296.849 136.526 296.518 136.526 296.187C136.526 296.021 136.526 295.69 136.526 295.525C136.526 295.028 136.857 294.366 137.355 294.2C137.687 294.2 137.853 294.531 138.019 294.697C138.185 294.862 138.019 295.359 137.853 295.525L138.185 295.194Z" fill="white"/>
<path opacity="0.5" d="M165.39 269.366C165.058 269.366 164.727 269.863 164.727 270.194C164.561 270.525 164.395 271.022 164.063 271.187C163.897 271.187 163.897 271.187 163.731 271.187C163.565 271.022 163.731 270.69 163.731 270.359C163.731 270.194 163.731 269.863 163.731 269.697C163.731 269.2 164.063 268.538 164.561 268.373C164.893 268.373 165.058 268.704 165.224 268.869C165.39 269.2 165.224 269.531 165.058 269.697L165.39 269.366Z" fill="white"/>
<path opacity="0.5" d="M135.364 292.048C135.199 291.882 135.199 291.882 135.033 291.717C134.867 291.882 134.701 292.048 134.701 292.379C134.701 292.71 135.033 292.876 135.364 292.71C135.53 292.545 135.696 292.213 135.364 292.048Z" fill="white"/>
<path d="M146.645 279.3C146.811 279.631 147.142 279.631 147.474 279.3C147.64 279.134 147.806 278.803 147.972 278.472C148.138 278.306 148.47 278.141 148.801 278.141C148.967 278.141 149.133 278.141 149.299 278.306C149.299 278.472 149.299 278.472 149.299 278.638C149.299 279.3 149.133 279.796 148.801 280.293C148.47 280.79 147.806 281.121 147.142 280.955C146.811 280.79 146.313 280.459 146.313 280.128C146.313 279.796 146.313 279.465 146.645 279.3Z" fill="white"/>
<path d="M146.313 271.022C146.313 270.69 145.981 270.359 145.484 270.359C145.152 270.359 144.82 270.69 144.654 271.022C144.654 271.187 144.488 271.353 144.654 271.518C144.82 271.518 144.82 271.518 144.986 271.518C145.484 271.353 145.981 271.187 146.313 271.022Z" fill="white"/>
<path d="M155.271 290.392C155.271 291.22 154.11 291.717 153.446 291.386C153.612 290.723 153.778 290.227 154.276 289.73C154.773 289.399 155.603 289.233 155.935 289.73C155.935 290.061 155.769 290.392 155.769 290.723L155.271 290.392Z" fill="white"/>
<path opacity="0.5" d="M140.341 280.624C140.175 280.459 140.009 280.459 140.009 280.293C139.843 280.459 139.678 280.624 139.678 280.955C139.678 281.286 140.009 281.452 140.175 281.286L140.341 281.121C140.507 280.79 140.507 280.624 140.673 280.293L140.341 280.624Z" fill="white"/>
<path d="M183.638 287.577C183.472 287.246 183.306 286.915 182.974 286.584C182.643 286.253 182.145 286.253 181.813 286.419C181.647 286.584 181.481 286.75 181.481 286.915C181.315 287.412 181.647 288.24 182.145 288.405C182.643 288.571 183.472 288.24 183.638 287.577Z" fill="white"/>
<path d="M162.404 299.167C162.238 299.001 161.907 298.836 161.741 298.836C161.575 299.001 161.409 299.167 161.409 299.333C161.741 299.664 162.238 299.664 162.57 299.333L162.404 299.167Z" fill="white"/>
<path d="M203.047 296.684C203.047 296.849 202.881 297.18 202.715 297.18C202.549 297.18 202.217 297.18 202.051 297.015C201.886 297.015 201.886 296.849 201.72 296.684C201.554 296.352 201.72 296.021 202.051 295.856C202.383 295.69 202.715 295.856 202.881 296.187C203.047 296.518 202.881 296.849 202.549 297.015L203.047 296.684Z" fill="white"/>
<path d="M159.418 293.041C159.252 292.876 158.921 292.71 158.755 292.71C158.589 292.876 158.423 293.041 158.423 293.207C158.755 293.538 159.252 293.538 159.584 293.207L159.418 293.041Z" fill="white"/>
<path d="M169.703 272.677C169.703 272.346 169.206 272.181 169.04 272.346C168.708 272.512 168.542 272.677 168.376 272.843C168.044 273.008 167.713 273.008 167.381 273.008C167.215 273.008 167.049 272.843 167.049 272.677C167.049 272.512 167.049 272.512 167.049 272.346C167.215 271.849 167.547 271.187 168.044 270.856C168.542 270.525 169.206 270.359 169.703 270.69C170.035 270.856 170.201 271.353 170.201 271.849C170.201 272.181 169.869 272.512 169.703 272.677Z" fill="white"/>
<path d="M175.841 287.909C176.007 288.074 176.007 288.405 176.173 288.571C176.339 288.737 176.671 288.902 176.836 288.737C177.168 288.571 177.168 288.074 177.334 287.743C177.5 287.412 177.998 287.412 178.164 286.915C178.329 286.584 177.832 286.253 177.5 286.088C177.168 286.088 176.836 286.253 176.505 286.584C176.173 286.75 176.007 287.081 175.841 287.412C175.675 287.743 175.841 288.074 176.173 288.24L175.841 287.909Z" fill="white"/>
<path d="M160.082 279.465C161.409 279.962 162.736 280.293 164.229 280.128C164.395 280.128 164.727 280.128 164.892 279.962C165.224 279.797 165.39 279.3 165.556 278.803C165.556 277.81 164.892 276.651 163.897 276.32C162.902 275.823 161.741 275.989 160.745 276.651C160.248 276.982 159.75 277.479 159.75 277.975C159.75 278.472 159.916 279.3 160.413 279.465C160.579 279.3 160.579 279.134 160.413 278.969L160.082 279.465Z" fill="white"/>
<path d="M166.717 271.684C166.717 271.518 166.883 271.187 166.717 271.022C166.717 270.856 166.386 270.69 166.22 270.525C165.722 270.194 165.39 269.863 164.893 269.366C164.893 270.359 165.058 271.187 165.058 272.18V272.346C164.893 272.512 164.561 272.677 164.395 272.677C164.063 272.843 164.229 273.339 164.395 273.671C165.888 276.485 166.386 272.843 166.717 271.684Z" fill="white"/>
<path d="M160.082 279.134C159.916 278.969 159.916 278.969 159.75 278.803C159.418 278.803 159.252 279.134 159.418 279.465C159.418 279.796 159.75 279.962 159.916 279.796C160.248 279.631 160.248 279.3 160.082 279.134Z" fill="white"/>
<path d="M162.404 271.849C162.736 271.684 162.736 271.187 162.57 270.856C162.404 270.525 161.907 270.359 161.575 270.359C161.409 270.359 161.243 270.525 161.243 270.69C161.243 270.856 161.243 270.856 161.409 271.022C161.575 271.353 161.907 271.684 162.404 271.849Z" fill="white"/>
<path d="M159.75 276.32C160.248 275.823 160.579 274.995 160.414 274.167C160.082 274.167 159.75 274.167 159.418 274.333C159.086 274.498 158.921 274.829 158.921 275.161C158.921 275.657 159.418 275.823 159.916 275.988C159.75 275.988 159.75 276.154 159.584 276.154L159.75 276.32Z" fill="white"/>
<path d="M156.764 277.975C156.764 278.141 156.764 278.472 156.764 278.637C156.266 278.306 156.1 277.644 156.1 276.982C156.1 276.651 156.1 276.319 156.432 276.154C156.598 275.988 156.93 276.154 157.096 276.154C157.593 276.154 158.091 275.657 158.423 275.988C158.589 276.154 158.589 276.485 158.423 276.651C158.257 276.816 158.091 276.982 157.759 277.147C157.262 277.478 156.764 277.644 156.266 277.975H156.764Z" fill="white"/>
<path d="M164.727 274.333C165.224 274.002 165.556 273.505 165.722 273.008C165.224 273.008 164.727 272.843 164.395 272.843C164.229 272.843 163.897 272.843 163.731 272.843C163.399 273.008 163.234 273.671 163.565 274.002C163.731 274.333 164.229 274.498 164.727 274.333Z" fill="white"/>
<path d="M157.925 271.187C157.759 271.353 157.925 271.849 158.257 271.849C158.589 272.015 158.921 271.849 159.252 272.015C159.584 272.015 159.916 272.346 159.916 272.512C160.082 272.677 160.082 272.843 159.916 273.008C159.916 273.174 159.75 273.174 159.584 273.174C159.086 273.505 158.423 273.671 157.759 273.505C157.096 273.505 156.598 273.008 156.432 272.512C156.266 272.181 156.432 271.684 156.764 271.353C157.262 271.187 157.759 271.022 157.925 271.187Z" fill="white"/>
<path d="M167.879 288.737C168.044 288.406 168.376 288.075 168.376 287.578C168.376 287.247 168.376 286.75 167.879 286.585C167.713 286.419 167.547 286.419 167.215 286.419C166.551 286.585 166.22 287.247 166.386 287.743C166.551 288.406 167.215 288.902 167.879 288.737Z" fill="white"/>
<path d="M173.685 281.783C174.182 281.286 174.514 280.459 174.348 279.631C174.016 279.631 173.685 279.631 173.353 279.796C173.021 279.962 172.855 280.293 172.855 280.624C172.855 281.121 173.353 281.286 173.85 281.452C173.685 281.452 173.685 281.618 173.519 281.618L173.685 281.783Z" fill="white"/>
<path d="M155.271 278.141C154.939 278.141 154.607 278.637 154.442 278.969C154.276 279.3 154.11 279.796 153.778 279.962C153.612 279.962 153.612 279.962 153.446 279.962C153.28 279.796 153.446 279.465 153.612 279.134C153.612 278.969 153.612 278.637 153.612 278.472C153.612 277.975 154.11 277.479 154.607 277.313C154.939 277.313 155.105 277.644 155.271 277.81C155.271 278.141 155.271 278.472 154.939 278.637L155.271 278.141Z" fill="white"/>
<path d="M179.988 298.339C179.822 298.339 179.657 298.339 179.491 298.339C179.325 298.505 179.325 298.836 179.491 299.001C179.657 299.167 179.988 299.167 180.154 299.001C180.32 298.836 180.154 298.339 179.988 298.339Z" fill="white"/>
<path d="M165.722 277.975C165.722 277.809 165.722 277.644 165.722 277.478C165.556 277.478 165.224 277.313 164.893 277.478C164.727 277.644 164.561 277.975 164.893 278.141C165.058 278.141 165.058 278.141 165.224 278.141C165.556 278.141 165.888 278.141 166.22 277.975H165.722Z" fill="white"/>
<path opacity="0.5" d="M162.072 386.252C199.452 386.252 229.755 379.506 229.755 371.186C229.755 362.865 199.452 356.12 162.072 356.12C124.692 356.12 94.3901 362.865 94.3901 371.186C94.3901 379.506 124.692 386.252 162.072 386.252Z" fill="url(#paint0_radial)"/>
<path d="M148.801 312.743C146.811 324.167 138.019 350.822 130.222 348.007C128.563 347.345 126.738 345.193 124.914 342.047C119.605 332.445 114.297 313.571 111.643 300.823C110.15 293.869 109.652 288.737 110.15 287.909C113.633 282.777 146.977 305.127 148.801 307.611C149.299 308.273 149.299 310.094 148.801 312.743Z" fill="url(#paint1_linear)"/>
<path d="M201.388 297.346C201.222 298.339 201.056 299.498 200.89 300.657C198.568 318.041 193.757 343.703 188.449 353.139C187.121 355.457 185.96 356.616 184.633 356.782C184.301 356.782 183.97 356.782 183.638 356.616C182.477 356.285 181.15 355.292 179.988 353.967C172.026 345.027 163.068 318.206 162.736 310.094C162.736 309.1 162.736 308.438 163.068 308.107C167.547 301.981 200.227 281.121 202.051 283.604C202.715 283.935 202.383 289.564 201.388 297.346Z" fill="url(#paint2_linear)"/>
<path d="M110.149 288.074C106.5 292.876 136.526 314.564 149.133 308.935C149.133 308.935 115.126 281.618 110.149 288.074Z" fill="url(#paint3_linear)"/>
<path d="M162.902 309.763C161.907 312.246 196.577 306.617 202.217 283.273C202.217 283.273 172.357 286.75 162.902 309.763Z" fill="url(#paint4_linear)"/>
<path opacity="0.3" d="M123.255 308.273C121.596 310.425 123.586 337.246 130.056 348.173C128.397 347.51 126.572 345.358 124.748 342.212C123.752 337.577 122.093 330.458 120.6 323.504C118.776 314.564 113.965 305.293 111.477 300.988C109.984 294.034 109.486 288.902 109.984 288.074C113.467 282.942 146.811 305.292 148.635 307.776C148.967 308.273 148.967 310.094 148.47 312.743C148.801 312.743 125.079 306.12 123.255 308.273Z" fill="url(#paint5_linear)"/>
<path d="M181.979 318.041C180.486 318.537 180.154 329.795 182.642 330.292C185.131 330.789 185.131 317.047 181.979 318.041Z" fill="white"/>
<path opacity="0.3" d="M201.388 297.346C201.388 297.346 182.477 302.975 177.998 311.915C173.685 320.855 175.343 342.213 179.988 353.802C172.026 344.861 163.068 318.041 162.736 309.928C162.736 308.935 162.736 308.273 163.068 307.942C167.547 301.816 200.227 280.955 202.051 283.439C202.715 283.935 202.383 289.564 201.388 297.346Z" fill="url(#paint6_linear)"/>
<path d="M119.605 209.102C119.605 219.036 118.112 233.44 113.633 245.194C106.168 264.565 94.8878 288.737 94.5561 289.564C87.5888 293.703 79.4603 293.538 74.1519 292.71C71 292.213 68.8434 291.551 68.8434 291.551C68.8434 291.551 71.1659 269.366 83.2757 244.367C89.4135 231.784 97.2103 220.029 103.846 211.42C103.846 211.42 103.846 211.42 104.012 211.254C104.012 211.089 104.178 211.089 104.178 210.923L104.343 210.758L104.509 210.592L104.675 210.427C111.477 201.818 117.117 196.52 118.278 197.182C118.942 197.679 119.605 202.314 119.605 209.102Z" fill="url(#paint7_linear)"/>
<path d="M68.8434 290.889C68.8434 290.889 77.8014 276.32 86.9252 278.141C96.049 279.962 94.3902 289.73 94.3902 289.73C94.3902 289.73 82.778 298.008 68.8434 290.889Z" fill="url(#paint8_linear)"/>
<path opacity="0.3" d="M119.605 209.102C119.605 219.036 118.112 233.44 113.633 245.194C106.168 264.565 94.8878 288.737 94.5561 289.565L74.1519 292.71C71 292.213 68.8434 291.551 68.8434 291.551C68.8434 291.551 71.1659 269.366 83.2757 244.367C89.4135 231.784 97.2103 220.029 103.846 211.42C100.03 216.552 83.9392 238.572 79.6262 257.28C74.6495 278.638 94.5561 270.36 102.685 257.28C110.813 244.201 119.273 209.102 119.273 209.102H119.605Z" fill="url(#paint9_linear)"/>
<path d="M97.3762 243.208C95.7173 242.545 104.178 223.672 106.666 223.506C109.32 223.341 98.7033 243.704 97.3762 243.208Z" fill="white"/>
<path d="M96.5467 245.194C95.2196 244.532 94.0584 248.009 95.2196 248.506C96.3808 249.168 98.0397 246.022 96.5467 245.194Z" fill="white"/>
<path d="M83.9392 282.445C79.1285 281.618 72.3271 286.088 70.1705 290.061C68.014 294.035 66.8528 316.882 72.3271 335.756C72.3271 335.756 79.9579 337.742 85.764 335.756C91.5701 333.769 95.5514 317.047 95.7173 304.465C96.0491 292.048 91.736 283.77 83.9392 282.445Z" fill="url(#paint10_linear)"/>
<path d="M83.2757 336.584C83.2757 336.584 76.3084 296.352 92.2336 288.074C92.2336 288.074 96.8785 296.021 95.2196 311.584C93.3948 327.147 90.7406 335.094 83.2757 336.584Z" fill="url(#paint11_linear)"/>
<path opacity="0.5" d="M82.1144 314.233C82.1144 314.233 86.2616 320.193 88.9158 321.186C91.7359 322.18 93.8924 321.186 93.8924 321.186L83.6074 302.975C83.6074 302.809 81.7826 310.094 82.1144 314.233Z" fill="url(#paint12_linear)"/>
<path d="M83.6074 302.809C83.6074 302.809 85.9299 291.717 92.5654 288.902C92.5654 288.902 98.8691 295.028 97.2102 319.034C97.2102 319.034 93.7266 323.67 88.7499 319.034C88.9158 319.034 84.7686 310.922 83.6074 302.809Z" fill="url(#paint13_linear)"/>
<path d="M87.5888 298.836C85.2664 298.836 88.75 308.935 89.9112 308.769C91.0724 308.438 89.4135 298.836 87.5888 298.836Z" fill="white"/>
<path d="M113.633 67.3827C113.633 67.3827 103.182 58.4424 90.5747 56.9524C90.5747 56.9524 86.7593 58.7736 82.1145 72.8462C77.6355 86.7532 85.9299 114.236 85.9299 114.236L113.633 67.3827Z" fill="url(#paint14_linear)"/>
<path d="M85.5981 63.9059C85.5981 63.9059 87.5887 59.1047 90.5747 56.9524C90.5747 56.9524 101.026 66.5549 100.528 89.5677L97.542 92.7134L85.5981 63.9059Z" fill="url(#paint15_linear)"/>
<path d="M199.397 67.3827C199.397 67.3827 209.848 58.4424 222.456 56.9524C222.456 56.9524 226.271 58.7736 230.916 72.8462C235.395 86.7532 227.1 114.402 227.1 114.402L199.397 67.3827Z" fill="url(#paint16_linear)"/>
<path d="M222.456 56.9524C222.456 56.9524 212.171 67.8794 212.171 85.5943L216.152 88.0777L227.764 64.237C227.764 64.237 223.949 56.6213 222.456 56.9524Z" fill="url(#paint17_linear)"/>
<path d="M215.82 86.9188C215.82 86.9188 213.166 71.8528 223.119 60.5947C223.119 60.5947 234.4 65.8927 239.044 85.5943C243.689 105.296 231.579 117.051 231.579 117.051L215.82 86.9188Z" fill="url(#paint18_linear)"/>
<path d="M97.2103 86.9188C97.2103 86.9188 99.8645 71.8528 89.9112 60.5947C89.9112 60.5947 78.6308 65.8927 73.986 85.5943C69.3411 105.296 81.4509 117.051 81.4509 117.051L97.2103 86.9188Z" fill="url(#paint19_linear)"/>
<path d="M229.755 170.527C206.53 202.977 97.708 200.493 83.6075 174.335C74.3178 157.282 75.3131 131.455 84.271 107.779C95.8832 76.6541 121.264 49.1711 154.773 49.1711C194.255 49.1711 224.612 88.4089 233.736 124.17C238.215 142.382 237.551 159.6 229.755 170.527Z" fill="url(#paint20_linear)"/>
<path d="M91.7359 140.395C96.8784 162.414 192.596 164.898 215.986 144.865C239.376 124.832 205.701 53.8067 153.778 56.9524C106.5 59.7669 83.1098 104.303 91.7359 140.395Z" fill="#DFE3FB"/>
<path d="M91.2383 137.746C96.3808 159.765 192.098 162.249 215.488 142.216C238.878 122.183 205.203 51.1578 153.28 54.3034C106.002 57.118 82.6121 101.654 91.2383 137.746Z" fill="url(#paint21_linear)"/>
<path opacity="0.3" d="M229.755 170.527C206.53 202.977 97.708 200.493 83.6075 174.335C74.3178 157.282 75.3131 131.455 84.271 107.78C83.9393 109.104 74.8154 142.382 84.1051 156.951C93.5608 171.851 131.217 169.865 171.694 168.043C212.171 166.388 225.442 160.428 232.243 149.004C237.551 140.064 232.243 120.362 229.755 112.25L233.736 124.004C238.215 142.382 237.551 159.6 229.755 170.527Z" fill="url(#paint22_linear)"/>
<path d="M154.773 194.367C132.213 194.367 115.79 191.884 106.666 188.076C100.694 185.758 97.7079 182.778 98.2056 179.964C98.5374 178.143 102.85 176.652 109.818 175.328C130.388 171.686 172.855 170.527 195.748 174.004C197.738 174.335 199.563 174.666 201.222 174.997C201.554 174.997 201.886 175.162 202.217 175.162H202.383C206.364 176.156 209.185 177.315 210.346 178.805C210.678 179.136 210.843 179.467 211.009 179.964C213.498 187.248 175.343 194.367 154.773 194.367Z" fill="url(#paint23_linear)"/>
<path opacity="0.5" d="M211.009 178.143C211.009 178.308 210.843 178.639 210.678 178.805C208.521 181.95 199.397 185.924 199.397 185.924C199.397 185.924 164.893 171.851 136.857 178.143C108.822 184.434 106.666 188.076 106.666 188.076C100.694 185.758 97.7079 182.778 98.2056 179.964C98.5374 178.143 102.85 176.652 109.818 175.328C130.388 171.686 172.855 170.527 195.748 174.004C198.07 174.5 200.393 174.831 202.217 175.328H202.383C208.023 176.487 211.341 177.48 211.009 178.143Z" fill="url(#paint24_linear)"/>
<path d="M201.388 174.997C196.079 180.129 170.367 184.434 155.769 184.434C129.558 184.434 113.633 180.295 109.984 175.328C132.378 171.355 180.652 170.361 201.388 174.997Z" fill="url(#paint25_linear)"/>
<path d="M199.729 277.147C196.577 295.69 179.822 308.107 155.935 308.107C135.033 308.107 117.449 300.326 112.804 283.273C108.159 266.221 109.984 234.599 116.121 215.062C117.117 212.082 118.112 209.268 119.439 206.619C120.6 204.135 121.928 201.818 123.421 199.665C131.051 188.242 142.166 180.792 154.773 180.792C167.879 180.792 177.832 186.089 184.799 194.202C187.951 197.844 190.439 202.149 192.264 206.619C194.255 211.751 196.079 217.38 197.407 223.009V223.175C201.72 241.055 202.549 260.591 199.729 277.147Z" fill="url(#paint26_linear)"/>
<path d="M183.472 192.712C183.472 192.712 185.463 214.897 198.568 228.307C198.568 228.307 194.918 207.612 183.472 192.712Z" fill="url(#paint27_linear)"/>
<path d="M256.96 165.725C236.556 206.122 200.558 219.864 200.558 219.864C190.605 213.407 181.979 192.546 185.463 188.573C185.628 188.407 185.794 188.242 186.126 188.076C229.921 167.05 243.192 145.362 243.192 145.362C249.164 145.858 252.481 149.169 254.472 153.143C257.292 158.937 256.96 165.725 256.96 165.725Z" fill="url(#paint28_linear)"/>
<path opacity="0.5" d="M83.6075 174.335C83.6075 174.335 88.2523 169.037 97.2103 164.732C106.168 160.428 114.463 157.116 115.79 153.64C117.117 150.163 91.0724 152.15 91.0724 152.15L78.1332 157.779C78.1332 157.613 80.1238 168.043 83.6075 174.335Z" fill="url(#paint29_linear)"/>
<path d="M243.192 145.362C239.542 146.355 239.874 170.527 244.519 173.01C249.164 175.493 256.96 165.725 256.96 165.725C256.96 165.725 256.131 141.885 243.192 145.362Z" fill="url(#paint30_linear)"/>
<path d="M173.85 101.985C177.334 108.111 200.227 102.647 201.554 99.0047C203.213 94.2035 196.909 78.9719 184.799 80.462C172.689 81.7865 172.192 99.1703 173.85 101.985Z" fill="url(#paint31_linear)"/>
<path d="M138.185 101.985C134.701 108.111 111.808 102.647 110.481 99.0047C108.822 94.2035 115.126 78.9719 127.236 80.462C139.346 81.7865 139.843 99.1703 138.185 101.985Z" fill="url(#paint32_linear)"/>
<path d="M131.715 113.243C131.715 113.243 138.185 120.031 156.764 120.031C175.343 120.031 184.799 112.25 184.799 112.25C184.799 112.25 176.671 123.342 156.764 123.342C136.857 123.176 131.715 113.243 131.715 113.243Z" fill="#2F95CD"/>
<path d="M72.9906 92.5479C72.9906 92.5479 79.6261 96.8524 75.3131 106.786C75.3131 106.786 43.9603 123.839 45.785 142.381C47.278 157.944 90.5747 150.328 90.5747 150.328L92.0677 155.461C92.0677 155.461 55.2406 162.58 42.6332 153.971C42.6332 153.971 38.3201 143.706 49.1028 125.329C59.7196 107.117 72.9906 92.5479 72.9906 92.5479Z" fill="url(#paint33_linear)"/>
<path d="M85.1005 149.004C81.1191 153.474 89.5794 158.275 96.3808 159.103C104.178 159.931 117.78 156.951 116.951 149.169C116.121 141.388 94.3902 138.574 85.1005 149.004Z" fill="url(#paint34_linear)"/>
<path opacity="0.5" d="M106.832 81.9521C105.671 89.0712 121.596 88.74 143.327 88.0778C169.371 87.25 195.582 109.601 210.843 93.5413C213.332 90.8923 188.449 56.1247 158.257 56.7869C128.065 57.6147 107.993 75.8263 106.832 81.9521Z" fill="url(#paint35_linear)"/>
<path opacity="0.5" d="M121.596 144.202C120.269 149.335 131.051 154.633 157.759 153.308C190.107 151.653 196.909 145.03 195.25 143.044C194.255 141.885 184.633 148.01 158.091 142.216C140.673 138.408 123.089 138.739 121.596 144.202Z" fill="url(#paint36_linear)"/>
<path opacity="0.3" d="M229.423 111.753L228.593 109.435C228.759 109.766 229.091 110.594 229.423 111.753Z" fill="url(#paint37_linear)"/>
<path opacity="0.3" d="M199.729 277.147C196.577 295.69 179.822 308.107 155.935 308.107C135.033 308.107 117.449 300.326 112.804 283.273C108.159 266.221 109.984 234.599 116.121 215.062C117.117 212.082 118.112 209.268 119.439 206.619C119.439 206.619 106.832 248.34 116.951 274.995C127.07 301.65 174.016 300.988 189.942 283.273C205.037 266.552 198.07 226.983 197.407 223.175C201.72 241.055 202.549 260.591 199.729 277.147Z" fill="url(#paint38_linear)"/>
<path d="M113.799 266.22C117.283 241.221 137.521 224.334 159.75 226.32C183.804 228.638 196.743 251.485 196.411 271.187C196.079 290.889 181.647 306.12 155.935 306.12C129.89 306.12 110.481 289.564 113.799 266.22Z" fill="url(#paint39_linear)"/>
<path d="M113.965 268.207C117.449 243.208 137.687 226.321 159.916 228.473C183.97 230.791 196.909 253.638 196.577 273.34C196.245 293.041 181.813 308.273 156.1 308.273C130.388 308.273 110.647 291.551 113.965 268.207Z" fill="url(#paint40_radial)"/>
<path opacity="0.5" d="M184.799 194.202C179.657 202.149 151.621 206.784 135.364 205.294C121.264 203.97 123.421 200.162 123.421 199.665C131.051 188.242 142.166 180.792 154.773 180.792C167.879 180.792 177.998 186.255 184.799 194.202Z" fill="url(#paint41_linear)"/>
<path d="M174.846 207.943C173.519 208.44 173.519 218.87 174.846 220.526C176.173 222.182 178.329 221.685 179.159 219.201C179.822 216.884 176.836 207.281 174.846 207.943Z" fill="white"/>
<path d="M177.168 223.34C176.007 223.672 176.007 226.155 176.505 227.148C177.002 228.142 178.827 227.811 179.159 226.817C179.491 225.658 178.329 223.175 177.168 223.34Z" fill="white"/>
<path opacity="0.72" d="M128.065 293.704C128.065 293.704 133.871 303.637 155.271 303.803C176.671 303.968 185.463 291.055 185.463 291.055C185.463 291.055 175.509 297.511 161.409 293.704C147.308 289.73 133.208 287.578 128.065 293.704Z" fill="url(#paint42_linear)"/>
<path d="M173.187 53.6413C170.864 54.138 190.107 64.4027 190.937 63.0782C191.766 61.9193 179.491 52.1513 173.187 53.6413Z" fill="white"/>
<path d="M210.014 61.2572C208.023 62.2505 208.189 64.4028 212.17 63.9061C216.152 63.4094 218.308 60.2638 217.811 59.6016C217.479 59.1049 212.17 60.0982 210.014 61.2572Z" fill="white"/>
<path opacity="0.3" d="M256.96 165.726C236.556 206.122 200.558 219.864 200.558 219.864C190.605 213.407 181.979 192.546 185.463 188.573C185.628 188.407 185.794 188.242 186.126 188.076C186.126 188.076 192.596 211.586 211.341 205.129C233.57 197.348 242.694 158.772 242.694 158.772V147.348L254.306 153.309C257.292 158.938 256.96 165.726 256.96 165.726Z" fill="url(#paint43_linear)"/>
<path d="M241.865 152.149C241.865 152.149 241.699 164.898 248.998 167.05C256.297 169.037 265.255 155.626 268.738 149.997C272.056 144.368 277.199 119.203 272.388 113.077C267.577 107.117 258.287 108.607 251.984 117.051C251.818 117.051 242.196 141.223 241.865 152.149Z" fill="url(#paint44_linear)"/>
<path d="M242.196 148.342C242.196 148.342 250.657 141.885 252.481 132.117C254.306 122.349 264.591 109.269 264.591 109.269C264.591 109.269 259.283 108.773 251.818 116.885C244.519 124.998 242.196 148.342 242.196 148.342Z" fill="url(#paint45_linear)"/>
<path opacity="0.5" d="M250.491 118.706L256.96 121.19C256.96 121.19 254.14 125.991 252.979 130.627C251.818 135.262 247.505 141.388 247.505 141.388L250.491 118.706Z" fill="url(#paint46_linear)"/>
<path d="M242.196 145.858C242.196 145.858 240.04 141.057 239.708 131.786C239.376 122.514 241.699 115.23 242.694 113.905C243.689 112.581 247.339 112.746 249.164 114.898C250.822 116.885 252.15 127.15 252.15 127.15C252.15 127.15 249.661 143.706 242.196 145.858Z" fill="url(#paint47_linear)"/>
<path d="M252.647 132.117C252.647 132.117 256.96 146.355 267.411 151.984L268.738 149.832C268.738 149.832 258.122 144.202 253.145 130.295L252.647 132.117Z" fill="url(#paint48_linear)"/>
<path d="M245.016 120.859C244.021 120.693 244.353 129.964 245.68 129.468C246.841 129.137 246.509 121.024 245.016 120.859Z" fill="white"/>
<path d="M85.5982 149.832C85.4323 151.156 112.97 151.487 113.633 146.521C114.297 141.719 87.4229 140.064 85.5982 149.832Z" fill="url(#paint49_linear)"/>
<path opacity="0.2" d="M92.3995 130.461C92.3995 130.461 91.2383 123.011 92.5654 112.912C93.8925 102.813 96.5467 96.3557 98.2056 97.1835C99.8644 98.1769 99.5327 107.945 100.528 117.713C101.192 125.329 102.685 132.448 102.685 132.448C102.685 132.448 95.7173 139.07 92.3995 130.461Z" fill="url(#paint50_linear)"/>
<path opacity="0.72" d="M122.425 252.313C126.738 259.101 144.157 255.459 163.731 257.446C183.306 259.432 186.79 265.724 190.937 264.399C195.084 263.075 188.614 233.605 159.086 231.618C129.89 229.632 121.43 250.658 122.425 252.313Z" fill="url(#paint51_linear)"/>
<path opacity="0.72" d="M231.745 69.535C231.745 69.535 228.096 65.0649 223.119 66.2238C218.143 67.3828 217.811 83.111 220.797 83.4421C223.783 83.7732 225.11 74.833 227.266 73.3429C229.589 71.8529 233.57 72.5151 233.57 72.5151L231.745 69.535Z" fill="url(#paint52_linear)"/>
<path opacity="0.72" d="M77.8014 74.9983C77.8014 74.9983 79.792 72.846 84.1051 73.5082C88.4182 74.1705 90.9065 83.1107 93.0631 82.1174C95.2196 81.2896 93.7266 66.8858 87.7547 62.7468C87.7547 62.7468 80.2897 69.2037 77.8014 74.9983Z" fill="url(#paint53_linear)"/>
<path d="M71.8294 95.8589C71.8294 95.8589 56.5677 112.912 57.5631 114.236C58.3925 115.395 72.8247 97.5145 71.8294 95.8589Z" fill="url(#paint54_linear)"/>
<defs>
<radialGradient id="paint0_radial" cx="0" cy="0" r="1" gradientUnits="userSpaceOnUse" gradientTransform="translate(162.055 371.169) scale(67.6615 15.0249)">
<stop stop-color="#BE9DEA"/>
<stop offset="0.3883" stop-color="#E0BFF5"/>
<stop offset="1" stop-color="white"/>
</radialGradient>
<linearGradient id="paint1_linear" x1="123.562" y1="347.302" x2="130.799" y2="289.565" gradientUnits="userSpaceOnUse">
<stop stop-color="#CBC1F7"/>
<stop offset="1" stop-color="#E8DCF7"/>
</linearGradient>
<linearGradient id="paint2_linear" x1="175.569" y1="355.457" x2="184.904" y2="280.985" gradientUnits="userSpaceOnUse">
<stop stop-color="#CBC1F7"/>
<stop offset="1" stop-color="#E8DCF7"/>
</linearGradient>
<linearGradient id="paint3_linear" x1="129.53" y1="309.84" x2="129.53" y2="287.087" gradientUnits="userSpaceOnUse">
<stop stop-color="#BE9DEA"/>
<stop offset="1" stop-color="#9E8CEF"/>
</linearGradient>
<linearGradient id="paint4_linear" x1="182.554" y1="310.367" x2="182.554" y2="283.305" gradientUnits="userSpaceOnUse">
<stop stop-color="#BE9DEA"/>
<stop offset="1" stop-color="#9E8CEF"/>
</linearGradient>
<linearGradient id="paint5_linear" x1="129.586" y1="348.047" x2="129.586" y2="287.278" gradientUnits="userSpaceOnUse">
<stop stop-color="#9D68C2"/>
<stop offset="1" stop-color="#CCEDFF"/>
</linearGradient>
<linearGradient id="paint6_linear" x1="182.668" y1="353.698" x2="182.668" y2="283.096" gradientUnits="userSpaceOnUse">
<stop stop-color="#9D68C2"/>
<stop offset="1" stop-color="#CCEDFF"/>
</linearGradient>
<linearGradient id="paint7_linear" x1="89.0595" y1="294.703" x2="101.537" y2="195.163" gradientUnits="userSpaceOnUse">
<stop stop-color="#CBC1F7"/>
<stop offset="1" stop-color="#E8DCF7"/>
</linearGradient>
<linearGradient id="paint8_linear" x1="81.722" y1="293.749" x2="81.722" y2="277.929" gradientUnits="userSpaceOnUse">
<stop stop-color="#BE9DEA"/>
<stop offset="1" stop-color="#9E8CEF"/>
</linearGradient>
<linearGradient id="paint9_linear" x1="94.1768" y1="292.813" x2="94.1768" y2="209.178" gradientUnits="userSpaceOnUse">
<stop stop-color="#9D68C2"/>
<stop offset="1" stop-color="#CCEDFF"/>
</linearGradient>
<linearGradient id="paint10_linear" x1="77.913" y1="336.816" x2="84.7096" y2="282.594" gradientUnits="userSpaceOnUse">
<stop stop-color="#CBC1F7"/>
<stop offset="1" stop-color="#E8DCF7"/>
</linearGradient>
<linearGradient id="paint11_linear" x1="88.6174" y1="336.536" x2="88.6174" y2="288.032" gradientUnits="userSpaceOnUse">
<stop stop-color="#BE9DEA"/>
<stop offset="1" stop-color="#9E8CEF"/>
</linearGradient>
<linearGradient id="paint12_linear" x1="88.0114" y1="321.522" x2="88.0114" y2="302.767" gradientUnits="userSpaceOnUse">
<stop stop-color="#8DA4E5"/>
<stop offset="1" stop-color="#755CBB"/>
</linearGradient>
<linearGradient id="paint13_linear" x1="89.2718" y1="320.637" x2="93.2428" y2="288.958" gradientUnits="userSpaceOnUse">
<stop stop-color="#CBC1F7"/>
<stop offset="1" stop-color="#E8DCF7"/>
</linearGradient>
<linearGradient id="paint14_linear" x1="97.1935" y1="114.278" x2="97.1935" y2="56.8699" gradientUnits="userSpaceOnUse">
<stop stop-color="#B9ACF4"/>
<stop offset="1" stop-color="#E1D1F5"/>
</linearGradient>
<linearGradient id="paint15_linear" x1="93.0751" y1="92.5904" x2="93.0751" y2="56.8699" gradientUnits="userSpaceOnUse">
<stop stop-color="#BE9DEA"/>
<stop offset="1" stop-color="#9E8CEF"/>
</linearGradient>
<linearGradient id="paint16_linear" x1="215.842" y1="114.278" x2="215.842" y2="56.8699" gradientUnits="userSpaceOnUse">
<stop stop-color="#B9ACF4"/>
<stop offset="1" stop-color="#E1D1F5"/>
</linearGradient>
<linearGradient id="paint17_linear" x1="220.019" y1="88.0739" x2="220.019" y2="56.8656" gradientUnits="userSpaceOnUse">
<stop stop-color="#BE9DEA"/>
<stop offset="1" stop-color="#9E8CEF"/>
</linearGradient>
<linearGradient id="paint18_linear" x1="227.793" y1="117.025" x2="227.793" y2="60.6196" gradientUnits="userSpaceOnUse">
<stop stop-color="#45FFCD"/>
<stop offset="1" stop-color="#22E0FF"/>
</linearGradient>
<linearGradient id="paint19_linear" x1="85.2423" y1="117.025" x2="85.2423" y2="60.6196" gradientUnits="userSpaceOnUse">
<stop stop-color="#45FFCD"/>
<stop offset="1" stop-color="#22E0FF"/>
</linearGradient>
<linearGradient id="paint20_linear" x1="150.313" y1="195.706" x2="168.53" y2="50.3783" gradientUnits="userSpaceOnUse">
<stop stop-color="#CBC1F7"/>
<stop offset="1" stop-color="#E8DCF7"/>
</linearGradient>
<linearGradient id="paint21_linear" x1="156.28" y1="155.868" x2="156.28" y2="54.1854" gradientUnits="userSpaceOnUse">
<stop stop-color="#0665BD"/>
<stop offset="1" stop-color="#1A1F77"/>
</linearGradient>
<linearGradient id="paint22_linear" x1="156.782" y1="194.362" x2="156.782" y2="107.745" gradientUnits="userSpaceOnUse">
<stop stop-color="#9D68C2"/>
<stop offset="1" stop-color="#CCEDFF"/>
</linearGradient>
<linearGradient id="paint23_linear" x1="98.2866" y1="183.102" x2="211.384" y2="183.102" gradientUnits="userSpaceOnUse">
<stop stop-color="#8879EA"/>
<stop offset="1" stop-color="#9E8CEF"/>
</linearGradient>
<linearGradient id="paint24_linear" x1="154.67" y1="188.132" x2="154.67" y2="171.863" gradientUnits="userSpaceOnUse">
<stop stop-color="#8DA4E5"/>
<stop offset="1" stop-color="#755CBB"/>
</linearGradient>
<linearGradient id="paint25_linear" x1="154.383" y1="185.83" x2="156.497" y2="168.961" gradientUnits="userSpaceOnUse">
<stop stop-color="#5E36CC"/>
<stop offset="1" stop-color="#6C4A96"/>
</linearGradient>
<linearGradient id="paint26_linear" x1="149.352" y1="308.006" x2="165.178" y2="181.754" gradientUnits="userSpaceOnUse">
<stop stop-color="#CBC1F7"/>
<stop offset="1" stop-color="#E8DCF7"/>
</linearGradient>
<linearGradient id="paint27_linear" x1="183.444" y1="210.449" x2="198.494" y2="210.449" gradientUnits="userSpaceOnUse">
<stop stop-color="#8879EA"/>
<stop offset="1" stop-color="#9E8CEF"/>
</linearGradient>
<linearGradient id="paint28_linear" x1="215.42" y1="221.636" x2="225.272" y2="143.039" gradientUnits="userSpaceOnUse">
<stop stop-color="#CBC1F7"/>
<stop offset="1" stop-color="#E8DCF7"/>
</linearGradient>
<linearGradient id="paint29_linear" x1="96.9366" y1="174.279" x2="96.9366" y2="151.452" gradientUnits="userSpaceOnUse">
<stop stop-color="#8DA4E5"/>
<stop offset="1" stop-color="#755CBB"/>
</linearGradient>
<linearGradient id="paint30_linear" x1="248.845" y1="173.281" x2="248.845" y2="144.968" gradientUnits="userSpaceOnUse">
<stop stop-color="#BE9DEA"/>
<stop offset="1" stop-color="#9E8CEF"/>
</linearGradient>
<linearGradient id="paint31_linear" x1="187.503" y1="104.781" x2="187.503" y2="80.4002" gradientUnits="userSpaceOnUse">
<stop stop-color="#45FFCD"/>
<stop offset="1" stop-color="#22E0FF"/>
</linearGradient>
<linearGradient id="paint32_linear" x1="124.521" y1="104.781" x2="124.521" y2="80.4002" gradientUnits="userSpaceOnUse">
<stop stop-color="#45FFCD"/>
<stop offset="1" stop-color="#22E0FF"/>
</linearGradient>
<linearGradient id="paint33_linear" x1="65.8855" y1="159.363" x2="74.2351" y2="92.7515" gradientUnits="userSpaceOnUse">
<stop stop-color="#BE9DEA"/>
<stop offset="1" stop-color="#9E8CEF"/>
</linearGradient>
<linearGradient id="paint34_linear" x1="98.4323" y1="159.758" x2="102.728" y2="141.478" gradientUnits="userSpaceOnUse">
<stop stop-color="#DD1A8F"/>
<stop offset="1" stop-color="#FE117E"/>
</linearGradient>
<linearGradient id="paint35_linear" x1="106.812" y1="78.1093" x2="211.04" y2="78.1093" gradientUnits="userSpaceOnUse">
<stop/>
<stop offset="1" stop-color="#6A9BFF"/>
</linearGradient>
<linearGradient id="paint36_linear" x1="121.547" y1="146.575" x2="195.615" y2="146.575" gradientUnits="userSpaceOnUse">
<stop/>
<stop offset="1" stop-color="#6A9BFF"/>
</linearGradient>
<linearGradient id="paint37_linear" x1="229.069" y1="111.703" x2="229.069" y2="109.355" gradientUnits="userSpaceOnUse">
<stop stop-color="#9D68C2"/>
<stop offset="1" stop-color="#CCEDFF"/>
</linearGradient>
<linearGradient id="paint38_linear" x1="155.81" y1="308.222" x2="155.81" y2="206.653" gradientUnits="userSpaceOnUse">
<stop stop-color="#9D68C2"/>
<stop offset="1" stop-color="#CCEDFF"/>
</linearGradient>
<linearGradient id="paint39_linear" x1="154.835" y1="306.157" x2="154.835" y2="226.161" gradientUnits="userSpaceOnUse">
<stop stop-color="#BE9DEA"/>
<stop offset="1" stop-color="#9E8CEF"/>
</linearGradient>
<radialGradient id="paint40_radial" cx="0" cy="0" r="1" gradientUnits="userSpaceOnUse" gradientTransform="translate(156.442 295.811) scale(61.1648 61.044)">
<stop stop-color="#45FFCD"/>
<stop offset="1" stop-color="#22E0FF"/>
</radialGradient>
<linearGradient id="paint41_linear" x1="154.054" y1="205.577" x2="154.054" y2="180.817" gradientUnits="userSpaceOnUse">
<stop stop-color="#8DA4E5"/>
<stop offset="1" stop-color="#755CBB"/>
</linearGradient>
<linearGradient id="paint42_linear" x1="156.782" y1="303.764" x2="156.782" y2="289.907" gradientUnits="userSpaceOnUse">
<stop stop-color="#D4E2FF"/>
<stop offset="1"/>
</linearGradient>
<linearGradient id="paint43_linear" x1="220.884" y1="219.782" x2="220.884" y2="147.201" gradientUnits="userSpaceOnUse">
<stop stop-color="#9D68C2"/>
<stop offset="1" stop-color="#CCEDFF"/>
</linearGradient>
<linearGradient id="paint44_linear" x1="254.395" y1="167.713" x2="261.765" y2="108.913" gradientUnits="userSpaceOnUse">
<stop stop-color="#CBC1F7"/>
<stop offset="1" stop-color="#E8DCF7"/>
</linearGradient>
<linearGradient id="paint45_linear" x1="253.463" y1="148.354" x2="253.463" y2="109.355" gradientUnits="userSpaceOnUse">
<stop stop-color="#BE9DEA"/>
<stop offset="1" stop-color="#9E8CEF"/>
</linearGradient>
<linearGradient id="paint46_linear" x1="252.219" y1="141.242" x2="252.219" y2="118.651" gradientUnits="userSpaceOnUse">
<stop stop-color="#8DA4E5"/>
<stop offset="1" stop-color="#755CBB"/>
</linearGradient>
<linearGradient id="paint47_linear" x1="243.473" y1="146.085" x2="247.579" y2="113.325" gradientUnits="userSpaceOnUse">
<stop stop-color="#CBC1F7"/>
<stop offset="1" stop-color="#E8DCF7"/>
</linearGradient>
<linearGradient id="paint48_linear" x1="260.605" y1="152.05" x2="260.605" y2="130.432" gradientUnits="userSpaceOnUse">
<stop stop-color="#BE9DEA"/>
<stop offset="1" stop-color="#9E8CEF"/>
</linearGradient>
<linearGradient id="paint49_linear" x1="99.5941" y1="150.666" x2="99.5941" y2="142.694" gradientUnits="userSpaceOnUse">
<stop stop-color="#D93DE3"/>
<stop offset="1" stop-color="#FF6DBA"/>
</linearGradient>
<linearGradient id="paint50_linear" x1="96.7525" y1="134.837" x2="99.3266" y2="97.216" gradientUnits="userSpaceOnUse">
<stop/>
<stop offset="1" stop-color="#00E3FF"/>
</linearGradient>
<linearGradient id="paint51_linear" x1="122.398" y1="248.047" x2="192.098" y2="248.047" gradientUnits="userSpaceOnUse">
<stop/>
<stop offset="1" stop-color="#D4E2FF"/>
</linearGradient>
<linearGradient id="paint52_linear" x1="218.81" y1="74.7302" x2="233.515" y2="74.7302" gradientUnits="userSpaceOnUse">
<stop/>
<stop offset="1" stop-color="#D4E2FF"/>
</linearGradient>
<linearGradient id="paint53_linear" x1="77.7503" y1="72.4647" x2="93.956" y2="72.4647" gradientUnits="userSpaceOnUse">
<stop stop-color="#D4E2FF"/>
<stop offset="1"/>
</linearGradient>
<linearGradient id="paint54_linear" x1="64.5604" y1="114.344" x2="64.8673" y2="95.7068" gradientUnits="userSpaceOnUse">
<stop stop-color="#CBC1F7"/>
<stop offset="1" stop-color="#E8DCF7"/>
</linearGradient>
</defs>
</svg>
