<svg width="367" height="400" viewBox="0 0 367 400" fill="none" xmlns="http://www.w3.org/2000/svg">
<path d="M332.522 291.826C326.783 303.304 320 310.261 312.87 313.739C301.739 319.304 289.391 317.217 276.522 312.348C276.174 312.174 275.826 312 275.304 312C273.565 311.304 271.826 310.609 270.087 309.913C249.913 301.391 229.043 288.348 210.956 290.087C202.783 290.957 193.739 294.261 184.174 298.783C175.478 302.783 166.435 307.826 156.696 312.522C154.956 313.391 153.217 314.261 151.478 314.957C146.956 317.043 142.435 319.13 137.913 320.87C111.826 331.13 82.7826 335.652 51.6521 316.522C29.913 303.13 -13.7392 227.478 36.1739 152.696C91.6521 69.5652 240 70.7826 282.783 94.4348C358.783 136.348 356.696 244 332.522 291.826Z" fill="#E5F6FF"/>
<path d="M272.522 47.6521C270.609 53.5652 270.261 59.826 271.131 65.913C271.304 66.9565 271.478 67.826 272 68.6956C273.044 70.2608 275.131 70.9565 277.044 70.7826C281.739 70.6087 285.913 67.1304 287.478 62.6087C288.87 58.0869 287.826 53.0434 284.87 49.3913C283.304 47.3043 281.044 45.7391 278.435 45.3913C275.826 45.0434 273.044 46.6087 272.348 49.0434C272.87 49.7391 274.087 49.5652 274.261 48.6956L272.522 47.6521Z" fill="#E5F6FF"/>
<path d="M17.2174 315.652C15.3044 321.565 14.9565 327.826 15.8261 333.913C16 334.957 16.1739 335.826 16.6957 336.696C17.7391 338.261 19.8261 338.957 21.7391 338.783C26.4348 338.609 30.6087 335.13 32.1739 330.609C33.5652 326.087 32.5217 321.043 29.5652 317.391C28 315.304 25.7391 313.739 23.1304 313.391C20.5217 313.043 17.7391 314.609 17.0435 317.043C17.5652 317.739 18.7826 317.565 18.9565 316.696L17.2174 315.652Z" fill="#E5F6FF"/>
<path d="M282.261 64.0001C280.174 65.3914 278.957 68.0001 279.13 70.6088C281.391 71.6522 284.174 72.0001 286.435 70.6088C288.522 69.2174 289.565 66.087 288.174 64.174C286.609 62.087 282.783 62.6088 282.261 65.2175V64.0001Z" fill="#E5F6FF"/>
<path d="M280 86.4348C278.783 86.4348 277.739 86.9566 277.043 88C277.391 88.3479 277.913 88.6957 278.261 88.8696C278.783 89.0435 279.304 89.0435 279.652 88.5218C280.174 88 279.826 87.1305 279.652 86.4348C279.826 86.4348 280 86.6087 280.174 86.6087L280 86.4348Z" fill="#E5F6FF"/>
<path d="M279.652 81.9131C279.652 81.5653 279.652 81.2175 280 80.8696C280.696 81.3914 280.696 82.6088 280.522 83.4783C280.522 84.0001 280.348 84.5218 279.826 84.6957C279.478 84.8696 279.13 84.5218 278.782 84.5218C278.087 84.5218 277.217 85.0435 276.696 84.3479C276.522 84.0001 276.522 83.4783 276.869 83.3044C277.217 82.9566 277.565 82.7827 277.913 82.7827C278.782 82.4348 279.478 82.087 280.348 81.9131H279.652Z" fill="#E5F6FF"/>
<path opacity="0.5" d="M280.522 141.217C280 141.739 280.869 142.609 281.565 142.609C282.261 142.435 282.782 141.739 283.13 141.217C282.261 140.522 281.217 140.522 280.348 141.044L280.522 141.217Z" fill="#E5F6FF"/>
<path d="M306.609 143.826C306.957 143.652 307.304 143.652 307.478 144C307.652 144.348 307.652 144.696 307.652 145.044C307.652 145.217 307.478 145.391 307.478 145.565C307.13 145.913 306.609 145.913 306.261 145.565C305.913 145.217 305.913 144.696 306.261 144.348C306.609 144 307.13 144 307.478 144.348L306.609 143.826Z" fill="#E5F6FF"/>
<path d="M288.348 93.7393C288.174 93.0437 286.956 92.8698 286.609 93.5654C286.783 93.9132 286.956 94.2611 287.304 94.435C287.652 94.6089 288.174 94.6089 288.348 94.435C288.696 94.0871 288.522 93.5654 288.174 93.5654L288.348 93.7393Z" fill="#E5F6FF"/>
<path d="M281.391 78.7825C280.522 78.4347 279.652 78.6086 278.783 79.1304C279.304 79.6521 279.652 80.1738 280.174 80.8695C280.348 81.2173 280.696 81.3912 280.87 81.5651C281.565 81.7391 282.261 81.2173 282.261 80.5217C282.435 79.826 282.087 79.1303 281.391 78.7825Z" fill="#E5F6FF"/>
<path opacity="0.5" d="M301.043 135.478C301.217 135.652 301.391 135.826 301.391 136C301.739 136 302.087 135.652 302.087 135.13C302.087 134.783 301.739 134.435 301.391 134.435C301.043 134.609 300.696 135.13 301.043 135.478Z" fill="#E5F6FF"/>
<path d="M285.217 89.3914C285.739 89.3914 285.913 88.6957 285.739 88.3479C285.565 88.0001 285.043 87.6522 284.869 87.3044C284.522 86.9566 284.522 86.4348 284.696 85.9131C284.696 85.5653 285.043 85.3914 285.217 85.3914C285.391 85.3914 285.565 85.3914 285.739 85.5653C286.609 85.9131 287.478 86.4348 288 87.1305C288.522 87.8261 288.696 89.0435 288.348 89.7392C288 90.2609 287.304 90.6087 286.609 90.6087C286.087 90.2609 285.391 89.9131 285.217 89.3914Z" fill="#E5F6FF"/>
<path d="M272.87 86.4347C272.348 86.2607 271.652 86.7825 271.478 87.3042C271.304 87.826 271.652 88.5216 272.174 88.8694C272.348 89.0433 272.696 89.2173 272.87 89.0434C273.044 88.8694 273.044 88.6955 273.044 88.5216C273.044 87.826 273.044 87.1303 273.044 86.2607L272.87 86.4347Z" fill="#E5F6FF"/>
<path d="M276.174 114.261C277.391 113.913 278.609 115.13 278.435 116.348C277.565 116.522 276.522 116.522 275.652 116.174C274.783 115.826 274.261 114.609 274.783 113.913C275.304 113.739 275.826 113.739 276.348 113.565L276.174 114.261Z" fill="#E5F6FF"/>
<path d="M277.913 20C277.913 19.6522 278.087 19.4783 278.435 19.4783C278.783 19.4783 278.956 19.6522 279.13 19.6522C279.304 19.8261 279.478 20 279.652 20.1739C279.826 20.5218 279.652 21.0435 279.304 21.3913C278.956 21.7391 278.435 21.7391 278.087 21.5652C277.913 21.5652 277.739 21.3913 277.565 21.2174C277.565 21.0435 277.565 20.6957 277.739 20.6957L277.913 20Z" fill="#E5F6FF"/>
<path d="M284.522 99.3044C284.348 99.4783 284.174 99.6522 283.826 99.8261C284 100.174 284.174 100.522 284.522 100.696C284.87 100.87 285.391 100.522 285.217 100.174C285.217 100 285.044 100 284.87 99.8261C284.522 99.4783 284.174 99.3044 283.826 98.9565L284.522 99.3044Z" fill="#E5F6FF"/>
<path d="M287.304 112.696C286.956 113.218 286.435 113.739 286.261 114.261C286.087 114.783 286.261 115.652 286.609 116C286.783 116.174 287.13 116.348 287.478 116.348C288.348 116.348 289.217 115.478 289.217 114.435C289.217 113.391 288.174 112.696 287.304 112.696Z" fill="#E5F6FF"/>
<path d="M283.13 117.739C283.13 118.087 282.957 118.609 282.957 118.956C283.304 119.13 283.652 119.13 284 119.13C284.348 118.609 284 117.739 283.478 117.565L283.13 117.739Z" fill="#E5F6FF"/>
<path d="M252.348 91.3044C252.695 93.7392 253.565 96.1739 254.956 98.087C255.13 98.4348 255.478 98.7826 255.826 98.9565C256.522 99.3044 257.391 99.3044 258.087 98.9565C259.826 98.087 260.695 96.1739 260.522 94.2609C260.348 92.3478 258.956 90.7826 257.391 89.9131C256.522 89.3913 255.304 89.2174 254.435 89.5652C253.391 89.9131 252.695 90.9565 252.869 92C253.217 92.1739 253.565 91.8261 253.565 91.4783L252.348 91.3044Z" fill="#E5F6FF"/>
<path d="M299.304 71.6521C298.435 72.3478 297.739 73.5651 297.739 74.6086C298.261 74.6086 298.782 74.6086 299.304 74.6086C299.826 74.4347 300.174 74.0869 300.348 73.5651C300.348 72.8695 299.652 72.3478 299.13 71.9999C299.304 71.9999 299.478 71.826 299.652 71.826L299.304 71.6521Z" fill="#E5F6FF"/>
<path d="M302.609 79.4782C302.435 79.826 302.261 80.1738 302.435 80.3477C302.435 80.6956 302.782 80.8695 302.956 81.0434C303.652 81.5651 304.174 82.2608 304.695 82.9564C304.869 81.5651 304.869 79.9999 305.043 78.6086C305.043 78.4347 305.043 78.4347 305.043 78.2608C305.217 77.913 305.739 77.913 306.087 77.739C306.609 77.3912 306.609 76.6956 306.435 76.1738C305.217 72.5216 303.478 77.913 302.609 79.4782Z" fill="#E5F6FF"/>
<path d="M295.652 64.6956C294.783 65.0434 294.087 65.739 293.913 66.4347C294.609 66.6086 295.304 66.7825 296 66.9564C296.348 66.9564 296.696 67.1303 297.044 66.9564C297.739 66.7825 297.913 65.9129 297.565 65.3912C297.217 64.8695 296.522 64.6956 295.652 64.6956Z" fill="#E5F6FF"/>
<path d="M293.565 75.9998C293.043 76.1738 292.87 77.0433 293.043 77.5651C293.217 78.0868 293.913 78.4346 294.435 78.4346C294.783 78.4346 294.957 78.4346 295.13 78.0868C295.13 77.9129 295.13 77.739 294.957 77.5651C294.609 77.0433 294.087 76.3477 293.739 75.8259L293.565 75.9998Z" fill="#E5F6FF"/>
<path d="M283.652 72.8696C283.304 73.3914 282.783 73.9131 282.609 74.4348C282.435 74.9566 282.609 75.8261 282.957 76.174C283.13 76.3479 283.478 76.5218 283.826 76.5218C284.696 76.5218 285.565 75.6522 285.565 74.6088C285.565 73.5653 284.522 72.8696 283.652 72.8696Z" fill="#E5F6FF"/>
<path d="M272.696 102.609C273.043 103.13 273.739 103.304 274.435 103.13C275.13 103.13 275.826 102.956 276.174 103.478C276.348 103.652 276.348 103.826 276.348 104C276.174 104.348 275.652 104.348 275.13 104.348C274.783 104.348 274.435 104.696 274.087 104.696C273.217 105.043 272.348 104.87 271.826 104.174C271.652 103.652 271.826 103.304 272.174 102.956C272.522 102.609 273.043 102.609 273.391 102.783L272.696 102.609Z" fill="#E5F6FF"/>
<path d="M282.956 114.435C283.304 114.957 284 115.13 284.695 114.957C285.391 114.957 286.087 114.783 286.435 115.304C286.609 115.478 286.609 115.652 286.609 115.826C286.435 116.174 285.913 116.174 285.391 116.174C285.043 116.174 284.695 116.522 284.348 116.522C283.478 116.87 282.609 116.696 282.087 116C281.913 115.478 282.087 115.13 282.435 114.783C282.782 114.435 283.304 114.435 283.652 114.609L282.956 114.435Z" fill="#E5F6FF"/>
<path d="M281.391 126.087C281.217 126.609 281.217 127.13 281.391 127.652V127.826C281.565 128 281.739 128 281.739 128C282.087 128 282.435 127.652 282.609 127.304C282.782 126.957 282.609 126.435 282.435 126.261C282.261 126.087 282.087 125.913 281.913 125.913C281.739 125.913 281.391 126.087 281.391 126.087C281.391 126.261 281.565 126.261 281.565 126.261L281.391 126.087Z" fill="#E5F6FF"/>
<path d="M283.826 51.3044C282.957 52.0001 282.261 53.2175 282.261 54.261C282.783 54.261 283.304 54.261 283.826 54.261C284.348 54.0871 284.696 53.7392 284.87 53.2175C284.87 52.5218 284.174 52.0001 283.652 51.6523C283.826 51.6523 284 51.4784 284.174 51.4784L283.826 51.3044Z" fill="#E5F6FF"/>
<path d="M294.782 52.0001C294.261 51.6523 293.217 52.174 293.217 52.8696C293.565 53.0436 293.913 53.2175 294.261 53.2175C294.609 53.2175 294.956 52.8697 295.13 52.5218C295.13 52.174 294.782 51.8262 294.435 51.8262L294.782 52.0001Z" fill="#E5F6FF"/>
<path d="M286.261 69.7391C285.739 69.3913 284.696 69.913 284.696 70.6087C285.043 70.7826 285.391 70.9565 285.739 70.9565C286.087 70.9565 286.435 70.6087 286.609 70.2608C286.609 69.913 286.261 69.5652 285.913 69.5652L286.261 69.7391Z" fill="#E5F6FF"/>
<path d="M289.565 50.4347C289.913 50.0869 289.739 49.5652 289.217 49.2174C288.87 49.0434 288.348 49.0434 287.826 48.8695C287.304 48.6956 286.956 48.3478 286.783 47.826C286.609 47.4782 286.609 47.3043 286.783 46.9565C286.956 46.7826 287.13 46.7826 287.304 46.7826C288.174 46.6087 289.217 46.4347 290.087 46.6087C290.957 46.7826 291.826 47.6521 291.826 48.5217C291.826 49.2174 291.652 49.913 290.957 50.2608C290.435 50.6087 289.739 50.6087 289.043 50.4347H289.565Z" fill="#E5F6FF"/>
<path d="M278.783 105.043C279.131 104.696 278.957 104.174 278.435 103.826C278.087 103.652 277.565 103.652 277.044 103.478C276.522 103.304 276.174 102.956 276 102.435C275.826 102.087 275.826 101.913 276 101.565C276.174 101.391 276.348 101.391 276.522 101.391C277.391 101.217 278.435 101.043 279.304 101.217C280.174 101.391 281.044 102.261 281.044 103.13C281.044 103.826 280.87 104.522 280.174 104.869C279.478 105.217 278.957 105.217 278.261 105.043H278.783Z" fill="#E5F6FF"/>
<path d="M272.522 104.87C272.87 104.522 272.696 104 272.174 103.652C271.826 103.478 271.304 103.478 270.783 103.304C270.261 103.13 269.913 102.783 269.739 102.261C269.565 101.913 269.565 101.739 269.739 101.391C269.913 101.217 270.087 101.217 270.261 101.217C271.13 101.043 272.174 100.87 273.043 101.043C273.913 101.217 274.783 102.087 274.783 102.957C274.783 103.652 274.609 104.348 273.913 104.696C273.391 105.043 272.696 105.043 272 104.87H272.522Z" fill="#E5F6FF"/>
<path d="M274.957 95.4782C275.304 95.1304 275.13 94.6086 274.609 94.2608C274.261 94.0869 273.739 94.0869 273.217 93.913C272.696 93.7391 272.348 93.3913 272.174 92.8695C272 92.5217 272 92.3478 272.174 91.9999C272.348 91.826 272.522 91.826 272.696 91.826C273.565 91.6521 274.609 91.4782 275.478 91.6521C276.348 91.826 277.217 92.6956 277.217 93.5652C277.217 94.2608 277.043 94.9565 276.348 95.3043C275.826 95.6521 275.13 95.6521 274.435 95.4782H274.957Z" fill="#E5F6FF"/>
<path d="M334.957 125.043C335.304 124.696 335.13 124.174 334.609 123.826C334.261 123.652 333.739 123.652 333.217 123.478C332.696 123.304 332.348 122.956 332.174 122.435C332 122.087 332 121.913 332.174 121.565C332.348 121.391 332.522 121.391 332.696 121.391C333.565 121.217 334.609 121.043 335.478 121.217C336.348 121.391 337.217 122.261 337.217 123.13C337.217 123.826 337.043 124.522 336.348 124.869C335.826 125.217 335.13 125.217 334.435 125.043H334.957Z" fill="#E5F6FF"/>
<path d="M295.131 58.7826C295.131 58.9565 294.957 59.3043 294.957 59.4782C295.304 59.6521 295.652 59.826 296.174 59.6521C296.522 59.4782 296.696 58.9565 296.522 58.7826C296.348 58.7826 296.174 58.6086 296.174 58.6086C295.652 58.6086 295.304 58.6086 294.783 58.6086L295.131 58.7826Z" fill="#E5F6FF"/>
<path d="M309.739 106.957C309.391 107.478 308.87 108 308.696 108.522C308.522 109.044 308.696 109.913 309.043 110.261C309.217 110.435 309.565 110.609 309.913 110.609C310.783 110.609 311.652 109.739 311.652 108.696C311.652 107.652 310.609 106.957 309.739 106.957Z" fill="#E5F6FF"/>
<path d="M277.043 65.7392C277.043 64.8696 278.261 64.174 278.957 64.8696C279.13 65.3914 279.13 65.9131 279.13 66.2609C278.609 66.2609 278.087 66.2609 277.565 65.9131L277.043 65.7392Z" fill="#E5F6FF"/>
<path opacity="0.5" d="M305.391 113.565C305.217 113.913 305.043 114.261 305.043 114.609C305.043 114.956 305.217 115.304 305.391 115.478C305.913 115.826 306.435 115.304 307.13 115.304C307.652 115.304 308.348 115.826 308.87 115.652C309.391 115.478 309.565 114.609 309.217 114.087C308.87 113.565 308.348 113.391 307.652 113.217C307.13 113.043 306.609 113.043 306.087 113.217C305.565 113.391 305.217 113.913 305.217 114.435L305.391 113.565Z" fill="#E5F6FF"/>
<path d="M281.565 91.8262C278.956 91.8262 276.522 93.0436 275.13 95.1305C276.348 97.3914 278.435 99.3044 280.87 99.4784C283.304 99.6523 286.087 97.7392 286.087 95.3044C286.087 92.8697 282.609 90.7827 280.87 92.5218L281.565 91.8262Z" fill="#E5F6FF"/>
<path d="M271.304 65.2175C271.652 65.2175 272 65.5654 272 65.9132C272 66.261 271.826 66.6088 271.478 66.7827C271.304 66.9567 271.13 66.9567 270.957 67.1306C270.435 67.3045 270.087 66.7827 269.913 66.4349C269.913 65.9132 270.261 65.5654 270.783 65.3914C271.304 65.3914 271.652 65.7393 271.826 66.0871L271.304 65.2175Z" fill="#E5F6FF"/>
<path d="M276.348 78.0869C276.87 78.6086 277.565 78.2608 278.087 78.0869C278.609 77.7391 279.304 77.5652 279.826 77.913C280 78.0869 280.174 78.0869 280.174 78.2608C280.174 78.7825 279.652 78.7826 279.13 78.9565C278.783 79.1304 278.609 79.4782 278.261 79.6521C277.565 80.1739 276.696 80.3478 275.826 79.9999C275.652 79.6521 275.478 79.1304 275.826 78.7825C276 78.4347 276.522 78.2608 277.043 78.2608L276.348 78.0869Z" fill="#E5F6FF"/>
<path d="M290.261 92.6957C290.261 92.8696 290.261 93.2174 290.261 93.3913C290.609 93.5652 291.13 93.5652 291.304 93.2174C291.478 92.8696 291.478 92.3479 291.13 92.1739C290.782 92 290.261 92.3479 290.261 92.6957Z" fill="#E5F6FF"/>
<path d="M284.696 80.0001C284.87 79.8262 285.217 79.6523 285.391 79.8262C285.565 80.0001 285.739 80.174 285.913 80.5218C285.913 80.6957 286.087 81.0436 286.087 81.2175C286.087 81.7392 285.565 81.9131 285.217 82.0871C284.696 82.0871 284.348 81.9131 284.174 81.3914C284 81.2175 284 81.0436 284 80.6958C284 80.5218 284.348 80.3479 284.522 80.3479L284.696 80.0001Z" fill="#E5F6FF"/>
<path d="M305.391 75.826C303.478 74.0869 300.696 73.3913 298.261 74.2608C297.739 76.6956 298.087 79.4782 299.826 81.3913C301.565 83.1304 304.87 83.4782 306.609 81.7391C308.348 79.826 306.957 76.1739 304.348 76.1739L305.391 75.826Z" fill="#E5F6FF"/>
<path d="M292 61.2172C291.478 61.7389 292.348 62.6085 293.044 62.6085C293.739 62.4346 294.261 61.7389 294.609 61.2172C293.739 60.5216 292.696 60.5215 291.826 61.0433L292 61.2172Z" fill="#E5F6FF"/>
<path d="M267.826 72.8698C267.826 73.0437 267.826 73.3915 267.826 73.5654C268.174 73.7393 268.696 73.7393 268.87 73.3915C269.044 73.0437 269.044 72.5219 268.696 72.348C268.522 72.0002 268 72.348 267.826 72.8698Z" fill="#E5F6FF"/>
<path d="M281.044 75.3044C280.174 77.9131 279.826 80.5218 280.174 83.1305C280.174 83.4783 280.348 84.0001 280.522 84.3479C281.044 85.0435 281.913 85.3914 282.783 85.3914C284.87 85.3914 286.783 83.8261 287.478 81.9131C288.174 80.0001 287.652 77.7392 286.435 76.174C285.739 75.3044 284.87 74.4348 283.652 74.4348C282.609 74.2609 281.218 74.9566 281.044 76.0001C281.218 76.3479 281.739 76.174 281.913 75.8261L281.044 75.3044Z" fill="#E5F6FF"/>
<path d="M321.739 92.0001C319.652 93.3914 318.435 96.0001 318.609 98.6088C320.87 99.6522 323.652 100 325.913 98.6088C328 97.2175 329.044 94.087 327.652 92.174C326.087 90.087 322.261 90.6088 321.739 93.2175V92.0001Z" fill="#E5F6FF"/>
<path d="M41.3913 324C39.3043 325.391 38.0869 328 38.2608 330.609C40.5217 331.652 43.3043 332 45.5652 330.609C47.6521 329.217 48.6956 326.087 47.3043 324.174C45.7391 322.087 41.913 322.609 41.3913 325.217V324Z" fill="#E5F6FF"/>
<path d="M285.391 122.609C284.522 123.304 283.826 124.522 283.826 125.565C284.348 125.565 284.87 125.565 285.391 125.565C285.913 125.391 286.261 125.043 286.435 124.522C286.435 123.826 285.739 123.304 285.217 122.956C285.391 122.956 285.565 122.783 285.739 122.783L285.391 122.609Z" fill="#E5F6FF"/>
<path d="M288.696 130.435C288.522 130.783 288.348 131.131 288.522 131.304C288.522 131.652 288.87 131.826 289.043 132C289.739 132.522 290.261 133.217 290.783 133.913C290.957 132.522 290.957 130.957 291.13 129.565C291.13 129.391 291.13 129.391 291.13 129.218C291.304 128.87 291.826 128.87 292.174 128.696C292.696 128.348 292.696 127.652 292.522 127.131C291.13 123.304 289.391 128.696 288.696 130.435Z" fill="#E5F6FF"/>
<path d="M275.478 80.8697C275.478 81.2175 275.304 81.7393 275.304 82.0871C276.174 82.0871 277.044 81.7393 277.391 80.8697C277.739 80.0001 276.87 78.9567 276.174 79.3045C275.652 79.4784 274.957 79.8262 274.783 79.3045L275.478 80.8697Z" fill="#E5F6FF"/>
<path d="M294.609 111.826C294.609 111.478 294.609 111.131 294.956 110.783C295.652 111.304 295.652 112.522 295.478 113.391C295.478 113.913 295.304 114.435 294.783 114.609C294.435 114.783 294.087 114.435 293.739 114.435C293.043 114.435 292.174 114.957 291.652 114.261C291.478 113.913 291.478 113.391 291.826 113.217C292.174 112.87 292.522 112.696 292.869 112.696C293.739 112.348 294.435 112 295.304 111.826H294.609Z" fill="#E5F6FF"/>
<path d="M308.522 111.478C308 112 308.87 112.869 309.565 112.869C310.261 112.696 310.783 112 311.13 111.478C310.261 110.783 309.217 110.783 308.348 111.304L308.522 111.478Z" fill="#E5F6FF"/>
<path opacity="0.5" d="M300.696 125.043C301.043 124.87 301.391 124.87 301.565 125.217C301.739 125.565 301.739 125.913 301.739 126.261C301.739 126.435 301.565 126.609 301.565 126.783C301.217 127.13 300.696 127.13 300.348 126.783C300 126.435 300 125.913 300.348 125.565C300.696 125.217 301.217 125.217 301.565 125.565L300.696 125.043Z" fill="#E5F6FF"/>
<path d="M296.348 123.305C295.826 122.957 294.783 123.478 294.783 124.174C295.131 124.348 295.478 124.522 295.826 124.522C296.174 124.522 296.522 124.174 296.696 123.826C296.696 123.478 296.348 123.131 296 123.131L296.348 123.305Z" fill="#E5F6FF"/>
<path d="M281.739 115.652C280.87 116 280.174 116.696 280 117.391C280.696 117.565 281.391 117.739 282.087 117.913C282.435 117.913 282.783 118.087 283.13 117.913C283.826 117.739 284 116.87 283.652 116.348C283.304 115.826 282.609 115.478 281.739 115.652Z" fill="#E5F6FF"/>
<path opacity="0.5" d="M309.913 120.522C310.261 120.174 310.956 120.174 311.304 120.348C311.826 120.522 312 121.217 312 121.565C312 121.913 311.652 122.261 311.304 122.261C311.13 122.261 311.13 122.087 310.956 121.913C310.609 121.391 310.087 120.87 309.739 120.522C309.739 120.522 309.913 120.522 309.913 120.522Z" fill="#E5F6FF"/>
<path opacity="0.5" d="M318.783 125.043C319.13 125.565 319.826 125.739 320.522 125.565C321.217 125.565 321.913 125.391 322.261 125.913C322.435 126.087 322.435 126.261 322.435 126.435C322.261 126.783 321.739 126.783 321.217 126.783C320.869 126.783 320.522 127.13 320.174 127.13C319.304 127.478 318.435 127.304 317.913 126.609C317.739 126.087 317.913 125.739 318.261 125.391C318.609 125.043 319.13 125.043 319.478 125.217L318.783 125.043Z" fill="#E5F6FF"/>
<path opacity="0.5" d="M266.609 100.522C266.957 101.043 267.652 101.217 268.348 101.043C269.043 101.043 269.739 100.87 270.087 101.391C270.261 101.565 270.261 101.739 270.261 101.913C270.087 102.261 269.565 102.261 269.043 102.261C268.696 102.261 268.348 102.609 268 102.609C267.13 102.957 266.261 102.783 265.739 102.087C265.565 101.565 265.739 101.217 266.087 100.87C266.435 100.522 266.957 100.522 267.304 100.696L266.609 100.522Z" fill="#E5F6FF"/>
<path opacity="0.5" d="M315.826 130.783C315.826 130.956 315.652 131.304 315.652 131.478C316 131.826 316.348 131.826 316.696 131.652C317.043 131.478 317.217 130.956 316.87 130.609C316.522 130.261 316 130.261 315.826 130.783Z" fill="#E5F6FF"/>
<path d="M291.304 121.739C291.652 121.391 291.478 120.87 290.957 120.522C290.609 120.348 290.087 120.348 289.565 120.174C289.044 120 288.696 119.652 288.522 119.13C288.348 118.783 288.348 118.609 288.522 118.261C288.696 118.087 288.87 118.087 289.044 118.087C289.913 117.913 290.957 117.739 291.826 117.913C292.696 118.087 293.565 118.957 293.565 119.826C293.565 120.522 293.391 121.217 292.696 121.565C292.174 121.913 291.478 121.913 290.783 121.739H291.304Z" fill="#E5F6FF"/>
<path d="M279.478 126.956C278.957 127.13 278.783 128 278.957 128.522C279.13 129.043 279.826 129.391 280.348 129.391C280.696 129.391 280.87 129.391 281.044 129.043C281.044 128.869 281.044 128.696 280.87 128.522C280.522 128 280 127.304 279.652 126.782L279.478 126.956Z" fill="#E5F6FF"/>
<path d="M302.435 103.13C303.652 102.783 304.869 104 304.696 105.217C303.826 105.391 302.783 105.391 301.913 105.044C301.043 104.696 300.522 103.478 301.043 102.783C301.565 102.609 302.087 102.609 302.609 102.435L302.435 103.13Z" fill="#E5F6FF"/>
<path opacity="0.5" d="M296.696 130.087C296.696 130.261 296.522 130.609 296.522 130.783C296.869 130.957 297.217 131.13 297.739 130.957C298.087 130.783 298.261 130.261 298.087 130.087C297.913 130.087 297.739 129.913 297.739 129.913C297.217 129.913 296.869 129.913 296.348 129.913L296.696 130.087Z" fill="#E5F6FF"/>
<path d="M282.609 64.1739C282.261 64.6956 281.739 65.2174 281.565 65.7391C281.391 66.2608 281.565 67.1304 281.913 67.4782C282.087 67.6521 282.435 67.826 282.783 67.826C283.652 67.826 284.522 66.9565 284.522 65.913C284.522 64.8695 283.652 64 282.609 64.1739Z" fill="#E5F6FF"/>
<path d="M311.13 88.1739C311.13 88.5217 310.957 89.0435 310.957 89.3913C311.304 89.5652 311.652 89.5652 312 89.5652C312.348 89.0435 312 88.1739 311.478 88L311.13 88.1739Z" fill="#E5F6FF"/>
<path d="M284.869 31.1303C285.217 30.9564 285.565 30.9564 285.739 31.3043C285.913 31.6521 285.913 31.9999 285.913 32.3477C285.913 32.5217 285.739 32.6956 285.739 32.8695C285.391 33.2173 284.869 33.2173 284.522 32.8695C284.174 32.5217 284.174 31.9999 284.522 31.6521C284.869 31.3043 285.391 31.3043 285.739 31.6521L284.869 31.1303Z" fill="#E5F6FF"/>
<path d="M303.826 95.6522C303.826 96 303.652 96.5217 303.652 96.8696C304 97.0435 304.348 97.0435 304.696 97.0435C305.043 96.5217 304.696 95.6522 304.174 95.4783L303.826 95.6522Z" fill="#E5F6FF"/>
<path d="M268.87 92.5217C268.348 92.6957 268.522 93.3913 268.87 93.7391C269.217 94.087 269.739 94.2609 270.087 94.4348C270.435 94.7826 270.783 95.1304 270.783 95.6522C270.783 96 270.783 96.1739 270.435 96.3478C270.261 96.5217 270.087 96.5217 269.913 96.5217C269.043 96.5217 268 96.3478 267.13 95.8261C266.261 95.3043 265.739 94.4348 265.913 93.3913C266.087 92.6957 266.609 92.1739 267.13 92C267.826 92 268.696 92.1739 268.87 92.5217Z" fill="#E5F6FF"/>
<path d="M287.478 75.1304C287.826 74.9564 288 74.6086 288.174 74.2608C288.348 73.913 288.348 73.5651 288 73.2173C287.652 72.8695 286.783 73.0434 286.261 73.0434C285.739 72.8695 285.217 72.1738 284.696 72.3477C284.174 72.3477 283.826 73.2173 284 73.7391C284.174 74.2608 284.696 74.6086 285.217 74.9564C285.739 75.3043 286.087 75.4782 286.609 75.4782C287.131 75.4782 287.652 75.1304 287.826 74.6086L287.478 75.1304Z" fill="#E5F6FF"/>
<path d="M284 102.435C284 100.348 283.652 98.0869 282.609 96.1738C282.435 95.826 282.261 95.4782 282.087 95.3043C281.565 94.7825 280.87 94.7825 280.174 95.1304C278.609 95.6521 277.565 97.2173 277.391 98.9564C277.391 100.696 278.261 102.261 279.652 103.13C280.348 103.652 281.391 104 282.261 103.826C283.13 103.652 284 102.956 284 101.913C283.826 101.739 283.304 101.913 283.304 102.261L284 102.435Z" fill="#E5F6FF"/>
<path d="M269.217 97.0434C268.869 97.0434 268.522 97.0434 268.348 97.2174C268.174 97.3913 268 97.7391 268 98.0869C267.826 98.9565 267.478 99.8261 267.13 100.522C268.522 99.8261 269.739 99.3043 271.13 98.6087C271.304 98.6087 271.304 98.4347 271.478 98.4347C271.826 98.4347 272 98.9565 272.348 99.1304C272.87 99.4782 273.565 98.9565 273.913 98.6087C276.522 95.826 270.956 97.0434 269.217 97.0434Z" fill="#E5F6FF"/>
<path d="M283.478 102.609C283.304 102.783 283.304 103.13 283.13 103.304C283.304 103.652 283.826 103.652 284.174 103.478C284.522 103.304 284.696 102.783 284.348 102.435C284.348 102.087 283.652 102.087 283.478 102.609Z" fill="#E5F6FF"/>
<path d="M271.826 103.478C271.304 103.13 270.609 103.304 270.261 103.826C269.913 104.348 269.913 105.044 270.261 105.565C270.435 105.739 270.609 106.087 270.783 105.913C270.957 105.913 271.13 105.739 271.13 105.565C271.478 104.87 271.652 104.174 272 103.478H271.826Z" fill="#E5F6FF"/>
<path d="M279.652 104.696C278.609 104.174 277.217 104.348 276.348 104.87C276.522 105.391 276.869 105.913 277.217 106.261C277.565 106.609 278.261 106.783 278.609 106.609C279.304 106.261 279.304 105.391 279.304 104.696C279.478 104.87 279.652 105.043 279.652 105.043V104.696Z" fill="#E5F6FF"/>
<path d="M283.826 108C284.174 107.826 284.522 107.652 284.869 107.652C284.696 108.522 283.826 109.043 282.956 109.391C282.435 109.565 281.913 109.739 281.565 109.391C281.391 109.217 281.391 108.696 281.217 108.348C280.869 107.652 280 107.13 280.348 106.609C280.522 106.261 281.043 106.087 281.391 106.087C281.739 106.087 282.087 106.435 282.435 106.609C283.13 107.13 283.826 107.652 284.522 108.348L283.826 108Z" fill="#E5F6FF"/>
<path d="M274.087 98.6088C273.391 98.0871 272.522 97.7392 271.652 97.9132C271.826 98.6088 272 99.3045 272.174 100C272.348 100.348 272.348 100.696 272.696 100.87C273.217 101.391 274.087 101.044 274.435 100.522C274.609 100.174 274.435 99.3045 274.087 98.6088Z" fill="#E5F6FF"/>
<path d="M273.391 109.913C273.913 110.087 274.261 109.565 274.261 109.044C274.261 108.522 273.913 108.174 273.913 107.652C273.913 107.13 273.913 106.609 274.261 106.261C274.435 106.087 274.783 105.913 274.957 105.913C275.13 105.913 275.304 106.087 275.478 106.261C276.174 106.957 276.696 107.652 277.044 108.522C277.217 109.391 277.043 110.609 276.348 111.13C275.826 111.478 275.13 111.652 274.435 111.304C273.739 111.13 273.391 110.435 273.391 109.913Z" fill="#E5F6FF"/>
<path d="M293.044 86.087C292.348 85.9131 291.826 85.9131 291.13 85.9131C290.435 86.087 289.913 86.4348 289.913 87.1305C289.913 87.4783 289.913 87.8261 290.087 88C290.609 88.8696 291.826 89.0435 292.522 88.5218C293.391 88.174 293.565 86.9566 293.044 86.087Z" fill="#E5F6FF"/>
<path d="M279.826 81.5653C278.783 81.0435 277.391 81.2174 276.522 81.7392C276.696 82.2609 277.043 82.7827 277.391 83.1305C277.739 83.4783 278.435 83.6522 278.783 83.4783C279.478 83.1305 279.478 82.2609 279.478 81.5653C279.652 81.7392 279.826 81.9131 279.826 81.9131V81.5653Z" fill="#E5F6FF"/>
<path d="M284.696 109.913C284.869 110.435 285.739 110.609 286.261 110.609C286.956 110.609 287.652 110.609 288 111.13C288.174 111.304 288.174 111.478 288.174 111.652C288 112 287.478 112 286.956 112C286.609 112 286.261 112.174 285.913 112.348C285.043 112.696 284.174 112.348 283.652 111.652C283.652 111.13 283.826 110.783 284.174 110.435C284.522 110.261 285.043 110.087 285.391 110.435L284.696 109.913Z" fill="#E5F6FF"/>
<path d="M300.174 63.4782C300.174 63.6521 300.348 63.9999 300.348 64.1739C300.695 64.3478 301.217 63.9999 301.391 63.6521C301.565 63.3043 301.391 62.7826 301.043 62.6086C300.522 62.6086 300 62.9565 300.174 63.4782Z" fill="#E5F6FF"/>
<path d="M278.783 95.1304C278.609 95.1304 278.261 95.3043 278.087 95.3043C278.087 95.6521 278.087 96.1739 278.435 96.3478C278.783 96.6956 279.304 96.5217 279.304 96.1739C279.304 95.9999 279.304 95.826 279.13 95.826C278.956 95.4782 278.609 94.9565 278.435 94.6086L278.783 95.1304Z" fill="#E5F6FF"/>
<path d="M63.652 285.913C65.0433 281.913 65.739 277.739 65.2173 273.565C65.2173 272.87 65.0433 272.174 64.6955 271.652C63.9999 270.435 62.6086 270.087 61.3912 269.913C58.2607 269.913 55.1303 272 53.9129 275.13C52.6955 278.087 53.3912 281.565 55.1303 284.348C56.1738 285.739 57.5651 286.957 59.3042 287.304C61.0433 287.652 62.9564 286.609 63.4781 285.044C63.1303 284.522 62.2607 284.696 62.0868 285.217L63.652 285.913Z" fill="white"/>
<path d="M57.7388 274.435C59.1301 273.565 60.1736 271.826 60.1736 270.087C58.6084 269.217 56.6954 269.043 55.304 269.739C53.7388 270.609 53.0432 272.696 53.9127 274.087C54.7823 275.478 57.5649 275.304 57.9127 273.739L57.7388 274.435Z" fill="white"/>
<path d="M59.9998 259.304C60.8694 259.304 61.5651 258.956 62.0868 258.435C61.9129 258.261 61.5651 257.913 61.2172 257.739C60.8694 257.565 60.5216 257.565 60.1737 257.913C59.8259 258.261 59.9998 258.782 60.1737 259.304C59.9998 259.304 59.9998 259.13 59.8259 259.13L59.9998 259.304Z" fill="white"/>
<path d="M60.1738 262.435C60.1738 262.608 60.1738 262.956 59.9999 263.13C59.4782 262.608 59.6521 261.913 59.6521 261.391C59.6521 261.043 59.826 260.695 60.1738 260.521C60.3477 260.521 60.6956 260.695 60.8695 260.695C61.3912 260.695 61.913 260.521 62.2608 260.869C62.4347 261.043 62.2608 261.391 62.0869 261.565C61.913 261.739 61.5651 261.913 61.3912 261.913C60.8695 262.087 60.1738 262.261 59.6521 262.435H60.1738Z" fill="white"/>
<path opacity="0.5" d="M61.9127 222.087C62.2605 221.739 61.7388 221.043 61.2171 221.217C60.6953 221.217 60.3475 221.739 60.1736 222.087C60.6953 222.609 61.5649 222.609 62.0866 222.261L61.9127 222.087Z" fill="white"/>
<path d="M44.1737 219.13C43.9998 219.304 43.652 219.13 43.4781 218.956C43.3042 218.782 43.3042 218.435 43.4781 218.261C43.4781 218.087 43.652 217.913 43.652 217.913C43.8259 217.739 44.3477 217.739 44.5216 217.913C44.6955 218.087 44.6955 218.609 44.3477 218.782C44.1737 218.956 43.652 218.956 43.4781 218.782L44.1737 219.13Z" fill="white"/>
<path d="M54.6084 254.087C54.7823 254.608 55.478 254.782 55.8258 254.261C55.8258 254.087 55.6519 253.739 55.478 253.565C55.304 253.391 54.9562 253.391 54.7823 253.565C54.6084 253.739 54.6084 254.087 54.9562 254.261L54.6084 254.087Z" fill="white"/>
<path d="M58.7823 264.522C59.3041 264.695 59.9997 264.695 60.5214 264.348C60.1736 264 59.9997 263.478 59.6519 263.13C59.478 262.956 59.3041 262.782 59.1301 262.609C58.7823 262.435 58.2606 262.782 58.0867 263.13C58.0867 263.652 58.4345 264.174 58.7823 264.522Z" fill="white"/>
<path opacity="0.5" d="M47.652 225.217C47.4781 225.043 47.4781 224.869 47.3042 224.869C46.9564 224.869 46.7825 225.043 46.7825 225.391C46.7825 225.739 46.9564 225.913 47.3042 225.913C47.652 225.913 47.826 225.391 47.652 225.217Z" fill="white"/>
<path d="M56.5215 257.043C56.1737 257.043 55.9998 257.565 56.1737 257.739C56.3476 257.913 56.5215 258.261 56.6954 258.608C56.8693 258.956 56.8693 259.304 56.6954 259.652C56.6954 259.826 56.5215 260 56.3476 260C56.1737 260 56.1737 260 55.9998 260C55.478 259.652 54.7824 259.304 54.4346 258.782C54.0867 258.261 53.9128 257.565 54.2606 257.043C54.4346 256.695 54.9563 256.521 55.478 256.521C56.1737 256.521 56.5215 256.695 56.5215 257.043Z" fill="white"/>
<path d="M64.8695 259.478C65.2173 259.652 65.739 259.304 65.739 258.956C65.913 258.609 65.739 258.087 65.3912 257.913C65.2173 257.739 65.0434 257.739 64.8695 257.739C64.6956 257.739 64.6956 257.913 64.6956 258.087C64.8695 258.609 64.8695 259.13 64.8695 259.478Z" fill="white"/>
<path d="M63.8259 240.521C62.9563 240.695 62.0868 239.826 62.2607 239.13C62.9563 239.13 63.652 239.13 64.1737 239.304C64.6955 239.652 65.0433 240.521 64.6954 240.869C64.3476 240.869 63.9998 241.043 63.652 241.043L63.8259 240.521Z" fill="white"/>
<path d="M58.9562 304.696C58.9562 304.87 58.7823 305.043 58.6084 305.043C58.4344 305.043 58.2605 304.87 58.0866 304.87C57.9127 304.696 57.9127 304.696 57.7388 304.522C57.5649 304.174 57.7388 303.826 57.9127 303.652C58.0866 303.478 58.4344 303.478 58.7823 303.652C58.9562 303.652 58.9562 303.826 59.1301 304C59.1301 304.174 59.1301 304.348 58.9562 304.348V304.696Z" fill="white"/>
<path d="M57.391 250.435C57.5649 250.261 57.7388 250.261 57.9127 250.087C57.7388 249.913 57.7388 249.565 57.391 249.391C57.2171 249.217 56.6953 249.565 56.8692 249.739C56.8692 249.913 57.0431 249.913 57.0431 249.913C57.2171 250.087 57.5649 250.435 57.7388 250.609L57.391 250.435Z" fill="white"/>
<path d="M56.1737 241.217C56.5215 240.869 56.6954 240.522 56.8693 240.174C57.0433 239.826 57.0433 239.304 56.6954 238.956C56.5215 238.782 56.3476 238.782 56.1737 238.782C55.478 238.782 54.9563 239.304 54.9563 240C54.9563 240.522 55.478 241.217 56.1737 241.217Z" fill="white"/>
<path d="M59.1301 237.913C59.1301 237.565 59.3041 237.391 59.3041 237.043C59.1301 236.869 58.9562 236.869 58.6084 236.869C58.4345 237.217 58.4345 237.739 58.9562 237.913H59.1301Z" fill="white"/>
<path d="M79.1304 257.043C78.9565 255.304 78.4347 253.739 77.5652 252.348C77.3913 252.174 77.2173 251.826 77.0434 251.652C76.6956 251.304 76 251.478 75.4782 251.652C74.2608 252.174 73.5652 253.565 73.7391 254.782C73.7391 256 74.6087 257.217 75.6521 257.913C76.1739 258.261 77.0434 258.435 77.7391 258.261C78.4347 258.087 78.9565 257.391 78.9565 256.695C78.7826 256.522 78.4347 256.695 78.4347 257.043H79.1304Z" fill="white"/>
<path d="M46.2605 268.521C46.9562 268 47.304 267.304 47.4779 266.434C47.1301 266.434 46.7823 266.261 46.4344 266.434C46.0866 266.608 45.7388 266.782 45.7388 267.13C45.7388 267.652 46.0866 268 46.6083 268.348C46.4344 268.348 46.2605 268.348 46.2605 268.348V268.521Z" fill="white"/>
<path d="M44.3477 263.13C44.5216 262.956 44.5216 262.782 44.5216 262.435C44.5216 262.261 44.3477 262.087 44.1738 261.913C43.826 261.391 43.4781 261.043 43.1303 260.521C42.9564 261.565 42.7825 262.435 42.7825 263.478V263.652C42.6086 263.826 42.2608 263.826 42.0868 264C41.739 264.174 41.739 264.695 41.739 265.043C42.4347 267.826 43.826 264.174 44.3477 263.13Z" fill="white"/>
<path d="M48.5214 273.565C49.0431 273.391 49.5649 273.043 49.9127 272.348C49.3909 272.174 49.0431 272 48.5214 271.826C48.3475 271.826 47.9996 271.652 47.8257 271.652C47.304 271.826 47.1301 272.348 47.304 272.696C47.4779 273.391 47.9996 273.565 48.5214 273.565Z" fill="white"/>
<path d="M49.2172 302.956C49.0433 302.782 49.0433 302.608 48.8694 302.608C48.5216 302.608 48.3477 302.782 48.3477 303.13C48.3477 303.478 48.5216 303.652 48.8694 303.652C49.2172 303.652 49.3911 303.304 49.2172 302.956Z" fill="white"/>
<path d="M50.4346 265.913C50.7824 265.739 50.9563 265.217 50.7824 264.869C50.6085 264.522 50.2607 264.174 49.9129 264.174C49.7389 264.174 49.565 264.174 49.3911 264.348C49.3911 264.522 49.3911 264.522 49.565 264.696C49.9129 265.217 50.0868 265.565 50.4346 265.913Z" fill="white"/>
<path d="M57.0433 268.521C57.3912 268.174 57.5651 267.826 57.739 267.478C57.9129 267.13 57.9129 266.608 57.5651 266.261C57.3911 266.087 57.2172 266.087 57.0433 266.087C56.3477 266.087 55.8259 266.608 55.8259 267.304C55.8259 267.826 56.3477 268.348 57.0433 268.521Z" fill="white"/>
<path d="M65.565 248.522C65.3911 248.174 64.8693 248 64.5215 248C64.1737 248 63.6519 248 63.3041 247.652C63.3041 247.478 63.1302 247.478 63.3041 247.304C63.478 246.956 63.8258 247.13 64.1737 247.13C64.3476 247.13 64.6954 246.956 64.8693 246.956C65.3911 246.782 66.0867 246.956 66.4345 247.478C66.4345 247.826 66.4345 248.174 66.0867 248.348C65.9128 248.522 65.3911 248.522 65.2171 248.348L65.565 248.522Z" fill="white"/>
<path d="M59.1302 240C58.9562 239.652 58.4345 239.478 58.0867 239.478C57.7389 239.478 57.2171 239.478 56.8693 239.13C56.8693 238.956 56.6954 238.956 56.8693 238.782C57.0432 238.435 57.391 238.609 57.7389 238.609C57.9128 238.609 58.2606 238.435 58.4345 238.435C58.9562 238.261 59.6519 238.435 59.9997 238.956C59.9997 239.304 59.9997 239.652 59.6519 239.826C59.478 240 58.9562 240 58.7823 239.826L59.1302 240Z" fill="white"/>
<path d="M60.6954 232.174C60.8693 231.826 60.8693 231.478 60.8693 231.13V230.956C60.8693 230.782 60.6954 230.782 60.5215 230.782C60.1737 230.782 59.9998 230.956 59.9998 231.304C59.8259 231.478 59.9998 231.826 60.1737 232C60.3476 232.174 60.3476 232.174 60.5215 232.174C60.5215 232.348 60.6954 232.348 60.6954 232.174C60.6954 232.174 60.5215 232.174 60.6954 232.174Z" fill="white"/>
<path d="M56.1738 283.13C56.8695 282.609 57.2173 281.913 57.3912 281.043C57.0434 281.043 56.6956 280.869 56.3478 281.043C55.9999 281.217 55.6521 281.391 55.6521 281.739C55.6521 282.261 55.9999 282.609 56.5217 282.956C56.3478 282.956 56.1738 282.956 56.1738 282.956V283.13Z" fill="white"/>
<path d="M48.6954 282.087C49.0432 282.435 49.7389 282.087 49.7389 281.565C49.565 281.391 49.2171 281.217 49.0432 281.217C48.8693 281.217 48.5215 281.391 48.5215 281.739C48.5215 281.913 48.6954 282.261 49.0432 282.261L48.6954 282.087Z" fill="white"/>
<path d="M55.1302 270.435C55.478 270.782 56.1737 270.435 56.1737 269.913C55.9998 269.739 55.6519 269.565 55.478 269.565C55.3041 269.565 54.9563 269.739 54.9563 270.087C54.9563 270.261 55.1302 270.608 55.478 270.608L55.1302 270.435Z" fill="white"/>
<path d="M52.1737 283.478C51.8259 283.652 51.9998 284.174 52.3476 284.348C52.6954 284.522 53.0433 284.522 53.2172 284.696C53.565 284.869 53.7389 285.043 53.9128 285.391C53.9128 285.565 53.9128 285.739 53.9128 285.913C53.7389 286.087 53.7389 286.087 53.565 286.087C52.8694 286.261 52.3476 286.261 51.652 286.087C50.9563 285.913 50.4346 285.391 50.4346 284.696C50.4346 284.174 50.6085 283.826 50.9563 283.652C51.3041 283.304 51.8259 283.13 52.1737 283.478Z" fill="white"/>
<path d="M61.5651 246.609C61.2172 246.783 61.3911 247.304 61.739 247.478C62.0868 247.652 62.4346 247.652 62.6085 247.826C62.9564 248 63.1303 248.174 63.3042 248.522C63.3042 248.696 63.3042 248.869 63.3042 249.043C63.1303 249.217 63.1303 249.217 62.9564 249.217C62.2607 249.391 61.739 249.391 61.0433 249.217C60.3477 249.043 59.8259 248.522 59.8259 247.826C59.8259 247.304 59.9998 246.956 60.3477 246.783C60.8694 246.435 61.3911 246.435 61.5651 246.609Z" fill="white"/>
<path d="M65.913 247.13C65.5651 247.304 65.739 247.826 66.0869 248C66.4347 248.174 66.7825 248.174 66.9564 248.348C67.3043 248.522 67.4782 248.696 67.6521 249.043C67.6521 249.217 67.6521 249.391 67.6521 249.565C67.4782 249.739 67.4782 249.739 67.3043 249.739C66.6086 249.913 66.0869 249.913 65.3912 249.739C64.6956 249.565 64.1738 249.043 64.1738 248.348C64.1738 247.826 64.3477 247.478 64.6956 247.304C65.0434 246.956 65.5651 246.956 65.913 247.13Z" fill="white"/>
<path d="M63.8258 253.391C63.478 253.565 63.6519 254.087 63.9997 254.261C64.3475 254.435 64.6954 254.435 64.8693 254.609C65.2171 254.783 65.391 254.957 65.5649 255.304C65.5649 255.478 65.5649 255.652 65.5649 255.826C65.391 256 65.391 256 65.2171 256C64.5215 256.174 63.9997 256.174 63.3041 256C62.6084 255.826 62.0867 255.304 62.0867 254.609C62.0867 254.087 62.2606 253.739 62.6084 253.565C63.1301 253.044 63.6519 253.044 63.8258 253.391Z" fill="white"/>
<path d="M24.1737 230.782C23.8259 230.956 23.9998 231.478 24.3476 231.652C24.6954 231.826 25.0433 231.826 25.2172 232C25.565 232.174 25.7389 232.348 25.9128 232.696C25.9128 232.869 25.9128 233.043 25.9128 233.217C25.7389 233.391 25.7389 233.391 25.565 233.391C24.8694 233.565 24.3476 233.565 23.652 233.391C22.9563 233.217 22.4346 232.695 22.4346 232C22.4346 231.478 22.6085 231.13 22.9563 230.956C23.3041 230.609 23.8259 230.609 24.1737 230.782Z" fill="white"/>
<path d="M48.6954 277.565C48.6954 277.391 48.8693 277.217 48.8693 277.044C48.6954 276.87 48.3476 276.87 48.1737 276.87C47.9998 276.87 47.8259 277.391 47.9998 277.565C47.9998 277.565 48.1737 277.565 48.3476 277.565C48.6954 277.565 49.0432 277.565 49.3911 277.739L48.6954 277.565Z" fill="white"/>
<path d="M40.5216 244.174C40.8694 243.826 41.0433 243.478 41.2172 243.13C41.3912 242.782 41.3912 242.261 41.0433 241.913C40.8694 241.739 40.6955 241.739 40.5216 241.739C39.8259 241.739 39.3042 242.261 39.3042 242.956C39.3042 243.652 39.9999 244.174 40.5216 244.174Z" fill="white"/>
<path d="M61.2172 273.565C61.2172 274.261 60.3477 274.608 59.8259 274.087C59.8259 273.739 59.8259 273.391 59.8259 273.043C60.1738 273.043 60.5216 273.217 60.8694 273.391L61.2172 273.565Z" fill="white"/>
<path opacity="0.5" d="M43.8258 239.826C43.9997 239.652 44.1736 239.478 44.1736 239.13C44.1736 238.956 44.1736 238.609 43.9997 238.435C43.6519 238.261 43.3041 238.609 42.7823 238.609C42.4345 238.609 42.0867 238.261 41.5649 238.435C41.2171 238.609 41.0432 239.13 41.391 239.478C41.5649 239.826 42.0867 240 42.4345 240.174C42.7823 240.348 43.1301 240.348 43.478 240.348C43.8258 240.348 44.1736 240 44.1736 239.652L43.8258 239.826Z" fill="white"/>
<path d="M59.3042 255.652C61.0433 255.826 62.7825 254.956 63.826 253.565C63.1303 252 61.739 250.608 59.9999 250.434C58.2607 250.087 56.3477 251.304 56.1738 253.043C55.9999 254.782 58.2607 256.174 59.652 255.13L59.3042 255.652Z" fill="white"/>
<path d="M65.2172 274.087C65.0433 274.087 64.8694 273.913 64.8694 273.565C64.8694 273.391 65.0433 273.043 65.2172 273.043C65.3911 273.043 65.3911 272.869 65.565 272.869C65.9129 272.869 66.2607 273.043 66.2607 273.391C66.2607 273.739 65.9129 274.087 65.739 274.087C65.3911 274.087 65.0433 273.913 65.0433 273.565L65.2172 274.087Z" fill="white"/>
<path d="M62.2606 265.217C61.9127 264.869 61.391 265.043 61.0432 265.217C60.6953 265.391 60.1736 265.565 59.8258 265.217C59.6519 265.217 59.6519 265.043 59.6519 264.869C59.6519 264.522 59.9997 264.522 60.3475 264.348C60.5214 264.174 60.6953 264 60.8692 263.826C61.391 263.478 62.0866 263.478 62.4345 263.652C62.6084 264 62.6084 264.348 62.4345 264.522C62.2606 264.696 61.9127 264.869 61.5649 264.869L62.2606 265.217Z" fill="white"/>
<path d="M53.2172 254.609C53.2172 254.435 53.2172 254.261 53.2172 254.087C53.0433 253.913 52.6955 253.913 52.5215 254.261C52.3476 254.435 52.3476 254.783 52.5215 254.956C52.8694 255.13 53.2172 254.956 53.2172 254.609Z" fill="white"/>
<path d="M56.6955 263.478C56.6955 263.652 56.3477 263.652 56.1738 263.652C55.9998 263.478 55.9998 263.304 55.8259 263.13C55.8259 262.956 55.8259 262.783 55.8259 262.609C55.8259 262.261 56.1738 262.087 56.5216 262.087C56.8694 262.087 57.0433 262.261 57.2172 262.609C57.2172 262.783 57.3912 262.956 57.2172 262.956C57.2172 263.13 57.0433 263.13 56.8694 263.13L56.6955 263.478Z" fill="white"/>
<path d="M42.4344 265.565C43.6518 266.782 45.5648 267.304 47.1301 266.956C47.6518 265.391 47.4779 263.304 46.4344 262.087C45.3909 260.696 43.13 260.348 41.9127 261.565C40.6953 262.782 41.3909 265.391 43.13 265.391L42.4344 265.565Z" fill="white"/>
<path d="M50.9562 276C51.304 275.652 50.7823 274.956 50.2605 275.13C49.7388 275.13 49.391 275.652 49.217 276C49.7388 276.522 50.6083 276.522 51.1301 276.174L50.9562 276Z" fill="white"/>
<path d="M67.8258 269.043C67.8258 268.87 67.8258 268.696 67.8258 268.522C67.6519 268.348 67.3041 268.348 67.1302 268.696C66.9563 268.87 66.9563 269.217 67.1302 269.391C67.3041 269.565 67.6519 269.391 67.8258 269.043Z" fill="white"/>
<path d="M58.9563 266.782C59.652 265.043 59.9998 263.304 59.8259 261.391C59.8259 261.043 59.8259 260.869 59.652 260.522C59.3041 260 58.7824 259.826 58.2607 259.826C56.8694 259.826 55.4781 260.696 54.9563 261.913C54.4346 263.13 54.6085 264.695 55.4781 265.913C55.8259 266.609 56.5215 267.13 57.2172 267.304C57.9128 267.478 58.7824 267.13 59.1302 266.435C58.9563 266.261 58.6085 266.261 58.6085 266.435L58.9563 266.782Z" fill="white"/>
<path d="M31.826 253.913C33.2173 253.043 34.2608 251.304 34.2608 249.565C32.6956 248.695 30.7825 248.521 29.3912 249.217C27.826 250.087 27.1303 252.174 27.9999 253.565C28.8695 254.956 31.6521 254.782 31.9999 253.217L31.826 253.913Z" fill="white"/>
<path d="M57.739 234.435C58.4347 233.913 58.7825 233.217 58.9564 232.348C58.6086 232.348 58.2608 232.174 57.9129 232.348C57.5651 232.522 57.2173 232.696 57.2173 233.043C57.2173 233.565 57.5651 233.913 58.0868 234.261C57.9129 234.261 57.739 234.261 57.739 234.261V234.435Z" fill="white"/>
<path d="M55.8257 229.044C55.9996 228.87 55.9996 228.696 55.9996 228.348C55.9996 228.174 55.8257 228 55.6518 227.826C55.304 227.304 54.9562 226.957 54.6083 226.435C54.4344 227.478 54.2605 228.348 54.2605 229.391V229.565C54.0866 229.739 53.7388 229.739 53.5649 229.913C53.217 230.087 53.217 230.609 53.217 230.957C53.9127 233.739 55.304 230.087 55.8257 229.044Z" fill="white"/>
<path d="M62.9563 263.304C62.9563 262.956 63.1302 262.782 63.1302 262.435C62.6085 262.435 61.9128 262.609 61.7389 263.13C61.565 263.652 61.9128 264.348 62.6085 264.348C62.9563 264.348 63.478 264 63.478 264.348L62.9563 263.304Z" fill="white"/>
<path d="M51.1304 241.565C51.1304 241.739 51.1304 242.087 50.9565 242.261C50.4347 241.739 50.6086 241.043 50.6086 240.522C50.6086 240.174 50.7825 239.826 51.1304 239.652C51.3043 239.652 51.6521 239.826 51.826 239.826C52.3478 239.826 52.8695 239.652 53.2173 240C53.3912 240.174 53.2173 240.522 53.0434 240.696C52.8695 240.869 52.5217 241.043 52.3478 241.043C51.826 241.217 51.1304 241.391 50.6086 241.565H51.1304Z" fill="white"/>
<path d="M41.5651 241.217C41.9129 240.87 41.3911 240.174 40.8694 240.348C40.3477 240.348 39.9998 240.87 39.8259 241.217C40.3477 241.739 41.2172 241.739 41.739 241.391L41.5651 241.217Z" fill="white"/>
<path opacity="0.5" d="M47.4782 232.174C47.3043 232.348 46.9564 232.174 46.7825 232C46.6086 231.826 46.6086 231.478 46.7825 231.304C46.7825 231.13 46.9564 230.956 46.9564 230.956C47.1304 230.782 47.6521 230.782 47.826 230.956C47.9999 231.13 47.9999 231.652 47.6521 231.826C47.4782 232 46.9564 232 46.7825 231.826L47.4782 232.174Z" fill="white"/>
<path d="M50.4347 233.565C50.7825 233.913 51.4781 233.565 51.4781 233.043C51.3042 232.869 50.9564 232.696 50.7825 232.696C50.6086 232.696 50.2607 232.869 50.2607 233.217C50.2607 233.391 50.4347 233.739 50.7825 233.739L50.4347 233.565Z" fill="white"/>
<path d="M59.9999 239.478C60.5216 239.304 61.0434 238.956 61.3912 238.261C60.8695 238.087 60.5216 237.913 59.9999 237.739C59.826 237.739 59.4782 237.565 59.3042 237.565C58.7825 237.739 58.6086 238.261 58.7825 238.609C58.9564 239.304 59.4782 239.478 59.9999 239.478Z" fill="white"/>
<path opacity="0.5" d="M41.0433 234.956C40.6954 235.13 40.3476 235.13 39.9998 234.956C39.652 234.783 39.4781 234.435 39.652 234.087C39.652 233.913 39.8259 233.565 40.1737 233.739C40.3476 233.739 40.3476 233.913 40.3476 233.913C40.6954 234.261 40.8694 234.609 41.0433 234.956Z" fill="white"/>
<path opacity="0.5" d="M35.1302 231.478C34.9562 231.13 34.4345 230.956 34.0867 230.956C33.7389 230.956 33.2171 230.956 32.8693 230.609C32.8693 230.435 32.6954 230.435 32.8693 230.261C33.0432 229.913 33.391 230.087 33.7389 230.087C33.9128 230.087 34.2606 229.913 34.4345 229.913C34.9562 229.739 35.6519 229.913 35.9997 230.435C35.9997 230.782 35.9997 231.13 35.6519 231.304C35.478 231.478 34.9562 231.478 34.7823 231.304L35.1302 231.478Z" fill="white"/>
<path opacity="0.5" d="M69.7388 250.261C69.5649 249.913 69.0432 249.739 68.6953 249.739C68.3475 249.739 67.8258 249.739 67.4779 249.391C67.4779 249.217 67.304 249.217 67.4779 249.043C67.6518 248.696 67.9997 248.87 68.3475 248.87C68.5214 248.87 68.8692 248.696 69.0432 248.696C69.5649 248.522 70.2605 248.696 70.6084 249.217C70.6084 249.565 70.6084 249.913 70.2605 250.087C70.0866 250.261 69.5649 250.261 69.391 250.087L69.7388 250.261Z" fill="white"/>
<path opacity="0.5" d="M37.3912 227.826C37.3912 227.652 37.5651 227.478 37.5651 227.304C37.3912 227.13 37.0434 226.956 36.8695 227.13C36.6956 227.304 36.5217 227.652 36.6956 227.826C36.8695 228.174 37.2173 228 37.3912 227.826Z" fill="white"/>
<path d="M53.7389 234.782C53.3911 234.956 53.565 235.478 53.9128 235.652C54.2606 235.826 54.6085 235.826 54.7824 236C55.1302 236.174 55.3041 236.348 55.478 236.695C55.478 236.869 55.478 237.043 55.478 237.217C55.3041 237.391 55.3041 237.391 55.1302 237.391C54.4345 237.565 53.9128 237.565 53.2171 237.391C52.5215 237.217 51.9998 236.695 51.9998 236C51.9998 235.478 52.1737 235.13 52.5215 234.956C53.0432 234.609 53.565 234.609 53.7389 234.782Z" fill="white"/>
<path d="M61.9129 231.826C62.2607 231.652 62.4346 231.13 62.2607 230.782C62.0868 230.434 61.7389 230.087 61.3911 230.087C61.2172 230.087 61.0433 230.087 60.8694 230.261C60.8694 230.434 60.8694 230.435 61.0433 230.608C61.3911 231.13 61.565 231.478 61.9129 231.826Z" fill="white"/>
<path d="M45.5651 247.13C44.6956 247.304 43.826 246.435 43.9999 245.739C44.6956 245.739 45.3912 245.739 45.913 245.913C46.4347 246.261 46.7825 247.13 46.4347 247.478C46.0869 247.478 45.7391 247.652 45.3912 247.652L45.5651 247.13Z" fill="white"/>
<path opacity="0.5" d="M50.4347 229.043C50.4347 228.869 50.6086 228.695 50.6086 228.522C50.4347 228.348 50.0869 228.348 49.9129 228.348C49.739 228.348 49.5651 228.869 49.739 229.043C49.739 229.043 49.9129 229.043 50.0869 229.043C50.4347 229.043 50.7825 229.043 51.1303 229.217L50.4347 229.043Z" fill="white"/>
<path d="M57.391 274.435C57.7388 274.087 57.9127 273.739 58.0866 273.391C58.2605 273.043 58.2605 272.522 57.9127 272.174C57.7388 272 57.5649 272 57.391 272C56.6953 272 56.1736 272.522 56.1736 273.217C56.1736 273.913 56.6953 274.435 57.391 274.435Z" fill="white"/>
<path d="M38.9563 256.869C38.9563 256.522 39.1302 256.348 39.1302 256C38.9563 255.826 38.7824 255.826 38.4346 255.826C38.2607 256.174 38.2607 256.695 38.7824 256.869H38.9563Z" fill="white"/>
<path d="M54.6083 296.869C54.4344 297.043 54.0866 296.869 53.9127 296.695C53.7387 296.521 53.7387 296.174 53.9127 296C53.9127 295.826 54.0866 295.652 54.0866 295.652C54.2605 295.478 54.7822 295.478 54.9561 295.652C55.1301 295.826 55.1301 296.348 54.7822 296.521C54.6083 296.695 54.0866 296.695 53.9127 296.521L54.6083 296.869Z" fill="white"/>
<path d="M44.1736 252C44.1736 251.652 44.3475 251.478 44.3475 251.13C44.1736 250.956 43.9997 250.956 43.6519 250.956C43.478 251.304 43.478 251.826 43.9997 252H44.1736Z" fill="white"/>
<path d="M67.8258 255.652C68.1736 255.478 68.1736 255.13 67.8258 254.782C67.6519 254.609 67.3041 254.435 66.9562 254.261C66.7823 254.087 66.6084 253.739 66.6084 253.391C66.6084 253.217 66.6084 253.043 66.7823 252.869C66.9562 252.869 66.9562 252.869 67.1301 252.869C67.8258 252.869 68.3475 253.043 68.8693 253.391C69.391 253.739 69.7388 254.435 69.5649 255.13C69.391 255.478 69.0432 256 68.6954 256C68.5214 256 67.9997 255.826 67.8258 255.652Z" fill="white"/>
<path d="M54.6085 266.783C54.4346 266.956 54.2606 267.13 54.0867 267.304C53.9128 267.478 53.9128 267.826 54.0867 268C54.4346 268.348 54.7824 268.174 55.3041 268.174C55.6519 268.348 55.9998 268.696 56.3476 268.696C56.6954 268.696 57.0433 268.174 56.8693 267.826C56.6954 267.478 56.3476 267.13 56.1737 266.956C55.8259 266.783 55.478 266.609 55.1302 266.609C54.7824 266.609 54.4346 266.783 54.2606 267.13L54.6085 266.783Z" fill="white"/>
<path d="M57.9129 248.348C57.739 249.739 58.0868 251.304 58.6086 252.695C58.7825 252.869 58.7825 253.217 58.9564 253.391C59.3042 253.739 59.826 253.739 60.3477 253.565C61.3912 253.217 62.2607 252.174 62.4347 251.13C62.6086 250.087 61.9129 248.869 61.0433 248.174C60.5216 247.826 59.9999 247.478 59.3042 247.478C58.6086 247.478 58.0868 248 58.0868 248.695C58.2607 248.869 58.4347 248.695 58.6086 248.521L57.9129 248.348Z" fill="white"/>
<path d="M67.8258 252.522C67.9997 252.522 68.3476 252.522 68.5215 252.348C68.6954 252.174 68.6954 252 68.8693 251.826C69.0432 251.304 69.2171 250.782 69.565 250.261C68.6954 250.609 67.6519 250.956 66.7823 251.304H66.6084C66.2606 251.304 66.2606 250.956 65.9128 250.782C65.565 250.609 65.2171 250.782 64.8693 251.13C62.7823 253.043 66.6084 252.522 67.8258 252.522Z" fill="white"/>
<path d="M58.2609 248.174C58.2609 248 58.4348 247.826 58.4348 247.652C58.2608 247.478 57.913 247.304 57.7391 247.478C57.5652 247.652 57.3913 248 57.5652 248.174C57.7391 248.521 58.0869 248.521 58.2609 248.174Z" fill="white"/>
<path d="M66.2607 248C66.6086 248.348 67.1303 248.174 67.3042 247.826C67.4781 247.478 67.6521 247.13 67.4781 246.609C67.4781 246.435 67.3042 246.261 67.1303 246.261C66.9564 246.261 66.9564 246.435 66.9564 246.435C66.6086 247.13 66.4347 247.652 66.2607 248Z" fill="white"/>
<path d="M61.0433 246.956C61.7389 247.304 62.6085 247.304 63.3042 246.956C63.1303 246.609 62.9563 246.261 62.7824 246.087C62.6085 245.913 62.0868 245.739 61.739 245.913C61.2172 246.087 61.2172 246.609 61.2172 247.13C61.0433 246.956 61.0433 246.956 60.8694 246.782L61.0433 246.956Z" fill="white"/>
<path d="M58.2606 244.522C58.0867 244.696 57.7389 244.695 57.5649 244.695C57.7389 244.174 58.4345 243.826 58.9563 243.478C59.3041 243.304 59.6519 243.304 59.9997 243.478C60.1736 243.652 60.1736 244 60.1736 244.174C60.3476 244.695 60.8693 245.043 60.6954 245.391C60.5215 245.565 60.1736 245.739 59.9997 245.739C59.6519 245.739 59.478 245.391 59.3041 245.217C58.7823 244.869 58.4345 244.348 57.9128 244L58.2606 244.522Z" fill="white"/>
<path d="M64.5216 251.13C64.8694 251.478 65.5651 251.826 66.2607 251.652C66.0868 251.13 66.0868 250.609 65.9129 250.261C65.9129 250.087 65.739 249.739 65.5651 249.565C65.2172 249.217 64.6955 249.391 64.3477 249.739C64.1738 250.261 64.3477 250.782 64.5216 251.13Z" fill="white"/>
<path d="M65.3909 243.478C65.0431 243.304 64.8692 243.652 64.6953 244C64.6953 244.348 64.8692 244.696 64.8692 244.869C64.8692 245.217 64.8692 245.565 64.5213 245.739C64.3474 245.913 64.1735 245.913 63.9996 245.913C63.8257 245.913 63.8257 245.739 63.6518 245.739C63.13 245.217 62.7822 244.696 62.7822 244C62.6083 243.304 62.7822 242.609 63.4779 242.261C63.8257 242.087 64.3474 242.087 64.6953 242.261C65.217 242.783 65.5648 243.13 65.3909 243.478Z" fill="white"/>
<path d="M51.13 258.956C51.4779 259.13 51.9996 259.13 52.3474 259.13C52.6952 259.13 53.217 258.782 53.217 258.435C53.217 258.261 53.217 258.087 53.0431 257.739C52.6952 257.217 51.9996 256.869 51.3039 257.217C51.13 257.739 50.7822 258.435 51.13 258.956Z" fill="white"/>
<path d="M59.9998 262.608C60.6955 262.956 61.5651 262.956 62.2607 262.608C62.0868 262.261 61.9129 261.913 61.739 261.739C61.5651 261.565 61.0433 261.391 60.6955 261.565C60.1738 261.739 60.1737 262.261 60.1737 262.782C59.9998 262.608 59.9998 262.608 59.8259 262.435L59.9998 262.608Z" fill="white"/>
<path d="M57.739 243.13C57.5651 242.782 57.0434 242.608 56.6956 242.608C56.3477 242.608 55.826 242.608 55.4782 242.261C55.4782 242.087 55.3043 242.087 55.4782 241.913C55.6521 241.565 55.9999 241.739 56.3477 241.739C56.5217 241.739 56.8695 241.565 57.0434 241.565C57.5651 241.391 58.2608 241.565 58.6086 242.087C58.6086 242.435 58.4347 242.782 58.2608 242.956C57.913 243.13 57.5651 243.13 57.3912 242.956L57.739 243.13Z" fill="white"/>
<path d="M45.391 274.261C45.391 274.087 45.391 273.913 45.391 273.739C45.0432 273.739 44.8692 273.739 44.6953 274.087C44.5214 274.261 44.6953 274.609 44.8692 274.783C45.2171 274.783 45.5649 274.435 45.391 274.261Z" fill="white"/>
<path d="M61.2172 253.391C61.3911 253.391 61.565 253.391 61.7389 253.391C61.7389 253.043 61.739 252.869 61.565 252.696C61.3911 252.522 61.0433 252.522 60.8694 252.869C60.8694 253.043 60.8694 253.043 60.8694 253.217C61.0433 253.565 61.2172 253.739 61.2172 254.087V253.391Z" fill="white"/>
<path opacity="0.5" d="M187.478 382.609C226.666 382.609 258.435 375.523 258.435 366.783C258.435 358.042 226.666 350.957 187.478 350.957C148.29 350.957 116.522 358.042 116.522 366.783C116.522 375.523 148.29 382.609 187.478 382.609Z" fill="url(#paint0_radial)"/>
<path d="M277.565 214.957C277.565 214.957 277.565 229.217 271.826 238.087C268.522 243.13 262.956 246.087 256.348 246.957C251.304 247.652 245.913 247.131 240.522 245.391C228.174 241.565 220.174 222.435 215.826 203.652C211.478 184.87 221.913 179.131 223.478 179.652C226.261 180.696 233.043 189.565 240.869 197.565C244.869 201.565 249.043 205.565 253.217 208C265.391 215.131 277.565 214.957 277.565 214.957Z" fill="url(#paint1_linear)"/>
<path opacity="0.3" d="M256.522 246.957C251.478 247.652 246.087 247.131 240.696 245.391C228.348 241.565 220.348 222.435 216 203.652C211.652 184.87 222.087 179.131 223.652 179.652C226.435 180.696 233.217 189.565 241.043 197.565C241.043 197.565 234.783 211.13 237.391 229.391C240 247.652 256.522 246.957 256.522 246.957Z" fill="url(#paint2_linear)"/>
<path d="M189.043 296.87C189.043 309.043 184.869 338.087 176.174 336.696C174.261 336.348 172.174 334.435 169.739 331.478C162.435 322.609 153.565 304 148.695 291.304C145.913 284.348 144.348 279.13 144.869 278.261C147.478 272.348 185.913 289.565 188.348 291.826C188.869 292 189.043 293.913 189.043 296.87Z" fill="url(#paint3_linear)"/>
<path d="M144.87 278.087C141.913 283.652 176.87 300.87 188.87 292.696C188.696 292.696 148.696 270.609 144.87 278.087Z" fill="url(#paint4_linear)"/>
<path opacity="0.3" d="M161.913 296.696C160.522 299.13 167.478 326.609 176.174 336.696C174.261 336.348 172.174 334.435 169.739 331.478C167.826 326.783 164.869 319.826 162.087 312.87C158.435 304 151.826 295.304 148.522 291.304C145.739 284.348 144.174 279.13 144.696 278.261C147.304 272.348 185.739 289.565 188.174 291.826C188.696 292.174 188.869 294.261 188.869 297.043C189.043 296.87 163.304 294.261 161.913 296.696Z" fill="url(#paint5_linear)"/>
<path d="M230.608 283.652C230.261 284.696 229.913 285.913 229.565 286.957C224.348 304.696 215.13 330.435 208.174 339.304C206.435 341.391 205.043 342.609 203.652 342.435C203.304 342.435 202.956 342.261 202.608 342.087C201.391 341.565 200.348 340.348 199.304 338.609C192.522 328.174 187.652 298.783 188.695 290.261C188.869 289.217 189.043 288.522 189.391 288.174C195.13 282.609 232.348 266.261 233.739 269.043C234.087 270.087 232.869 275.652 230.608 283.652Z" fill="url(#paint6_linear)"/>
<path d="M188.696 290.435C187.304 292.869 224 292.696 233.739 269.391C233.739 269.217 202.261 268 188.696 290.435Z" fill="url(#paint7_linear)"/>
<path d="M207.13 301.913C205.565 302.087 203.478 313.739 205.739 314.783C208 315.826 210.609 301.391 207.13 301.913Z" fill="white"/>
<path opacity="0.3" d="M230.608 283.652C230.608 283.652 210.087 286.435 204 294.957C198.087 303.478 196.174 325.913 199.304 338.783C192.522 328.348 187.652 298.957 188.695 290.435C188.869 289.391 189.043 288.696 189.391 288.348C195.13 282.783 232.348 266.435 233.739 269.218C234.087 270.087 232.869 275.652 230.608 283.652Z" fill="url(#paint8_linear)"/>
<path d="M151.826 185.391C151.826 195.826 150.261 210.956 145.565 223.304C137.739 243.652 125.913 269.043 125.565 269.913C118.261 274.261 109.739 274.087 104.174 273.217C100.87 272.696 98.6086 272 98.6086 272C98.6086 272 101.043 248.696 113.739 222.435C120.174 209.217 128.348 196.869 135.304 187.826C135.304 187.826 135.304 187.826 135.478 187.652C135.478 187.478 135.652 187.478 135.652 187.304L135.826 187.13L136 186.956L136.174 186.783C143.304 177.739 149.217 172.174 150.435 172.869C151.13 173.217 151.826 178.261 151.826 185.391Z" fill="url(#paint9_linear)"/>
<path d="M98.6086 271.131C98.6086 271.131 108 255.826 117.565 257.739C127.13 259.652 125.391 269.913 125.391 269.913C125.391 269.913 113.217 278.783 98.6086 271.131Z" fill="url(#paint10_linear)"/>
<path opacity="0.3" d="M151.826 185.391C151.826 195.826 150.261 210.957 145.565 223.304C137.739 243.652 125.913 269.044 125.565 269.913L104.174 273.217C100.87 272.696 98.6086 272 98.6086 272C98.6086 272 101.043 248.696 113.739 222.435C120.174 209.217 128.348 196.87 135.304 187.826C131.304 193.217 114.435 216.348 109.913 236C104.696 258.435 125.565 249.739 134.087 236C142.609 222.261 151.478 185.391 151.478 185.391H151.826Z" fill="url(#paint11_linear)"/>
<path d="M128.522 221.217C126.783 220.522 135.652 200.696 138.261 200.522C141.044 200.348 129.913 221.739 128.522 221.217Z" fill="white"/>
<path d="M127.652 223.304C126.261 222.609 125.043 226.261 126.261 226.783C127.478 227.304 129.217 224 127.652 223.304Z" fill="white"/>
<path d="M231.652 38.261C231.652 38.261 242.609 28.8697 255.826 27.3044C255.826 27.3044 259.826 29.2175 264.696 44.0001C269.391 58.6088 260.696 87.6523 260.696 87.6523L231.652 38.261Z" fill="url(#paint12_linear)"/>
<path d="M255.826 27.3044C255.826 27.3044 245.043 38.7826 245.043 57.3913L249.217 60L261.391 34.9565C261.391 34.9565 257.391 27.1305 255.826 27.3044Z" fill="url(#paint13_linear)"/>
<path d="M248.87 58.7825C248.87 58.7825 246.087 42.9565 256.522 31.1304C256.522 31.1304 268.348 36.6956 273.217 57.3912C278.087 78.0869 265.391 90.4347 265.391 90.4347L248.87 58.7825Z" fill="url(#paint14_linear)"/>
<path d="M242.783 31.9999C240.696 33.0434 240.87 35.3043 245.044 34.7825C249.217 34.2608 251.478 30.9564 250.957 30.2608C250.609 29.5651 245.044 30.7825 242.783 31.9999Z" fill="white"/>
<path d="M140.348 40.6955C140.348 40.6955 129.391 31.3042 116.174 29.739C116.174 29.739 112.174 31.6521 107.304 46.4347C102.609 61.0434 111.304 90.0868 111.304 90.0868L140.348 40.6955Z" fill="url(#paint15_linear)"/>
<path d="M116.174 29.5654C116.174 29.5654 126.956 41.0436 126.956 59.6523L122.783 62.261L110.609 37.2175C110.609 37.2175 114.783 29.3914 116.174 29.5654Z" fill="url(#paint16_linear)"/>
<path d="M123.13 61.2174C123.13 61.2174 125.913 45.3913 115.478 33.5652C115.478 33.5652 103.652 39.1304 98.7826 59.8261C93.913 80.5217 108 94.2608 108 94.2608L123.13 61.2174Z" fill="url(#paint17_linear)"/>
<path d="M129.217 34.2609C131.304 35.3044 131.13 37.5652 126.956 37.0435C122.782 36.5218 120.522 33.2174 121.043 32.5218C121.391 31.8261 126.956 33.0435 129.217 34.2609Z" fill="white"/>
<path d="M233.217 257.913C229.913 277.391 212.348 290.435 187.304 290.435C165.391 290.435 146.956 282.261 142.087 264.348C137.217 246.435 139.13 213.217 145.565 192.696C146.608 189.565 147.652 186.609 149.043 183.826C150.261 181.217 151.652 178.783 153.217 176.522C161.217 164.348 173.043 156.522 186.087 156.522C199.826 156.522 210.261 162.087 217.565 170.609C220.869 174.435 223.478 178.957 225.391 183.652C227.478 189.043 229.391 194.957 230.782 200.87V201.043C235.304 219.826 236.174 240.348 233.217 257.913Z" fill="url(#paint18_linear)"/>
<path opacity="0.3" d="M233.217 257.913C229.913 277.391 212.348 290.435 187.304 290.435C165.391 290.435 146.956 282.261 142.087 264.348C137.217 246.435 139.13 213.217 145.565 192.696C146.608 189.565 147.652 186.609 149.043 183.826C149.043 183.826 135.826 227.652 146.435 255.652C157.043 283.652 206.261 282.957 222.956 264.348C238.782 246.783 231.478 205.217 230.782 201.217C235.304 219.826 236.174 240.348 233.217 257.913Z" fill="url(#paint19_linear)"/>
<path d="M143.13 246.261C146.783 220 168 202.261 191.304 204.522C216.522 206.956 230.087 230.956 229.739 251.652C229.391 272.348 214.261 288.348 187.304 288.348C160.348 288.348 139.652 270.783 143.13 246.261Z" fill="url(#paint20_linear)"/>
<path d="M143.304 248.348C146.957 222.087 168.174 204.348 191.478 206.609C216.696 209.044 230.261 233.044 229.913 253.739C229.565 274.435 214.435 290.435 187.478 290.435C160.348 290.435 139.826 272.87 143.304 248.348Z" fill="url(#paint21_radial)"/>
<path opacity="0.5" d="M217.565 170.609C212.174 178.957 182.783 183.826 165.739 182.261C150.956 180.87 153.217 176.87 153.217 176.348C161.217 164.348 173.043 156.522 186.087 156.522C199.826 156.522 210.435 162.261 217.565 170.609Z" fill="url(#paint22_linear)"/>
<path d="M207.13 185.217C205.739 185.739 205.739 196.695 207.13 198.435C208.522 200.174 210.783 199.652 211.652 197.043C212.348 194.435 209.217 184.522 207.13 185.217Z" fill="white"/>
<path d="M209.565 201.391C208.348 201.739 208.348 204.348 208.87 205.391C209.391 206.435 211.304 206.087 211.652 205.043C212 203.652 210.783 201.043 209.565 201.391Z" fill="white"/>
<path opacity="0.72" d="M158.087 275.131C158.087 275.131 164.174 285.565 186.609 285.739C209.043 285.913 218.261 272.348 218.261 272.348C218.261 272.348 207.826 279.131 193.043 275.131C178.261 271.131 163.478 268.87 158.087 275.131Z" fill="url(#paint23_linear)"/>
<path opacity="0.72" d="M152.174 231.826C156.695 238.957 174.956 235.13 195.478 237.217C216 239.304 219.652 245.913 224 244.522C228.348 243.131 221.565 212.174 190.609 210.087C160 207.826 151.13 229.913 152.174 231.826Z" fill="url(#paint24_linear)"/>
<path d="M109.739 141.217C126.435 179.652 251.13 167.652 266.087 136.174C282.435 101.565 244.87 16.3478 185.217 20.3478C134.609 23.4782 88.3478 91.826 109.739 141.217Z" fill="url(#paint25_linear)"/>
<path d="M116.695 135.826C132.695 167.304 241.565 162.087 257.391 133.217C270.956 108.522 238.956 33.7391 184.348 36.3478C129.565 38.9565 101.391 105.565 116.695 135.826Z" fill="url(#paint26_linear)"/>
<path d="M234.956 98.6086C232.869 104.348 204.174 103.652 204.174 101.565C204.348 90.0869 210.435 75.1304 221.913 75.1304C233.739 75.3043 238.956 87.826 234.956 98.6086Z" fill="url(#paint27_linear)"/>
<path d="M138.087 99.3043C140.522 104.87 169.217 102.609 169.043 100.522C168.174 89.0434 161.217 74.4347 149.913 75.1304C138.087 75.9999 133.565 88.8695 138.087 99.3043Z" fill="url(#paint28_linear)"/>
<path d="M169.565 120.522C165.217 121.565 174.261 136 188.696 136C201.565 136 208.87 121.217 207.13 120.522C205.565 119.826 197.739 123.826 187.13 123.826C176.522 123.826 171.478 120.174 169.565 120.522Z" fill="#2F95CD"/>
<path d="M98.6085 272C98.6085 272 104.348 263.826 112.695 262.783C121.043 261.739 124 264 125.565 269.739C127.13 275.478 115.304 296.696 100.695 312.696C94.4346 313.217 92.5216 305.391 91.652 300.522C91.4781 296.348 95.652 278.783 98.6085 272Z" fill="url(#paint29_linear)"/>
<path d="M118.608 262.783C118.608 262.783 102.956 284.348 98.0868 296.87C95.4781 303.652 93.9128 308 93.9128 308C93.9128 308 97.9128 318.261 104.695 309.739C114.261 297.565 126.956 279.304 124.695 270.609C122.782 262.957 121.391 261.565 118.608 262.783Z" fill="url(#paint30_linear)"/>
<path d="M266.087 213.217C258.956 215.478 258.087 239.652 264.869 242.783C271.652 245.913 281.217 224.696 277.565 214.957C277.565 215.13 271.304 211.652 266.087 213.217Z" fill="url(#paint31_linear)"/>
<path d="M266.608 216.174C266.608 216.174 261.565 221.217 263.652 229.391C265.739 237.565 276.695 243.13 290.261 242.957C303.826 242.783 312.522 233.044 314.435 226.957C314.435 226.957 312 221.913 298.608 218.783C289.565 216.696 277.391 215.13 277.391 215.13C277.391 215.13 271.304 214.087 266.608 216.174Z" fill="url(#paint32_linear)"/>
<path d="M264.348 230.783C264.348 230.783 276.348 234.609 290.435 232.174C304.522 229.565 300.174 219.478 300.174 219.478C300.174 219.478 293.217 216 286.956 214.783C280.695 213.565 266.956 214.783 266.956 214.783C266.956 214.783 259.304 221.391 264.348 230.783Z" fill="url(#paint33_linear)"/>
<path opacity="0.5" d="M273.043 239.304C273.043 239.304 274.261 229.217 273.217 224.348C273.217 224.348 277.217 234.782 277.739 241.043L273.043 239.304Z" fill="url(#paint34_linear)"/>
<path d="M313.565 275.13L308 275.478L312.522 276.348L311.826 282.435C311.826 282.435 311.652 282.435 311.478 282.435H311.304C310.261 282.435 307.652 282.609 304.348 282.782C296.348 283.13 283.304 283.478 273.739 282.435C273.739 282.435 278.783 251.478 273.739 227.304L273.217 222.261L273.043 221.391L293.043 219.304C293.043 219.304 303.478 236.696 310.957 254.956C312.522 258.782 313.913 262.609 315.13 266.435L313.565 275.13Z" fill="url(#paint35_linear)"/>
<path opacity="0.5" d="M310.956 254.957L281.739 260L275.826 228L300.869 237.043C300.869 237.043 309.739 252.174 310.956 254.957Z" fill="url(#paint36_linear)"/>
<path opacity="0.5" d="M276.522 280.348C276.522 280.348 294.609 282.435 311.826 282.608C311.826 282.608 311.652 282.608 311.478 282.608H311.304C310.261 282.608 307.652 282.782 304.348 282.956C295.652 283.304 281.217 283.826 273.739 282.608C273.739 282.608 278.782 251.652 273.739 227.478L273.217 222.435L274.956 221.391L308.174 251.304L310.956 254.956C312.522 258.782 313.913 262.608 315.13 266.435H284.522L281.739 272.348L308 275.304L281.217 273.565L276.522 280.348Z" fill="url(#paint37_linear)"/>
<path d="M273.043 221.565C273.043 221.565 280.87 216.348 296.696 215.304C296.696 215.304 312 232 321.043 251.478L282.261 252.522C282.261 252.348 278.435 231.826 273.043 221.565Z" fill="url(#paint38_linear)"/>
<path opacity="0.5" d="M275.826 220C275.826 220 282.087 226.782 290.261 228.869C298.435 230.783 303.13 222.956 303.13 222.956L300.348 219.304L275.826 220Z" fill="url(#paint39_linear)"/>
<path d="M267.652 215.478C265.565 209.217 293.913 209.217 297.739 211.652C299.478 212.696 302.261 216.522 301.043 218.783C299.826 221.044 290.609 222.435 286.609 222.087C282.783 221.565 269.043 219.478 267.652 215.478Z" fill="url(#paint40_linear)"/>
<path d="M289.391 222.087C289.391 222.087 289.043 215.826 292.348 213.391C295.478 210.957 298.435 212.174 298.435 212.174C298.435 212.174 302.609 215.304 301.043 218.783C299.478 222.087 291.478 222.957 289.391 222.087Z" fill="url(#paint41_linear)"/>
<path opacity="0.5" d="M289.391 227.304C283.478 230.087 285.739 243.13 293.217 246.609C300.696 250.087 306.435 241.913 305.565 234.609C304.522 227.478 293.391 225.565 289.391 227.304Z" fill="#D9D2EC"/>
<path d="M294.435 231.13C294.782 231.13 295.13 230.956 295.478 230.956C295.826 230.956 296.348 230.956 296.695 230.956L297.217 233.217C297.043 233.043 296.695 233.043 296.522 233.043C296.348 233.043 296.174 233.043 295.826 233.043C295.652 233.043 295.478 233.043 295.13 233.043C294.956 233.217 294.609 233.391 294.609 233.565C294.435 233.913 294.435 234.087 294.609 234.435C294.782 234.782 294.782 234.956 295.13 235.13C295.304 235.304 295.652 235.478 295.826 235.652C296 235.826 296.348 235.826 296.695 236C297.043 236.174 297.217 236.348 297.565 236.522C297.913 236.696 298.087 236.869 298.435 237.217C298.609 237.565 298.956 237.913 298.956 238.261C299.13 238.782 299.13 239.13 299.13 239.478C299.13 239.826 298.956 240.174 298.956 240.522C298.782 240.869 298.609 241.043 298.435 241.391C298.261 241.565 297.913 241.739 297.739 241.913L300 246.261H297.913L296.869 242.261C296.869 242.261 296.695 242.261 296.522 242.261C296.348 242.261 296.174 242.261 296 242.261C295.826 242.261 295.652 242.261 295.304 242.261C295.13 242.261 294.782 242.261 294.609 242.087L294.087 239.826C294.435 240 294.609 240 294.956 240C295.304 240 295.478 240 295.652 240C295.826 240 296.174 240 296.348 239.826C296.695 239.478 296.869 239.13 296.695 238.609C296.695 238.435 296.522 238.261 296.348 238.087C296.174 237.913 295.826 237.739 295.652 237.565C295.304 237.391 295.13 237.217 294.782 237.043C294.435 236.869 294.087 236.696 293.913 236.522C293.565 236.348 293.391 236 293.043 235.652C292.869 235.304 292.522 234.956 292.522 234.435C292.348 233.739 292.348 233.043 292.522 232.348C292.695 231.652 293.043 231.304 293.739 230.956L291.826 226.261L293.565 226.782L294.435 231.13Z" fill="white"/>
<path d="M202.782 27.3043C201.565 28.6956 214.956 34.4348 216.696 33.5652C218.435 32.6956 206.609 22.7826 202.782 27.3043Z" fill="white"/>
<path opacity="0.5" d="M135.826 67.8259C134.609 75.3042 148.87 74.4346 171.478 73.739C198.783 72.8694 226.261 96.3477 242.261 79.4781C244.87 76.6955 218.783 40.1738 187.131 40.8694C155.652 41.739 137.044 61.2173 135.826 67.8259Z" fill="url(#paint42_linear)"/>
<path opacity="0.5" d="M149.913 146.087C148.522 151.478 159.826 157.043 187.826 155.652C221.739 153.913 228.87 146.957 227.13 144.87C226.087 143.652 216 150.087 188.174 144C170.087 140 151.478 140.348 149.913 146.087Z" fill="url(#paint43_linear)"/>
<path opacity="0.2" d="M119.826 129.217C119.826 129.217 118.609 121.391 120 110.783C121.391 100.174 124.174 93.3913 125.913 94.2609C127.652 95.3043 127.304 105.565 128.348 115.826C129.043 123.826 130.609 131.304 130.609 131.304C130.609 131.304 123.304 138.261 119.826 129.217Z" fill="url(#paint44_linear)"/>
<path opacity="0.5" d="M122.087 154.087C122.087 154.087 123.826 152.348 132.869 146.956C138.956 143.478 145.217 139.13 146.261 137.565C147.652 133.913 120.348 136 120.348 136L109.913 141.043C109.739 141.217 113.913 149.391 122.087 154.087Z" fill="url(#paint45_linear)"/>
<path d="M101.217 73.7393C101.217 73.7393 108.174 78.261 103.652 88.6958C103.652 88.6958 70.7825 106.609 72.6956 126.087C74.2608 142.435 119.652 134.435 119.652 134.435L121.217 139.826C121.217 139.826 82.6086 147.304 69.3912 138.261C69.3912 138.261 64.8695 127.478 76.1738 108.174C87.3043 88.8697 101.217 73.7393 101.217 73.7393Z" fill="url(#paint46_linear)"/>
<path d="M113.913 133.043C109.739 137.739 118.608 142.782 125.739 143.652C133.913 144.522 148.174 141.391 147.304 133.217C146.608 125.043 123.652 122.087 113.913 133.043Z" fill="url(#paint47_linear)"/>
<path d="M114.435 133.913C114.261 135.304 143.13 135.652 143.826 130.435C144.522 125.217 116.348 123.652 114.435 133.913Z" fill="url(#paint48_linear)"/>
<path opacity="0.72" d="M266.087 40.5218C266.087 40.5218 262.261 35.8262 257.043 37.0436C251.826 38.261 251.478 54.7827 254.608 55.1305C257.739 55.4784 259.13 46.0871 261.391 44.5218C263.826 42.9566 268 43.6523 268 43.6523L266.087 40.5218Z" fill="url(#paint49_linear)"/>
<path opacity="0.72" d="M103.304 47.652C103.304 47.652 105.391 45.3912 109.913 46.0868C114.435 46.7825 117.044 56.1738 119.304 55.1303C121.565 54.2607 120 39.1303 113.739 34.7825C113.739 34.7825 105.913 41.3912 103.304 47.652Z" fill="url(#paint50_linear)"/>
<path opacity="0.5" d="M105.565 282.609C105.565 282.609 107.652 294.087 114.783 295.826L115.826 268.174C115.826 268.174 107.652 279.13 105.565 282.609Z" fill="url(#paint51_linear)"/>
<path d="M112.348 274.783C111.304 277.391 113.391 294.956 115.304 296.869C117.217 298.783 121.565 295.478 122.783 292C124 288.522 129.391 269.217 122.435 263.13C122.435 262.956 116.696 263.652 112.348 274.783Z" fill="url(#paint52_linear)"/>
<path d="M115.652 277.217C114.956 277.391 114.087 283.304 114.609 284.348C115.304 285.391 116.522 285.217 117.217 284C117.739 282.609 116.696 276.869 115.652 277.217Z" fill="white"/>
<path d="M94.9565 84.3477C94.9565 84.3477 79.3043 102.609 80.1739 103.826C81.2173 105.043 95.9999 86.0868 94.9565 84.3477Z" fill="url(#paint53_linear)"/>
<defs>
<radialGradient id="paint0_radial" cx="0" cy="0" r="1" gradientUnits="userSpaceOnUse" gradientTransform="translate(187.473 366.716) scale(70.9346 15.7829)">
<stop stop-color="#BE9DEA"/>
<stop offset="0.3883" stop-color="#E0BFF5"/>
<stop offset="1" stop-color="white"/>
</radialGradient>
<linearGradient id="paint1_linear" x1="241.166" y1="246.085" x2="249.114" y2="182.802" gradientUnits="userSpaceOnUse">
<stop stop-color="#CBC1F7"/>
<stop offset="1" stop-color="#E8DCF7"/>
</linearGradient>
<linearGradient id="paint2_linear" x1="235.675" y1="247.175" x2="235.675" y2="179.566" gradientUnits="userSpaceOnUse">
<stop stop-color="#9D68C2"/>
<stop offset="1" stop-color="#CCEDFF"/>
</linearGradient>
<linearGradient id="paint3_linear" x1="169.252" y1="337.041" x2="166.361" y2="275.987" gradientUnits="userSpaceOnUse">
<stop stop-color="#CBC1F7"/>
<stop offset="1" stop-color="#E8DCF7"/>
</linearGradient>
<linearGradient id="paint4_linear" x1="168.672" y1="297.199" x2="164.575" y2="273.652" gradientUnits="userSpaceOnUse">
<stop stop-color="#BE9DEA"/>
<stop offset="1" stop-color="#9E8CEF"/>
</linearGradient>
<linearGradient id="paint5_linear" x1="175.608" y1="336.731" x2="164.667" y2="273.84" gradientUnits="userSpaceOnUse">
<stop stop-color="#9D68C2"/>
<stop offset="1" stop-color="#CCEDFF"/>
</linearGradient>
<linearGradient id="paint6_linear" x1="194.385" y1="339.779" x2="216.254" y2="264.034" gradientUnits="userSpaceOnUse">
<stop stop-color="#CBC1F7"/>
<stop offset="1" stop-color="#E8DCF7"/>
</linearGradient>
<linearGradient id="paint7_linear" x1="208.984" y1="294.128" x2="213.404" y2="266.047" gradientUnits="userSpaceOnUse">
<stop stop-color="#BE9DEA"/>
<stop offset="1" stop-color="#9E8CEF"/>
</linearGradient>
<linearGradient id="paint8_linear" x1="202.023" y1="339.111" x2="213.556" y2="265.85" gradientUnits="userSpaceOnUse">
<stop stop-color="#9D68C2"/>
<stop offset="1" stop-color="#CCEDFF"/>
</linearGradient>
<linearGradient id="paint9_linear" x1="119.792" y1="275.199" x2="132.924" y2="170.643" gradientUnits="userSpaceOnUse">
<stop stop-color="#CBC1F7"/>
<stop offset="1" stop-color="#E8DCF7"/>
</linearGradient>
<linearGradient id="paint10_linear" x1="112.1" y1="274.197" x2="112.1" y2="257.579" gradientUnits="userSpaceOnUse">
<stop stop-color="#BE9DEA"/>
<stop offset="1" stop-color="#9E8CEF"/>
</linearGradient>
<linearGradient id="paint11_linear" x1="125.157" y1="273.214" x2="125.157" y2="185.358" gradientUnits="userSpaceOnUse">
<stop stop-color="#9D68C2"/>
<stop offset="1" stop-color="#CCEDFF"/>
</linearGradient>
<linearGradient id="paint12_linear" x1="248.832" y1="87.5938" x2="248.832" y2="27.289" gradientUnits="userSpaceOnUse">
<stop stop-color="#B9ACF4"/>
<stop offset="1" stop-color="#E1D1F5"/>
</linearGradient>
<linearGradient id="paint13_linear" x1="253.211" y1="60.0673" x2="253.211" y2="27.2844" gradientUnits="userSpaceOnUse">
<stop stop-color="#BE9DEA"/>
<stop offset="1" stop-color="#9E8CEF"/>
</linearGradient>
<linearGradient id="paint14_linear" x1="261.361" y1="90.4791" x2="261.361" y2="31.2278" gradientUnits="userSpaceOnUse">
<stop stop-color="#45FFCD"/>
<stop offset="1" stop-color="#22E0FF"/>
</linearGradient>
<linearGradient id="paint15_linear" x1="123.199" y1="89.9455" x2="123.199" y2="29.6406" gradientUnits="userSpaceOnUse">
<stop stop-color="#B9ACF4"/>
<stop offset="1" stop-color="#E1D1F5"/>
</linearGradient>
<linearGradient id="paint16_linear" x1="118.819" y1="62.4191" x2="118.819" y2="29.6363" gradientUnits="userSpaceOnUse">
<stop stop-color="#BE9DEA"/>
<stop offset="1" stop-color="#9E8CEF"/>
</linearGradient>
<linearGradient id="paint17_linear" x1="110.713" y1="94.1683" x2="110.713" y2="33.5794" gradientUnits="userSpaceOnUse">
<stop stop-color="#45FFCD"/>
<stop offset="1" stop-color="#22E0FF"/>
</linearGradient>
<linearGradient id="paint18_linear" x1="180.418" y1="290.194" x2="197.074" y2="157.58" gradientUnits="userSpaceOnUse">
<stop stop-color="#CBC1F7"/>
<stop offset="1" stop-color="#E8DCF7"/>
</linearGradient>
<linearGradient id="paint19_linear" x1="187.188" y1="290.421" x2="187.188" y2="183.727" gradientUnits="userSpaceOnUse">
<stop stop-color="#9D68C2"/>
<stop offset="1" stop-color="#CCEDFF"/>
</linearGradient>
<linearGradient id="paint20_linear" x1="186.166" y1="288.251" x2="186.166" y2="204.22" gradientUnits="userSpaceOnUse">
<stop stop-color="#BE9DEA"/>
<stop offset="1" stop-color="#9E8CEF"/>
</linearGradient>
<radialGradient id="paint21_radial" cx="0" cy="0" r="1" gradientUnits="userSpaceOnUse" gradientTransform="translate(187.85 277.384) scale(64.1238)">
<stop stop-color="#45FFCD"/>
<stop offset="1" stop-color="#22E0FF"/>
</radialGradient>
<linearGradient id="paint22_linear" x1="185.347" y1="182.597" x2="185.347" y2="156.587" gradientUnits="userSpaceOnUse">
<stop stop-color="#8DA4E5"/>
<stop offset="1" stop-color="#755CBB"/>
</linearGradient>
<linearGradient id="paint23_linear" x1="188.207" y1="285.738" x2="188.207" y2="271.182" gradientUnits="userSpaceOnUse">
<stop stop-color="#D4E2FF"/>
<stop offset="1"/>
</linearGradient>
<linearGradient id="paint24_linear" x1="152.159" y1="227.21" x2="225.232" y2="227.21" gradientUnits="userSpaceOnUse">
<stop/>
<stop offset="1" stop-color="#D4E2FF"/>
</linearGradient>
<linearGradient id="paint25_linear" x1="180.613" y1="167.226" x2="199.007" y2="20.7711" gradientUnits="userSpaceOnUse">
<stop stop-color="#CBC1F7"/>
<stop offset="1" stop-color="#E8DCF7"/>
</linearGradient>
<linearGradient id="paint26_linear" x1="186.535" y1="157.198" x2="186.535" y2="36.1283" gradientUnits="userSpaceOnUse">
<stop stop-color="#0665BD"/>
<stop offset="1" stop-color="#1A1F77"/>
</linearGradient>
<linearGradient id="paint27_linear" x1="219.071" y1="104.236" x2="222.964" y2="75.2067" gradientUnits="userSpaceOnUse">
<stop stop-color="#45FFCD"/>
<stop offset="1" stop-color="#22E0FF"/>
</linearGradient>
<linearGradient id="paint28_linear" x1="154.267" y1="104.105" x2="148.755" y2="75.3386" gradientUnits="userSpaceOnUse">
<stop stop-color="#45FFCD"/>
<stop offset="1" stop-color="#22E0FF"/>
</linearGradient>
<linearGradient id="paint29_linear" x1="105.061" y1="313.561" x2="111.557" y2="261.837" gradientUnits="userSpaceOnUse">
<stop stop-color="#CBC1F7"/>
<stop offset="1" stop-color="#E8DCF7"/>
</linearGradient>
<linearGradient id="paint30_linear" x1="111.691" y1="311.804" x2="106.794" y2="263.732" gradientUnits="userSpaceOnUse">
<stop stop-color="#BE9DEA"/>
<stop offset="1" stop-color="#9E8CEF"/>
</linearGradient>
<linearGradient id="paint31_linear" x1="271.069" y1="242.621" x2="268.039" y2="212.876" gradientUnits="userSpaceOnUse">
<stop stop-color="#BE9DEA"/>
<stop offset="1" stop-color="#9E8CEF"/>
</linearGradient>
<linearGradient id="paint32_linear" x1="286.726" y1="242.782" x2="290.014" y2="216.601" gradientUnits="userSpaceOnUse">
<stop stop-color="#CBC1F7"/>
<stop offset="1" stop-color="#E8DCF7"/>
</linearGradient>
<linearGradient id="paint33_linear" x1="282.665" y1="233.144" x2="280.655" y2="213.419" gradientUnits="userSpaceOnUse">
<stop stop-color="#BE9DEA"/>
<stop offset="1" stop-color="#9E8CEF"/>
</linearGradient>
<linearGradient id="paint34_linear" x1="275.288" y1="241.088" x2="275.288" y2="224.359" gradientUnits="userSpaceOnUse">
<stop stop-color="#8DA4E5"/>
<stop offset="1" stop-color="#755CBB"/>
</linearGradient>
<linearGradient id="paint35_linear" x1="294.02" y1="283.269" x2="294.02" y2="219.341" gradientUnits="userSpaceOnUse">
<stop stop-color="#6FCAF4"/>
<stop offset="1" stop-color="#7DFFCF"/>
</linearGradient>
<linearGradient id="paint36_linear" x1="293.309" y1="260.003" x2="293.309" y2="227.961" gradientUnits="userSpaceOnUse">
<stop stop-color="#755CBB"/>
<stop offset="1" stop-color="#CCEDFF"/>
</linearGradient>
<linearGradient id="paint37_linear" x1="294.07" y1="283.354" x2="294.07" y2="221.334" gradientUnits="userSpaceOnUse">
<stop stop-color="#755CBB"/>
<stop offset="1" stop-color="#CCEDFF"/>
</linearGradient>
<linearGradient id="paint38_linear" x1="296.975" y1="252.344" x2="296.975" y2="215.182" gradientUnits="userSpaceOnUse">
<stop stop-color="#6FCAF4"/>
<stop offset="1" stop-color="#7DFFCF"/>
</linearGradient>
<linearGradient id="paint39_linear" x1="275.816" y1="224.264" x2="303.16" y2="224.264" gradientUnits="userSpaceOnUse">
<stop stop-color="#755CBB"/>
<stop offset="1" stop-color="#CCEDFF"/>
</linearGradient>
<linearGradient id="paint40_linear" x1="281.031" y1="223.236" x2="288.895" y2="207.282" gradientUnits="userSpaceOnUse">
<stop stop-color="#CBC1F7"/>
<stop offset="1" stop-color="#E8DCF7"/>
</linearGradient>
<linearGradient id="paint41_linear" x1="295.64" y1="222.051" x2="294.618" y2="212.016" gradientUnits="userSpaceOnUse">
<stop stop-color="#CBC1F7"/>
<stop offset="1" stop-color="#D4BEF1"/>
</linearGradient>
<linearGradient id="paint42_linear" x1="135.825" y1="63.2051" x2="242.626" y2="63.2051" gradientUnits="userSpaceOnUse">
<stop/>
<stop offset="1" stop-color="#6A9BFF"/>
</linearGradient>
<linearGradient id="paint43_linear" x1="149.87" y1="148.615" x2="227.521" y2="148.615" gradientUnits="userSpaceOnUse">
<stop/>
<stop offset="1" stop-color="#6A9BFF"/>
</linearGradient>
<linearGradient id="paint44_linear" x1="124.334" y1="133.787" x2="127.043" y2="94.2693" gradientUnits="userSpaceOnUse">
<stop/>
<stop offset="1" stop-color="#00E3FF"/>
</linearGradient>
<linearGradient id="paint45_linear" x1="127.994" y1="154.13" x2="127.994" y2="135.565" gradientUnits="userSpaceOnUse">
<stop stop-color="#8DA4E5"/>
<stop offset="1" stop-color="#755CBB"/>
</linearGradient>
<linearGradient id="paint46_linear" x1="93.838" y1="143.875" x2="102.626" y2="73.9074" gradientUnits="userSpaceOnUse">
<stop stop-color="#BE9DEA"/>
<stop offset="1" stop-color="#9E8CEF"/>
</linearGradient>
<linearGradient id="paint47_linear" x1="127.959" y1="144.29" x2="132.48" y2="125.092" gradientUnits="userSpaceOnUse">
<stop stop-color="#DD1A8F"/>
<stop offset="1" stop-color="#FE117E"/>
</linearGradient>
<linearGradient id="paint48_linear" x1="129.177" y1="134.739" x2="129.177" y2="126.365" gradientUnits="userSpaceOnUse">
<stop stop-color="#D93DE3"/>
<stop offset="1" stop-color="#FF6DBA"/>
</linearGradient>
<linearGradient id="paint49_linear" x1="252.523" y1="46.0224" x2="267.939" y2="46.0224" gradientUnits="userSpaceOnUse">
<stop/>
<stop offset="1" stop-color="#D4E2FF"/>
</linearGradient>
<linearGradient id="paint50_linear" x1="103.281" y1="44.9479" x2="120.271" y2="44.9479" gradientUnits="userSpaceOnUse">
<stop stop-color="#D4E2FF"/>
<stop offset="1"/>
</linearGradient>
<linearGradient id="paint51_linear" x1="112.799" y1="296.101" x2="110.02" y2="268.822" gradientUnits="userSpaceOnUse">
<stop stop-color="#8DA4E5"/>
<stop offset="1" stop-color="#755CBB"/>
</linearGradient>
<linearGradient id="paint52_linear" x1="116.392" y1="297.44" x2="120.739" y2="262.832" gradientUnits="userSpaceOnUse">
<stop stop-color="#CBC1F7"/>
<stop offset="1" stop-color="#E8DCF7"/>
</linearGradient>
<linearGradient id="paint53_linear" x1="87.5754" y1="103.869" x2="87.5754" y2="84.2889" gradientUnits="userSpaceOnUse">
<stop stop-color="#CBC1F7"/>
<stop offset="1" stop-color="#E8DCF7"/>
</linearGradient>
</defs>
</svg>
