<svg width="362" height="375" viewBox="0 0 362 375" fill="none" xmlns="http://www.w3.org/2000/svg">
<path d="M78.5884 49.461C16.5279 69.1808 -6.15743 166.648 39.0511 219.019C84.2597 271.39 142.431 265.409 176.297 287.877C218.589 316.002 260.881 322.467 294.423 266.056C340.604 188.308 180.348 16.8101 78.5884 49.461Z" fill="#E5F6FF"/>
<path d="M321.321 158.728C315.974 158.243 310.303 158.89 305.279 160.83C304.469 161.153 303.659 161.476 303.011 162.123C301.877 163.254 301.715 165.194 302.039 166.972C303.011 171.013 306.738 174.084 310.951 174.569C315.002 175.054 319.377 173.114 321.969 170.043C323.428 168.265 324.562 166.164 324.4 163.901C324.238 161.638 322.455 159.375 320.187 159.375C319.701 159.86 320.025 160.991 320.835 160.991L321.321 158.728Z" fill="#E5F6FF"/>
<path d="M76.644 46.8748C71.2967 46.3899 65.6254 47.0364 60.6022 48.9761C59.792 49.2993 58.9818 49.6226 58.3337 50.2692C57.1994 51.4006 57.0374 53.3403 57.3614 55.1183C58.3337 59.1592 62.0605 62.2304 66.2735 62.7153C70.3245 63.2002 74.6995 61.2605 77.2921 58.1894C78.7505 56.4114 79.8847 54.3101 79.7227 52.0472C79.5606 49.7843 77.7782 47.5213 75.5097 47.5213C75.0236 48.0062 75.3477 49.1377 76.1578 49.1377L76.644 46.8748Z" fill="#E5F6FF"/>
<path d="M308.844 169.881C307.224 168.426 304.793 167.78 302.687 168.426C302.201 170.528 302.525 173.114 303.983 174.73C305.442 176.347 308.358 176.67 309.979 175.054C311.437 173.437 310.303 170.043 308.196 170.204L308.844 169.881Z" fill="#E5F6FF"/>
<path d="M288.914 171.982C288.752 171.013 287.941 170.043 287.131 169.558C286.969 169.881 286.645 170.366 286.645 170.851C286.645 171.336 286.807 171.821 287.131 171.982C287.617 172.306 288.427 171.982 288.914 171.498C288.914 171.659 288.914 171.821 288.752 171.982H288.914Z" fill="#E5F6FF"/>
<path d="M292.802 170.851C293.127 170.851 293.451 170.851 293.775 170.851C293.451 171.498 292.478 171.821 291.668 171.821C291.182 171.821 290.696 171.821 290.534 171.498C290.372 171.174 290.534 170.851 290.534 170.528C290.534 169.881 289.886 169.235 290.21 168.75C290.372 168.426 290.858 168.426 291.182 168.588C291.506 168.75 291.668 169.073 291.83 169.396C292.316 170.043 292.64 170.689 293.127 171.336L292.802 170.851Z" fill="#E5F6FF"/>
<path opacity="0.5" d="M241.599 182.004C241.112 181.681 240.464 182.489 240.626 183.135C240.95 183.782 241.599 183.944 242.247 184.267C242.733 183.459 242.571 182.489 241.923 181.681L241.599 182.004Z" fill="#E5F6FF"/>
<path d="M243.867 204.957C244.029 205.118 244.029 205.603 243.867 205.765C243.705 205.927 243.381 206.088 243.057 206.088C242.895 206.088 242.733 206.088 242.571 205.927C242.247 205.765 242.085 205.118 242.409 204.795C242.733 204.472 243.219 204.472 243.543 204.634C243.867 204.795 244.029 205.442 243.705 205.765L243.867 204.957Z" fill="#E5F6FF"/>
<path d="M284.052 180.388C284.701 180.064 284.539 179.095 283.89 178.771C283.566 178.933 283.404 179.256 283.242 179.579C283.08 179.903 283.242 180.226 283.566 180.549C283.89 180.711 284.377 180.549 284.377 180.226L284.052 180.388Z" fill="#E5F6FF"/>
<path d="M295.881 171.821C296.043 171.013 295.719 170.204 295.071 169.719C294.585 170.204 294.261 170.689 293.775 171.174C293.613 171.336 293.451 171.659 293.289 171.982C293.127 172.629 293.775 173.114 294.423 173.114C295.233 172.952 295.719 172.467 295.881 171.821Z" fill="#E5F6FF"/>
<path opacity="0.5" d="M250.187 198.653C250.024 198.814 249.862 198.976 249.7 199.138C249.862 199.461 250.187 199.784 250.511 199.623C250.835 199.623 251.159 199.138 250.997 198.814C250.997 198.491 250.511 198.329 250.187 198.653Z" fill="#E5F6FF"/>
<path d="M287.293 176.993C287.455 177.478 287.941 177.478 288.265 177.155C288.59 176.832 288.752 176.508 289.076 176.185C289.4 175.862 289.886 175.7 290.21 175.7C290.534 175.7 290.696 175.862 290.858 176.023C290.858 176.185 290.858 176.347 290.858 176.508C290.696 177.317 290.534 178.125 289.886 178.771C289.4 179.418 288.428 179.741 287.617 179.418C287.131 179.256 286.645 178.771 286.483 178.125C286.645 177.802 286.969 177.155 287.293 176.993Z" fill="#E5F6FF"/>
<path d="M287.617 165.679C287.617 165.194 287.131 164.709 286.645 164.709C286.159 164.709 285.673 165.032 285.349 165.517C285.187 165.679 285.187 166.002 285.349 166.163C285.511 166.325 285.673 166.163 285.835 166.163C286.483 166.163 287.131 166.002 287.617 165.679Z" fill="#E5F6FF"/>
<path d="M264.122 173.437C264.608 174.407 263.798 175.7 262.826 175.862C262.501 175.054 262.339 174.245 262.501 173.437C262.664 172.629 263.636 171.982 264.446 172.306C264.608 172.791 264.77 173.114 265.094 173.599L264.122 173.437Z" fill="#E5F6FF"/>
<path d="M346.275 158.566C346.437 158.405 346.761 158.566 346.923 158.89C346.923 159.051 346.923 159.375 346.761 159.536C346.761 159.698 346.599 159.86 346.437 160.021C346.113 160.345 345.627 160.183 345.303 160.021C344.979 159.86 344.817 159.375 344.979 158.89C344.979 158.728 345.141 158.566 345.303 158.405C345.465 158.243 345.789 158.405 345.789 158.566H346.275Z" fill="#E5F6FF"/>
<path d="M278.705 178.125C278.543 177.963 278.381 177.802 278.219 177.64C277.895 177.802 277.733 178.125 277.571 178.448C277.571 178.771 277.895 179.256 278.219 178.933C278.381 178.933 278.381 178.771 278.381 178.61C278.543 178.286 278.705 177.802 279.029 177.478L278.705 178.125Z" fill="#E5F6FF"/>
<path d="M267.525 182.812C267.039 182.489 266.552 182.327 266.066 182.166C265.58 182.166 264.932 182.327 264.608 182.812C264.446 183.136 264.446 183.297 264.608 183.621C264.77 184.429 265.742 184.914 266.552 184.752C267.201 184.59 267.687 183.621 267.525 182.812Z" fill="#E5F6FF"/>
<path d="M262.339 180.064C262.015 180.064 261.529 180.064 261.205 180.226C261.205 180.549 261.205 180.873 261.205 181.034C261.691 181.196 262.339 180.873 262.501 180.388L262.339 180.064Z" fill="#E5F6FF"/>
<path d="M279.84 148.868C277.733 149.515 275.951 150.808 274.33 152.263C274.006 152.586 273.844 152.748 273.682 153.071C273.52 153.718 273.682 154.364 274.168 155.011C275.14 156.304 277.085 156.789 278.705 156.304C280.326 155.819 281.46 154.364 281.946 152.748C282.27 151.94 282.27 150.808 281.784 150.162C281.298 149.353 280.326 148.868 279.515 149.192C279.353 149.515 279.677 149.838 280.002 149.677L279.84 148.868Z" fill="#E5F6FF"/>
<path d="M305.117 186.045C304.307 185.398 303.173 185.075 302.201 185.237C302.201 185.722 302.363 186.207 302.525 186.53C302.687 186.853 303.173 187.176 303.659 187.176C304.307 187.015 304.631 186.368 304.793 185.722C304.793 185.883 304.955 186.045 304.955 186.207L305.117 186.045Z" fill="#E5F6FF"/>
<path d="M298.96 190.248C298.636 190.248 298.312 190.086 298.15 190.248C297.826 190.409 297.664 190.571 297.502 190.894C297.016 191.541 296.529 192.187 296.043 192.672C297.34 192.511 298.636 192.349 299.932 192.187C300.094 192.187 300.094 192.187 300.256 192.187C300.58 192.349 300.58 192.834 300.904 192.995C301.229 193.319 301.877 193.157 302.363 192.995C305.442 191.217 300.418 190.733 298.96 190.248Z" fill="#E5F6FF"/>
<path d="M310.627 181.681C310.303 181.034 309.492 180.549 308.682 180.388C308.682 181.034 308.682 181.681 308.52 182.327C308.52 182.651 308.52 182.974 308.682 183.136C309.006 183.621 309.817 183.782 310.141 183.297C310.627 183.136 310.789 182.327 310.627 181.681Z" fill="#E5F6FF"/>
<path d="M300.418 181.843C300.094 181.358 299.446 181.358 298.96 181.681C298.474 182.004 298.312 182.489 298.474 183.136C298.474 183.297 298.636 183.621 298.798 183.621C298.96 183.621 299.122 183.459 299.122 183.459C299.608 182.974 299.932 182.489 300.418 182.004V181.843Z" fill="#E5F6FF"/>
<path d="M301.391 172.791C300.904 172.467 300.418 172.306 299.932 172.144C299.446 172.144 298.798 172.306 298.474 172.791C298.312 173.114 298.312 173.276 298.474 173.599C298.636 174.407 299.608 174.892 300.418 174.73C301.066 174.569 301.553 173.599 301.391 172.791Z" fill="#E5F6FF"/>
<path d="M273.682 168.427C273.196 168.75 273.358 169.396 273.52 170.043C273.682 170.528 273.844 171.174 273.52 171.659C273.358 171.821 273.196 171.821 273.196 171.821C272.872 171.821 272.71 171.174 272.71 170.851C272.548 170.528 272.386 170.366 272.224 170.043C271.738 169.396 271.9 168.588 272.224 167.942C272.548 167.78 273.034 167.78 273.358 168.103C273.682 168.427 273.844 168.75 273.682 169.235V168.427Z" fill="#E5F6FF"/>
<path d="M265.094 179.58C264.608 179.903 264.77 180.549 264.932 181.196C265.094 181.681 265.256 182.327 264.932 182.812C264.77 182.974 264.608 182.974 264.608 182.974C264.284 182.974 264.122 182.327 264.122 182.004C263.96 181.681 263.798 181.519 263.636 181.196C263.15 180.549 263.312 179.741 263.636 179.095C263.96 178.933 264.446 178.933 264.77 179.256C265.094 179.58 265.256 179.903 265.094 180.388V179.58Z" fill="#E5F6FF"/>
<path d="M254.724 180.064C254.238 180.064 253.751 180.064 253.427 180.226C253.427 180.226 253.265 180.226 253.265 180.388C253.103 180.549 253.103 180.711 253.265 180.711C253.427 181.034 253.751 181.358 254.075 181.358C254.4 181.358 254.724 181.196 255.048 180.873C255.21 180.711 255.21 180.549 255.21 180.388C255.048 180.388 254.886 180.064 254.724 180.064C254.562 180.064 254.562 180.226 254.724 180.226V180.064Z" fill="#E5F6FF"/>
<path d="M320.187 169.073C319.377 168.426 318.242 168.103 317.27 168.265C317.27 168.75 317.432 169.235 317.594 169.558C317.756 169.881 318.242 170.204 318.729 170.204C319.377 170.043 319.701 169.396 319.863 168.75C319.863 168.911 320.025 169.073 320.025 169.235L320.187 169.073Z" fill="#E5F6FF"/>
<path d="M321.321 178.61C321.645 177.963 320.997 177.317 320.349 177.478C320.187 177.802 320.187 178.125 320.187 178.448C320.349 178.771 320.511 179.095 320.997 179.095C321.321 179.095 321.645 178.61 321.483 178.286L321.321 178.61Z" fill="#E5F6FF"/>
<path d="M304.631 174.407C304.955 173.761 304.307 173.114 303.659 173.276C303.497 173.599 303.497 173.922 303.497 174.245C303.497 174.569 303.821 174.892 304.307 174.892C304.631 174.892 304.955 174.407 304.793 174.084L304.631 174.407Z" fill="#E5F6FF"/>
<path d="M321.807 173.922C322.131 174.246 322.618 173.922 322.78 173.437C322.942 172.952 322.78 172.629 322.78 172.144C322.78 171.659 323.104 171.336 323.428 171.174C323.59 171.013 323.914 171.013 324.076 171.174C324.238 171.336 324.238 171.336 324.4 171.498C324.724 172.306 325.048 173.114 325.048 173.922C325.048 174.73 324.4 175.539 323.752 175.862C323.266 176.024 322.618 175.862 322.131 175.539C321.807 175.054 321.645 174.407 321.807 173.922Z" fill="#E5F6FF"/>
<path d="M272.548 174.084C272.872 174.407 273.358 174.084 273.52 173.599C273.682 173.114 273.52 172.791 273.52 172.306C273.52 171.821 273.844 171.498 274.168 171.336C274.33 171.174 274.654 171.174 274.816 171.336C274.978 171.498 274.978 171.498 275.14 171.659C275.465 172.468 275.789 173.276 275.789 174.084C275.789 174.892 275.14 175.7 274.492 176.024C274.006 176.185 273.358 176.024 272.872 175.7C272.548 175.215 272.386 174.569 272.548 174.084Z" fill="#E5F6FF"/>
<path d="M271.738 168.75C272.062 169.073 272.548 168.75 272.71 168.265C272.872 167.78 272.71 167.457 272.71 166.972C272.71 166.487 273.034 166.163 273.358 166.002C273.52 165.84 273.844 165.84 274.006 166.002C274.168 166.163 274.168 166.163 274.33 166.325C274.654 167.133 274.978 167.942 274.978 168.75C274.978 169.558 274.33 170.366 273.682 170.689C273.196 170.851 272.548 170.689 272.062 170.366C271.738 169.72 271.576 169.073 271.738 168.75Z" fill="#E5F6FF"/>
<path d="M280.164 169.073C280.488 169.396 280.974 169.073 281.136 168.588C281.298 168.103 281.136 167.78 281.136 167.295C281.136 166.81 281.46 166.487 281.784 166.325C281.946 166.163 282.27 166.163 282.432 166.325C282.594 166.487 282.594 166.487 282.756 166.648C283.08 167.457 283.404 168.265 283.404 169.073C283.404 169.881 282.756 170.689 282.108 171.013C281.622 171.174 280.974 171.013 280.488 170.689C280.164 170.204 280.002 169.558 280.164 169.073Z" fill="#E5F6FF"/>
<path d="M265.094 226.293C265.418 226.616 265.904 226.293 266.066 225.808C266.228 225.323 266.066 225 266.066 224.515C266.066 224.03 266.39 223.707 266.714 223.545C266.876 223.383 267.201 223.383 267.363 223.545C267.525 223.707 267.525 223.707 267.687 223.868C268.011 224.677 268.335 225.485 268.335 226.293C268.335 227.101 267.687 227.909 267.039 228.232C266.552 228.394 265.904 228.232 265.418 227.909C264.932 227.586 264.932 226.778 265.094 226.293Z" fill="#E5F6FF"/>
<path d="M315.65 180.065C315.488 180.065 315.164 180.065 315.002 180.065C314.84 180.388 314.84 180.711 315.002 181.034C315.164 181.358 315.65 181.358 315.812 181.034C315.812 180.873 315.812 180.711 315.812 180.711C315.812 180.226 315.65 179.903 315.65 179.418V180.065Z" fill="#E5F6FF"/>
<path d="M276.437 201.239C275.951 200.916 275.464 200.754 274.978 200.593C274.492 200.593 273.844 200.754 273.52 201.239C273.358 201.562 273.358 201.724 273.52 202.047C273.682 202.855 274.654 203.34 275.464 203.179C276.113 203.017 276.599 202.047 276.437 201.239Z" fill="#E5F6FF"/>
<path d="M306.414 165.679C307.224 165.517 307.872 166.487 307.548 167.134C307.224 167.295 306.738 167.457 306.252 167.457C306.09 166.972 306.09 166.487 306.252 166.002L306.414 165.679Z" fill="#E5F6FF"/>
<path opacity="0.5" d="M269.793 198.653C269.469 198.491 269.145 198.491 268.821 198.491C268.497 198.491 268.173 198.653 268.173 198.976C268.011 199.461 268.659 199.946 268.659 200.431C268.821 200.916 268.497 201.562 268.659 202.047C268.983 202.532 269.631 202.371 269.955 202.047C270.279 201.724 270.441 201.077 270.441 200.592C270.441 200.108 270.441 199.623 270.279 199.299C270.117 198.814 269.631 198.653 269.145 198.814L269.793 198.653Z" fill="#E5F6FF"/>
<path d="M284.539 174.245C284.215 171.982 282.594 170.043 280.488 169.235C278.705 170.689 277.571 172.791 277.733 175.054C277.895 177.317 280.164 179.256 282.27 178.933C284.539 178.448 285.511 175.215 283.728 173.922L284.539 174.245Z" fill="#E5F6FF"/>
<path d="M305.766 160.668C305.766 160.991 305.603 161.314 305.279 161.314C304.955 161.314 304.631 161.314 304.469 160.991C304.307 160.83 304.145 160.83 304.145 160.506C303.983 160.183 304.307 159.698 304.631 159.536C304.955 159.375 305.441 159.698 305.604 160.021C305.766 160.345 305.441 160.83 305.117 160.991L305.766 160.668Z" fill="#E5F6FF"/>
<path d="M295.557 167.295C295.233 167.78 295.557 168.427 295.881 168.912C296.205 169.396 296.529 169.881 296.367 170.366C296.367 170.528 296.205 170.69 296.043 170.69C295.719 170.851 295.395 170.205 295.233 170.043C295.071 169.881 294.747 169.72 294.423 169.558C293.775 169.073 293.613 168.265 293.775 167.618C294.099 167.295 294.585 167.295 294.909 167.295C295.233 167.457 295.557 167.78 295.557 168.265V167.295Z" fill="#E5F6FF"/>
<path d="M285.349 182.004C285.187 182.004 284.863 182.004 284.701 182.166C284.539 182.489 284.701 182.974 285.025 183.136C285.349 183.297 285.835 183.136 285.835 182.812C285.997 182.327 285.673 181.842 285.349 182.004Z" fill="#E5F6FF"/>
<path d="M295.395 174.892C295.557 174.892 295.719 175.215 295.719 175.539C295.719 175.7 295.395 175.862 295.233 176.024C295.071 176.185 294.909 176.185 294.747 176.185C294.423 176.185 293.937 175.862 293.937 175.539C293.775 175.215 293.937 174.731 294.261 174.407C294.423 174.246 294.585 174.246 294.747 174.246C294.909 174.246 295.071 174.407 295.071 174.569L295.395 174.892Z" fill="#E5F6FF"/>
<path d="M302.687 192.026C303.821 190.086 303.983 187.661 302.849 185.56C300.58 185.56 298.312 186.368 297.016 188.146C295.719 189.924 296.043 192.834 297.988 193.965C299.932 195.097 302.849 193.319 302.363 191.056L302.687 192.026Z" fill="#E5F6FF"/>
<path d="M198.334 310.829C199.469 308.89 199.631 306.465 198.496 304.364C196.228 304.364 193.959 305.172 192.663 306.95C191.367 308.728 191.691 311.638 193.635 312.769C195.58 313.901 198.496 312.123 198.01 309.86L198.334 310.829Z" fill="#E5F6FF"/>
<path d="M313.057 177.963C312.571 177.64 311.923 178.448 312.085 179.095C312.409 179.741 313.057 179.903 313.705 180.226C314.192 179.418 314.029 178.448 313.381 177.64L313.057 177.963Z" fill="#E5F6FF"/>
<path d="M298.636 159.052C298.474 159.052 298.15 159.052 297.988 159.213C297.826 159.536 297.988 160.021 298.312 160.183C298.636 160.345 299.122 160.183 299.122 159.86C299.446 159.375 299.122 159.052 298.636 159.052Z" fill="#E5F6FF"/>
<path d="M298.798 170.851C296.529 170.528 294.099 170.851 291.83 171.497C291.506 171.659 291.182 171.821 290.858 171.982C290.372 172.467 290.21 173.275 290.372 174.084C290.696 175.862 292.316 177.155 294.099 177.478C295.881 177.801 297.664 176.993 298.96 175.7C299.608 174.892 300.094 174.084 300.094 173.114C300.094 172.144 299.284 171.174 298.312 171.013C298.15 171.174 298.312 171.659 298.474 171.821L298.798 170.851Z" fill="#E5F6FF"/>
<path d="M291.506 209.159C289.886 207.704 287.455 207.058 285.349 207.704C284.863 209.806 285.187 212.392 286.645 214.008C288.103 215.625 291.02 215.948 292.641 214.332C294.099 212.715 292.965 209.321 290.858 209.483L291.506 209.159Z" fill="#E5F6FF"/>
<path d="M258.613 182.974C257.802 182.327 256.668 182.004 255.696 182.166C255.696 182.651 255.858 183.136 256.02 183.459C256.182 183.782 256.668 184.105 257.154 184.105C257.802 183.944 258.126 183.297 258.288 182.651C258.288 182.812 258.45 182.974 258.45 183.136L258.613 182.974Z" fill="#E5F6FF"/>
<path d="M252.455 187.177C252.131 187.177 251.807 187.015 251.645 187.177C251.321 187.338 251.159 187.5 250.997 187.823C250.511 188.47 250.025 189.116 249.538 189.601C250.835 189.44 252.131 189.278 253.427 189.116C253.589 189.116 253.589 189.116 253.751 189.116C254.075 189.278 254.075 189.763 254.4 189.924C254.724 190.248 255.372 190.086 255.858 189.924C258.937 188.146 253.913 187.5 252.455 187.177Z" fill="#E5F6FF"/>
<path d="M292.965 166.972C292.641 166.972 292.154 166.972 291.83 166.972C291.992 167.78 292.479 168.427 293.127 168.588C293.937 168.75 294.585 167.942 294.261 167.133C294.099 166.649 293.613 166.164 293.937 166.002L292.965 166.972Z" fill="#E5F6FF"/>
<path d="M269.631 189.116C269.955 189.116 270.279 189.116 270.603 189.116C270.279 189.763 269.307 190.086 268.497 190.086C268.011 190.086 267.525 190.086 267.363 189.763C267.201 189.439 267.363 189.116 267.363 188.793C267.363 188.146 266.714 187.5 267.038 187.015C267.201 186.692 267.687 186.692 268.011 186.853C268.335 187.015 268.497 187.338 268.659 187.661C269.145 188.308 269.469 188.955 269.955 189.601L269.631 189.116Z" fill="#E5F6FF"/>
<path d="M272.224 200.916C271.738 200.593 271.089 201.401 271.252 202.047C271.576 202.694 272.224 202.855 272.872 203.179C273.358 202.371 273.196 201.401 272.548 200.593L272.224 200.916Z" fill="#E5F6FF"/>
<path opacity="0.5" d="M259.099 196.552C259.261 196.713 259.261 197.198 259.099 197.36C258.937 197.521 258.613 197.683 258.288 197.683C258.126 197.683 257.964 197.683 257.802 197.521C257.478 197.36 257.316 196.713 257.64 196.39C257.964 196.067 258.45 196.067 258.775 196.228C259.099 196.552 259.261 197.036 258.937 197.36L259.099 196.552Z" fill="#E5F6FF"/>
<path d="M259.747 192.511C260.071 191.864 259.423 191.217 258.775 191.379C258.613 191.702 258.613 192.026 258.613 192.349C258.613 192.672 258.937 192.995 259.423 192.995C259.747 192.995 260.071 192.511 259.909 192.187L259.747 192.511Z" fill="#E5F6FF"/>
<path d="M263.96 178.61C263.636 177.963 262.826 177.478 262.015 177.317C262.015 177.963 262.015 178.61 261.853 179.256C261.853 179.58 261.853 179.903 262.015 180.064C262.339 180.549 263.15 180.711 263.474 180.226C264.122 179.903 264.122 179.256 263.96 178.61Z" fill="#E5F6FF"/>
<path opacity="0.5" d="M264.608 203.825C264.932 204.149 265.094 204.633 264.932 205.118C264.77 205.603 264.446 205.927 263.96 205.927C263.636 205.927 263.312 205.765 263.312 205.442C263.312 205.28 263.474 205.28 263.474 205.118C263.798 204.633 264.122 204.149 264.446 203.825C264.608 203.664 264.608 203.825 264.608 203.825Z" fill="#E5F6FF"/>
<path opacity="0.5" d="M262.177 212.392C261.691 212.715 261.853 213.362 262.015 214.008C262.177 214.493 262.339 215.14 262.015 215.625C261.853 215.787 261.691 215.787 261.691 215.787C261.367 215.787 261.205 215.14 261.205 214.817C261.043 214.493 260.881 214.332 260.719 214.008C260.233 213.362 260.395 212.554 260.719 211.907C261.043 211.746 261.529 211.746 261.853 212.069C262.177 212.392 262.339 212.715 262.177 213.2V212.392Z" fill="#E5F6FF"/>
<path opacity="0.5" d="M274.33 162.769C273.844 163.092 274.006 163.739 274.168 164.385C274.33 164.87 274.492 165.517 274.168 166.002C274.006 166.163 273.844 166.163 273.844 166.163C273.52 166.163 273.358 165.517 273.358 165.194C273.196 164.87 273.034 164.709 272.872 164.385C272.386 163.739 272.548 162.931 272.872 162.284C273.196 162.123 273.682 162.123 274.006 162.446C274.33 162.769 274.492 163.092 274.33 163.577V162.769Z" fill="#E5F6FF"/>
<path opacity="0.5" d="M256.83 210.776C256.668 210.776 256.344 210.776 256.182 210.614C256.02 210.937 256.02 211.261 256.182 211.584C256.344 211.907 256.83 211.907 257.154 211.584C257.478 211.261 257.316 210.776 256.83 210.776Z" fill="#E5F6FF"/>
<path d="M260.233 187.823C260.557 188.146 261.043 187.823 261.205 187.338C261.367 186.853 261.205 186.53 261.205 186.045C261.205 185.56 261.529 185.237 261.853 185.075C262.015 184.914 262.339 184.914 262.501 185.075C262.663 185.237 262.663 185.237 262.826 185.399C263.15 186.207 263.474 187.015 263.474 187.823C263.474 188.631 262.826 189.44 262.177 189.763C261.691 189.924 261.043 189.763 260.557 189.44C260.233 188.955 260.071 188.308 260.233 187.823Z" fill="#E5F6FF"/>
<path d="M253.751 178.61C253.427 178.125 252.779 178.125 252.293 178.448C251.807 178.771 251.645 179.256 251.807 179.903C251.807 180.064 251.969 180.388 252.131 180.388C252.293 180.388 252.455 180.226 252.455 180.226C252.941 179.741 253.265 179.256 253.751 178.771V178.61Z" fill="#E5F6FF"/>
<path d="M278.381 194.288C278.867 195.258 278.057 196.551 277.085 196.713C276.761 195.905 276.599 195.097 276.761 194.288C276.923 193.48 277.895 192.834 278.705 193.157C278.867 193.642 279.029 193.965 279.353 194.45L278.381 194.288Z" fill="#E5F6FF"/>
<path opacity="0.5" d="M254.075 193.965C253.913 193.965 253.589 193.965 253.427 193.965C253.265 194.289 253.265 194.612 253.427 194.935C253.589 195.259 254.075 195.259 254.238 194.935C254.238 194.774 254.238 194.612 254.238 194.612C254.238 194.127 254.075 193.804 254.075 193.319V193.965Z" fill="#E5F6FF"/>
<path d="M308.844 170.366C308.358 170.043 307.872 169.881 307.386 169.719C306.9 169.719 306.252 169.881 305.928 170.366C305.766 170.689 305.766 170.851 305.928 171.174C306.09 171.982 307.062 172.467 307.872 172.306C308.52 172.144 309.006 171.174 308.844 170.366Z" fill="#E5F6FF"/>
<path d="M292.965 199.138C292.641 199.138 292.154 199.138 291.83 199.299C291.83 199.623 291.83 199.946 291.83 200.108C292.316 200.269 292.965 199.946 293.127 199.461L292.965 199.138Z" fill="#E5F6FF"/>
<path d="M337.849 166.487C338.011 166.648 338.011 167.133 337.849 167.295C337.687 167.457 337.363 167.618 337.039 167.618C336.877 167.618 336.715 167.618 336.553 167.457C336.229 167.295 336.067 166.648 336.391 166.325C336.715 166.002 337.201 166.002 337.525 166.164C337.849 166.487 338.011 166.972 337.687 167.295L337.849 166.487Z" fill="#E5F6FF"/>
<path d="M285.025 194.127C284.701 194.127 284.215 194.127 283.89 194.289C283.89 194.612 283.89 194.935 283.89 195.097C284.377 195.258 285.025 194.935 285.187 194.45L285.025 194.127Z" fill="#E5F6FF"/>
<path d="M281.784 163.416C281.622 163.093 280.974 163.254 280.812 163.577C280.65 163.901 280.488 164.386 280.326 164.709C280.164 165.032 279.84 165.355 279.353 165.517C279.029 165.517 278.867 165.517 278.705 165.355C278.543 165.194 278.543 165.032 278.543 164.871C278.381 164.062 278.381 163.254 278.705 162.446C279.029 161.638 279.677 160.991 280.65 160.991C281.298 160.991 281.784 161.314 282.108 161.799C282.108 162.446 282.108 163.093 281.784 163.416Z" fill="#E5F6FF"/>
<path d="M300.094 176.347C300.418 176.508 300.58 176.67 300.904 176.832C301.229 176.832 301.553 176.832 301.715 176.508C302.039 176.023 301.553 175.539 301.715 174.892C301.715 174.407 302.201 173.922 302.039 173.437C301.877 172.952 301.229 172.791 300.742 173.114C300.256 173.437 300.094 173.922 299.932 174.407C299.77 174.892 299.608 175.377 299.77 175.7C299.932 176.185 300.256 176.508 300.742 176.508L300.094 176.347Z" fill="#E5F6FF"/>
<path d="M275.789 178.286C277.733 177.963 279.515 177.155 280.974 176.023C281.298 175.862 281.46 175.7 281.622 175.377C281.946 174.892 281.784 174.245 281.46 173.599C280.812 172.306 279.191 171.659 277.733 171.821C276.275 171.982 274.978 173.114 274.492 174.407C274.168 175.215 274.006 176.023 274.33 176.67C274.654 177.478 275.464 177.963 276.275 177.801C276.437 177.64 276.113 177.316 275.951 177.316L275.789 178.286Z" fill="#E5F6FF"/>
<path d="M277.895 164.385C277.895 164.062 277.733 163.739 277.571 163.577C277.409 163.416 277.085 163.416 276.761 163.416C275.951 163.416 275.302 163.254 274.492 163.092C275.302 164.062 275.951 165.194 276.761 166.163C276.761 166.325 276.923 166.325 276.923 166.487C277.085 166.81 276.599 167.133 276.437 167.457C276.275 167.941 276.761 168.426 277.085 168.75C280.164 170.528 278.219 166.002 277.895 164.385Z" fill="#E5F6FF"/>
<path d="M275.627 177.802C275.465 177.802 275.14 177.64 274.978 177.64C274.816 177.963 274.654 178.286 274.978 178.61C275.14 178.933 275.627 178.933 275.951 178.61C276.113 178.448 275.951 177.963 275.627 177.802Z" fill="#E5F6FF"/>
<path d="M272.71 167.78C272.872 167.295 272.71 166.648 272.224 166.487C271.738 166.325 271.089 166.487 270.765 166.81C270.603 166.972 270.441 167.133 270.603 167.457C270.603 167.618 270.927 167.618 271.089 167.618C271.738 167.78 272.386 167.941 273.034 168.103L272.71 167.78Z" fill="#E5F6FF"/>
<path d="M273.034 174.73C273.196 173.761 273.034 172.629 272.224 171.821C271.9 172.144 271.414 172.306 271.251 172.791C271.089 173.114 270.927 173.761 271.251 174.084C271.576 174.569 272.386 174.569 273.034 174.407C272.872 174.569 272.872 174.73 272.71 174.892L273.034 174.73Z" fill="#E5F6FF"/>
<path d="M270.927 178.933C271.089 179.095 271.252 179.418 271.414 179.741C270.603 179.741 269.955 179.095 269.469 178.448C269.145 178.125 268.983 177.64 269.145 177.155C269.307 176.832 269.631 176.832 269.955 176.67C270.441 176.347 270.765 175.377 271.414 175.539C271.738 175.539 272.062 176.023 272.062 176.347C272.062 176.67 271.9 176.993 271.738 177.317C271.414 177.963 271.089 178.61 270.603 179.418L270.927 178.933Z" fill="#E5F6FF"/>
<path d="M277.247 168.911C277.571 168.265 277.733 167.457 277.409 166.648C276.761 166.972 276.275 167.295 275.627 167.457C275.302 167.618 275.14 167.78 274.978 167.942C274.654 168.426 274.978 169.235 275.627 169.396C276.113 169.72 276.761 169.396 277.247 168.911Z" fill="#E5F6FF"/>
<path d="M267.363 170.366C267.363 170.851 267.849 171.013 268.335 171.013C268.821 170.851 269.145 170.528 269.469 170.366C269.955 170.205 270.279 170.205 270.765 170.528C270.927 170.689 271.251 170.851 271.251 171.174C271.251 171.336 271.089 171.498 271.089 171.659C270.603 172.306 270.117 172.952 269.307 173.437C268.497 173.761 267.525 173.761 267.039 173.276C266.552 172.952 266.39 172.306 266.552 171.659C266.714 171.013 266.876 170.366 267.363 170.366Z" fill="#E5F6FF"/>
<path d="M291.506 183.136C291.506 182.651 291.506 182.004 291.344 181.519C291.182 181.034 290.696 180.549 290.048 180.549C289.724 180.549 289.562 180.711 289.238 180.873C288.59 181.358 288.59 182.489 289.238 183.136C289.886 183.782 291.02 183.782 291.506 183.136Z" fill="#E5F6FF"/>
<path d="M293.127 170.851C293.289 169.881 293.127 168.75 292.316 167.942C291.992 168.265 291.506 168.427 291.344 168.911C291.182 169.235 291.02 169.881 291.344 170.205C291.668 170.689 292.478 170.689 293.127 170.528C292.965 170.689 292.965 170.851 292.803 171.013L293.127 170.851Z" fill="#E5F6FF"/>
<path d="M269.307 180.226C268.821 180.549 268.821 181.196 268.983 181.843C269.145 182.328 269.307 182.974 268.821 183.459C268.659 183.621 268.497 183.621 268.335 183.621C268.011 183.621 268.011 182.974 267.849 182.651C267.687 182.328 267.525 182.166 267.363 181.843C267.038 181.196 267.038 180.388 267.525 179.741C267.849 179.58 268.335 179.741 268.659 179.903C268.983 180.226 268.983 180.711 268.983 181.034L269.307 180.226Z" fill="#E5F6FF"/>
<path d="M312.409 185.398C312.247 185.56 312.085 185.56 311.761 185.722C311.761 186.045 311.923 186.368 312.409 186.53C312.733 186.53 313.219 186.368 313.219 186.045C313.219 185.56 312.895 185.237 312.409 185.398Z" fill="#E5F6FF"/>
<path d="M281.136 172.468C280.974 172.306 280.974 171.983 280.812 171.821C280.488 171.983 280.164 171.983 280.001 172.306C279.839 172.629 280.001 173.114 280.326 173.114C280.488 173.114 280.488 172.953 280.65 172.953C280.974 172.629 281.298 172.468 281.622 172.144L281.136 172.468Z" fill="#E5F6FF"/>
<path d="M75.1856 251.67C78.5884 253.125 82.4773 253.61 86.0421 253.286C86.6903 253.286 87.1764 253.125 87.8246 252.801C88.7968 252.317 89.2829 251.023 89.2829 249.892C89.4449 247.144 87.5005 244.396 84.9079 243.265C82.3153 242.133 79.2366 242.618 76.806 244.235C75.5097 245.043 74.3754 246.336 74.0513 247.791C73.7273 249.245 74.5375 251.023 75.9958 251.508C76.4819 251.185 76.3199 250.539 75.9958 250.377L75.1856 251.67Z" fill="white"/>
<path d="M85.556 246.659C86.3662 247.952 87.8245 248.76 89.2829 248.76C90.093 247.467 90.2551 245.689 89.6069 244.396C88.9588 243.103 87.0143 242.295 85.718 243.103C84.4217 243.911 84.5838 246.336 86.0421 246.659H85.556Z" fill="white"/>
<path d="M99.0051 248.922C99.0051 249.569 99.1672 250.377 99.8153 250.862C99.9774 250.7 100.301 250.377 100.463 250.054C100.626 249.73 100.626 249.407 100.301 249.245C99.9774 248.922 99.4912 249.084 99.0051 249.245C99.0051 249.084 99.1672 249.084 99.1672 248.922H99.0051Z" fill="white"/>
<path d="M96.0885 249.084C95.9264 249.084 95.6023 249.084 95.4403 248.922C95.7644 248.599 96.4125 248.599 97.0607 248.76C97.3848 248.76 97.7088 248.922 97.7088 249.245C97.7088 249.407 97.5468 249.73 97.5468 249.892C97.5468 250.377 97.7088 250.862 97.3848 251.185C97.2227 251.347 96.8987 251.185 96.7366 251.023C96.5746 250.862 96.5746 250.538 96.4125 250.377C96.2505 249.892 96.0885 249.407 95.9264 248.922L96.0885 249.084Z" fill="white"/>
<path opacity="0.5" d="M131.899 251.347C132.223 251.67 132.871 251.185 132.709 250.862C132.709 250.377 132.223 250.053 131.899 249.892C131.413 250.377 131.413 251.023 131.575 251.67L131.899 251.347Z" fill="white"/>
<path d="M134.653 235.83C134.491 235.668 134.653 235.345 134.816 235.345C134.978 235.183 135.302 235.183 135.464 235.345C135.626 235.345 135.626 235.506 135.788 235.506C135.95 235.668 135.95 236.153 135.788 236.314C135.626 236.476 135.14 236.476 134.978 236.153C134.816 235.991 134.816 235.506 134.978 235.345L134.653 235.83Z" fill="white"/>
<path d="M103.704 244.396C103.218 244.558 103.056 245.205 103.542 245.366C103.704 245.366 104.028 245.205 104.19 245.043C104.352 244.881 104.352 244.558 104.19 244.396C104.028 244.235 103.704 244.235 103.542 244.396H103.704Z" fill="white"/>
<path d="M94.306 247.791C94.144 248.276 94.144 248.922 94.4681 249.407C94.7921 249.084 95.1162 248.922 95.6023 248.599C95.7644 248.437 95.9264 248.437 96.0884 248.114C96.2505 247.791 95.9264 247.306 95.6023 247.144C95.1162 247.306 94.6301 247.467 94.306 247.791Z" fill="white"/>
<path opacity="0.5" d="M129.468 238.739C129.63 238.739 129.792 238.577 129.792 238.577C129.792 238.416 129.63 238.092 129.306 238.092C129.144 238.092 128.82 238.254 128.82 238.577C128.82 238.9 129.144 238.9 129.468 238.739Z" fill="white"/>
<path d="M100.95 246.013C100.95 245.689 100.626 245.528 100.301 245.689C99.9774 245.851 99.8154 246.013 99.6533 246.174C99.3292 246.336 99.0052 246.336 98.8431 246.174C98.6811 246.174 98.519 246.013 98.519 245.851C98.519 245.689 98.519 245.689 98.6811 245.528C99.0052 245.043 99.1672 244.558 99.6533 244.235C100.139 243.911 100.788 243.911 101.274 244.235C101.598 244.396 101.76 244.881 101.76 245.204C101.436 245.528 101.274 246.013 100.95 246.013Z" fill="white"/>
<path d="M98.681 253.286C98.519 253.61 98.8431 254.095 99.1672 254.095C99.4912 254.095 99.9773 254.095 100.139 253.771C100.301 253.61 100.301 253.448 100.301 253.286C100.301 253.125 100.139 253.125 99.9774 253.125C99.4912 253.286 99.0051 253.286 98.681 253.286Z" fill="white"/>
<path d="M115.533 252.64C115.371 251.993 116.181 251.185 116.829 251.347C116.829 251.993 116.829 252.478 116.505 252.963C116.181 253.448 115.533 253.771 115.047 253.286C115.047 252.963 114.885 252.64 114.885 252.316L115.533 252.64Z" fill="white"/>
<path d="M58.8197 247.144C58.6577 247.144 58.4957 246.983 58.4957 246.821C58.4957 246.659 58.6577 246.498 58.6577 246.336C58.8197 246.174 58.8197 246.174 58.9818 246.013C59.1438 245.851 59.4679 246.013 59.6299 246.174C59.792 246.336 59.792 246.659 59.6299 246.983C59.6299 247.144 59.4679 247.144 59.3059 247.306C59.1438 247.306 58.9818 247.306 58.9818 247.144H58.8197Z" fill="white"/>
<path d="M106.945 246.821C106.945 246.983 107.107 247.144 107.107 247.144C107.269 246.983 107.593 246.983 107.593 246.659C107.755 246.498 107.593 246.174 107.269 246.174C107.107 246.174 107.107 246.336 107.107 246.336C106.945 246.498 106.783 246.821 106.459 246.983L106.945 246.821Z" fill="white"/>
<path d="M115.047 246.013C115.371 246.336 115.533 246.497 116.019 246.659C116.343 246.821 116.829 246.821 116.991 246.497C117.153 246.336 117.153 246.174 117.153 246.013C117.153 245.366 116.667 244.881 116.181 244.881C115.533 244.881 115.047 245.366 115.047 246.013Z" fill="white"/>
<path d="M117.964 248.761C118.288 248.761 118.45 248.922 118.774 248.922C118.936 248.761 118.936 248.599 118.936 248.276C118.612 248.114 118.126 248.114 117.964 248.437V248.761Z" fill="white"/>
<path d="M100.463 265.894C101.922 265.894 103.38 265.409 104.676 264.601C104.838 264.439 105.163 264.278 105.163 264.116C105.487 263.793 105.325 263.146 105.163 262.823C104.676 261.853 103.542 261.045 102.408 261.206C101.274 261.206 100.139 262.015 99.6533 262.984C99.3292 263.469 99.1672 264.116 99.3292 264.763C99.4912 265.409 100.139 265.894 100.625 265.894C100.788 265.732 100.625 265.409 100.463 265.409V265.894Z" fill="white"/>
<path d="M90.9033 236.799C91.2273 237.446 91.8755 237.769 92.6857 237.931C92.6857 237.608 92.8477 237.284 92.6857 236.961C92.6857 236.638 92.3616 236.314 92.0375 236.314C91.5514 236.314 91.2273 236.638 91.0653 236.961C91.0653 236.799 91.0653 236.799 91.0653 236.638L90.9033 236.799Z" fill="white"/>
<path d="M95.7644 235.183C95.9264 235.345 96.0885 235.345 96.2505 235.345C96.4125 235.345 96.5746 235.183 96.7366 235.021C97.0607 234.698 97.5468 234.375 98.0329 234.051C97.2227 233.89 96.2505 233.728 95.4403 233.567H95.2783C95.1162 233.405 95.1162 233.082 95.1162 232.92C94.9542 232.597 94.4681 232.597 94.144 232.597C91.7134 233.243 94.9542 234.536 95.7644 235.183Z" fill="white"/>
<path d="M86.5283 238.577C86.6903 239.062 87.0144 239.547 87.5005 239.709C87.6625 239.224 87.8246 238.901 87.9866 238.416C87.9866 238.254 88.1486 238.092 88.1486 237.769C87.9866 237.446 87.5005 237.123 87.1764 237.284C86.8523 237.607 86.5283 238.092 86.5283 238.577Z" fill="white"/>
<path d="M60.4401 238.577C60.6022 238.577 60.7642 238.416 60.7642 238.416C60.7642 238.254 60.6022 237.931 60.2781 237.931C60.1161 237.931 59.792 238.092 59.792 238.416C59.954 238.577 60.2781 238.739 60.4401 238.577Z" fill="white"/>
<path d="M93.3338 240.355C93.4958 240.679 93.8199 240.84 94.144 240.679C94.4681 240.517 94.6301 240.194 94.7921 239.87C94.7921 239.709 94.7921 239.547 94.6301 239.547C94.4681 239.547 94.4681 239.547 94.306 239.709C93.9819 239.87 93.4958 240.194 93.3338 240.355Z" fill="white"/>
<path d="M90.9033 246.174C91.2273 246.497 91.3894 246.659 91.8755 246.821C92.1996 246.982 92.6857 246.982 92.8477 246.659C93.0098 246.497 93.0098 246.336 93.0098 246.174C93.0098 245.528 92.5237 245.043 92.0375 245.043C91.3894 245.043 90.9033 245.689 90.9033 246.174Z" fill="white"/>
<path d="M108.241 254.094C108.565 253.933 108.727 253.448 108.727 253.125C108.727 252.801 108.727 252.316 109.052 251.993C109.214 251.993 109.214 251.832 109.376 251.993C109.7 252.155 109.538 252.478 109.538 252.801C109.538 252.963 109.7 253.286 109.7 253.448C109.862 253.933 109.7 254.579 109.214 254.903C108.889 254.903 108.727 254.903 108.565 254.579C108.403 254.418 108.403 254.095 108.565 253.771L108.241 254.094Z" fill="white"/>
<path d="M116.019 248.599C116.343 248.437 116.505 247.952 116.505 247.629C116.505 247.306 116.505 246.821 116.829 246.497C116.991 246.497 116.991 246.336 117.153 246.497C117.477 246.659 117.315 246.982 117.315 247.306C117.315 247.467 117.477 247.79 117.477 247.952C117.64 248.437 117.477 249.084 116.991 249.407C116.667 249.407 116.505 249.407 116.343 249.084C116.181 248.922 116.181 248.599 116.343 248.275L116.019 248.599Z" fill="white"/>
<path d="M122.825 250.054C123.149 250.215 123.473 250.215 123.797 250.215H123.959C124.121 250.215 124.121 250.054 124.121 249.892C124.121 249.73 123.959 249.407 123.797 249.407C123.635 249.245 123.311 249.407 123.149 249.569C122.987 249.569 122.987 249.73 122.987 249.892C122.825 249.892 122.825 250.054 122.825 250.054C122.987 250.054 122.987 250.054 122.825 250.054Z" fill="white"/>
<path d="M77.9402 245.043C78.2643 245.689 78.9125 246.013 79.7227 246.174C79.7227 245.851 79.8847 245.528 79.7227 245.204C79.7227 244.881 79.3986 244.558 79.0745 244.558C78.5884 244.558 78.2643 244.881 78.1023 245.204C78.1023 245.043 78.1023 245.043 78.1023 244.881L77.9402 245.043Z" fill="white"/>
<path d="M78.9124 238.577C78.5884 238.901 78.9124 239.547 79.3985 239.547C79.5606 239.386 79.7226 239.224 79.7226 238.901C79.7226 238.739 79.5606 238.416 79.3985 238.416C79.2365 238.416 78.9124 238.577 78.9124 238.739V238.577Z" fill="white"/>
<path d="M89.1209 244.558C88.7968 244.881 89.1209 245.528 89.607 245.528C89.769 245.366 89.9311 245.204 89.9311 244.881C89.9311 244.72 89.769 244.396 89.607 244.396C89.4449 244.396 89.1209 244.558 89.1209 244.72V244.558Z" fill="white"/>
<path d="M77.7782 241.487C77.6161 241.325 77.2921 241.325 77.13 241.648C76.968 241.972 76.968 242.133 76.806 242.457C76.6439 242.78 76.4819 242.941 76.1578 242.941C75.9958 242.941 75.8337 242.941 75.6717 242.78C75.6717 242.618 75.5097 242.618 75.5097 242.457C75.3476 241.972 75.3476 241.325 75.5097 240.84C75.6717 240.355 76.1578 239.87 76.806 239.87C77.13 239.87 77.6161 240.032 77.7782 240.355C77.9402 240.84 77.9402 241.325 77.7782 241.487Z" fill="white"/>
<path d="M110.024 250.7C109.862 250.538 109.538 250.538 109.376 250.862C109.214 251.185 109.214 251.347 109.052 251.67C108.889 251.993 108.727 252.155 108.403 252.155C108.241 252.155 108.079 252.155 107.917 251.993C107.917 251.832 107.755 251.832 107.755 251.67C107.593 251.185 107.593 250.538 107.755 250.054C107.917 249.569 108.403 249.084 109.052 249.084C109.376 249.084 109.862 249.245 110.024 249.569C110.348 250.054 110.348 250.377 110.024 250.7Z" fill="white"/>
<path d="M109.7 254.418C109.538 254.256 109.214 254.256 109.052 254.58C108.889 254.903 108.889 255.064 108.727 255.388C108.565 255.711 108.403 255.873 108.079 255.873C107.917 255.873 107.755 255.873 107.593 255.711C107.593 255.549 107.431 255.549 107.431 255.388C107.269 254.903 107.269 254.256 107.431 253.771C107.593 253.286 108.079 252.802 108.727 252.802C109.052 252.802 109.538 252.963 109.7 253.286C109.862 253.771 109.862 254.095 109.7 254.418Z" fill="white"/>
<path d="M104.19 252.478C104.028 252.317 103.704 252.317 103.542 252.64C103.38 252.963 103.38 253.125 103.218 253.448C103.056 253.771 102.894 253.933 102.57 253.933C102.408 253.933 102.246 253.933 102.084 253.771C102.084 253.61 101.922 253.61 101.922 253.448C101.76 252.963 101.76 252.317 101.922 251.832C102.084 251.347 102.57 250.862 103.218 250.862C103.542 250.862 104.028 251.023 104.19 251.347C104.352 251.832 104.352 252.317 104.19 252.478Z" fill="white"/>
<path d="M124.769 217.888C124.607 217.726 124.283 217.726 124.121 218.049C123.959 218.373 123.959 218.534 123.797 218.857C123.635 219.181 123.473 219.342 123.149 219.342C122.987 219.342 122.825 219.342 122.663 219.181C122.663 219.019 122.501 219.019 122.501 218.857C122.339 218.373 122.339 217.726 122.501 217.241C122.663 216.756 123.149 216.271 123.797 216.271C124.121 216.271 124.607 216.433 124.769 216.756C124.931 217.241 124.931 217.564 124.769 217.888Z" fill="white"/>
<path d="M82.9634 238.739C83.1254 238.739 83.2875 238.901 83.4495 238.901C83.6115 238.739 83.6115 238.416 83.6115 238.254C83.6115 238.092 83.2875 237.931 83.1254 238.092C83.1254 238.092 83.1254 238.254 83.1254 238.416C83.1254 238.739 83.1254 239.062 82.9634 239.224V238.739Z" fill="white"/>
<path d="M112.616 232.112C112.94 232.435 113.102 232.597 113.589 232.758C113.913 232.92 114.399 232.92 114.561 232.597C114.723 232.435 114.723 232.273 114.723 232.112C114.723 231.465 114.237 230.98 113.751 230.98C113.264 230.98 112.616 231.627 112.616 232.112Z" fill="white"/>
<path d="M86.3662 249.892C85.8801 249.892 85.556 249.084 85.8801 248.599C86.2042 248.599 86.5282 248.599 86.8523 248.599C86.8523 248.922 86.6903 249.245 86.5282 249.569L86.3662 249.892Z" fill="white"/>
<path opacity="0.5" d="M116.505 235.021C116.667 235.183 116.829 235.344 117.153 235.344C117.315 235.344 117.64 235.344 117.802 235.183C117.964 234.86 117.64 234.536 117.802 234.213C117.802 233.89 118.126 233.566 118.126 233.243C117.964 232.92 117.477 232.758 117.315 232.92C116.991 233.081 116.829 233.405 116.667 233.728C116.505 234.051 116.505 234.375 116.505 234.698C116.505 235.021 116.829 235.344 117.153 235.183L116.505 235.021Z" fill="white"/>
<path d="M102.246 248.437C102.084 249.892 102.732 251.508 104.028 252.478C105.487 251.832 106.621 250.7 106.945 249.245C107.269 247.791 106.135 246.013 104.676 245.851C103.218 245.689 101.76 247.629 102.732 248.922L102.246 248.437Z" fill="white"/>
<path d="M85.718 253.286C85.718 253.125 85.8801 252.963 86.2041 252.963C86.3662 252.963 86.5282 253.125 86.6903 253.286C86.6903 253.448 86.8523 253.448 86.8523 253.61C86.8523 253.933 86.6902 254.095 86.3662 254.095C86.0421 254.095 85.8801 253.771 85.8801 253.61C85.8801 253.286 86.0421 253.125 86.3662 252.963L85.718 253.286Z" fill="white"/>
<path d="M93.6579 250.862C93.982 250.538 93.82 250.215 93.6579 249.73C93.4959 249.407 93.3339 248.922 93.6579 248.599C93.6579 248.437 93.82 248.437 93.982 248.437C94.3061 248.437 94.3061 248.76 94.4681 249.084C94.6301 249.245 94.7922 249.407 94.7922 249.568C95.1162 250.053 95.1162 250.538 94.7922 251.023C94.6301 251.185 94.3061 251.185 93.982 251.023C93.82 250.862 93.6579 250.538 93.6579 250.215V250.862Z" fill="white"/>
<path d="M103.218 243.103C103.38 243.103 103.542 243.103 103.704 243.103C103.866 242.942 103.866 242.618 103.704 242.457C103.542 242.295 103.218 242.295 103.056 242.457C102.732 242.78 102.894 243.103 103.218 243.103Z" fill="white"/>
<path d="M95.2783 246.013C95.1162 246.013 95.1162 245.689 95.2783 245.528C95.4403 245.366 95.6023 245.366 95.7644 245.204C95.9264 245.204 96.0885 245.204 96.0885 245.204C96.4125 245.204 96.5746 245.528 96.5746 245.851C96.5746 246.174 96.4125 246.336 96.0885 246.497C95.9264 246.497 95.7644 246.659 95.7644 246.497C95.6023 246.497 95.6023 246.336 95.6023 246.174L95.2783 246.013Z" fill="white"/>
<path d="M93.6579 233.405C92.5236 234.375 92.0375 236.153 92.3616 237.607C93.8199 238.092 95.4403 237.931 96.7366 236.961C97.8709 235.991 98.357 234.051 97.2227 232.92C96.2505 231.788 93.8199 232.435 93.8199 234.051L93.6579 233.405Z" fill="white"/>
<path d="M84.2597 240.679C84.5838 241.002 85.232 240.517 85.0699 240.194C85.0699 239.709 84.5838 239.386 84.2597 239.224C83.7736 239.709 83.7736 240.355 83.9357 241.002L84.2597 240.679Z" fill="white"/>
<path d="M90.0931 255.711C90.2551 255.711 90.4171 255.711 90.5792 255.711C90.7412 255.549 90.7412 255.226 90.5792 255.064C90.4171 254.903 90.0931 254.903 89.931 255.064C89.769 255.226 89.769 255.549 90.0931 255.711Z" fill="white"/>
<path d="M92.3616 247.952C93.82 248.599 95.4403 248.922 97.0607 248.76C97.3848 248.76 97.5468 248.76 97.8709 248.599C98.357 248.437 98.519 247.791 98.519 247.306C98.6811 246.013 97.8709 244.881 96.7366 244.396C95.6024 243.911 94.3061 244.073 93.1718 244.719C92.5237 245.043 92.0376 245.528 91.8755 246.336C91.7135 246.982 92.0376 247.791 92.6857 247.952C92.8477 247.791 92.8477 247.467 92.6857 247.467L92.3616 247.952Z" fill="white"/>
<path d="M104.19 224.191C105.001 225.484 106.459 226.293 107.917 226.293C108.727 225 108.889 223.222 108.241 221.928C107.593 220.635 105.649 219.827 104.352 220.635C103.056 221.444 103.218 223.868 104.677 224.191H104.19Z" fill="white"/>
<path d="M120.88 247.467C121.204 248.114 121.852 248.437 122.663 248.599C122.663 248.276 122.825 247.952 122.663 247.629C122.663 247.306 122.339 246.982 122.015 246.982C121.528 246.982 121.204 247.306 121.042 247.629C121.042 247.467 121.042 247.467 121.042 247.306L120.88 247.467Z" fill="white"/>
<path d="M125.741 246.013C125.903 246.174 126.065 246.174 126.227 246.174C126.39 246.174 126.552 246.013 126.714 245.851C127.038 245.528 127.524 245.205 128.01 244.881C127.2 244.72 126.227 244.558 125.417 244.396H125.255C125.093 244.235 125.093 243.911 125.093 243.75C124.931 243.427 124.445 243.427 124.121 243.427C121.69 244.073 124.769 245.366 125.741 246.013Z" fill="white"/>
<path d="M95.2782 251.508C95.6023 251.508 95.7644 251.67 96.0884 251.67C96.0884 251.185 95.9264 250.538 95.4403 250.377C94.9542 250.215 94.306 250.538 94.4681 251.023C94.4681 251.347 94.7921 251.831 94.4681 251.831L95.2782 251.508Z" fill="white"/>
<path d="M114.885 241.487C114.723 241.487 114.399 241.487 114.237 241.325C114.561 241.002 115.209 241.002 115.857 241.164C116.181 241.164 116.505 241.325 116.505 241.648C116.505 241.81 116.343 242.133 116.343 242.295C116.343 242.78 116.505 243.265 116.181 243.588C116.019 243.75 115.695 243.588 115.533 243.426C115.371 243.265 115.371 242.942 115.209 242.78C115.047 242.295 114.885 241.81 114.723 241.325L114.885 241.487Z" fill="white"/>
<path d="M115.371 233.082C115.695 233.405 116.343 232.92 116.181 232.597C116.181 232.112 115.695 231.789 115.371 231.627C114.885 232.112 114.885 232.758 115.047 233.405L115.371 233.082Z" fill="white"/>
<path opacity="0.5" d="M123.149 238.416C122.987 238.254 123.149 237.931 123.311 237.931C123.473 237.769 123.797 237.769 123.959 237.931C124.121 237.931 124.121 238.092 124.283 238.092C124.445 238.254 124.445 238.739 124.283 238.901C124.121 239.062 123.635 239.062 123.473 238.739C123.311 238.577 123.311 238.092 123.473 237.931L123.149 238.416Z" fill="white"/>
<path d="M121.852 241.002C121.528 241.325 121.852 241.972 122.339 241.972C122.501 241.81 122.663 241.648 122.663 241.325C122.663 241.163 122.501 240.84 122.339 240.84C122.177 240.84 121.852 241.002 121.852 241.163V241.002Z" fill="white"/>
<path d="M116.505 249.407C116.667 249.892 116.991 250.377 117.477 250.538C117.64 250.053 117.802 249.73 117.964 249.245C117.964 249.084 118.126 248.922 118.126 248.599C117.964 248.275 117.477 247.952 117.153 248.114C116.667 248.437 116.505 248.922 116.505 249.407Z" fill="white"/>
<path opacity="0.5" d="M120.88 232.758C120.718 232.435 120.718 232.112 120.88 231.95C121.042 231.627 121.366 231.627 121.69 231.627C121.853 231.627 122.177 231.789 122.015 232.112C122.015 232.274 121.852 232.273 121.852 232.273C121.528 232.435 121.204 232.597 120.88 232.758Z" fill="white"/>
<path opacity="0.5" d="M124.121 227.586C124.445 227.424 124.607 226.939 124.607 226.616C124.607 226.293 124.607 225.808 124.931 225.484C125.093 225.484 125.093 225.323 125.255 225.484C125.579 225.646 125.417 225.969 125.417 226.293C125.417 226.454 125.579 226.778 125.579 226.939C125.741 227.424 125.579 228.071 125.093 228.394C124.769 228.394 124.607 228.394 124.445 228.071C124.283 227.909 124.283 227.586 124.445 227.262L124.121 227.586Z" fill="white"/>
<path opacity="0.5" d="M106.783 257.812C107.107 257.65 107.269 257.165 107.269 256.842C107.269 256.519 107.269 256.034 107.593 255.711C107.755 255.711 107.755 255.549 107.917 255.711C108.241 255.872 108.079 256.196 108.079 256.519C108.079 256.681 108.241 257.004 108.241 257.165C108.403 257.65 108.241 258.297 107.755 258.62C107.431 258.62 107.269 258.62 107.107 258.297C106.945 258.135 106.945 257.812 107.107 257.489L106.783 257.812Z" fill="white"/>
<path opacity="0.5" d="M127.2 229.687C127.362 229.687 127.524 229.849 127.524 229.849C127.686 229.687 127.848 229.364 127.686 229.202C127.524 229.041 127.2 228.879 127.038 229.041C127.038 229.202 127.038 229.526 127.2 229.687Z" fill="white"/>
<path d="M120.718 243.911C120.556 243.75 120.232 243.75 120.07 244.073C119.908 244.396 119.908 244.558 119.746 244.881C119.584 245.204 119.422 245.366 119.098 245.366C118.936 245.366 118.774 245.366 118.612 245.204C118.612 245.043 118.45 245.043 118.45 244.881C118.288 244.396 118.288 243.75 118.45 243.265C118.612 242.78 119.098 242.295 119.746 242.295C120.07 242.295 120.556 242.457 120.718 242.78C120.88 243.265 120.88 243.75 120.718 243.911Z" fill="white"/>
<path d="M123.311 251.185C123.473 251.508 123.797 251.67 124.121 251.508C124.445 251.347 124.607 251.023 124.769 250.7C124.769 250.538 124.769 250.377 124.607 250.377C124.445 250.377 124.445 250.377 124.283 250.538C123.797 250.7 123.473 250.862 123.311 251.185Z" fill="white"/>
<path d="M110.024 236.476C109.862 235.829 110.672 235.021 111.32 235.183C111.32 235.829 111.32 236.314 110.996 236.799C110.672 237.284 110.024 237.607 109.538 237.122C109.538 236.799 109.376 236.476 109.376 236.153L110.024 236.476Z" fill="white"/>
<path opacity="0.5" d="M125.903 241.163C126.065 241.163 126.228 241.325 126.39 241.325C126.552 241.163 126.552 240.84 126.552 240.679C126.552 240.517 126.228 240.355 126.065 240.517C126.065 240.517 126.065 240.679 126.065 240.84C126.065 241.163 126.065 241.487 125.903 241.648V241.163Z" fill="white"/>
<path d="M85.556 246.336C85.8801 246.659 86.0421 246.821 86.5283 246.982C86.8523 247.144 87.3384 247.144 87.5005 246.821C87.6625 246.659 87.6625 246.497 87.6625 246.336C87.6625 245.689 87.1764 245.204 86.6903 245.204C86.2042 245.204 85.556 245.851 85.556 246.336Z" fill="white"/>
<path d="M101.436 230.495C101.76 230.495 101.922 230.657 102.246 230.657C102.408 230.495 102.408 230.334 102.408 230.01C102.084 229.849 101.598 229.849 101.436 230.172V230.495Z" fill="white"/>
<path d="M65.7874 243.426C65.6254 243.265 65.7874 242.942 65.9494 242.942C66.1115 242.78 66.4355 242.78 66.5976 242.942C66.7596 242.942 66.7596 243.103 66.9217 243.103C67.0837 243.265 67.0837 243.75 66.9217 243.911C66.7596 244.073 66.2735 244.073 66.1115 243.75C65.9494 243.588 65.9494 243.103 66.1115 242.942L65.7874 243.426Z" fill="white"/>
<path d="M105.649 235.183C105.973 235.183 106.135 235.344 106.459 235.344C106.621 235.183 106.621 235.021 106.621 234.698C106.297 234.536 105.811 234.536 105.649 234.86V235.183Z" fill="white"/>
<path d="M102.084 256.034C102.246 256.358 102.57 256.358 102.732 256.034C102.894 255.873 103.056 255.549 103.218 255.388C103.38 255.226 103.704 255.064 104.028 255.064C104.19 255.064 104.352 255.064 104.514 255.226C104.514 255.388 104.514 255.388 104.514 255.549C104.514 256.034 104.352 256.681 104.028 257.166C103.704 257.651 103.056 257.974 102.57 257.812C102.246 257.651 101.922 257.327 101.76 257.004C101.598 256.519 101.76 256.196 102.084 256.034Z" fill="white"/>
<path d="M92.3616 244.073C92.1996 243.911 92.0375 243.75 91.8755 243.588C91.7135 243.426 91.3894 243.426 91.2274 243.588C90.9033 243.75 91.0653 244.235 91.0653 244.558C90.9033 244.881 90.5792 245.043 90.5792 245.528C90.5792 245.851 91.0653 246.174 91.3894 246.013C91.7135 245.851 92.0375 245.689 92.1996 245.366C92.3616 245.043 92.5237 244.881 92.5237 244.558C92.5237 244.235 92.3616 243.911 92.0375 243.75L92.3616 244.073Z" fill="white"/>
<path d="M108.727 247.306C107.431 247.144 106.135 247.306 104.838 247.791C104.676 247.791 104.514 247.952 104.352 248.114C104.028 248.437 104.028 248.922 104.19 249.245C104.352 250.215 105.325 251.023 106.297 251.023C107.269 251.185 108.241 250.7 108.889 249.892C109.214 249.407 109.538 248.922 109.538 248.437C109.538 247.952 109.051 247.306 108.565 247.306C108.403 247.467 108.565 247.629 108.727 247.629V247.306Z" fill="white"/>
<path d="M104.838 256.034C104.838 256.196 104.839 256.519 105.001 256.681C105.163 256.842 105.325 256.842 105.487 257.004C105.973 257.166 106.459 257.327 106.945 257.651C106.621 256.842 106.297 256.034 105.973 255.226V255.064C105.973 254.903 106.297 254.741 106.459 254.58C106.621 254.256 106.459 253.933 106.297 253.61C104.352 251.508 104.838 254.903 104.838 256.034Z" fill="white"/>
<path d="M108.727 247.629C108.889 247.629 109.051 247.791 109.051 247.791C109.214 247.629 109.376 247.306 109.214 247.144C109.051 246.982 108.727 246.821 108.565 246.982C108.565 247.144 108.565 247.629 108.727 247.629Z" fill="white"/>
<path d="M108.727 254.741C108.403 255.064 108.565 255.388 108.889 255.711C109.214 255.873 109.538 256.034 109.862 255.873C110.024 255.873 110.186 255.711 110.186 255.549C110.186 255.388 110.024 255.388 110.024 255.388C109.538 255.064 109.214 254.903 108.727 254.741Z" fill="white"/>
<path d="M109.862 250.215C109.538 250.862 109.538 251.67 109.862 252.316C110.186 252.155 110.51 252.155 110.672 251.831C110.834 251.67 110.996 251.347 110.996 251.023C110.834 250.7 110.348 250.538 109.862 250.538C110.024 250.538 110.024 250.377 110.186 250.377L109.862 250.215Z" fill="white"/>
<path d="M112.13 247.791C111.968 247.629 111.968 247.306 111.968 247.144C112.454 247.306 112.778 247.791 112.94 248.437C113.102 248.76 113.102 249.084 112.94 249.245C112.778 249.407 112.616 249.407 112.292 249.407C111.968 249.569 111.482 250.054 111.158 249.892C110.996 249.73 110.834 249.569 110.996 249.245C110.996 249.084 111.158 248.76 111.482 248.599C111.806 248.276 112.292 247.791 112.616 247.467L112.13 247.791Z" fill="white"/>
<path d="M105.973 253.125C105.649 253.448 105.325 254.094 105.487 254.579C105.973 254.418 106.297 254.418 106.783 254.256C106.945 254.256 107.269 254.094 107.431 254.094C107.755 253.771 107.593 253.286 107.269 253.125C106.945 252.963 106.459 252.963 105.973 253.125Z" fill="white"/>
<path d="M112.778 254.094C112.94 253.771 112.616 253.61 112.292 253.61C111.968 253.61 111.806 253.771 111.482 253.771C111.158 253.771 110.834 253.61 110.672 253.448C110.51 253.286 110.51 253.125 110.51 252.963C110.51 252.801 110.672 252.801 110.672 252.64C111.158 252.317 111.644 251.993 112.13 251.832C112.616 251.67 113.264 251.993 113.589 252.478C113.751 252.801 113.751 253.286 113.589 253.61C113.427 253.933 113.102 254.094 112.778 254.094Z" fill="white"/>
<path d="M99.3292 241.164C99.1672 241.487 99.1672 241.972 99.1672 242.295C99.1672 242.618 99.4912 243.103 99.8153 243.103C99.9774 243.103 100.139 243.103 100.301 242.942C100.788 242.618 100.95 241.972 100.788 241.487C100.626 241.164 99.8153 241.002 99.3292 241.164Z" fill="white"/>
<path d="M96.0885 248.922C95.7644 249.569 95.7644 250.377 96.0885 251.023C96.4125 250.862 96.7366 250.862 96.8986 250.539C97.0607 250.215 97.2227 250.054 97.2227 249.73C97.0607 249.407 96.5746 249.245 96.0885 249.245C96.2505 249.245 96.2505 249.084 96.4125 249.084L96.0885 248.922Z" fill="white"/>
<path d="M113.265 247.306C113.589 247.144 113.751 246.659 113.751 246.336C113.751 246.013 113.751 245.528 114.075 245.366C114.237 245.366 114.237 245.366 114.399 245.366C114.723 245.528 114.561 245.851 114.561 246.174C114.561 246.336 114.723 246.659 114.723 246.821C114.885 247.306 114.561 247.952 114.237 248.114C113.913 248.114 113.751 247.952 113.589 247.791C113.427 247.629 113.427 247.306 113.589 246.982L113.265 247.306Z" fill="white"/>
<path d="M86.0421 235.829C86.2042 235.829 86.3662 235.829 86.5282 235.829C86.5282 235.668 86.5282 235.345 86.3662 235.183C86.2042 235.021 85.8801 235.183 85.718 235.345C85.556 235.668 85.718 235.829 86.0421 235.829Z" fill="white"/>
<path d="M104.19 250.054C104.19 250.215 104.19 250.377 104.19 250.538C104.352 250.538 104.676 250.538 104.838 250.377C105.001 250.215 105.001 249.892 104.676 249.73C104.514 249.73 104.514 249.73 104.352 249.73C104.028 249.892 103.866 249.892 103.542 250.054H104.19Z" fill="white"/>
<path opacity="0.5" d="M159.121 358.028C195.634 358.028 225.233 351.442 225.233 343.319C225.233 335.195 195.634 328.61 159.121 328.61C122.609 328.61 93.0098 335.195 93.0098 343.319C93.0098 351.442 122.609 358.028 159.121 358.028Z" fill="url(#paint0_radial)"/>
<path d="M193.635 271.228C193.635 271.228 190.557 275.754 186.506 281.573C179.862 291.11 170.626 303.879 167.061 306.142C165.441 307.273 164.306 303.232 163.82 297.252C162.524 283.028 163.658 257.004 163.658 257.004C163.658 257.004 185.695 261.691 193.635 271.228Z" fill="url(#paint1_linear)"/>
<path opacity="0.5" d="M193.635 271.228C193.635 271.228 190.557 275.754 186.506 281.573C186.506 281.573 180.51 280.603 170.464 286.584C166.575 288.847 164.793 292.888 163.82 297.09C162.524 282.866 163.658 256.842 163.658 256.842C163.658 256.842 185.695 261.691 193.635 271.228Z" fill="url(#paint2_linear)"/>
<path d="M235.117 246.659C228.636 244.881 220.696 238.739 214.7 229.687C201.575 210.129 187.478 169.234 204.33 160.829C205.95 160.021 213.89 170.043 222.478 183.297C232.524 198.976 243.381 219.342 245.65 231.95C247.756 244.558 242.409 248.599 235.117 246.659Z" fill="url(#paint3_linear)"/>
<path d="M226.367 242.133C226.367 242.133 232.038 220.15 239.006 220.474C245.974 220.797 246.946 241.002 242.409 245.204C237.872 249.245 228.96 244.558 226.367 242.133Z" fill="url(#paint4_linear)"/>
<path opacity="0.3" d="M235.117 246.659C228.635 244.881 220.696 238.739 214.7 229.687C201.575 210.129 187.478 169.234 204.33 160.829C205.95 160.021 213.89 170.043 222.478 183.297C222.478 183.297 218.589 212.553 221.344 222.898C224.098 233.243 233.497 239.709 233.497 239.709L235.117 246.659Z" fill="url(#paint5_linear)"/>
<path d="M134.167 227.909C133.195 254.418 144.862 268.965 170.788 275.107C196.228 281.25 218.751 257.812 218.751 223.545C218.751 201.724 217.455 182.004 209.515 167.941C204.978 160.021 198.496 153.879 188.936 150.161C181.482 147.252 173.867 149.838 167.061 155.495C149.075 170.528 134.816 207.543 134.167 227.909Z" fill="url(#paint6_linear)"/>
<path opacity="0.3" d="M159.769 184.267C159.769 184.267 151.992 203.178 148.751 216.271C144.862 231.788 150.371 248.922 150.371 248.922L135.626 244.235C135.626 244.235 131.575 222.898 136.76 211.26C141.135 201.4 142.431 196.551 142.431 196.551L159.769 184.267Z" fill="url(#paint7_linear)"/>
<path d="M219.075 228.071C219.075 228.071 218.103 207.543 199.793 203.017C177.918 197.521 157.177 217.726 154.26 234.375C151.343 251.024 152.478 267.511 172.894 273.491C172.894 273.491 211.784 282.381 219.075 228.071Z" fill="url(#paint8_linear)"/>
<path d="M218.589 230.172C218.589 230.172 217.617 209.644 199.307 205.118C177.431 199.623 156.691 219.827 153.774 236.476C150.857 253.125 151.992 269.612 172.408 275.592C172.408 275.592 211.297 284.483 218.589 230.172Z" fill="url(#paint9_radial)"/>
<path d="M144.052 202.694C145.024 202.855 146.158 202.37 147.617 201.239C153.774 196.39 163.01 180.064 165.441 170.366C166.413 166.648 166.251 163.739 164.631 163.092C161.876 161.799 153.45 170.204 146.968 183.135C143.242 190.732 140.001 201.562 144.052 202.694Z" fill="url(#paint10_linear)"/>
<path d="M147.617 201.239C153.774 196.39 163.01 180.064 165.441 170.366C161.714 173.275 156.367 180.064 151.992 188.793C150.047 192.672 148.265 197.36 147.617 201.239Z" fill="#6340A2"/>
<path opacity="0.72" d="M216.321 228.071C212.27 232.597 203.682 223.222 190.557 221.444C177.432 219.666 168.844 224.677 165.603 221.929C162.362 219.181 178.89 203.017 198.658 207.22C214.538 210.614 217.779 226.455 216.321 228.071Z" fill="url(#paint11_linear)"/>
<path opacity="0.72" d="M190.233 271.551C190.233 271.551 183.427 275.592 174.515 273.653C165.603 271.713 163.658 266.702 163.658 266.702C163.658 266.702 168.033 266.056 174.029 268.803C180.024 271.713 185.858 272.36 190.233 271.551Z" fill="url(#paint12_linear)"/>
<path d="M175.649 184.267C177.107 184.752 176.783 197.36 175.325 197.521C174.029 197.683 171.436 197.198 171.598 191.864C171.598 186.53 174.191 183.782 175.649 184.267Z" fill="white"/>
<path d="M162.2 329.256C153.774 329.418 118.774 252.317 127.2 246.174C141.459 235.83 161.066 256.519 168.357 268.319C169.978 271.067 171.112 273.33 171.274 274.623C172.084 281.411 170.626 329.095 162.2 329.256Z" fill="url(#paint13_linear)"/>
<path d="M159.769 169.073C164.468 173.76 150.857 199.946 139.191 204.31C127.362 208.674 101.922 203.34 97.8709 201.724C93.82 200.107 92.3616 186.53 96.0885 181.357C99.8154 176.185 153.288 162.607 159.769 169.073Z" fill="url(#paint14_linear)"/>
<path opacity="0.5" d="M140.649 168.265C140.649 168.265 158.797 182.651 185.533 181.196C212.27 179.741 214.214 171.174 214.214 171.174C214.214 171.174 205.464 158.243 198.334 155.98C195.58 155.172 166.089 149.838 156.529 167.295C150.209 167.457 140.649 168.265 140.649 168.265Z" fill="url(#paint15_linear)"/>
<path d="M204.654 27.8015C204.654 27.8015 218.265 36.8532 224.26 58.0278C230.256 79.0407 198.496 53.8252 198.496 53.8252L204.654 27.8015Z" fill="url(#paint16_linear)"/>
<path d="M214.214 53.5018C214.214 53.5018 210.487 25.3768 201.089 21.6592C191.691 17.9415 179.376 31.6807 179.376 31.6807L214.214 53.5018Z" fill="url(#paint17_linear)"/>
<path d="M138.542 37.823C96.2505 63.5235 98.5191 127.694 114.885 150.97C133.843 177.963 233.01 160.991 246.946 116.541C261.043 71.6054 191.205 5.98038 138.542 37.823Z" fill="url(#paint18_linear)"/>
<path opacity="0.5" d="M125.741 105.064C125.741 105.064 120.556 128.179 107.269 133.998C107.269 133.998 104.19 122.683 104.19 115.571C104.19 108.459 125.741 105.064 125.741 105.064Z" fill="url(#paint19_linear)"/>
<path d="M163.496 43.9652C130.765 60.2906 125.741 126.077 147.454 148.06C169.168 169.881 243.057 146.767 248.242 107.651C252.941 72.7367 202.709 24.5686 163.496 43.9652Z" fill="url(#paint20_linear)"/>
<path opacity="0.5" d="M170.464 149.03C170.464 149.03 154.908 151.454 148.103 142.403C141.297 133.351 144.376 126.239 146.644 125.754C148.751 125.269 155.718 138.847 161.228 143.696C166.737 148.545 170.464 149.03 170.464 149.03Z" fill="url(#paint21_linear)"/>
<path d="M133.681 63.3618C133.681 63.3618 138.056 103.125 113.427 117.349C113.427 117.349 101.274 118.642 94.306 111.368C94.306 111.368 105.325 121.551 116.829 110.883C128.334 100.215 125.579 70.7972 116.829 61.0989C108.079 51.5623 95.4403 53.9868 95.4403 53.9868L100.463 49.461C100.463 49.461 119.098 45.7433 133.681 63.3618Z" fill="url(#paint22_linear)"/>
<path d="M100.464 49.4608C100.464 49.4608 114.237 48.1677 123.797 64.0082C134.005 80.8185 126.552 109.913 114.237 114.439C101.922 118.803 89.4449 71.7668 89.4449 71.7668L96.5746 53.0168C96.4126 53.0168 97.8709 50.4306 100.464 49.4608Z" fill="url(#paint23_linear)"/>
<path d="M82.6394 89.7087C84.4218 98.7605 88.1486 106.196 93.0098 110.883L94.4681 112.176C98.5191 115.409 103.218 117.026 108.403 116.379C125.093 114.278 127.362 90.1936 125.417 76.4544C123.149 60.6139 109.7 51.0773 98.8431 52.532C86.0421 54.1484 79.2366 71.7669 82.6394 89.7087Z" fill="url(#paint24_linear)"/>
<path opacity="0.72" d="M122.663 95.6895C122.663 95.6895 120.88 110.399 110.024 113.631C99.1672 116.864 90.2551 108.944 87.5005 97.9524C87.5005 97.9524 90.9033 107.489 105.163 105.064C119.26 102.478 122.663 95.6895 122.663 95.6895Z" fill="url(#paint25_linear)"/>
<path opacity="0.72" d="M120.718 67.726C120.556 70.4738 100.626 64.8165 94.3061 65.6247C87.9866 66.4329 85.2319 74.1915 84.2597 74.0299C83.2875 73.8682 85.8801 55.6031 97.7089 54.31C109.538 53.0169 120.88 65.7863 120.718 67.726Z" fill="url(#paint26_linear)"/>
<path d="M222.316 94.5579C229.122 98.2756 239.006 90.0321 236.575 80.0105C234.145 69.989 222.478 61.9071 216.645 65.1398C210.811 68.2109 210.973 88.4157 222.316 94.5579Z" fill="url(#paint27_linear)"/>
<path d="M160.904 117.025C171.598 124.461 183.103 112.338 183.103 101.508C182.941 90.6785 173.056 80.172 163.172 82.7582C152.316 85.6677 150.047 109.429 160.904 117.025Z" fill="url(#paint28_linear)"/>
<path d="M193.635 120.743C192.663 122.521 205.626 131.25 211.784 128.663C219.075 125.754 217.941 110.237 216.645 109.267C215.186 108.297 195.256 117.672 193.635 120.743Z" fill="#2F95CD"/>
<path opacity="0.5" d="M140.649 100.862C146.482 108.782 163.01 81.6267 180.996 72.4134C201.413 61.9069 231.066 73.0599 233.011 69.8271C234.955 66.5944 209.677 38.1461 176.945 43.1569C144.376 48.1677 135.302 93.4263 140.649 100.862Z" fill="url(#paint29_linear)"/>
<path d="M95.6024 113.793C95.6024 113.793 94.4681 105.873 99.4913 103.286C99.4913 103.286 107.107 102.963 108.889 110.237C108.889 110.237 93.982 157.92 106.135 165.517C117.477 172.629 147.455 158.082 147.455 158.082L149.885 160.021C149.885 160.021 124.445 175.862 108.403 171.013C92.3616 166.002 95.6024 113.793 95.6024 113.793Z" fill="url(#paint30_linear)"/>
<path d="M140.001 158.728C137.408 163.901 146.644 166.325 153.288 165.194C160.742 163.901 172.894 157.597 170.14 150.485C167.223 143.372 145.996 146.444 140.001 158.728Z" fill="url(#paint31_linear)"/>
<path d="M140.649 159.375C140.811 160.668 166.737 153.717 166.089 149.03C165.441 144.181 139.839 149.676 140.649 159.375Z" fill="url(#paint32_linear)"/>
<path d="M76.806 176.023C76.806 176.023 77.7782 172.629 82.1532 171.013L84.9079 180.711L76.806 176.023Z" fill="url(#paint33_linear)"/>
<path d="M77.9402 150.97C77.9402 150.97 91.7135 142.564 120.718 143.211C120.718 143.211 132.871 187.338 134.329 218.858C134.329 218.858 117.315 223.545 98.6811 222.899C98.8431 222.899 85.2319 190.248 77.9402 150.97Z" fill="url(#paint34_linear)"/>
<path d="M120.718 143.211L127.362 140.786C127.362 140.786 137.246 185.075 138.056 218.049L134.491 219.019L120.718 143.211Z" fill="url(#paint35_linear)"/>
<path opacity="0.5" d="M90.4172 199.461L93.982 209.159C93.982 209.159 103.704 197.36 102.57 186.045L90.4172 199.461Z" fill="url(#paint36_linear)"/>
<path d="M77.9402 150.97C77.9402 150.97 88.1486 142.726 127.362 140.786L120.718 143.211C120.718 143.211 102.894 142.888 77.9402 150.97Z" fill="#FF91FF"/>
<path d="M80.2087 181.358C80.2087 181.358 81.0189 198.168 87.3384 201.724C87.3384 201.724 105.487 191.541 102.894 181.034C101.112 173.599 80.2087 181.358 80.2087 181.358Z" fill="url(#paint37_linear)"/>
<path d="M76.806 176.023C76.806 176.023 76.806 189.763 84.7458 198.33C84.7458 198.33 95.2783 194.127 98.8431 189.763C104.514 182.812 102.246 178.933 100.301 177.317C97.3848 174.73 76.806 176.023 76.806 176.023Z" fill="url(#paint38_linear)"/>
<path d="M125.255 156.142C125.255 156.142 127.2 154.364 129.306 154.687C129.306 154.687 133.195 165.679 132.385 174.569L129.306 175.377L125.255 156.142Z" fill="url(#paint39_linear)"/>
<path d="M125.255 156.142C125.255 156.142 129.954 166.81 130.765 175.054L133.519 174.084C133.519 174.084 131.575 160.021 129.306 154.849C129.306 154.687 126.714 154.687 125.255 156.142Z" fill="url(#paint40_linear)"/>
<path d="M106.945 162.284C107.755 166.325 105.973 170.043 103.056 170.528C100.139 171.174 97.0607 168.426 96.2505 164.385C95.4404 160.344 97.2228 156.627 100.139 156.142C103.056 155.657 106.135 158.405 106.945 162.284Z" fill="url(#paint41_linear)"/>
<path d="M106.459 162.608C107.107 165.679 105.649 168.588 103.38 169.073C101.112 169.558 98.6811 167.457 98.033 164.224C97.3848 161.153 98.8432 158.243 101.112 157.758C103.38 157.274 105.811 159.536 106.459 162.608Z" fill="url(#paint42_radial)"/>
<path d="M103.704 218.696V215.302L123.311 212.715L124.769 215.786C124.769 215.625 113.589 217.888 103.704 218.696Z" fill="url(#paint43_linear)"/>
<path opacity="0.5" d="M121.69 148.707L94.306 211.099L96.7366 217.888C96.7366 217.888 118.936 203.987 128.334 187.015C128.496 187.176 122.663 154.202 121.69 148.707Z" fill="url(#paint44_linear)"/>
<path opacity="0.5" d="M193.635 149.03C193.635 149.03 207.408 146.12 216.807 133.998C226.205 122.036 238.844 123.976 238.844 123.976C238.844 123.976 221.02 149.03 193.635 149.03Z" fill="url(#paint45_linear)"/>
<path d="M134.329 51.0773C134.329 53.6635 150.533 40.5709 148.427 39.601C146.482 38.4696 134.492 48.0062 134.329 51.0773Z" fill="white"/>
<path opacity="0.3" d="M163.82 237.931L163.334 237.123C163.496 237.284 163.496 237.607 163.82 237.931Z" fill="url(#paint46_linear)"/>
<path opacity="0.3" d="M162.2 329.256C153.774 329.418 118.774 252.317 127.2 246.174C127.2 246.174 137.732 294.504 150.371 307.112C163.172 319.558 171.436 286.745 169.168 272.521C169.006 271.067 168.681 269.612 168.357 268.319C169.978 271.067 171.112 273.329 171.274 274.623C172.084 281.411 170.626 329.095 162.2 329.256Z" fill="url(#paint47_linear)"/>
<path d="M142.269 259.428C140.973 261.53 144.214 274.138 145.996 273.976C147.779 273.653 148.103 267.025 147.292 264.924C146.32 262.823 142.431 258.944 142.269 259.428Z" fill="white"/>
<path d="M146.32 276.077C144.862 276.886 146.644 280.603 147.617 280.603C148.751 280.442 147.617 275.431 146.32 276.077Z" fill="white"/>
<path d="M188.45 27.8015C189.422 29.9028 196.228 25.5386 195.256 23.5989C194.121 21.8209 187.316 25.7002 188.45 27.8015Z" fill="white"/>
<path d="M78.7504 179.256C78.7504 180.549 85.556 179.094 85.0699 177.963C84.4218 176.993 78.7504 177.155 78.7504 179.256Z" fill="white"/>
<path d="M97.7089 109.59C95.9265 108.944 95.1163 133.513 96.5746 133.836C98.0329 134.321 100.463 110.56 97.7089 109.59Z" fill="url(#paint48_linear)"/>
<path d="M257.64 235.021C257.64 235.021 251.969 227.748 244.191 227.101C236.413 226.454 233.821 228.717 232.524 234.213C231.228 239.709 243.219 258.782 257.478 273.006C263.312 273.168 264.77 265.894 265.418 261.207C265.256 257.327 263.474 244.235 257.64 235.021Z" fill="url(#paint49_linear)"/>
<path d="M238.52 227.424C238.52 227.424 253.913 246.821 259.099 258.135C261.853 264.278 263.474 268.319 263.474 268.319C263.474 268.319 260.233 278.017 253.589 270.42C244.191 259.59 231.552 243.265 233.335 234.86C234.793 227.747 235.927 226.293 238.52 227.424Z" fill="url(#paint50_linear)"/>
<path opacity="0.5" d="M251.483 245.204C251.483 245.204 250.024 256.034 243.543 257.974L241.274 232.273C241.436 232.273 249.376 241.972 251.483 245.204Z" fill="url(#paint51_linear)"/>
<path d="M244.839 238.254C245.974 240.678 244.839 257.004 243.219 258.944C241.599 260.883 237.386 257.974 236.089 254.741C234.793 251.508 228.798 233.89 235.117 227.909C234.955 227.747 240.302 228.071 244.839 238.254Z" fill="url(#paint52_linear)"/>
<path d="M242.085 240.517C242.733 240.678 243.867 246.174 243.381 247.144C242.895 248.114 241.599 248.114 240.95 246.821C240.302 245.689 240.95 240.355 242.085 240.517Z" fill="white"/>
<defs>
<radialGradient id="paint0_radial" cx="0" cy="0" r="1" gradientUnits="userSpaceOnUse" gradientTransform="translate(159.102 343.399) scale(66.091 14.6689)">
<stop stop-color="#BE9DEA"/>
<stop offset="0.3883" stop-color="#E0BFF5"/>
<stop offset="1" stop-color="white"/>
</radialGradient>
<linearGradient id="paint1_linear" x1="166.434" y1="306.319" x2="179.406" y2="261.279" gradientUnits="userSpaceOnUse">
<stop stop-color="#CBC1F7"/>
<stop offset="1" stop-color="#D4BEF1"/>
</linearGradient>
<linearGradient id="paint2_linear" x1="178.419" y1="297.235" x2="178.419" y2="256.928" gradientUnits="userSpaceOnUse">
<stop stop-color="#8DA4E5"/>
<stop offset="1" stop-color="#755CBB"/>
</linearGradient>
<linearGradient id="paint3_linear" x1="216.538" y1="244.404" x2="226.67" y2="163.533" gradientUnits="userSpaceOnUse">
<stop stop-color="#CBC1F7"/>
<stop offset="1" stop-color="#D4BEF1"/>
</linearGradient>
<linearGradient id="paint4_linear" x1="239.347" y1="246.684" x2="231.538" y2="222.671" gradientUnits="userSpaceOnUse">
<stop stop-color="#BE9DEA"/>
<stop offset="1" stop-color="#9E8CEF"/>
</linearGradient>
<linearGradient id="paint5_linear" x1="215.821" y1="246.588" x2="215.821" y2="160.755" gradientUnits="userSpaceOnUse">
<stop stop-color="#9D68C2"/>
<stop offset="1" stop-color="#CCEDFF"/>
</linearGradient>
<linearGradient id="paint6_linear" x1="170.398" y1="275.317" x2="186.203" y2="149.281" gradientUnits="userSpaceOnUse">
<stop stop-color="#CBC1F7"/>
<stop offset="1" stop-color="#E8DCF7"/>
</linearGradient>
<linearGradient id="paint7_linear" x1="139.193" y1="246.094" x2="155.249" y2="183.059" gradientUnits="userSpaceOnUse">
<stop stop-color="#9D68C2"/>
<stop offset="1" stop-color="#CCEDFF"/>
</linearGradient>
<linearGradient id="paint8_linear" x1="215.299" y1="245.584" x2="155.288" y2="230.223" gradientUnits="userSpaceOnUse">
<stop stop-color="#BE9DEA"/>
<stop offset="1" stop-color="#9E8CEF"/>
</linearGradient>
<radialGradient id="paint9_radial" cx="0" cy="0" r="1" gradientUnits="userSpaceOnUse" gradientTransform="translate(177.338 264.823) rotate(-165.71) scale(46.8148 46.7133)">
<stop stop-color="#45FFCD"/>
<stop offset="1" stop-color="#22E0FF"/>
</radialGradient>
<linearGradient id="paint10_linear" x1="161.761" y1="184.717" x2="146.31" y2="180.762" gradientUnits="userSpaceOnUse">
<stop stop-color="#8879EA"/>
<stop offset="1" stop-color="#9E8CEF"/>
</linearGradient>
<linearGradient id="paint11_linear" x1="217.563" y1="223.746" x2="167.769" y2="211" gradientUnits="userSpaceOnUse">
<stop/>
<stop offset="1" stop-color="#D4E2FF"/>
</linearGradient>
<linearGradient id="paint12_linear" x1="175.749" y1="274.048" x2="177.211" y2="268.309" gradientUnits="userSpaceOnUse">
<stop stop-color="#D4E2FF"/>
<stop offset="1"/>
</linearGradient>
<linearGradient id="paint13_linear" x1="137.751" y1="323.654" x2="155.308" y2="247.477" gradientUnits="userSpaceOnUse">
<stop stop-color="#CBC1F7"/>
<stop offset="1" stop-color="#E8DCF7"/>
</linearGradient>
<linearGradient id="paint14_linear" x1="124.102" y1="206.352" x2="129.367" y2="164.324" gradientUnits="userSpaceOnUse">
<stop stop-color="#CBC1F7"/>
<stop offset="1" stop-color="#E8DCF7"/>
</linearGradient>
<linearGradient id="paint15_linear" x1="174.383" y1="181.719" x2="181.955" y2="151.99" gradientUnits="userSpaceOnUse">
<stop stop-color="#8DA4E5"/>
<stop offset="1" stop-color="#755CBB"/>
</linearGradient>
<linearGradient id="paint16_linear" x1="214.176" y1="68.1085" x2="205.129" y2="27.6616" gradientUnits="userSpaceOnUse">
<stop stop-color="#45FFCD"/>
<stop offset="1" stop-color="#22E0FF"/>
</linearGradient>
<linearGradient id="paint17_linear" x1="200.139" y1="56.5939" x2="192.361" y2="21.8175" gradientUnits="userSpaceOnUse">
<stop stop-color="#B9ACF4"/>
<stop offset="1" stop-color="#E1D1F5"/>
</linearGradient>
<linearGradient id="paint18_linear" x1="168.531" y1="166.571" x2="185.511" y2="31.0457" gradientUnits="userSpaceOnUse">
<stop stop-color="#CBC1F7"/>
<stop offset="1" stop-color="#E8DCF7"/>
</linearGradient>
<linearGradient id="paint19_linear" x1="114.981" y1="133.961" x2="114.981" y2="104.988" gradientUnits="userSpaceOnUse">
<stop stop-color="#8DA4E5"/>
<stop offset="1" stop-color="#755CBB"/>
</linearGradient>
<linearGradient id="paint20_linear" x1="191.493" y1="156.534" x2="191.493" y2="39.5387" gradientUnits="userSpaceOnUse">
<stop stop-color="#0665BD"/>
<stop offset="1" stop-color="#1A1F77"/>
</linearGradient>
<linearGradient id="paint21_linear" x1="156.145" y1="148.462" x2="158.805" y2="127.233" gradientUnits="userSpaceOnUse">
<stop/>
<stop offset="1" stop-color="#6A9BFF"/>
</linearGradient>
<linearGradient id="paint22_linear" x1="114.089" y1="117.399" x2="114.089" y2="49.1695" gradientUnits="userSpaceOnUse">
<stop stop-color="#B9ACF4"/>
<stop offset="1" stop-color="#E1D1F5"/>
</linearGradient>
<linearGradient id="paint23_linear" x1="108.849" y1="114.807" x2="108.849" y2="49.4863" gradientUnits="userSpaceOnUse">
<stop stop-color="#BE9DEA"/>
<stop offset="1" stop-color="#9E8CEF"/>
</linearGradient>
<linearGradient id="paint24_linear" x1="103.907" y1="116.43" x2="103.907" y2="52.4024" gradientUnits="userSpaceOnUse">
<stop stop-color="#45FFCD"/>
<stop offset="1" stop-color="#22E0FF"/>
</linearGradient>
<linearGradient id="paint25_linear" x1="105.136" y1="114.338" x2="105.136" y2="95.6384" gradientUnits="userSpaceOnUse">
<stop stop-color="#D4E2FF"/>
<stop offset="1"/>
</linearGradient>
<linearGradient id="paint26_linear" x1="120.719" y1="64.1142" x2="83.9896" y2="64.1142" gradientUnits="userSpaceOnUse">
<stop/>
<stop offset="1" stop-color="#D4E2FF"/>
</linearGradient>
<linearGradient id="paint27_linear" x1="232.594" y1="92.8966" x2="215.103" y2="66.0418" gradientUnits="userSpaceOnUse">
<stop stop-color="#45FFCD"/>
<stop offset="1" stop-color="#22E0FF"/>
</linearGradient>
<linearGradient id="paint28_linear" x1="175.745" y1="116.705" x2="159.896" y2="84.202" gradientUnits="userSpaceOnUse">
<stop stop-color="#45FFCD"/>
<stop offset="1" stop-color="#22E0FF"/>
</linearGradient>
<linearGradient id="paint29_linear" x1="139.201" y1="72.4014" x2="233.174" y2="72.4014" gradientUnits="userSpaceOnUse">
<stop/>
<stop offset="1" stop-color="#6A9BFF"/>
</linearGradient>
<linearGradient id="paint30_linear" x1="113.637" y1="172.223" x2="128.606" y2="109.927" gradientUnits="userSpaceOnUse">
<stop stop-color="#BE9DEA"/>
<stop offset="1" stop-color="#9E8CEF"/>
</linearGradient>
<linearGradient id="paint31_linear" x1="155.323" y1="165.322" x2="154.615" y2="147.005" gradientUnits="userSpaceOnUse">
<stop stop-color="#DD1A8F"/>
<stop offset="1" stop-color="#FE117E"/>
</linearGradient>
<linearGradient id="paint32_linear" x1="154.043" y1="156.464" x2="151.973" y2="148.961" gradientUnits="userSpaceOnUse">
<stop stop-color="#D93DE3"/>
<stop offset="1" stop-color="#FF6DBA"/>
</linearGradient>
<linearGradient id="paint33_linear" x1="81.1949" y1="181.105" x2="80.1876" y2="171.192" gradientUnits="userSpaceOnUse">
<stop stop-color="#BE9DEA"/>
<stop offset="1" stop-color="#9E8CEF"/>
</linearGradient>
<linearGradient id="paint34_linear" x1="98.5443" y1="222.858" x2="114.608" y2="141.934" gradientUnits="userSpaceOnUse">
<stop stop-color="#D93DE3"/>
<stop offset="1" stop-color="#FF6DBA"/>
</linearGradient>
<linearGradient id="paint35_linear" x1="126.642" y1="218.318" x2="132.114" y2="141.032" gradientUnits="userSpaceOnUse">
<stop stop-color="#A242EA"/>
<stop offset="1" stop-color="#FE117E"/>
</linearGradient>
<linearGradient id="paint36_linear" x1="90.4047" y1="197.716" x2="102.644" y2="197.716" gradientUnits="userSpaceOnUse">
<stop stop-color="#8DA4E5"/>
<stop offset="1" stop-color="#755CBB"/>
</linearGradient>
<linearGradient id="paint37_linear" x1="88.9524" y1="201.933" x2="92.3308" y2="177.092" gradientUnits="userSpaceOnUse">
<stop stop-color="#BE9DEA"/>
<stop offset="1" stop-color="#9E8CEF"/>
</linearGradient>
<linearGradient id="paint38_linear" x1="82.913" y1="197.555" x2="91.8325" y2="173.941" gradientUnits="userSpaceOnUse">
<stop stop-color="#CBC1F7"/>
<stop offset="1" stop-color="#E8DCF7"/>
</linearGradient>
<linearGradient id="paint39_linear" x1="126.919" y1="174.961" x2="130.874" y2="155.037" gradientUnits="userSpaceOnUse">
<stop stop-color="#D93DE3"/>
<stop offset="1" stop-color="#FF6DBA"/>
</linearGradient>
<linearGradient id="paint40_linear" x1="128.713" y1="174.875" x2="130.135" y2="154.788" gradientUnits="userSpaceOnUse">
<stop stop-color="#B31A8F"/>
<stop offset="1" stop-color="#92117E"/>
</linearGradient>
<linearGradient id="paint41_linear" x1="102.505" y1="170.713" x2="100.676" y2="156.119" gradientUnits="userSpaceOnUse">
<stop stop-color="#B31A8F"/>
<stop offset="1" stop-color="#FE117E"/>
</linearGradient>
<radialGradient id="paint42_radial" cx="0" cy="0" r="1" gradientUnits="userSpaceOnUse" gradientTransform="translate(102.275 163.417) rotate(-11.1942) scale(5.04839 5.03687)">
<stop stop-color="#45FFCD"/>
<stop offset="1" stop-color="#22E0FF"/>
</radialGradient>
<linearGradient id="paint43_linear" x1="103.639" y1="215.612" x2="124.725" y2="215.612" gradientUnits="userSpaceOnUse">
<stop stop-color="#B31A8F"/>
<stop offset="1" stop-color="#92117E"/>
</linearGradient>
<linearGradient id="paint44_linear" x1="111.397" y1="217.911" x2="111.397" y2="148.67" gradientUnits="userSpaceOnUse">
<stop/>
<stop offset="1" stop-color="#6A9BFF"/>
</linearGradient>
<linearGradient id="paint45_linear" x1="214.248" y1="151.563" x2="218.038" y2="121.311" gradientUnits="userSpaceOnUse">
<stop/>
<stop offset="1" stop-color="#6A9BFF"/>
</linearGradient>
<linearGradient id="paint46_linear" x1="163.546" y1="238.007" x2="163.546" y2="237.221" gradientUnits="userSpaceOnUse">
<stop stop-color="#9D68C2"/>
<stop offset="1" stop-color="#CCEDFF"/>
</linearGradient>
<linearGradient id="paint47_linear" x1="152.211" y1="329.783" x2="147.644" y2="245.134" gradientUnits="userSpaceOnUse">
<stop stop-color="#9D68C2"/>
<stop offset="1" stop-color="#CCEDFF"/>
</linearGradient>
<linearGradient id="paint48_linear" x1="97.3441" y1="133.964" x2="97.3441" y2="109.642" gradientUnits="userSpaceOnUse">
<stop stop-color="#CBC1F7"/>
<stop offset="1" stop-color="#E8DCF7"/>
</linearGradient>
<linearGradient id="paint49_linear" x1="253.522" y1="273.89" x2="245.213" y2="226.153" gradientUnits="userSpaceOnUse">
<stop stop-color="#CBC1F7"/>
<stop offset="1" stop-color="#E8DCF7"/>
</linearGradient>
<linearGradient id="paint50_linear" x1="247.154" y1="272.574" x2="249.558" y2="227.728" gradientUnits="userSpaceOnUse">
<stop stop-color="#BE9DEA"/>
<stop offset="1" stop-color="#9E8CEF"/>
</linearGradient>
<linearGradient id="paint51_linear" x1="245.423" y1="258.045" x2="246.788" y2="232.597" gradientUnits="userSpaceOnUse">
<stop stop-color="#8DA4E5"/>
<stop offset="1" stop-color="#755CBB"/>
</linearGradient>
<linearGradient id="paint52_linear" x1="242.139" y1="259.448" x2="236.579" y2="227.508" gradientUnits="userSpaceOnUse">
<stop stop-color="#CBC1F7"/>
<stop offset="1" stop-color="#E8DCF7"/>
</linearGradient>
</defs>
</svg>
