<svg width="48" height="48" viewBox="0 0 48 48" fill="none" xmlns="http://www.w3.org/2000/svg">
<path d="M19.9999 13.6001H8.80004C8.35801 13.6001 8.00012 13.958 8.00012 14.4C8.00012 14.842 8.35801 15.1999 8.80004 15.1999H20.0001C20.4422 15.1999 20.8 14.842 20.8 14.4C20.8 13.958 20.4419 13.6001 19.9999 13.6001Z" fill="#667CEC"/>
<path d="M39.2 13.6001H27.9999C27.5578 13.6001 27.2 13.958 27.2 14.4C27.2 14.842 27.5578 15.1999 27.9999 15.1999H39.2C39.642 15.1999 39.9999 14.842 39.9999 14.4C40.0001 13.958 39.642 13.6001 39.2 13.6001Z" fill="#667CEC"/>
<path d="M20.5359 14.6824C20.4424 14.2504 20.0095 13.9739 19.5851 14.0692C11.9055 15.73 5.71639 21.73 3.81561 29.3542C3.7092 29.7832 3.97053 30.2174 4.3985 30.3246C4.46413 30.3403 4.52881 30.3482 4.5928 30.3482C4.95163 30.3482 5.27788 30.1054 5.36881 29.7414C7.12194 22.7034 12.8353 17.1658 19.9228 15.633C20.3547 15.5395 20.6287 15.1136 20.5359 14.6824Z" fill="#667CEC"/>
<path d="M44.5307 29.3548C42.63 21.7296 36.4408 15.7303 28.7611 14.0695C28.3298 13.9744 27.9039 14.2507 27.8102 14.6827C27.7169 15.1139 27.9914 15.5398 28.4233 15.6335C35.5108 17.1663 41.2232 22.7035 42.9773 29.742C43.0678 30.1055 43.3945 30.3483 43.7529 30.3483C43.8168 30.3483 43.8818 30.3408 43.9476 30.3251C44.3761 30.218 44.6371 29.7837 44.5307 29.3548Z" fill="#667CEC"/>
<path d="M43.2 28.8C40.5532 28.8 38.4 30.9532 38.4 33.6C38.4 36.2468 40.5532 38.4 43.2 38.4C45.8468 38.4 48 36.2468 48 33.6C48 30.9532 45.8468 28.8 43.2 28.8ZM43.2 36.7999C41.4351 36.7999 40 35.3646 40 33.6C40 31.8351 41.4354 30.4001 43.2 30.4001C44.9648 30.4001 46.3999 31.8351 46.3999 33.6C46.3999 35.3648 44.9648 36.7999 43.2 36.7999Z" fill="#667CEC"/>
<path d="M4.8 28.8C2.1532 28.8 0 30.9532 0 33.6C0 36.2468 2.1532 38.4 4.8 38.4C7.4468 38.4 9.6 36.2468 9.6 33.6C9.6 30.9532 7.4468 28.8 4.8 28.8ZM4.8 36.7999C3.03516 36.7999 1.60008 35.3646 1.60008 33.6C1.60008 31.8351 3.03516 30.4001 4.8 30.4001C6.56484 30.4001 7.99992 31.8351 7.99992 33.6C7.99992 35.3648 6.56484 36.7999 4.8 36.7999Z" fill="#667CEC"/>
<path d="M24 9.59998C21.3532 9.59998 19.2 11.7532 19.2 14.4C19.2 17.0468 21.3532 19.2 24 19.2C26.6468 19.2 28.8 17.0468 28.8 14.4C28.8 11.7532 26.6468 9.59998 24 9.59998ZM24 17.5999C22.2352 17.5999 20.8001 16.1646 20.8001 14.4C20.8001 12.6351 22.2354 11.2001 24 11.2001C25.7649 11.2001 27.1999 12.6354 27.1999 14.4C27.1999 16.1648 25.7649 17.5999 24 17.5999Z" fill="#667CEC"/>
<path d="M4.8 9.59998C2.1532 9.59998 0 11.7532 0 14.4C0 17.0468 2.1532 19.2 4.8 19.2C7.4468 19.2 9.6 17.0468 9.6 14.4C9.6 11.7532 7.4468 9.59998 4.8 9.59998ZM4.8 17.5999C3.03516 17.5999 1.60008 16.1646 1.60008 14.4C1.60008 12.6351 3.03516 11.2001 4.8 11.2001C6.56484 11.2001 7.99992 12.6354 7.99992 14.4C7.99992 16.1648 6.56484 17.5999 4.8 17.5999Z" fill="#667CEC"/>
<path d="M43.2 9.59998C40.5532 9.59998 38.4 11.7532 38.4 14.4C38.4 17.0468 40.5532 19.2 43.2 19.2C45.8468 19.2 48 17.0468 48 14.4C48 11.7532 45.8468 9.59998 43.2 9.59998ZM43.2 17.5999C41.4351 17.5999 40 16.1646 40 14.4C40 12.6351 41.4354 11.2001 43.2 11.2001C44.9648 11.2001 46.3999 12.6354 46.3999 14.4C46.3999 16.1648 44.9648 17.5999 43.2 17.5999Z" fill="#667CEC"/>
</svg>
