<svg width="48" height="48" viewBox="0 0 48 48" fill="none" xmlns="http://www.w3.org/2000/svg">
<g clip-path="url(#clip0)">
<path d="M45.3502 26.4414C47.0859 23.6908 48.0007 20.5243 48.0007 17.2499C48.0007 7.73831 40.2624 0 30.7508 0C27.5648 0 24.4519 0.875719 21.7489 2.53247C21.3074 2.80303 21.1689 3.38016 21.4395 3.82162C21.71 4.263 22.2871 4.40166 22.7287 4.131C25.1368 2.65509 27.9108 1.875 30.7509 1.875C39.2286 1.875 46.1258 8.77209 46.1258 17.2499C46.1258 20.3246 45.2214 23.2919 43.5102 25.8309C43.2832 26.1677 43.3026 26.6031 43.5361 26.9157L44.5634 30.7497L40.4399 29.6448C40.1698 29.5724 39.8816 29.6242 39.6538 29.7864C37.0439 31.6434 33.9654 32.6249 30.7509 32.6249C28.9197 32.6249 27.1286 32.305 25.4251 31.6757C24.226 27.2596 20.7416 23.7751 16.3255 22.576C15.696 20.8726 15.376 19.0818 15.376 17.25C15.376 14.3784 16.1724 11.578 17.6791 9.1515C17.9522 8.71163 17.817 8.13366 17.3772 7.86047C16.9375 7.58738 16.3593 7.72247 16.0861 8.16244C14.3948 10.8863 13.5009 14.0287 13.5009 17.25C13.5009 18.9363 13.7429 20.5921 14.2201 22.1887C13.7984 22.1471 13.3709 22.1253 12.9384 22.1253C5.80466 22.1253 0.000976562 27.9291 0.000976562 35.0627C0.000976562 37.6229 0.741226 40.0806 2.14579 42.1991L1.14248 45.944C1.05576 46.2675 1.14829 46.6127 1.3851 46.8496C1.62191 47.0864 1.96701 47.1788 2.29063 47.0922L6.12829 46.0639C8.17204 47.3317 10.5173 48 12.9384 48C15.4026 48 17.7995 47.3044 19.87 45.9883C20.3069 45.7105 20.4359 45.1312 20.1583 44.6942C19.8805 44.2572 19.3009 44.1282 18.8641 44.4059C17.0947 45.5306 15.0458 46.125 12.9384 46.125C10.7446 46.125 8.62429 45.4839 6.80676 44.271C6.58241 44.1213 6.30444 44.0753 6.04373 44.1453L3.37373 44.8607L4.06879 42.2667C4.14126 41.9963 4.08904 41.7075 3.92638 41.4796C2.58491 39.5993 1.87588 37.3804 1.87588 35.0625C1.87588 28.9627 6.83854 24.0001 12.9383 24.0001C19.038 24.0001 24.0008 28.9627 24.0008 35.0626C24.0008 36.3652 23.7768 37.6402 23.3351 38.852C23.1577 39.3383 23.4083 39.8765 23.8948 40.0538C24.3811 40.2311 24.9193 39.9806 25.0966 39.4942C25.6137 38.076 25.8758 36.585 25.8758 35.0626C25.8758 34.6301 25.854 34.2027 25.8124 33.781C27.4092 34.2581 29.0652 34.4998 30.7509 34.4998C34.2079 34.4998 37.5253 33.4877 40.3739 31.5682L45.6466 32.981C45.9703 33.0677 46.3153 32.9752 46.5523 32.7383C46.7891 32.5015 46.8816 32.1563 46.7949 31.8327L45.3502 26.4414Z" fill="#667CEC"/>
<path d="M35.5828 19.2464H26.0341C25.5163 19.2464 25.0966 19.6661 25.0966 20.1839C25.0966 23.3334 27.6589 25.8958 30.8085 25.8958C33.958 25.8958 36.5204 23.3334 36.5204 20.1839C36.5203 19.6661 36.1005 19.2464 35.5828 19.2464ZM30.8085 24.0207C29.0162 24.0207 27.5069 22.7853 27.0874 21.1213H34.5296C34.11 22.7853 32.6007 24.0207 30.8085 24.0207Z" fill="#667CEC"/>
<path d="M38.1081 14.0455C37.8365 13.6046 37.2589 13.4675 36.8182 13.739L36.696 13.8145C36.2556 14.0867 36.1191 14.6643 36.3913 15.1048C36.5686 15.3918 36.8755 15.5497 37.1897 15.5497C37.3578 15.5497 37.528 15.5045 37.6816 15.4096L37.8017 15.3354C38.2425 15.0638 38.3797 14.4863 38.1081 14.0455Z" fill="#667CEC"/>
<path d="M25.2263 14.0455C24.9546 13.6047 24.3769 13.4676 23.9364 13.7391L23.8141 13.8146C23.3736 14.0867 23.2372 14.6644 23.5094 15.1048C23.6867 15.3918 23.9936 15.5497 24.3078 15.5497C24.4759 15.5497 24.6461 15.5045 24.7997 15.4095L24.9198 15.3354C25.3606 15.0638 25.4979 14.4863 25.2263 14.0455Z" fill="#667CEC"/>
<path d="M8.44412 34.3996C8.26975 34.2252 8.02787 34.1249 7.78131 34.1249C7.53475 34.1249 7.29297 34.2252 7.1185 34.3996C6.94412 34.5739 6.84381 34.8158 6.84381 35.0624C6.84381 35.3089 6.94412 35.5508 7.1185 35.7252C7.29287 35.8996 7.53475 35.9999 7.78131 35.9999C8.02787 35.9999 8.26975 35.8996 8.44412 35.7252C8.6185 35.5508 8.71881 35.3089 8.71881 35.0624C8.71881 34.8158 8.6185 34.5739 8.44412 34.3996Z" fill="#667CEC"/>
<path d="M13.6004 34.3996C13.426 34.2252 13.1841 34.1249 12.9376 34.1249C12.691 34.1249 12.4492 34.2252 12.2747 34.3996C12.1004 34.5739 12.0001 34.8158 12.0001 35.0624C12.0001 35.3089 12.1004 35.5508 12.2747 35.7252C12.4491 35.8996 12.691 35.9999 12.9376 35.9999C13.1841 35.9999 13.426 35.8996 13.6004 35.7252C13.7747 35.5508 13.8751 35.3089 13.8751 35.0624C13.8751 34.8158 13.7747 34.5739 13.6004 34.3996Z" fill="#667CEC"/>
<path d="M18.7566 34.3996C18.5822 34.2252 18.3403 34.1249 18.0938 34.1249C17.8472 34.1249 17.6054 34.2252 17.4309 34.3996C17.2566 34.5739 17.1562 34.8158 17.1562 35.0624C17.1562 35.3089 17.2566 35.5508 17.4309 35.7252C17.6053 35.8996 17.8472 35.9999 18.0938 35.9999C18.3403 35.9999 18.5822 35.8996 18.7566 35.7252C18.9309 35.5508 19.0312 35.3089 19.0312 35.0624C19.0312 34.8158 18.9309 34.5739 18.7566 34.3996Z" fill="#667CEC"/>
<path d="M22.9528 41.9182C22.7784 41.7439 22.5365 41.6436 22.29 41.6436C22.0425 41.6436 21.8015 41.7439 21.6272 41.9182C21.4528 42.0926 21.3525 42.3345 21.3525 42.5811C21.3525 42.8276 21.4528 43.0695 21.6272 43.2439C21.8015 43.4182 22.0425 43.5186 22.29 43.5186C22.5365 43.5186 22.7784 43.4182 22.9528 43.2439C23.1272 43.0695 23.2275 42.8276 23.2275 42.5811C23.2275 42.3345 23.1272 42.0926 22.9528 41.9182Z" fill="#667CEC"/>
<path d="M19.9098 5.02131C19.7354 4.84693 19.4935 4.74756 19.2469 4.74756C18.9994 4.74756 18.7585 4.84693 18.5841 5.02131C18.4088 5.19662 18.3094 5.43756 18.3094 5.68506C18.3094 5.93162 18.4088 6.1735 18.5841 6.34787C18.7585 6.52225 18.9994 6.62162 19.2469 6.62162C19.4935 6.62162 19.7354 6.52225 19.9098 6.34787C20.0841 6.1735 20.1844 5.93162 20.1844 5.68506C20.1844 5.43756 20.0841 5.19662 19.9098 5.02131Z" fill="#667CEC"/>
</g>
<defs>
<clipPath id="clip0">
<rect width="48" height="48" fill="white"/>
</clipPath>
</defs>
</svg>
