<svg width="48" height="48" viewBox="0 0 48 48" fill="none" xmlns="http://www.w3.org/2000/svg">
<path d="M10.098 27.6C9.3105 27.2197 8.4315 27 7.5 27C4.19175 27 1.5 29.6917 1.5 33C1.5 36.3083 4.19175 39 7.5 39C9.576 39 11.4083 37.9395 12.486 36.3323L18.1537 39.1695C18.0562 39.5978 18 40.0425 18 40.5C18 43.8083 20.6917 46.5 24 46.5C27.3083 46.5 30 43.8083 30 40.5C30 39.2565 29.6197 38.1007 28.9688 37.1415L36.933 28.8142C37.932 29.5552 39.1635 30 40.5 30C43.8083 30 46.5 27.3083 46.5 24C46.5 20.6917 43.8083 18 40.5 18C39.1155 18 37.8435 18.4755 36.8265 19.266L28.734 11.1735C29.5245 10.1565 30 8.8845 30 7.5C30 4.19175 27.3083 1.5 24 1.5C20.6917 1.5 18 4.19175 18 7.5C18 7.956 18.0555 8.39925 18.153 8.82675L12.834 10.7647C11.8365 8.829 9.82275 7.5 7.5 7.5C4.19175 7.5 1.5 10.1918 1.5 13.5C1.5 16.8082 4.19175 19.5 7.5 19.5C8.3535 19.5 9.16425 19.3185 9.9 18.9953L12.6608 23.6415L10.098 27.6ZM7.5 37.5C5.01825 37.5 3 35.4818 3 33C3 30.5182 5.01825 28.5 7.5 28.5C9.98175 28.5 12 30.5182 12 33C12 35.4818 9.98175 37.5 7.5 37.5ZM13.1542 34.9883C13.374 34.365 13.5 33.6975 13.5 33C13.5 31.1602 12.666 29.5133 11.3588 28.4123L13.5157 25.0808L20.019 36.024C19.4715 36.5115 19.0133 37.095 18.6735 37.7513L13.1542 34.9883ZM24 13.5C25.3845 13.5 26.6565 13.0245 27.6735 12.234L35.7668 20.3273C35.2815 20.9513 34.9185 21.672 34.7093 22.4565L29.9978 21.8085C29.997 21.789 30 21.7695 30 21.75C30 18.4417 27.3083 15.75 24 15.75C21.924 15.75 20.091 16.8105 19.014 18.4177L18.1193 17.9708L21.4028 12.9C22.1895 13.2803 23.0685 13.5 24 13.5ZM24.75 34.5518V27.6975C27.1875 27.3915 29.1705 25.62 29.7915 23.2935L34.503 23.9415C34.503 23.961 34.5 23.9805 34.5 24C34.5 25.4325 35.0055 26.7473 35.8462 27.78L27.9712 36.0143C27.0885 35.232 25.9778 34.7062 24.75 34.5518ZM24 17.25C26.4818 17.25 28.5 19.2682 28.5 21.75C28.5 24.2318 26.4818 26.25 24 26.25C21.5182 26.25 19.5 24.2318 19.5 21.75C19.5 19.2682 21.5182 17.25 24 17.25ZM18.3458 19.7618C18.126 20.385 18 21.0525 18 21.75C18 24.804 20.295 27.327 23.25 27.6982V34.5525C22.539 34.6418 21.8678 34.8548 21.2565 35.1705L14.4255 23.6752L17.2987 19.2382L18.3458 19.7618ZM24 45C21.5182 45 19.5 42.9818 19.5 40.5C19.5 38.0182 21.5182 36 24 36C26.4818 36 28.5 38.0182 28.5 40.5C28.5 42.9818 26.4818 45 24 45ZM40.5 19.5C42.9818 19.5 45 21.5182 45 24C45 26.4818 42.9818 28.5 40.5 28.5C38.0182 28.5 36 26.4818 36 24C36 21.5182 38.0182 19.5 40.5 19.5ZM24 3C26.4818 3 28.5 5.01825 28.5 7.5C28.5 9.98175 26.4818 12 24 12C21.5182 12 19.5 9.98175 19.5 7.5C19.5 5.01825 21.5182 3 24 3ZM18.666 10.2353C19.0328 10.947 19.5345 11.5763 20.1413 12.0878L16.7692 17.2958L13.1542 15.4882C13.374 14.865 13.5 14.1975 13.5 13.5C13.5 13.044 13.4445 12.6008 13.347 12.1733L18.666 10.2353ZM3 13.5C3 11.0182 5.01825 9 7.5 9C9.98175 9 12 11.0182 12 13.5C12 15.9818 9.98175 18 7.5 18C5.01825 18 3 15.9818 3 13.5ZM11.1862 18.2243C11.6888 17.8312 12.1298 17.3633 12.486 16.8323L15.9487 18.5632L13.5705 22.236L11.1862 18.2243Z" fill="#667CEC"/>
</svg>
