<svg width="48" height="48" viewBox="0 0 48 48" fill="none" xmlns="http://www.w3.org/2000/svg">
<g clip-path="url(#clip0)">
<path d="M40.9635 7.03079C36.474 2.51545 30.3644 -0.0159038 23.9969 0.00106129C14.2912 0.000311453 5.54094 5.8467 1.82681 14.8136C-1.88732 23.7806 0.166482 34.1019 7.03021 40.964C13.0909 47.0303 21.9282 49.4012 30.2113 47.1832C38.4945 44.9652 44.9645 38.4952 47.1825 30.212C49.4007 21.9287 47.0298 13.0914 40.9635 7.03079ZM38.8613 21.327C38.39 21.2069 37.8963 21.2055 37.4244 21.3228C36.4626 19.9853 35.4294 18.7006 34.3291 17.4744C34.811 16.6365 34.8257 15.609 34.3676 14.7578L40.3432 8.78213C42.163 11.3695 41.6222 16.0329 38.8613 21.327ZM39.3357 23.9977C39.3356 24.3159 39.2091 24.6209 38.9839 24.8457C38.5091 25.2987 37.7621 25.2987 37.2874 24.8457C36.8189 24.3772 36.8189 23.6177 37.2874 23.1492C37.7558 22.6807 38.5154 22.6807 38.9839 23.1492L38.9843 23.1496C39.2094 23.3744 39.3358 23.6795 39.3357 23.9977ZM36.0486 25.8449C35.1476 27.0902 34.1822 28.2875 33.1564 29.4321C32.3441 29.0497 31.4007 29.0634 30.5998 29.4693L26.7445 25.614C27.3467 24.6204 27.3467 23.3743 26.7445 22.3807L30.5922 18.533C31.3879 18.98 32.3557 18.9946 33.1646 18.5719C34.1874 19.7137 35.1501 20.908 36.0486 22.1499C35.1151 23.2047 35.1151 24.7902 36.0486 25.8449ZM32.7633 32.7635C32.5392 32.9903 32.2337 33.1178 31.915 33.1179C31.5962 33.118 31.2906 32.9905 31.0664 32.7639C30.5978 32.2954 30.5976 31.5357 31.0661 31.067C31.5345 30.5984 32.2943 30.5982 32.7629 31.0666C33.2316 31.5351 33.2318 32.2949 32.7633 32.7635ZM29.4223 33.1652C28.2805 34.1879 27.0862 35.1506 25.8443 36.0492C24.7896 35.116 23.2044 35.116 22.1496 36.0492C20.9076 35.1506 19.7133 34.1879 18.5715 33.1652C18.9942 32.3563 18.9796 31.3885 18.5326 30.5927L22.3803 26.745C23.3739 27.3473 24.62 27.3473 25.6136 26.745L29.4613 30.5927C29.0142 31.3885 28.9996 32.3563 29.4223 33.1652ZM22.8887 38.5752C22.8774 38.5469 22.8584 38.5211 22.8493 38.4922C22.8295 38.4187 22.8167 38.3435 22.8114 38.2677C22.8076 38.2344 22.7958 38.202 22.7949 38.1686C22.7962 38.096 22.8043 38.0236 22.8189 37.9524C22.8246 37.9162 22.822 37.8792 22.8312 37.8436C22.8588 37.7354 22.9015 37.6318 22.958 37.5356C23.0111 37.4455 23.0751 37.3624 23.1485 37.2879C23.6173 36.82 24.3763 36.82 24.845 37.2879C24.9174 37.3615 24.9806 37.4435 25.0332 37.5324C25.1414 37.7166 25.1987 37.9262 25.1992 38.1398C25.2 38.3703 25.1323 38.5959 25.0048 38.7881L25.002 38.7924L24.9993 38.7963C24.9539 38.8635 24.9024 38.9264 24.8454 38.9842L24.8446 38.985C24.3696 39.4389 23.6216 39.4384 23.1473 38.9838L23.1461 38.9822C23.0899 38.925 23.0392 38.8628 22.9944 38.7964C22.9518 38.7263 22.9164 38.6523 22.8887 38.5752ZM14.8371 29.432C13.8114 28.2874 12.846 27.0901 11.945 25.8449C12.8787 24.7902 12.8787 23.2047 11.945 22.15C12.8445 20.9071 13.8079 19.7119 14.8316 18.5691C15.6401 18.9861 16.6035 18.9718 17.3992 18.5308L21.2492 22.3808C20.647 23.3744 20.647 24.6205 21.2492 25.6141L17.394 29.4693C16.5931 29.0632 15.6496 29.0494 14.8371 29.432ZM17.2396 32.227C17.1288 32.6416 16.805 32.9654 16.3904 33.0762C15.9759 33.187 15.5336 33.0679 15.2308 32.7639C14.9267 32.4612 14.8075 32.0189 14.9182 31.6044C15.0289 31.1898 15.3527 30.8659 15.7672 30.755C16.1818 30.6441 16.624 30.7631 16.9269 31.067L16.9273 31.0674C17.2314 31.3702 17.3504 31.8124 17.2396 32.227ZM16.9433 15.247C17.3923 15.7198 17.3852 16.4635 16.9273 16.9275L16.9272 16.9278L16.9269 16.928C16.5822 17.2723 16.0636 17.3739 15.6144 17.185C15.1653 16.9961 14.875 16.5546 14.8798 16.0675C14.8846 15.5803 15.1835 15.1444 15.6362 14.9644C16.0888 14.7845 16.6054 14.8961 16.9433 15.247ZM18.5608 14.8391C19.7059 13.8129 20.9038 12.847 22.1496 11.9456C23.1988 12.8935 24.7951 12.8935 25.8443 11.9456C27.0862 12.8442 28.2805 13.8069 29.4223 14.8297C28.9996 15.6385 29.0142 16.6063 29.4611 17.4022L25.6066 21.2567C24.6053 20.7014 23.3885 20.7014 22.3872 21.2567L18.5302 17.3997C18.9508 16.6006 18.9622 15.6481 18.5608 14.8391ZM23.3285 8.86114C23.8047 8.54265 24.4396 8.60498 24.8448 9.00998L24.8451 9.01036C25.0709 9.23465 25.1975 9.54002 25.1966 9.85824C25.1971 10.4311 24.7927 10.9245 24.2309 11.0367C23.6691 11.1488 23.1064 10.8485 22.8868 10.3193C22.6673 9.7901 22.8523 9.17963 23.3285 8.86114ZM25.1279 25.1284C24.4951 25.733 23.4987 25.733 22.8659 25.1284C22.4083 24.6709 22.2714 23.9828 22.519 23.385C22.7666 22.7872 23.35 22.3975 23.997 22.3975C24.644 22.3975 25.2274 22.7873 25.4749 23.385C25.7223 23.9829 25.5855 24.671 25.1279 25.1284ZM31.0666 15.2308C31.5352 14.7624 32.2949 14.7625 32.7633 15.231C33.2308 15.7 33.2308 16.4589 32.7633 16.9279C32.2885 17.3812 31.5411 17.381 31.0664 16.9275C30.598 16.459 30.5981 15.6993 31.0666 15.2308ZM33.2365 13.6268C32.3852 13.169 31.3578 13.1836 30.5199 13.6653C29.2993 12.57 28.0207 11.5411 26.6896 10.583C26.8329 10.1067 26.8317 9.59861 26.6864 9.12293C31.9717 6.37018 36.6275 5.83339 39.2122 7.65109L33.2365 13.6268ZM23.9969 1.60075C28.1899 1.59203 32.2999 2.7689 35.8528 4.99554C33.0288 4.86423 29.5806 5.79459 25.8346 7.7646C24.7713 6.87417 23.2226 6.87407 22.1592 7.7645C18.4132 5.79431 14.9645 4.86432 12.1402 4.9961C15.6932 2.76909 19.8036 1.59203 23.9969 1.60075ZM21.3073 9.12302C21.162 9.5987 21.1609 10.1067 21.3041 10.583C19.9731 11.5411 18.6945 12.57 17.4739 13.6653C16.636 13.1835 15.6085 13.169 14.7574 13.6268L8.78146 7.651C11.366 5.8332 16.0207 6.37112 21.3073 9.12302ZM7.65051 8.78203L13.6265 14.758C13.1737 15.6083 13.1909 16.6318 13.6718 17.4665C12.5688 18.6951 11.533 19.9825 10.5691 21.3231C10.0972 21.2058 9.60365 21.2071 9.13247 21.327C6.37157 16.0329 5.83075 11.3695 7.65051 8.78203ZM10.7064 24.8457C10.2315 25.299 9.48415 25.2988 9.0095 24.8453C8.54132 24.3767 8.5416 23.6172 9.01016 23.1489C9.47871 22.6806 10.2382 22.6808 10.7066 23.1493C11.1749 23.6178 11.1748 24.3772 10.7064 24.8457ZM1.60017 23.9975C1.59145 19.8044 2.76832 15.6942 4.99506 12.1413C4.86356 14.9651 5.79364 18.4129 7.76308 22.1582C6.82344 23.2044 6.82335 24.7906 7.76308 25.8368C5.79364 29.582 4.86356 33.0298 4.99506 35.8536C2.76832 32.3007 1.59145 28.1905 1.60017 23.9975ZM9.12245 26.687C9.59812 26.8322 10.1061 26.8333 10.5825 26.6902C11.5405 28.0213 12.5694 29.2998 13.6648 30.5204C13.1828 31.3582 13.1683 32.3858 13.6263 33.2369L7.65061 39.2128C5.83291 36.6285 6.37026 31.9733 9.12245 26.687ZM14.7572 34.3681C15.6045 34.842 16.6404 34.8273 17.4739 34.3296C18.6916 35.4224 19.9671 36.449 21.2948 37.4052C21.2912 37.4184 21.2856 37.4313 21.282 37.4445C21.2626 37.5196 21.2526 37.5959 21.2396 37.672C21.2311 37.7219 21.2179 37.7714 21.2121 37.8217C21.2009 37.9284 21.196 38.0355 21.1974 38.1428C21.1975 38.1622 21.1945 38.1816 21.1948 38.2011C21.2015 38.4296 21.2364 38.6564 21.2989 38.8763C16.0162 41.6243 11.364 42.1597 8.78155 40.3438L14.7572 34.3681ZM23.9969 46.3942C19.8052 46.4029 15.6965 45.2268 12.1443 43.0015C12.3178 43.0095 12.4892 43.0211 12.6674 43.0211C15.3875 43.0207 18.6443 42.077 22.1566 40.2303C23.2035 41.1706 24.7909 41.1708 25.838 40.2306C29.3505 42.0773 32.6066 43.0211 35.3266 43.0211C35.5048 43.0211 35.6763 43.0095 35.8497 43.0015C32.2974 45.2268 28.1886 46.4029 23.9969 46.3942ZM26.6949 38.8763C26.8292 38.3954 26.8305 37.887 26.6987 37.4054C28.0265 36.4492 29.3021 35.4224 30.5199 34.3297C31.3534 34.8274 32.3893 34.842 33.2366 34.3681L39.2123 40.3438C36.629 42.1604 31.9776 41.6246 26.6949 38.8763ZM40.3432 39.2128L34.3676 33.237C34.8256 32.3858 34.811 31.3582 34.3291 30.5204C35.4244 29.2998 36.4534 28.0213 37.4114 26.6902C37.8877 26.8334 38.3957 26.8323 38.8714 26.687C41.6235 31.9733 42.1608 36.6285 40.3432 39.2128ZM42.9987 35.8536C43.1302 33.0298 42.2001 29.5819 40.2307 25.8367C41.1704 24.7906 41.1704 23.2043 40.2307 22.1581C42.2002 18.4129 43.1302 14.965 42.9987 12.1412C45.2254 15.6942 46.4023 19.8043 46.3936 23.9974C46.4024 28.1905 45.2254 32.3007 42.9987 35.8536Z" fill="#667CEC"/>
</g>
<defs>
<clipPath id="clip0">
<rect width="48" height="48" fill="white"/>
</clipPath>
</defs>
</svg>
