<svg width="48" height="48" viewBox="0 0 48 48" fill="none" xmlns="http://www.w3.org/2000/svg">
<g clip-path="url(#clip0)">
<path d="M4.02396 27.9997C1.81836 27.9997 0.0239564 26.2053 0.0239563 23.9998C0.0239563 21.7942 1.81836 19.9998 4.02396 19.9998C6.22955 19.9998 8.02395 21.7942 8.02395 23.9998C8.02395 26.2053 6.22955 27.9997 4.02396 27.9997ZM4.02396 21.5998C2.70076 21.5998 1.62396 22.6766 1.62396 23.9998C1.62396 25.323 2.70076 26.3997 4.02396 26.3997C5.34715 26.3997 6.42395 25.323 6.42395 23.9998C6.42395 22.6766 5.34715 21.5998 4.02396 21.5998Z" fill="#667CEC"/>
<path d="M44.024 27.9997C41.8184 27.9997 40.024 26.2053 40.024 23.9998C40.024 21.7942 41.8184 19.9998 44.024 19.9998C46.2296 19.9998 48.024 21.7942 48.024 23.9998C48.024 26.2053 46.2296 27.9997 44.024 27.9997ZM44.024 21.5998C42.7008 21.5998 41.624 22.6766 41.624 23.9998C41.624 25.323 42.7008 26.3997 44.024 26.3997C45.3472 26.3997 46.424 25.323 46.424 23.9998C46.424 22.6766 45.3472 21.5998 44.024 21.5998Z" fill="#667CEC"/>
<path d="M24.0239 47.9998C21.8183 47.9998 20.0239 46.2054 20.0239 43.9998C20.0239 41.7942 21.8183 39.9998 24.0239 39.9998C26.2295 39.9998 28.0239 41.7942 28.0239 43.9998C28.0239 46.2054 26.2295 47.9998 24.0239 47.9998ZM24.0239 41.5998C22.7007 41.5998 21.6239 42.6766 21.6239 43.9998C21.6239 45.323 22.7007 46.3998 24.0239 46.3998C25.3471 46.3998 26.4239 45.323 26.4239 43.9998C26.4239 42.6766 25.3471 41.5998 24.0239 41.5998Z" fill="#667CEC"/>
<path d="M24.024 7.99976C21.8184 7.99976 20.024 6.20536 20.024 3.99976C20.024 1.79416 21.8184 -0.000244159 24.024 -0.000244181C26.2296 -0.000244204 28.024 1.79416 28.024 3.99976C28.024 6.20536 26.2296 7.99976 24.024 7.99976ZM24.024 1.59976C22.7008 1.59976 21.624 2.67656 21.624 3.99976C21.624 5.32296 22.7008 6.39976 24.024 6.39976C25.3472 6.39976 26.424 5.32296 26.424 3.99976C26.424 2.67656 25.3472 1.59976 24.024 1.59976Z" fill="#667CEC"/>
<path d="M43.7687 21.6255C43.3831 21.6255 43.0423 21.3447 42.9799 20.9511C42.7367 19.4311 42.3111 17.9431 41.7135 16.5303C41.5415 16.1231 41.7311 15.6535 42.1383 15.4815C42.5463 15.3087 43.0151 15.4991 43.1871 15.9063C43.8351 17.4383 44.2975 19.0511 44.5599 20.6991C44.6295 21.1351 44.3327 21.5455 43.8959 21.6151C43.8535 21.6223 43.8111 21.6255 43.7687 21.6255Z" fill="#667CEC"/>
<path d="M39.8599 12.5861C39.6207 12.5861 39.3839 12.4789 39.2263 12.2749C38.2199 10.9717 37.0479 9.7997 35.7423 8.7917C35.3927 8.5221 35.3279 8.0197 35.5983 7.6701C35.8687 7.3205 36.3711 7.2565 36.7207 7.5261C38.1343 8.6173 39.4031 9.8861 40.4927 11.2973C40.7623 11.6477 40.6983 12.1493 40.3487 12.4189C40.2023 12.5317 40.0311 12.5861 39.8599 12.5861Z" fill="#667CEC"/>
<path d="M31.8047 6.3733C31.7007 6.3733 31.5951 6.3533 31.4935 6.3101C30.0807 5.7125 28.5927 5.2861 27.0719 5.0429C26.6359 4.9733 26.3383 4.5629 26.4079 4.1261C26.4775 3.6901 26.8887 3.3917 27.3239 3.4629C28.9727 3.7261 30.5847 4.1885 32.1167 4.8365C32.5239 5.0085 32.7143 5.4781 32.5415 5.8853C32.4127 6.1901 32.1167 6.3733 31.8047 6.3733Z" fill="#667CEC"/>
<path d="M27.1975 44.547C26.8111 44.547 26.4711 44.2662 26.4087 43.8734C26.3391 43.4366 26.6359 43.0262 27.0727 42.9566C28.5935 42.7134 30.0815 42.287 31.4943 41.6894C31.9023 41.5182 32.3711 41.7062 32.5431 42.1142C32.7151 42.5214 32.5255 42.991 32.1183 43.163C30.5863 43.811 28.9743 44.2734 27.3255 44.5366C27.2815 44.5438 27.2391 44.547 27.1975 44.547Z" fill="#667CEC"/>
<path d="M36.2375 40.6359C35.9983 40.6359 35.7615 40.5287 35.6039 40.3247C35.3343 39.9743 35.3983 39.4727 35.7479 39.2031C37.052 38.1959 38.224 37.0231 39.2312 35.7183C39.5 35.368 40.0024 35.3048 40.3528 35.5736C40.7032 35.8439 40.7672 36.3463 40.4976 36.6959C39.4072 38.1095 38.1384 39.3791 36.7263 40.4687C36.5807 40.5815 36.4087 40.6359 36.2375 40.6359Z" fill="#667CEC"/>
<path d="M42.4495 32.5816C42.3455 32.5816 42.2399 32.5616 42.1383 32.5184C41.7311 32.3464 41.5407 31.8768 41.7135 31.4696C42.3111 30.056 42.7375 28.5688 42.9799 27.0488C43.0487 26.612 43.4607 26.3136 43.896 26.3848C44.332 26.4544 44.6296 26.8648 44.56 27.3008C44.2968 28.9496 43.8352 30.5616 43.1871 32.0936C43.0583 32.3984 42.7615 32.5816 42.4495 32.5816Z" fill="#667CEC"/>
<path d="M5.59756 32.5816C5.28556 32.5816 4.98956 32.3984 4.86076 32.0936C4.21276 30.5616 3.75036 28.9488 3.48796 27.3008C3.41836 26.8648 3.71516 26.4544 4.15196 26.3848C4.58396 26.3136 4.99916 26.612 5.06796 27.0488C5.31116 28.5688 5.73676 30.0568 6.33437 31.4696C6.50637 31.8768 6.31677 32.3464 5.90956 32.5184C5.80716 32.5608 5.70156 32.5816 5.59756 32.5816Z" fill="#667CEC"/>
<path d="M11.8159 40.6406C11.6447 40.6406 11.4727 40.5862 11.3271 40.4734C9.91355 39.3822 8.64475 38.1134 7.55515 36.7022C7.28555 36.3518 7.34955 35.8502 7.69915 35.5806C8.04875 35.3102 8.55035 35.3742 8.82155 35.7246C9.82795 37.0278 10.9999 38.1998 12.3055 39.2078C12.6551 39.4774 12.7199 39.9798 12.4495 40.3294C12.2919 40.5334 12.0551 40.6406 11.8159 40.6406Z" fill="#667CEC"/>
<path d="M20.8503 44.547C20.8087 44.547 20.7663 44.5438 20.7231 44.5366C19.0743 44.2734 17.4623 43.811 15.9303 43.163C15.5231 42.991 15.3327 42.5214 15.5055 42.1142C15.6775 41.7062 16.1463 41.5182 16.5543 41.6894C17.9671 42.287 19.4551 42.7134 20.9759 42.9566C21.4119 43.0262 21.7095 43.4366 21.6399 43.8734C21.5767 44.2662 21.2367 44.547 20.8503 44.547Z" fill="#667CEC"/>
<path d="M16.2431 6.37352C15.9311 6.37352 15.6351 6.19032 15.5063 5.88552C15.3343 5.47832 15.5239 5.00872 15.9311 4.83672C17.4631 4.18872 19.0751 3.72632 20.7239 3.46312C21.1599 3.39192 21.5703 3.69112 21.6399 4.12632C21.7095 4.56312 21.4127 4.97352 20.9759 5.04312C19.4551 5.28632 17.9671 5.71272 16.5543 6.31032C16.4519 6.35272 16.3471 6.37352 16.2431 6.37352Z" fill="#667CEC"/>
<path d="M8.18313 12.5926C8.01273 12.5926 7.84073 12.5382 7.69513 12.4262C7.34473 12.1558 7.28073 11.6534 7.55033 11.3038C8.64073 9.89018 9.90953 8.62058 11.3215 7.53098C11.6711 7.26138 12.1727 7.32458 12.4439 7.67498C12.7135 8.02538 12.6495 8.52698 12.2999 8.79658C10.9959 9.80378 9.82393 10.9766 8.81673 12.2814C8.65913 12.4854 8.42233 12.5926 8.18313 12.5926Z" fill="#667CEC"/>
<path d="M4.27835 21.6255C4.23595 21.6255 4.19435 21.6223 4.15115 21.6151C3.71515 21.5455 3.41755 21.1351 3.48715 20.6991C3.75035 19.0503 4.21195 17.4383 4.85995 15.9063C5.03195 15.4991 5.50075 15.3087 5.90875 15.4815C6.31595 15.6535 6.50635 16.1231 6.33355 16.5303C5.73595 17.9439 5.30955 19.4311 5.06715 20.9511C5.00475 21.3455 4.66475 21.6255 4.27835 21.6255Z" fill="#667CEC"/>
<path d="M17.6239 27.1998C17.5015 27.1998 17.3791 27.1718 17.2663 27.1158L10.8663 23.9158C10.5951 23.7798 10.4239 23.503 10.4239 23.1998L10.4239 16.7998C10.4239 16.5222 10.5679 16.2654 10.8031 16.119C11.0391 15.9718 11.3343 15.9606 11.5815 16.0838L17.9815 19.2838C18.2527 19.4198 18.4239 19.6966 18.4239 19.9998L18.4239 26.3998C18.4239 26.6774 18.2799 26.9342 18.0447 27.0806C17.9159 27.1598 17.7695 27.1998 17.6239 27.1998ZM12.0239 22.7054L16.8239 25.1054L16.8239 20.4942L12.0239 18.0942L12.0239 22.7054Z" fill="#667CEC"/>
<path d="M17.6239 27.1998C17.4775 27.1998 17.3319 27.1598 17.2031 27.0806C16.9679 26.9342 16.8239 26.6774 16.8239 26.3998L16.8239 19.9998C16.8239 19.6966 16.9951 19.4198 17.2663 19.2838L23.6663 16.0838C23.9143 15.9606 24.2087 15.9718 24.4447 16.119C24.6799 16.2654 24.8239 16.5222 24.8239 16.7998L24.8239 23.1998C24.8239 23.503 24.6527 23.7798 24.3815 23.9158L17.9815 27.1158C17.8687 27.1718 17.7463 27.1998 17.6239 27.1998ZM18.4239 20.4942L18.4239 25.1054L23.2239 22.7054L23.2239 18.0942L18.4239 20.4942Z" fill="#667CEC"/>
<path d="M17.6239 20.7999C17.5015 20.7999 17.3783 20.7719 17.2663 20.7159L10.8663 17.5159C10.5951 17.3799 10.4239 17.1031 10.4239 16.7999C10.4239 16.4967 10.5951 16.2199 10.8663 16.0839L17.2663 12.8839C17.4911 12.7711 17.7567 12.7711 17.9823 12.8839L24.3823 16.0839C24.6535 16.2199 24.8247 16.4967 24.8247 16.7999C24.8247 17.1031 24.6535 17.3799 24.3823 17.5159L17.9823 20.7159C17.8687 20.7719 17.7463 20.7999 17.6239 20.7999ZM13.0127 16.7999L17.6239 19.1055L22.2351 16.7999L17.6239 14.4943L13.0127 16.7999Z" fill="#667CEC"/>
<path d="M30.4239 27.1998C30.3015 27.1998 30.1791 27.1718 30.0663 27.1158L23.6663 23.9158C23.3951 23.7798 23.2239 23.503 23.2239 23.1998L23.2239 16.7998C23.2239 16.5222 23.3679 16.2654 23.6031 16.119C23.8391 15.9718 24.1343 15.9606 24.3815 16.0838L30.7815 19.2838C31.0527 19.4198 31.2239 19.6966 31.2239 19.9998L31.2239 26.3998C31.2239 26.6774 31.0799 26.9342 30.8447 27.0806C30.7159 27.1598 30.5695 27.1998 30.4239 27.1998ZM24.8239 22.7054L29.6239 25.1054L29.6239 20.4942L24.8239 18.0942L24.8239 22.7054Z" fill="#667CEC"/>
<path d="M30.4239 27.1998C30.2775 27.1998 30.1319 27.1598 30.0031 27.0806C29.7679 26.9342 29.6239 26.6774 29.6239 26.3998L29.6239 19.9998C29.6239 19.6966 29.7951 19.4198 30.0663 19.2838L36.4663 16.0838C36.7143 15.9606 37.0087 15.9718 37.2447 16.119C37.4799 16.2654 37.6239 16.5222 37.6239 16.7998L37.6239 23.1998C37.6239 23.503 37.4527 23.7798 37.1815 23.9158L30.7815 27.1158C30.6687 27.1718 30.5463 27.1998 30.4239 27.1998ZM31.2239 20.4942L31.2239 25.1054L36.0239 22.7054L36.0239 18.0942L31.2239 20.4942Z" fill="#667CEC"/>
<path d="M30.4239 20.7999C30.3015 20.7999 30.1783 20.7719 30.0663 20.7159L23.6663 17.5159C23.3951 17.3799 23.2239 17.1031 23.2239 16.7999C23.2239 16.4967 23.3951 16.2199 23.6663 16.0839L30.0663 12.8839C30.2911 12.7711 30.5567 12.7711 30.7823 12.8839L37.1823 16.0839C37.4535 16.2199 37.6247 16.4967 37.6247 16.7999C37.6247 17.1031 37.4535 17.3799 37.1823 17.5159L30.7823 20.7159C30.6687 20.7719 30.5463 20.7999 30.4239 20.7999ZM25.8127 16.7999L30.4239 19.1055L35.0351 16.7999L30.4239 14.4943L25.8127 16.7999Z" fill="#667CEC"/>
<path d="M24.0239 36.7997C23.9015 36.7997 23.7791 36.7717 23.6663 36.7157L17.2663 33.5157C16.9951 33.3797 16.8239 33.1029 16.8239 32.7997L16.8239 26.3997C16.8239 26.1221 16.9679 25.8653 17.2031 25.7189C17.4391 25.5717 17.7335 25.5605 17.9815 25.6837L24.3815 28.8837C24.6527 29.0197 24.8239 29.2965 24.8239 29.5997L24.8239 35.9997C24.8239 36.2773 24.6799 36.5341 24.4447 36.6805C24.3159 36.7597 24.1695 36.7997 24.0239 36.7997ZM18.4239 32.3053L23.2239 34.7053L23.2239 30.0941L18.4239 27.6941L18.4239 32.3053Z" fill="#667CEC"/>
<path d="M24.0239 36.7997C23.8775 36.7997 23.7319 36.7597 23.6031 36.6805C23.3679 36.5341 23.2239 36.2773 23.2239 35.9997L23.2239 29.5997C23.2239 29.2965 23.3951 29.0197 23.6663 28.8837L30.0663 25.6837C30.3143 25.5605 30.6087 25.5717 30.8447 25.7189C31.0799 25.8653 31.2239 26.1221 31.2239 26.3997L31.2239 32.7997C31.2239 33.1029 31.0527 33.3797 30.7815 33.5157L24.3815 36.7157C24.2687 36.7717 24.1463 36.7997 24.0239 36.7997ZM24.8239 30.0941L24.8239 34.7053L29.6239 32.3053L29.6239 27.6941L24.8239 30.0941Z" fill="#667CEC"/>
<path d="M24.0239 30.3998C23.9015 30.3998 23.7783 30.3718 23.6663 30.3158L17.2663 27.1158C16.9951 26.9798 16.8239 26.703 16.8239 26.3998C16.8239 26.0966 16.9951 25.8198 17.2663 25.6838L23.6663 22.4838C23.8911 22.371 24.1567 22.371 24.3823 22.4838L30.7823 25.6838C31.0535 25.8198 31.2247 26.0966 31.2247 26.3998C31.2247 26.703 31.0535 26.9798 30.7823 27.1158L24.3823 30.3158C24.2687 30.3718 24.1463 30.3998 24.0239 30.3998ZM19.4127 26.3998L24.0239 28.7054L28.6351 26.3998L24.0239 24.0942L19.4127 26.3998Z" fill="#667CEC"/>
</g>
<defs>
<clipPath id="clip0">
<rect width="48" height="48" fill="white" transform="translate(-6.10352e-05 -0.000244141)"/>
</clipPath>
</defs>
</svg>
