<svg width="48" height="48" viewBox="0 0 48 48" fill="none" xmlns="http://www.w3.org/2000/svg">
<g clip-path="url(#clip0)">
<path d="M19.4424 26.2543C19.4424 25.8659 19.1276 25.5511 18.7393 25.5511L2.95759 25.5511C2.10213 25.5511 1.40622 24.8552 1.40622 23.9998L1.40622 2.95738C1.40622 2.10191 2.10213 1.40601 2.95759 1.40601L24 1.40601C24.8554 1.40601 25.5513 2.10191 25.5513 2.95738L25.5513 18.7391C25.5513 19.1274 25.8662 19.4422 26.2545 19.4422C26.6428 19.4422 26.9576 19.1274 26.9576 18.7391L26.9576 2.95738C26.9576 1.32651 25.6308 -0.000244401 24 -0.000244385L2.95759 -0.000244171C1.32672 -0.000244154 -3.05041e-05 1.32651 -3.04875e-05 2.95738L-3.02736e-05 23.9998C-3.0257e-05 25.6306 1.32672 26.9574 2.95759 26.9574L18.7393 26.9574C19.1276 26.9574 19.4424 26.6426 19.4424 26.2543Z" fill="#667CEC"/>
<path d="M45.0424 21.0422L39.0303 21.0422C38.642 21.0422 38.3271 21.357 38.3271 21.7454C38.3271 22.1337 38.642 22.4485 39.0303 22.4485L45.0424 22.4485C45.8978 22.4485 46.5937 23.1444 46.5937 23.9999L46.5937 45.0422C46.5937 45.8977 45.8978 46.5936 45.0424 46.5936L24 46.5936C23.1445 46.5936 22.4486 45.8977 22.4486 45.0422L22.4486 23.9999C22.4486 23.1444 23.1445 22.4485 24 22.4485L36.0243 22.4485C36.4126 22.4485 36.7274 22.1337 36.7274 21.7454C36.7274 21.357 36.4126 21.0422 36.0243 21.0422L24 21.0422C22.3691 21.0422 21.0424 22.369 21.0424 23.9999L21.0424 45.0422C21.0424 46.6731 22.3691 47.9999 24 47.9999L45.0424 47.9999C46.6732 47.9999 48 46.6731 48 45.0422L48 23.9999C48 22.369 46.6732 21.0422 45.0424 21.0422Z" fill="#667CEC"/>
<path d="M20.2424 7.51496L14.1819 7.51496L14.1819 6.71509C14.1819 6.32678 13.8671 6.01196 13.4788 6.01196C13.0905 6.01196 12.7756 6.32678 12.7756 6.71509L12.7756 7.51496L6.71518 7.51496C6.32687 7.51496 6.01205 7.82978 6.01205 8.21809C6.01205 8.6064 6.32687 8.92121 6.71518 8.92121L17.0695 8.92121C16.6646 10.2219 15.65 12.8449 13.4754 15.463C12.1473 13.8657 11.2477 12.2599 10.6518 10.9327C10.4927 10.5785 10.0769 10.4202 9.7224 10.5792C9.36812 10.7383 9.20987 11.1543 9.36887 11.5086C10.0271 12.9748 11.0309 14.7581 12.5279 16.5223C11.4607 17.6294 10.1685 18.7028 8.6078 19.6393C8.2748 19.8391 8.1668 20.271 8.36668 20.604C8.49849 20.8237 8.73137 20.9454 8.97024 20.9454C9.09334 20.9454 9.21812 20.9131 9.33137 20.8451C10.9859 19.8524 12.3525 18.7167 13.4751 17.5632C14.6104 18.7289 15.9783 19.8565 17.626 20.8451C17.7392 20.9131 17.864 20.9454 17.9871 20.9454C18.226 20.9454 18.4589 20.8237 18.5907 20.604C18.7905 20.271 18.6825 19.8391 18.3496 19.6393C16.7862 18.7013 15.4927 17.6286 14.4233 16.5207C15.5285 15.2196 16.3392 13.9437 16.916 12.8725C17.8494 11.1391 18.3263 9.6819 18.5371 8.92112L20.2424 8.92112C20.6307 8.92112 20.9455 8.60631 20.9455 8.21799C20.9455 7.82968 20.6308 7.51496 20.2424 7.51496Z" fill="#667CEC"/>
<path d="M35.4782 27.6796C35.3218 27.2995 34.9553 27.054 34.5443 27.054C34.544 27.054 34.5437 27.054 34.5433 27.054C34.1319 27.0543 33.7655 27.3006 33.6097 27.6814C33.6076 27.6867 33.6055 27.692 33.6035 27.6973L28.524 41.034C28.3858 41.3969 28.5679 41.8031 28.9308 41.9413C29.0132 41.9727 29.0977 41.9875 29.1809 41.9875C29.4642 41.9875 29.7313 41.815 29.8381 41.5344L30.9306 38.6657L38.1214 38.6657L39.2032 41.5324C39.3404 41.8957 39.7459 42.0792 40.1093 41.942C40.4726 41.805 40.6561 41.3992 40.5189 41.0359L35.4857 27.6987C35.4833 27.6924 35.4808 27.686 35.4782 27.6796ZM31.4663 37.2597L34.5426 29.1826L37.5907 37.2597L31.4663 37.2597Z" fill="#667CEC"/>
<path d="M19.1613 38.4676L16.1553 36.2131C15.8447 35.9801 15.4039 36.0431 15.1709 36.3537C14.9379 36.6643 15.0009 37.1051 15.3115 37.3381L16.63 38.3269L14.2303 38.3269C11.7172 38.3269 9.67282 36.2824 9.67282 33.7695L9.67282 29.2607C9.67282 28.8724 9.35801 28.5576 8.9697 28.5576C8.58138 28.5576 8.26657 28.8724 8.26657 29.2607L8.26657 33.7695C8.26657 37.0579 10.9419 39.7332 14.2303 39.7332L16.63 39.7332L15.3115 40.7221C15.0009 40.955 14.9379 41.3958 15.1709 41.7064C15.3091 41.8906 15.5202 41.9877 15.7339 41.9877C15.8808 41.9877 16.0288 41.9418 16.1553 41.8471L19.1613 39.5926C19.3384 39.4597 19.4425 39.2514 19.4425 39.0301C19.4425 38.8087 19.3384 38.6003 19.1613 38.4676Z" fill="#667CEC"/>
<path d="M28.8387 9.53188L31.8447 11.7864C31.9712 11.8813 32.1192 11.927 32.266 11.927C32.4797 11.927 32.691 11.8299 32.8291 11.6458C33.062 11.3352 32.999 10.8944 32.6884 10.6614L31.3699 9.67251L33.7697 9.67251C36.2827 9.67251 38.3271 11.717 38.3271 14.23L38.3271 18.7387C38.3271 19.127 38.6419 19.4418 39.0302 19.4418C39.4186 19.4418 39.7334 19.127 39.7334 18.7387L39.7334 14.23C39.7334 10.9415 37.058 8.26626 33.7697 8.26626L31.3699 8.26626L32.6884 7.27738C32.999 7.04441 33.062 6.6036 32.8291 6.29301C32.596 5.98232 32.1554 5.91941 31.8447 6.15238L28.8387 8.40688C28.6616 8.53973 28.5574 8.74804 28.5574 8.96938C28.5574 9.19073 28.6616 9.39913 28.8387 9.53188Z" fill="#667CEC"/>
</g>
<defs>
<clipPath id="clip0">
<rect width="48" height="48" fill="white" transform="translate(-3.05176e-05 -0.000244141)"/>
</clipPath>
</defs>
</svg>
