<svg width="48" height="48" viewBox="0 0 48 48" fill="none" xmlns="http://www.w3.org/2000/svg">
<g clip-path="url(#clip0)">
<path d="M47.5426 23.5542C47.5426 10.5663 36.9764 0 23.9884 0C11.0004 0 0.434143 10.5667 0.434143 23.5542C0.434143 36.5418 11.0004 47.1085 23.9884 47.1085C26.7169 47.1076 29.4241 46.6301 31.9887 45.6984L45.0861 47.9897C45.334 48.033 45.5854 47.9375 45.7418 47.7405C45.8981 47.5435 45.9343 47.2769 45.8356 47.0455L42.1923 38.4784C45.6636 34.2813 47.5569 29.0011 47.5426 23.5542ZM40.8742 37.9156C40.7058 38.1135 40.6634 38.3895 40.7653 38.6289L44.0789 46.4202L32.0436 44.3156C32.0048 44.3085 31.965 44.3053 31.9257 44.3053C31.8444 44.3053 31.7636 44.3196 31.6872 44.3478C29.224 45.2652 26.6169 45.7351 23.9884 45.7364C11.757 45.7364 1.80624 35.7856 1.80624 23.5542C1.80624 11.3229 11.757 1.37209 23.9884 1.37209C36.2197 1.37209 46.1705 11.3229 46.1705 23.5542C46.1844 28.8215 44.3049 33.9186 40.8742 37.9156Z" fill="#667CEC"/>
<path d="M40.8354 15.1176C40.8354 13.419 39.5223 12.009 37.8277 11.8879C36.1331 11.7669 34.6333 12.9764 34.3925 14.658C34.1514 16.3396 35.251 17.9216 36.9116 18.2816V21.4492C36.5105 21.3121 36.096 21.2197 35.6749 21.1737C35.3408 19.1915 33.6257 17.7394 31.6158 17.7367H27.5102V16.0046C27.5093 15.1792 26.8407 14.5106 26.0157 14.5097H22.0888V12.8259C22.0888 12.4467 21.7815 12.1398 21.4028 12.1398C21.024 12.1398 20.7167 12.4467 20.7167 12.8259V14.5097H16.8577C16.0328 14.5111 15.3646 15.1792 15.3637 16.0042V17.7363H11.2577C8.98561 17.739 7.1441 19.5805 7.14142 21.8526V32.0039C7.1441 34.2764 8.98561 36.1179 11.2577 36.1202H31.6158C33.6257 36.1175 35.3408 34.6655 35.6749 32.6832C38.0894 32.4202 40.0832 30.6769 40.6661 28.3186C41.249 25.9608 40.2976 23.4895 38.2833 22.1313V18.2816C39.7715 17.9574 40.8332 16.6407 40.8354 15.1176ZM16.7358 16.0046C16.7358 15.972 16.7483 15.9408 16.7715 15.918C16.7943 15.8948 16.8251 15.8818 16.8577 15.8818H26.0157C26.0827 15.8818 26.1377 15.9368 26.1377 16.0042V17.7363H16.7358V16.0046ZM31.6158 34.7481H11.2577C9.74312 34.7467 8.5153 33.5189 8.51351 32.0039V21.853C8.5153 20.3384 9.74312 19.1106 11.2577 19.1088H31.6158C33.1303 19.1106 34.3582 20.3384 34.3599 21.853V32.0039C34.3582 33.5189 33.1303 34.7463 31.6158 34.7481ZM39.4633 26.9287C39.4606 29.1025 37.8791 30.9525 35.732 31.2928V22.5645C37.8786 22.9053 39.4602 24.7549 39.4633 26.9287ZM35.732 15.1176C35.732 14.0872 36.5673 13.252 37.5977 13.252C38.6281 13.2524 39.4633 14.0876 39.4633 15.1181C39.4633 16.1485 38.6281 16.9837 37.5977 16.9837C36.5677 16.9823 35.7329 16.1476 35.732 15.1176Z" fill="#667CEC"/>
<path d="M14.1256 23.8182H14.0952C12.833 23.82 11.8098 24.8428 11.8084 26.105V27.4673C11.8084 27.846 12.1157 28.1533 12.4945 28.1533H15.7264C16.1056 28.1533 16.4124 27.846 16.4124 27.4673V26.105C16.4111 24.8428 15.3883 23.82 14.1256 23.8182ZM15.0403 26.7812H13.1805V26.105C13.1809 25.6003 13.5901 25.1912 14.0952 25.1903H14.1256C14.6308 25.1912 15.0399 25.6003 15.0403 26.105V26.7812Z" fill="#667CEC"/>
<path d="M28.7782 23.8182H28.7474C27.4852 23.82 26.4624 24.8428 26.4606 26.105V27.4673C26.4606 27.846 26.7679 28.1533 27.1466 28.1533H30.379C30.7577 28.1533 31.065 27.846 31.065 27.4673V26.105C31.0637 24.8428 30.0404 23.82 28.7782 23.8182ZM29.6929 26.7812H27.8327V26.105C27.8336 25.6003 28.2427 25.1912 28.7474 25.1903H28.7782C29.2834 25.1912 29.6925 25.6003 29.6929 26.105V26.7812Z" fill="#667CEC"/>
<path d="M24.6686 29.3611H18.2048C17.8256 29.3611 17.5187 29.6684 17.5187 30.0471V30.0779C17.521 32.2241 19.2602 33.9633 21.4063 33.9655H21.4671C23.6132 33.9633 25.3524 32.2241 25.3547 30.0779V30.0471C25.3547 29.6684 25.0478 29.3611 24.6686 29.3611ZM21.4671 32.5935H21.4063C20.2696 32.5921 19.2749 31.8301 18.977 30.7332H23.8964C23.5985 31.8301 22.6038 32.5921 21.4671 32.5935Z" fill="#667CEC"/>
</g>
<defs>
<clipPath id="clip0">
<rect width="48" height="48" fill="white"/>
</clipPath>
</defs>
</svg>
