<svg width="45" height="45" viewBox="0 0 45 45" fill="none" xmlns="http://www.w3.org/2000/svg">
<g clip-path="url(#clip0)">
<path d="M44.3395 43.6791H40.0685V19.682C40.0685 19.3171 39.7728 19.0215 39.408 19.0215H32.3629C31.9981 19.0215 31.7024 19.3171 31.7024 19.682V43.679H26.6828V32.7443C26.6828 32.3794 26.3871 32.0838 26.0223 32.0838C25.6575 32.0838 25.3618 32.3794 25.3618 32.7443V43.6791H19.6378V25.274H25.3618V29.5449C25.3618 29.9097 25.6575 30.2054 26.0223 30.2054C26.3871 30.2054 26.6828 29.9097 26.6828 29.5449V24.6135C26.6828 24.2487 26.3871 23.953 26.0223 23.953H18.9773C18.6125 23.953 18.3168 24.2487 18.3168 24.6135V43.6791H13.2971V15.455C13.2971 15.0901 13.0014 14.7945 12.6367 14.7945H5.59195C5.22721 14.7945 4.93146 15.0901 4.93146 15.455V43.679H1.32091V0.660498C1.32091 0.295664 1.02524 0 0.660498 0C0.295752 0 0 0.295664 0 0.660498V44.3396C0 44.7043 0.295752 45 0.660498 45H44.3396C44.7044 45 45.0001 44.7043 45.0001 44.3395C45 43.9747 44.7043 43.6791 44.3395 43.6791ZM11.9765 43.6791H6.25245V16.1154H11.9765V43.6791ZM38.7475 43.6791H33.0235V20.3425H38.7475V43.6791Z" fill="#667CEC"/>
<path d="M35.8855 11.272C34.7444 11.272 33.816 12.2004 33.816 13.3414C33.816 13.4264 33.8217 13.5101 33.8317 13.5925L24.366 17.3788C24.0318 16.6842 23.321 16.2035 22.5 16.2035C21.9589 16.2035 21.4659 16.4125 21.0967 16.7537L11.1541 9.46248C11.1734 9.34918 11.184 9.23317 11.184 9.11452C11.184 7.97343 10.2556 7.04504 9.11452 7.04504C7.97343 7.04504 7.04504 7.97335 7.04504 9.11443C7.04504 10.2555 7.97343 11.1839 9.11452 11.1839C9.65566 11.1839 10.1486 10.9749 10.5178 10.6337L20.4604 17.9249C20.4412 18.0382 20.4305 18.1542 20.4305 18.2729C20.4305 19.414 21.3589 20.3424 22.5 20.3424C23.4798 20.3424 24.3022 19.6577 24.5152 18.7417L34.4054 14.7857C34.7814 15.171 35.3059 15.4108 35.8856 15.4108C37.0266 15.4108 37.955 14.4824 37.955 13.3414C37.955 12.2003 37.0266 11.272 35.8855 11.272ZM9.11452 9.86299C8.70178 9.86299 8.36595 9.52725 8.36595 9.11443C8.36595 8.70161 8.70169 8.36586 9.11452 8.36586C9.52734 8.36586 9.86308 8.70161 9.86308 9.11443C9.86308 9.52725 9.52725 9.86299 9.11452 9.86299ZM22.5 19.0215C22.0873 19.0215 21.7514 18.6858 21.7514 18.273C21.7514 17.8602 22.0872 17.5244 22.5 17.5244C22.9128 17.5244 23.2486 17.8602 23.2486 18.273C23.2486 18.6858 22.9127 19.0215 22.5 19.0215ZM35.8855 14.09C35.4727 14.09 35.1369 13.7543 35.1369 13.3414C35.1369 12.9286 35.4727 12.5929 35.8855 12.5929C36.2982 12.5929 36.634 12.9286 36.634 13.3414C36.634 13.7543 36.2983 14.09 35.8855 14.09Z" fill="#667CEC"/>
</g>
<defs>
<clipPath id="clip0">
<rect width="45" height="45" fill="white"/>
</clipPath>
</defs>
</svg>
