<svg width="48" height="48" viewBox="0 0 48 48" fill="none" xmlns="http://www.w3.org/2000/svg">
<g clip-path="url(#clip0)">
<path d="M42.372 16.7157C42.7604 16.7157 43.0752 16.401 43.0752 16.0126V9.22007C43.0752 7.83129 41.9926 6.68805 40.6105 6.61745C32.2715 6.19284 27.7896 2.78253 25.8603 0.787535C25.3692 0.279669 24.7085 0 23.9999 0C23.2914 0 22.6307 0.279669 22.1398 0.787442C20.2103 2.78244 15.7284 6.19275 7.38923 6.61745C6.00729 6.68805 4.92471 7.8312 4.92471 9.22007V28.8242C4.92471 34.4701 7.96244 39.7314 12.8527 42.5549L20.8076 47.1469C21.7923 47.7157 22.896 48.0001 24 48.0001C25.1038 48.0001 26.2079 47.7157 27.1923 47.147L35.1474 42.555C40.0375 39.7315 43.0753 34.4702 43.0753 28.8243V19.2941C43.0753 18.9057 42.7605 18.591 42.3721 18.591C41.9838 18.591 41.669 18.9057 41.669 19.2941V28.8243C41.669 33.9694 38.9006 38.7641 34.4443 41.3372L26.489 45.9293C24.9538 46.8161 23.0462 46.816 21.5108 45.9292L13.5557 41.3372C9.0994 38.7641 6.33103 33.9694 6.33103 28.8243V9.22007C6.33103 8.58067 6.82736 8.05433 7.46086 8.02199C16.2817 7.57281 21.0772 3.90908 23.1507 1.76511C23.3743 1.53382 23.6759 1.40641 23.9999 1.40641C24.324 1.40641 24.6256 1.53382 24.8493 1.7652C26.9226 3.90908 31.7181 7.57281 40.5388 8.02199C41.1725 8.05442 41.6689 8.58067 41.6689 9.22007V16.0126C41.6689 16.401 41.9837 16.7157 42.372 16.7157Z" fill="#667CEC"/>
<path d="M9.41647 18.5909C9.02814 18.5909 8.71332 18.9056 8.71332 19.294V28.8241C8.71332 33.1207 11.025 37.125 14.7464 39.2744L22.7017 43.8666C23.0966 44.0944 23.5455 44.2147 23.9999 44.2147C24.4544 44.2147 24.9033 44.0944 25.2984 43.8664L33.2537 39.2744C36.975 37.125 39.2867 33.1207 39.2867 28.8241V11.8115C39.2867 10.9814 38.6672 10.278 37.8462 10.1753C31.5395 9.38204 27.3907 6.98606 25.0199 5.1151C24.4194 4.64268 23.5806 4.64268 22.9793 5.11576C20.6094 6.98606 16.4605 9.38204 10.1544 10.1752C9.33294 10.278 8.71341 10.9814 8.71341 11.8115V16.0126C8.71341 16.401 9.02824 16.7158 9.41657 16.7158C9.8049 16.7158 10.1197 16.401 10.1197 16.0126V11.8115C10.1197 11.6891 10.2095 11.5855 10.3294 11.5706C16.957 10.737 21.3404 8.20074 23.8497 6.22047C23.9381 6.15081 24.0616 6.15071 24.1495 6.21981C26.6596 8.20074 31.0429 10.7371 37.6713 11.5707C37.7904 11.5855 37.8803 11.6891 37.8803 11.8115V28.8241C37.8803 32.6201 35.838 36.1578 32.5505 38.0566L24.5957 42.6485C24.2326 42.8579 23.7672 42.8577 23.4047 42.6487L15.4497 38.0567C12.1622 36.1578 10.1197 32.6201 10.1197 28.8241V19.294C10.1196 18.9056 9.8049 18.5909 9.41647 18.5909Z" fill="#667CEC"/>
<path d="M15.4763 22.35C16.0473 22.35 16.5841 22.5723 16.9878 22.976L20.662 26.6493C20.9367 26.924 21.3818 26.9238 21.6564 26.6493L25.6812 22.6245C25.9559 22.3498 25.9559 21.9046 25.6812 21.63C25.4066 21.3555 24.9614 21.3555 24.6869 21.63L21.1592 25.1578L17.9822 21.9817C17.313 21.3124 16.4231 20.9438 15.4764 20.9438C14.5297 20.9438 13.6397 21.3125 12.9705 21.9816C12.3008 22.6514 11.932 23.5416 11.932 24.4883C11.932 25.4353 12.3009 26.3253 12.9705 26.9943L18.6525 32.6763C19.3213 33.3463 20.2115 33.7152 21.1593 33.7152C22.1064 33.7152 22.9963 33.3462 23.6647 32.6768L35.0293 21.312C35.6992 20.6427 36.0681 19.7527 36.0681 18.8059C36.0681 17.859 35.6993 16.9688 35.0296 16.2991C34.3604 15.6299 33.4704 15.2615 32.5237 15.2615C31.577 15.2615 30.6871 15.63 30.0178 16.2991L27.0074 19.3095C26.7328 19.5842 26.7328 20.0293 27.0074 20.304C27.282 20.5785 27.7272 20.5785 28.0018 20.304L31.0122 17.2935C31.4158 16.8899 31.9526 16.6677 32.5237 16.6677C33.0948 16.6677 33.6315 16.8899 34.0352 17.2936C34.4393 17.6977 34.6619 18.2347 34.6619 18.8059C34.6619 19.3769 34.4394 19.9136 34.0352 20.3174L22.6699 31.6828C22.2667 32.0866 21.7303 32.309 21.1593 32.309C20.5877 32.309 20.0508 32.0866 19.6473 31.6823L13.9647 25.9997C13.5608 25.5961 13.3383 25.0594 13.3383 24.4883C13.3383 23.9171 13.5609 23.3801 13.965 22.976C14.3685 22.5723 14.9052 22.35 15.4763 22.35Z" fill="#667CEC"/>
</g>
<defs>
<clipPath id="clip0">
<rect width="48" height="48" fill="white"/>
</clipPath>
</defs>
</svg>
