<svg width="48" height="48" viewBox="0 0 48 48" fill="none" xmlns="http://www.w3.org/2000/svg">
<g clip-path="url(#clip0)">
<path d="M41.677 17.9194H19.3645C18.9762 17.9194 18.6614 18.2342 18.6614 18.6226C18.6614 19.0109 18.9762 19.3257 19.3645 19.3257H41.677C42.0653 19.3257 42.3801 19.0109 42.3801 18.6226C42.3801 18.2342 42.0653 17.9194 41.677 17.9194Z" fill="#667CEC"/>
<path d="M41.677 23.2944H19.3645C18.9762 23.2944 18.6614 23.6092 18.6614 23.9976C18.6614 24.3859 18.9762 24.7007 19.3645 24.7007H41.677C42.0653 24.7007 42.3801 24.3859 42.3801 23.9976C42.3801 23.6092 42.0653 23.2944 41.677 23.2944Z" fill="#667CEC"/>
<path d="M41.677 28.6694H19.3645C18.9762 28.6694 18.6614 28.9842 18.6614 29.3726C18.6614 29.7609 18.9762 30.0757 19.3645 30.0757H41.677C42.0653 30.0757 42.3801 29.7609 42.3801 29.3726C42.3801 28.9842 42.0653 28.6694 41.677 28.6694Z" fill="#667CEC"/>
<path d="M43.9104 11.7703H17.1311C14.8762 11.7703 13.0416 13.6048 13.0416 15.8598V32.6989C13.0416 34.9539 14.8761 36.7885 17.1311 36.7885H35.9009C36.1016 36.7885 36.2881 36.8788 36.4126 37.0364L42.474 44.7101C42.7129 45.0125 43.0614 45.1773 43.4264 45.1773C43.5621 45.1773 43.7001 45.1545 43.8354 45.1075C44.3348 44.934 44.6575 44.4804 44.6575 43.9517V36.7186C46.5536 36.3645 48 34.6881 48 32.6989V15.8597C48 13.6048 46.1655 11.7703 43.9104 11.7703ZM46.5938 32.6989C46.5938 34.1593 45.4057 35.3625 43.9453 35.3811C43.5606 35.3861 43.2512 35.6994 43.2512 36.0842V43.4253L37.5161 36.1647C37.1234 35.6673 36.5347 35.3821 35.9009 35.3821H17.1311C15.6516 35.3821 14.4478 34.1784 14.4478 32.6988V15.8597C14.4478 14.3802 15.6515 13.1764 17.1311 13.1764H43.9104C45.39 13.1764 46.5938 14.3802 46.5938 15.8597V32.6989Z" fill="#667CEC"/>
<path d="M10.3588 23.3963C9.87788 23.4645 9.44719 23.7121 9.14606 24.0933L4.31597 30.2083V24.0797C4.31597 23.6949 4.00659 23.3816 3.62184 23.3766C2.40019 23.361 1.40625 22.3544 1.40625 21.1327V6.47385C1.40625 5.23607 2.41331 4.229 3.65109 4.229H26.9632C28.201 4.229 29.2081 5.23607 29.2081 6.47385V9.18622C29.2081 9.57453 29.5229 9.88935 29.9112 9.88935C30.2995 9.88935 30.6143 9.57453 30.6143 9.18622V6.47385C30.6143 4.46066 28.9764 2.82275 26.9632 2.82275H3.65109C1.63791 2.82275 0 4.46066 0 6.47385V21.1327C0 22.8827 1.25353 24.3613 2.90981 24.7068V30.9286C2.90981 31.4281 3.21469 31.8568 3.68663 32.0207C3.81459 32.0652 3.94491 32.0867 4.07316 32.0867C4.41787 32.0867 4.74741 31.9309 4.97306 31.6453L10.2497 24.965C10.3258 24.8685 10.4348 24.8059 10.5565 24.7886C10.941 24.734 11.2085 24.378 11.1538 23.9936C11.0992 23.6091 10.7438 23.3414 10.3588 23.3963Z" fill="#667CEC"/>
</g>
<defs>
<clipPath id="clip0">
<rect width="48" height="48" fill="white"/>
</clipPath>
</defs>
</svg>
