<svg width="48" height="48" viewBox="0 0 48 48" fill="none" xmlns="http://www.w3.org/2000/svg">
<g clip-path="url(#clip0)">
<path d="M47.379 12.5696C46.807 10.4011 45.5711 8.46581 43.8446 7.03476C40.5057 4.18696 37.3748 3.01041 33.7053 3.21254C31.7898 3.35279 29.8886 3.6472 28.0203 4.09248C25.7452 4.46709 23.6536 5.5704 22.0599 7.23653C20.9987 8.46691 20.1931 9.89576 19.6889 11.44C19.4545 12.1705 19.2641 12.9142 19.1184 13.6671L19.1008 13.752C18.9803 14.2387 18.8159 14.7136 18.6098 15.171C18.4882 15.4628 18.3699 15.7551 18.2612 16.0612C18.1246 16.4164 18.0715 16.7983 18.1059 17.1773C18.2212 17.7632 18.5365 18.2909 18.9975 18.6699C19.2176 18.8907 19.4256 19.0994 19.4289 19.2459C19.4055 19.318 19.3769 19.3883 19.3432 19.4564C18.9269 20.3236 18.3882 21.1266 17.7434 21.841C17.461 22.1816 17.1586 22.5456 16.8034 23.019C16.2988 23.5452 16.0143 24.2443 16.0091 24.9734C16.1303 25.5058 16.4555 25.9694 16.9147 26.2645C17.1157 26.418 17.3299 26.5538 17.5548 26.6703C17.7793 26.7739 17.9847 26.9141 18.1634 27.0851C18.1974 27.277 18.1784 27.4748 18.1081 27.6564C18.0217 27.8523 17.9338 28.0211 17.8569 28.1676C17.6266 28.6099 17.2417 29.3507 17.8616 29.9275C18.0425 30.097 18.1876 30.2321 21.1822 30.8923C19.7361 31.4808 18.9584 32.0737 18.8712 32.657C18.8372 32.9686 18.9595 33.2769 19.1986 33.4802C19.2784 33.5439 19.3081 33.5743 19.3095 33.5743C19.3319 33.6534 19.3498 33.7336 19.3634 33.8145C19.3831 33.9185 19.408 34.0382 19.4432 34.1785C19.4681 34.415 19.4469 34.6538 19.3809 34.8823C19.3458 35.0613 19.3114 35.2408 19.2931 35.4015C19.2268 35.9955 19.2945 36.5968 19.4912 37.1614C19.7486 38.2241 20.6824 38.9854 21.7751 39.0227C21.9516 39.0224 22.1277 39.0026 22.2998 38.9638C23.3452 38.6514 24.3519 38.2222 25.3003 37.6836C25.9126 37.3716 26.5387 37.0549 27.1122 36.8095C28.2426 37.8037 29.696 41.6091 30.4265 44.209C30.5265 44.5514 30.841 44.7861 31.1977 44.7846L45.8285 44.7447C46.0783 44.744 46.3134 44.6268 46.4639 44.4276C46.6147 44.2284 46.6638 43.9702 46.5964 43.7296C46.4525 43.2888 46.2493 42.8691 45.9926 42.4824C45.8556 42.2667 45.733 42.0423 45.6246 41.8105C45.3726 41.2619 44.039 37.462 43.8592 36.8205C43.5245 35.5985 43.2957 34.3502 43.1744 33.0887C43.1217 32.5922 43.1041 32.0923 43.1206 31.5929C45.0662 30.9348 46.6363 29.4741 47.4328 27.581C48.2292 25.6878 48.1758 23.5441 47.286 21.6931C47.7433 20.5103 47.9839 19.2547 47.9964 17.9869C48.0304 16.1619 47.8228 14.3401 47.379 12.5696ZM40.7968 30.3859C38.532 30.3859 36.4901 29.0215 35.6234 26.9291C34.757 24.8368 35.236 22.4284 36.8373 20.8267C38.439 19.2254 40.8474 18.7464 42.9397 19.6128C45.0321 20.4796 46.3965 22.5214 46.3965 24.7862C46.3928 27.8776 43.8881 30.3823 40.7968 30.3859ZM40.7968 17.5867C36.8208 17.5867 33.5973 20.8102 33.5973 24.7862C33.5973 28.7623 36.8208 31.9858 40.7968 31.9858C41.037 31.9858 41.2769 31.973 41.5167 31.9499C41.5175 32.3893 41.5413 32.8287 41.5881 33.2656C41.7196 34.6146 41.966 35.9497 42.3249 37.2566C42.5047 37.8963 43.8687 41.8105 44.1686 42.4634C44.2752 42.6992 44.3964 42.9284 44.5319 43.1489L31.7975 43.1848C31.3226 41.5977 30.1504 38.0454 28.6963 36.1936L29.024 36.0687C29.4393 35.9087 29.7513 35.7912 29.9146 35.7359C32.5046 34.8446 33.7998 33.556 33.7654 31.9067C33.7562 31.4713 33.4006 31.1234 32.9656 31.1234L32.948 31.1234C32.5064 31.1329 32.156 31.4987 32.1655 31.94C32.1783 32.5416 31.7081 33.4263 29.3961 34.2217C29.2265 34.2799 28.8948 34.4055 28.4539 34.5736C28.0324 34.7336 27.5066 34.935 26.9284 35.1489L26.9236 35.1489C26.1235 35.4755 25.3409 35.8424 24.5782 36.2485C23.7455 36.7202 22.8666 37.1043 21.9552 37.395C21.3799 37.5228 21.1232 36.9948 21.0192 36.6663C20.8944 36.3225 20.8486 35.9548 20.8849 35.5912C20.8999 35.4576 20.9273 35.3246 20.9537 35.191C21.0731 34.7395 21.0903 34.2671 21.0046 33.8079C20.9768 33.6871 20.9559 33.5856 20.9383 33.4977C20.9039 33.2857 20.8438 33.0788 20.7593 32.8818C21.1595 32.6508 21.578 32.453 22.0101 32.2897C22.637 32.0488 23.0314 31.4248 22.9802 30.755C22.9289 30.0853 22.4441 29.5287 21.7879 29.3859C20.4919 29.1028 19.7519 28.9212 19.3344 28.8099C19.4146 28.6586 19.4945 28.4902 19.5794 28.3038C19.7779 27.8333 19.8368 27.3155 19.7497 26.8127C19.5476 26.1034 19.0235 25.5307 18.3355 25.2663C18.1747 25.1828 18.0213 25.0865 17.877 24.9774C17.7833 24.9034 17.6947 24.8232 17.6115 24.7375C17.7386 24.4501 17.9063 24.182 18.1099 23.9422C18.4234 23.5247 18.7112 23.1791 18.9785 22.8568C19.7171 22.0329 20.3323 21.1061 20.8047 20.1057C20.9508 19.834 21.028 19.5304 21.0302 19.2221C20.9764 18.5589 20.6512 17.9478 20.132 17.5325C19.9273 17.3278 19.7153 17.1147 19.6962 16.9726C19.6999 16.8357 19.727 16.7005 19.7761 16.5724C19.8698 16.3036 19.9793 16.0396 20.088 15.7726C20.3345 15.2256 20.5286 14.6565 20.6673 14.0728L20.6838 13.9926C20.816 13.3016 20.9892 12.6194 21.2023 11.9489C21.6407 10.6029 22.3412 9.3571 23.264 8.28345C24.6342 6.88097 26.4208 5.95819 28.3579 5.65242C30.1438 5.22582 31.9608 4.94276 33.7917 4.80544C37.0196 4.62711 39.8026 5.68538 42.8031 8.245C44.2854 9.45853 45.3445 11.1111 45.8278 12.9647C46.2379 14.6005 46.4295 16.2838 46.3965 17.9701C46.3881 18.6494 46.3046 19.3257 46.1468 19.9867C44.7868 18.4612 42.8405 17.5882 40.7968 17.5867Z" fill="#667CEC"/>
<path d="M0.80005 32.7855L2.39991 32.7855C2.75693 32.7859 3.07112 32.5493 3.16926 32.2058L3.9485 29.4778L5.62342 36.1797C5.70984 36.525 6.0134 36.7718 6.36897 36.7853L6.39936 36.7853C6.74357 36.785 7.04897 36.5649 7.15773 36.2383L8.2409 32.9906L8.93372 34.0305C9.11132 34.2975 9.43136 34.4326 9.74664 34.3737C10.0619 34.3147 10.3117 34.073 10.3809 33.7599L11.1575 30.2596L12.0152 34.5454C12.0785 34.8625 12.3268 35.11 12.6439 35.173C12.961 35.236 13.2851 35.1016 13.4645 34.8328L14.8267 32.7855L16.7986 32.7855C17.2406 32.7855 17.5987 32.4274 17.5987 31.9858C17.5987 31.5438 17.2406 31.1857 16.7986 31.1857L14.399 31.1857C14.1313 31.1857 13.8816 31.3193 13.7333 31.542L13.2045 32.3355L11.9829 26.2261C11.9079 25.857 11.5849 25.5904 11.2077 25.5863L11.1989 25.5863C10.824 25.586 10.4988 25.8463 10.4175 26.2125L9.22483 31.5859L8.66494 30.7451C8.4954 30.491 8.19586 30.3559 7.89339 30.3965C7.59056 30.4372 7.33752 30.6466 7.24085 30.9363L6.50995 33.1297L4.7757 26.1916C4.68782 25.8408 4.3751 25.5926 4.01331 25.5863C3.64932 25.5746 3.32525 25.8148 3.23004 26.166L1.79644 31.1857L0.80005 31.1857C0.358066 31.1857 -6.09746e-05 31.5438 -6.09701e-05 31.9858C-6.09656e-05 32.4274 0.358066 32.7855 0.80005 32.7855Z" fill="#667CEC"/>
<path d="M42.5721 22.6865L39.9322 25.9884L38.9641 25.0206C38.6502 24.7174 38.1515 24.7218 37.8428 25.0305C37.5341 25.3388 37.5301 25.8379 37.8333 26.1517L39.4331 27.7516C39.5825 27.9014 39.7854 27.9856 39.9971 27.986L40.0417 27.986C40.2688 27.9731 40.4797 27.8644 40.6218 27.6868L43.8215 23.6873C44.0002 23.464 44.0459 23.1626 43.942 22.896C43.838 22.6298 43.5999 22.4394 43.3172 22.3962C43.0345 22.353 42.7504 22.4639 42.5721 22.6873L42.5721 22.6865Z" fill="#667CEC"/>
</g>
<defs>
<clipPath id="clip0">
<rect width="48" height="48" fill="white" transform="translate(-6.10352e-05 -0.000244141)"/>
</clipPath>
</defs>
</svg>
